<svg preserveAspectRatio="none" width="100%" height="100%" overflow="visible" style="display: block;" viewBox="0 0 34 38" fill="none" xmlns="http://www.w3.org/2000/svg">
<g id="Vector">
<path d="M33.4349 14.4984C33.1335 14.4984 32.8792 14.7456 32.8792 15.0593V35.7943C32.8792 36.3933 32.3989 36.8782 31.8055 36.8782H14.118C13.8166 36.8782 13.5623 37.1253 13.5623 37.4391C13.5623 37.7528 13.8072 38 14.118 38H31.815C33.0111 38 33.9906 37.0113 33.9906 35.8039V15.0593C33.9906 14.7551 33.7457 14.4984 33.4349 14.4984Z" fill="var(--fill-0, #0D3442)"/>
<path d="M27.897 2.59545V2.1391C27.897 0.96022 26.9457 0 25.7778 0C24.61 0 23.6587 0.96022 23.6587 2.1391V2.59545H10.3319V2.1391C10.3319 0.96022 9.38061 0 8.21274 0C7.04488 0 6.09363 0.96022 6.09363 2.1391V2.59545H2.17562C0.979501 2.59545 0 3.58419 0 4.79159V35.7848C0 36.9922 0.979501 37.981 2.17562 37.981H11.3961C11.6975 37.981 11.9518 37.7338 11.9518 37.4201C11.9518 37.1063 11.7069 36.8591 11.3961 36.8591H2.17562C1.58227 36.8591 1.10194 36.3743 1.10194 35.7753V10.3818H32.8886V12.3117C32.8886 12.616 33.1335 12.8727 33.4443 12.8727C33.7551 12.8727 34 12.6255 34 12.3117V4.79159C34 3.58419 33.0205 2.59545 31.8244 2.59545H27.897ZM7.19557 2.1391C7.19557 1.56868 7.64765 1.11233 8.21274 1.11233C8.77784 1.11233 9.22992 1.56868 9.22992 2.1391V4.94371C9.22992 5.24794 9.47479 5.50463 9.7856 5.50463C10.0964 5.50463 10.3413 5.25744 10.3413 4.94371V3.70778H23.6681V9.26945H10.3413V7.69127C10.3413 7.38704 10.0964 7.13035 9.7856 7.13035C9.47479 7.13035 9.22992 7.37753 9.22992 7.69127V9.26945H7.19557V2.1391ZM1.10194 4.79159C1.10194 4.19264 1.58227 3.70778 2.17562 3.70778H6.09363V9.26945H1.10194V4.79159ZM24.7607 9.26945V2.1391C24.7607 1.56868 25.2127 1.11233 25.7778 1.11233C26.3429 1.11233 26.795 1.56868 26.795 2.1391V9.25994H24.7607V9.26945ZM27.897 9.26945V3.70778H31.815C32.4083 3.70778 32.8886 4.19264 32.8886 4.79159V9.26945H27.897Z" fill="var(--fill-0, #0D3442)"/>
<path d="M11.2266 14.6885H10.1623V13.6142C10.1623 12.9867 9.65374 12.4734 9.03213 12.4734H6.75291C6.1313 12.4734 5.62271 12.9867 5.62271 13.6142V14.6885H4.55845C3.93684 14.6885 3.42826 15.2019 3.42826 15.8294V18.1301C3.42826 18.7576 3.93684 19.271 4.55845 19.271H5.62271V20.3453C5.62271 20.9727 6.1313 21.4861 6.75291 21.4861H9.03213C9.65374 21.4861 10.1623 20.9727 10.1623 20.3453V19.271H11.2266C11.8482 19.271 12.3568 18.7576 12.3568 18.1301V15.8294C12.3568 15.2019 11.8482 14.6885 11.2266 14.6885ZM11.2643 18.1396C11.2643 18.1396 11.2548 18.1681 11.236 18.1681H9.62549C9.3241 18.1681 9.06981 18.4153 9.06981 18.729V20.3548C9.06981 20.3548 9.06039 20.3833 9.04155 20.3833H6.76233C6.76233 20.3833 6.73407 20.3738 6.73407 20.3548V18.729C6.73407 18.4248 6.4892 18.1681 6.17839 18.1681H4.56787C4.56787 18.1681 4.53961 18.1586 4.53961 18.1396V15.8389C4.53961 15.8389 4.54903 15.8104 4.56787 15.8104H6.17839C6.47978 15.8104 6.73407 15.5632 6.73407 15.2494V13.6237C6.73407 13.6237 6.74349 13.5952 6.76233 13.5952H9.04155C9.04155 13.5952 9.06981 13.6047 9.06981 13.6237V15.2494C9.06981 15.5537 9.31468 15.8104 9.62549 15.8104H11.236C11.236 15.8104 11.2643 15.8199 11.2643 15.8389V18.1396Z" fill="var(--fill-0, #0D3442)"/>
<path d="M16.595 16.1621H17.3485C18.3562 16.1621 19.1756 15.335 19.1756 14.3177C19.1756 13.3005 18.3562 12.4734 17.3485 12.4734H16.595C15.5873 12.4734 14.7679 13.3005 14.7679 14.3177C14.7679 15.335 15.5873 16.1621 16.595 16.1621ZM16.595 13.5952H17.3485C17.744 13.5952 18.0737 13.9279 18.0737 14.3272C18.0737 14.7265 17.744 15.0593 17.3485 15.0593H16.595C16.1994 15.0593 15.8698 14.7265 15.8698 14.3272C15.8698 13.9279 16.1994 13.5952 16.595 13.5952Z" fill="var(--fill-0, #0D3442)"/>
<path d="M16.595 20.8206H17.3485C18.3562 20.8206 19.1756 19.9935 19.1756 18.9762C19.1756 17.959 18.3562 17.1318 17.3485 17.1318H16.595C15.5873 17.1318 14.7679 17.959 14.7679 18.9762C14.7679 19.9935 15.5873 20.8206 16.595 20.8206ZM16.595 18.2442H17.3485C17.744 18.2442 18.0737 18.5769 18.0737 18.9762C18.0737 19.3755 17.744 19.7083 17.3485 19.7083H16.595C16.1994 19.7083 15.8698 19.3755 15.8698 18.9762C15.8698 18.5769 16.1994 18.2442 16.595 18.2442Z" fill="var(--fill-0, #0D3442)"/>
<path d="M16.595 25.4791H17.3485C18.3562 25.4791 19.1756 24.652 19.1756 23.6347C19.1756 22.6175 18.3562 21.7903 17.3485 21.7903H16.595C15.5873 21.7903 14.7679 22.6175 14.7679 23.6347C14.7679 24.652 15.5873 25.4791 16.595 25.4791ZM16.595 22.9027H17.3485C17.744 22.9027 18.0737 23.2354 18.0737 23.6347C18.0737 24.034 17.744 24.3668 17.3485 24.3668H16.595C16.1994 24.3668 15.8698 24.034 15.8698 23.6347C15.8698 23.2354 16.1994 22.9027 16.595 22.9027Z" fill="var(--fill-0, #0D3442)"/>
<path d="M16.595 30.1376H17.3485C18.3562 30.1376 19.1756 29.3105 19.1756 28.2932C19.1756 27.276 18.3562 26.4488 17.3485 26.4488H16.595C15.5873 26.4488 14.7679 27.276 14.7679 28.2932C14.7679 29.3105 15.5873 30.1376 16.595 30.1376ZM16.595 27.5612H17.3485C17.744 27.5612 18.0737 27.8939 18.0737 28.2932C18.0737 28.6925 17.744 29.0253 17.3485 29.0253H16.595C16.1994 29.0253 15.8698 28.6925 15.8698 28.2932C15.8698 27.8939 16.1994 27.5612 16.595 27.5612Z" fill="var(--fill-0, #0D3442)"/>
<path d="M16.595 34.7961H17.3485C18.3562 34.7961 19.1756 33.969 19.1756 32.9517C19.1756 31.9344 18.3562 31.1073 17.3485 31.1073H16.595C15.5873 31.1073 14.7679 31.9344 14.7679 32.9517C14.7679 33.969 15.5873 34.7961 16.595 34.7961ZM16.595 32.2197H17.3485C17.744 32.2197 18.0737 32.5524 18.0737 32.9517C18.0737 33.351 17.744 33.6838 17.3485 33.6838H16.595C16.1994 33.6838 15.8698 33.351 15.8698 32.9517C15.8698 32.5524 16.1994 32.2197 16.595 32.2197Z" fill="var(--fill-0, #0D3442)"/>
<path d="M22.2837 16.1621H23.0371C24.0449 16.1621 24.8643 15.335 24.8643 14.3177C24.8643 13.3005 24.0449 12.4734 23.0371 12.4734H22.2837C21.2759 12.4734 20.4565 13.3005 20.4565 14.3177C20.4565 15.335 21.2759 16.1621 22.2837 16.1621ZM22.2837 13.5952H23.0371C23.4327 13.5952 23.7623 13.9279 23.7623 14.3272C23.7623 14.7265 23.4327 15.0593 23.0371 15.0593H22.2837C21.8881 15.0593 21.5584 14.7265 21.5584 14.3272C21.5584 13.9279 21.8881 13.5952 22.2837 13.5952Z" fill="var(--fill-0, #0D3442)"/>
<path d="M22.2837 20.8206H23.0371C24.0449 20.8206 24.8643 19.9935 24.8643 18.9762C24.8643 17.959 24.0449 17.1318 23.0371 17.1318H22.2837C21.2759 17.1318 20.4565 17.959 20.4565 18.9762C20.4565 19.9935 21.2759 20.8206 22.2837 20.8206ZM22.2837 18.2442H23.0371C23.4327 18.2442 23.7623 18.5769 23.7623 18.9762C23.7623 19.3755 23.4327 19.7083 23.0371 19.7083H22.2837C21.8881 19.7083 21.5584 19.3755 21.5584 18.9762C21.5584 18.5769 21.8881 18.2442 22.2837 18.2442Z" fill="var(--fill-0, #0D3442)"/>
<path d="M22.2837 25.4791H23.0371C24.0449 25.4791 24.8643 24.652 24.8643 23.6347C24.8643 22.6175 24.0449 21.7903 23.0371 21.7903H22.2837C21.2759 21.7903 20.4565 22.6175 20.4565 23.6347C20.4565 24.652 21.2759 25.4791 22.2837 25.4791ZM22.2837 22.9027H23.0371C23.4327 22.9027 23.7623 23.2354 23.7623 23.6347C23.7623 24.034 23.4327 24.3668 23.0371 24.3668H22.2837C21.8881 24.3668 21.5584 24.034 21.5584 23.6347C21.5584 23.2354 21.8881 22.9027 22.2837 22.9027Z" fill="var(--fill-0, #0D3442)"/>
<path d="M22.2837 30.1376H23.0371C24.0449 30.1376 24.8643 29.3105 24.8643 28.2932C24.8643 27.276 24.0449 26.4488 23.0371 26.4488H22.2837C21.2759 26.4488 20.4565 27.276 20.4565 28.2932C20.4565 29.3105 21.2759 30.1376 22.2837 30.1376ZM22.2837 27.5612H23.0371C23.4327 27.5612 23.7623 27.8939 23.7623 28.2932C23.7623 28.6925 23.4327 29.0253 23.0371 29.0253H22.2837C21.8881 29.0253 21.5584 28.6925 21.5584 28.2932C21.5584 27.8939 21.8881 27.5612 22.2837 27.5612Z" fill="var(--fill-0, #0D3442)"/>
<path d="M22.2837 34.7961H23.0371C24.0449 34.7961 24.8643 33.969 24.8643 32.9517C24.8643 31.9344 24.0449 31.1073 23.0371 31.1073H22.2837C21.2759 31.1073 20.4565 31.9344 20.4565 32.9517C20.4565 33.969 21.2759 34.7961 22.2837 34.7961ZM22.2837 32.2197H23.0371C23.4327 32.2197 23.7623 32.5524 23.7623 32.9517C23.7623 33.351 23.4327 33.6838 23.0371 33.6838H22.2837C21.8881 33.6838 21.5584 33.351 21.5584 32.9517C21.5584 32.5524 21.8881 32.2197 22.2837 32.2197Z" fill="var(--fill-0, #0D3442)"/>
<path d="M27.9723 16.1621H28.7258C29.7335 16.1621 30.5529 15.335 30.5529 14.3177C30.5529 13.3005 29.7335 12.4734 28.7258 12.4734H27.9723C26.9645 12.4734 26.1452 13.3005 26.1452 14.3177C26.1452 15.335 26.9645 16.1621 27.9723 16.1621ZM27.9723 13.5952H28.7258C29.1213 13.5952 29.451 13.9279 29.451 14.3272C29.451 14.7265 29.1213 15.0593 28.7258 15.0593H27.9723C27.5767 15.0593 27.2471 14.7265 27.2471 14.3272C27.2471 13.9279 27.5767 13.5952 27.9723 13.5952Z" fill="var(--fill-0, #0D3442)"/>
<path d="M27.9723 20.8206H28.7258C29.7335 20.8206 30.5529 19.9935 30.5529 18.9762C30.5529 17.959 29.7335 17.1318 28.7258 17.1318H27.9723C26.9645 17.1318 26.1452 17.959 26.1452 18.9762C26.1452 19.9935 26.9645 20.8206 27.9723 20.8206ZM27.9723 18.2442H28.7258C29.1213 18.2442 29.451 18.5769 29.451 18.9762C29.451 19.3755 29.1213 19.7083 28.7258 19.7083H27.9723C27.5767 19.7083 27.2471 19.3755 27.2471 18.9762C27.2471 18.5769 27.5767 18.2442 27.9723 18.2442Z" fill="var(--fill-0, #0D3442)"/>
<path d="M27.9723 25.4791H28.7258C29.7335 25.4791 30.5529 24.652 30.5529 23.6347C30.5529 22.6175 29.7335 21.7903 28.7258 21.7903H27.9723C26.9645 21.7903 26.1452 22.6175 26.1452 23.6347C26.1452 24.652 26.9645 25.4791 27.9723 25.4791ZM27.9723 22.9027H28.7258C29.1213 22.9027 29.451 23.2354 29.451 23.6347C29.451 24.034 29.1213 24.3668 28.7258 24.3668H27.9723C27.5767 24.3668 27.2471 24.034 27.2471 23.6347C27.2471 23.2354 27.5767 22.9027 27.9723 22.9027Z" fill="var(--fill-0, #0D3442)"/>
<path d="M27.9723 30.1376H28.7258C29.7335 30.1376 30.5529 29.3105 30.5529 28.2932C30.5529 27.276 29.7335 26.4488 28.7258 26.4488H27.9723C26.9645 26.4488 26.1452 27.276 26.1452 28.2932C26.1452 29.3105 26.9645 30.1376 27.9723 30.1376ZM27.9723 27.5612H28.7258C29.1213 27.5612 29.451 27.8939 29.451 28.2932C29.451 28.6925 29.1213 29.0253 28.7258 29.0253H27.9723C27.5767 29.0253 27.2471 28.6925 27.2471 28.2932C27.2471 27.8939 27.5767 27.5612 27.9723 27.5612Z" fill="var(--fill-0, #0D3442)"/>
<path d="M3.98393 31.7633C3.68255 31.7633 3.42826 32.0105 3.42826 32.3242C3.42826 32.638 3.67313 32.8852 3.98393 32.8852H7.05429C7.35568 32.8852 7.60997 32.638 7.60997 32.3242C7.60997 32.0105 7.3651 31.7633 7.05429 31.7633H3.98393Z" fill="var(--fill-0, #0D3442)"/>
<path d="M11.8388 30.3753C11.8388 30.0711 11.5939 29.8144 11.2831 29.8144H3.98393C3.68255 29.8144 3.42826 30.0615 3.42826 30.3753C3.42826 30.689 3.67313 30.9362 3.98393 30.9362H11.2831C11.5845 30.9362 11.8388 30.689 11.8388 30.3753Z" fill="var(--fill-0, #0D3442)"/>
<path d="M3.98393 28.027H7.05429C7.35568 28.027 7.60997 27.7798 7.60997 27.4661C7.60997 27.1524 7.3651 26.9052 7.05429 26.9052H3.98393C3.68255 26.9052 3.42826 27.1524 3.42826 27.4661C3.42826 27.7798 3.67313 28.027 3.98393 28.027Z" fill="var(--fill-0, #0D3442)"/>
<path d="M3.98393 26.1636H7.05429C7.35568 26.1636 7.60997 25.9164 7.60997 25.6027C7.60997 25.289 7.3651 25.0418 7.05429 25.0418H3.98393C3.68255 25.0418 3.42826 25.289 3.42826 25.6027C3.42826 25.9164 3.67313 26.1636 3.98393 26.1636Z" fill="var(--fill-0, #0D3442)"/>
</g>
</svg>
