<svg preserveAspectRatio="none" width="100%" height="100%" overflow="visible" style="display: block;" viewBox="0 0 40 40" fill="none" xmlns="http://www.w3.org/2000/svg">
<g id="Vector">
<path d="M4.85642 21.6623C5.04005 21.6623 5.21586 21.5841 5.34089 21.4513C5.46591 21.3185 5.53233 21.1349 5.5167 20.9552C5.49717 20.6387 5.48545 20.3145 5.48545 19.998C5.48545 19.3339 5.52842 18.662 5.61829 18.0057C5.64173 17.8142 5.58703 17.6228 5.4581 17.4822C5.32917 17.3415 5.14944 17.2556 4.958 17.2556H0.773589C0.433678 17.2556 0.148467 17.5095 0.113303 17.8494C0.0390701 18.5565 0 19.2792 0 19.998C0 20.3418 0.00781403 20.6895 0.0273491 21.0333C0.0468842 21.3849 0.336003 21.6623 0.691541 21.6623H4.85642ZM1.23462 18.4276H4.39148C4.34069 18.9472 4.31334 19.4746 4.31334 19.998C4.31334 20.1621 4.31334 20.3262 4.32116 20.4903H1.17992C1.17601 20.3262 1.1721 20.1621 1.1721 19.998C1.1721 19.4746 1.19164 18.9472 1.23462 18.4276Z" fill="var(--fill-0, #CEA36F)"/>
<path d="M1.15257 16.2711H5.45028C5.74331 16.2711 6.00508 16.0758 6.08713 15.7945C6.38797 14.7749 6.80211 13.7826 7.31784 12.845C7.43114 12.6419 7.42723 12.3879 7.31002 12.1887C7.19281 11.9895 6.97402 11.8644 6.7396 11.8644H2.12542C1.85583 11.8644 1.6136 12.0246 1.51201 12.2785C1.09006 13.306 0.754054 14.3764 0.507912 15.4624C0.461028 15.6617 0.507912 15.8648 0.636843 16.025C0.761868 16.1852 0.953311 16.275 1.15648 16.275L1.15257 16.2711ZM2.46923 13.0364H5.9035C5.57921 13.7045 5.30572 14.3959 5.07912 15.0991H1.80113C1.98476 14.3998 2.20746 13.7084 2.46923 13.0364Z" fill="var(--fill-0, #CEA36F)"/>
<path d="M38.4216 12.216C37.4097 9.83299 35.9641 7.69216 34.1199 5.85604C32.2758 4.01602 30.1348 2.57447 27.7476 1.56656C25.2901 0.527395 22.6841 0 20 0C19.9883 0 19.9727 0 19.9609 0C16.4329 0.00781326 12.983 0.941498 9.95116 2.70339L8.73608 0.601621C8.61887 0.398476 8.39617 0.269558 8.16175 0.269558C7.92733 0.269558 7.70463 0.398476 7.58742 0.601621L6.78258 1.99238C6.62239 2.27366 6.71616 2.62916 6.99746 2.79324C7.27877 2.95341 7.6343 2.85965 7.7984 2.57838L8.16175 1.94941L9.1932 3.73865C9.28306 3.89491 9.43153 4.0082 9.60735 4.05118C9.78316 4.09415 9.96679 4.0668 10.1192 3.97304C13.0729 2.14865 16.4759 1.1798 19.9648 1.1759C19.9766 1.1759 19.9883 1.1759 20 1.1759C25.0088 1.1759 29.7285 3.13312 33.2917 6.68815C36.8627 10.251 38.8279 14.9819 38.8279 20.002C38.8279 25.022 36.8705 29.7568 33.3151 33.3158C29.7597 36.8708 25.0322 38.828 20 38.828C15.5343 38.828 11.2053 37.238 7.81012 34.351C4.60637 31.6281 2.40281 27.909 1.5589 23.8226H4.78218C5.60266 27.0925 7.48584 30.0498 10.1231 32.1867C11.4905 33.2962 13.0182 34.1596 14.6708 34.7573C16.3782 35.3745 18.1715 35.6871 20 35.6871C24.1922 35.6871 28.1305 34.0541 31.092 31.0929C34.0535 28.1277 35.6867 24.1899 35.6828 19.998C35.6828 15.7984 34.0535 11.8566 31.0959 8.90321C28.1383 5.9498 24.2 4.32073 19.9961 4.32073C17.0307 4.32073 14.1473 5.15285 11.6507 6.72331C11.346 6.91474 11.2522 7.3054 11.428 7.61793L12.565 9.58297H3.75855L6.39969 5.0083C6.55987 4.72702 6.46611 4.37152 6.1848 4.20744C5.9035 4.04727 5.54796 4.14103 5.38386 4.42231L2.30123 9.75877C2.18402 9.96191 2.18402 10.2197 2.30123 10.4229C2.41844 10.626 2.64114 10.755 2.87556 10.755H13.444C13.6785 10.755 13.9012 10.626 14.0184 10.4229C14.1356 10.2197 14.1356 9.96582 14.0184 9.75877L12.69 7.46167C14.9013 6.17248 17.4175 5.49272 19.9961 5.49272C23.8836 5.49272 27.5327 6.99678 30.2676 9.73142C33.0025 12.4661 34.5106 16.1109 34.5106 19.998C34.5106 23.8773 33.0025 27.5222 30.2637 30.2647C27.521 33.0071 23.8758 34.519 20 34.519C16.679 34.519 13.4323 33.3704 10.8615 31.2804C8.32585 29.2216 6.54034 26.3424 5.83317 23.1741C5.76675 22.8694 5.49717 22.6546 5.18461 22.6546H0.945497C0.750147 22.6546 0.56261 22.7405 0.437585 22.8929C0.312561 23.0452 0.257863 23.2406 0.293026 23.432C1.08615 28.0184 3.48506 32.2141 7.05216 35.2456C10.6583 38.3123 15.2569 40 20 40C25.3409 40 30.3653 37.9217 34.1434 34.144C37.9215 30.3662 40 25.3462 40 20.002C40 17.3064 39.4686 14.6889 38.4216 12.2199V12.216Z" fill="var(--fill-0, #CEA36F)"/>
<path d="M15.335 13.0364C16.5931 13.0286 17.7769 13.5091 18.6677 14.3998L19.5507 15.2827C19.6718 15.4038 19.8281 15.4664 20 15.4664C20.1719 15.4664 20.3282 15.3999 20.4493 15.2827L21.3362 14.3959C22.2153 13.5169 23.3835 13.0325 24.6259 13.0325C24.6376 13.0325 24.6533 13.0325 24.665 13.0325C25.9152 13.0442 27.0873 13.5482 27.9664 14.4584C28.193 14.6928 28.5642 14.6967 28.7947 14.4741C29.0291 14.2475 29.033 13.8764 28.8103 13.6459C27.7124 12.509 26.2434 11.8762 24.6767 11.8644C24.6611 11.8644 24.6415 11.8644 24.6259 11.8644C23.0709 11.8644 21.6097 12.47 20.5079 13.5716L20.0039 14.0756L19.4999 13.5716C18.3864 12.4582 16.9017 11.8527 15.3272 11.8644C12.1703 11.8918 9.57609 14.4819 9.55265 17.6384C9.54093 19.2128 10.1465 20.6934 11.26 21.8068L19.5546 30.1006C19.6796 30.2256 19.8398 30.2842 20.0039 30.2842C20.168 30.2842 20.3282 30.2217 20.4532 30.1006L28.7478 21.8068C29.8613 20.6934 30.4669 19.2128 30.4552 17.6384C30.4513 17.1657 30.3888 16.693 30.2715 16.236C30.1895 15.9234 29.8691 15.7359 29.5566 15.814C29.244 15.8961 29.0565 16.2164 29.1346 16.529C29.2284 16.8923 29.2792 17.2673 29.2831 17.6463C29.2948 18.9042 28.8103 20.0879 27.9195 20.9786L20.0039 28.8934L12.0883 20.9786C11.1975 20.0879 10.713 18.9042 10.7248 17.6463C10.7443 15.1226 12.815 13.056 15.3389 13.0325L15.335 13.0364Z" fill="var(--fill-0, #CEA36F)"/>
</g>
</svg>
