<svg preserveAspectRatio="none" width="100%" height="100%" overflow="visible" style="display: block;" viewBox="0 0 40 36" fill="none" xmlns="http://www.w3.org/2000/svg">
<g id="Vector">
<path d="M3.95268 7.53438C4.21081 7.33896 4.24308 6.95899 4.06023 6.69843C3.69992 6.18818 3.47943 5.82449 3.47943 5.12967C3.47943 3.79976 4.54961 2.71954 5.86717 2.71954C6.91046 2.71954 7.8462 3.41978 8.15273 4.424C8.22264 4.65199 8.40549 4.83655 8.63673 4.87455C8.93251 4.91797 9.20678 4.73341 9.28744 4.45115C9.58322 3.43064 10.5243 2.71954 11.5784 2.71954C12.8959 2.71954 13.9661 3.79976 13.9661 5.12967C13.9661 6.11218 13.267 7.00784 12.5894 7.64837L8.73891 11.2744C8.73353 11.2799 8.72277 11.2799 8.7174 11.2744L5.8833 8.60917C5.64668 8.38661 5.27561 8.37575 5.04437 8.60917C4.80774 8.84801 4.8185 9.23341 5.0605 9.4614L7.91611 12.1429C8.14197 12.3546 8.43775 12.4632 8.72815 12.4632C9.01855 12.4632 9.31433 12.3546 9.5402 12.1429C10.1963 11.5241 12.0409 9.79252 12.3044 9.54282C13.2455 8.65802 14.2511 7.80036 14.8212 6.61158C15.0417 6.14475 15.1439 5.63993 15.1439 5.12425C15.1439 3.14294 13.5467 1.52533 11.5838 1.52533C10.4437 1.52533 9.38962 2.08444 8.72815 2.97467C8.06668 2.08444 7.01264 1.52533 5.87255 1.52533C3.90965 1.52533 2.31245 3.13751 2.31245 5.12425C2.31245 6.17189 2.68352 6.77985 3.1245 7.4041C3.3181 7.67551 3.69454 7.73522 3.95805 7.52895L3.95268 7.53438Z" fill="var(--fill-0, #CEA36F)"/>
<path d="M26.3565 12.5392H35.9559C36.7948 12.5392 37.4724 11.8498 37.4724 11.0084V4.30458C37.4724 3.45778 36.7895 2.77382 35.9559 2.77382H34.0844C33.9876 1.22678 32.7131 0 31.1589 0C29.6047 0 28.3302 1.22678 28.2334 2.77382H26.3619C25.523 2.77382 24.8454 3.46321 24.8454 4.30458V11.0084C24.8454 11.8552 25.5284 12.5392 26.3619 12.5392H26.3565ZM31.1535 1.18878C32.057 1.18878 32.8099 1.88359 32.9013 2.77382H29.4058C29.4972 1.88359 30.2501 1.18878 31.1535 1.18878ZM26.0124 4.30458C26.0124 4.1146 26.1683 3.95718 26.3565 3.95718H35.9559C36.1441 3.95718 36.3001 4.1146 36.3001 4.30458V6.41616C35.9935 6.47045 35.5149 6.55187 34.8104 6.64958V6.17732C34.8104 5.85163 34.5469 5.58565 34.2243 5.58565C33.9016 5.58565 33.6381 5.85163 33.6381 6.17732V6.80157C33.2939 6.83957 32.9228 6.88299 32.5087 6.92642C31.6106 7.0187 30.7072 7.0187 29.8091 6.92642C29.4004 6.88299 29.0239 6.83957 28.6798 6.80157V6.17732C28.6798 5.85163 28.4162 5.58565 28.0936 5.58565C27.7709 5.58565 27.5074 5.85163 27.5074 6.17732V6.64958C26.8083 6.55187 26.3243 6.47045 26.0177 6.41616V4.30458H26.0124ZM26.0124 7.62123C26.3565 7.68094 26.8459 7.75694 27.502 7.84922V8.0392C27.502 8.3649 27.7655 8.63088 28.0882 8.63088C28.4109 8.63088 28.6744 8.3649 28.6744 8.0392V7.99578C28.9863 8.03378 29.3197 8.07177 29.68 8.10977C30.6426 8.21291 31.6644 8.21291 32.6217 8.10977C32.982 8.07177 33.3154 8.03378 33.6273 7.99578V8.0392C33.6273 8.3649 33.8908 8.63088 34.2135 8.63088C34.5362 8.63088 34.7997 8.3649 34.7997 8.0392V7.84922C35.4558 7.76236 35.9398 7.68637 36.2893 7.62123V11.0084C36.2893 11.1984 36.1334 11.3559 35.9451 11.3559H26.3458C26.1576 11.3559 26.0016 11.1984 26.0016 11.0084V7.62123H26.0124Z" fill="var(--fill-0, #CEA36F)"/>
<path d="M39.4138 14.2654H21.1616L21.1508 14.2111C21.0218 13.5977 20.5163 13.1852 19.8924 13.1852C19.2686 13.1852 18.7631 13.5977 18.634 14.2111L18.6233 14.2654H0.586179C0.263512 14.2654 0 14.5314 0 14.8571C0 15.1828 0.263512 15.4487 0.586179 15.4487H1.31756V16.035C1.31756 17.0066 2.09734 17.7937 3.05996 17.7937H17.8596L14.2458 34.8166H8.58833C8.26566 34.8166 8.00215 35.0826 8.00215 35.4083C8.00215 35.734 8.26566 36 8.58833 36H31.1804C31.5031 36 31.7666 35.734 31.7666 35.4083C31.7666 35.0826 31.5031 34.8166 31.1804 34.8166H25.523L24.3345 29.2201C24.2646 28.8999 23.9527 28.6936 23.6354 28.7642C23.3181 28.8347 23.1137 29.1496 23.1837 29.4698L24.3184 34.8166H15.4504L19.7741 14.4499C19.7795 14.4228 19.7956 14.3577 19.8871 14.3577C19.9785 14.3577 19.9892 14.4174 20 14.4499L22.619 26.7774C22.6889 27.0977 23.0008 27.304 23.3181 27.2334C23.6354 27.1628 23.8397 26.848 23.7698 26.5277L21.9145 17.7883H36.7142C37.6768 17.7883 38.4566 17.0012 38.4566 16.0296V15.4433H39.4138C39.7365 15.4433 40 15.1773 40 14.8516C40 14.5259 39.7365 14.26 39.4138 14.26V14.2654ZM18.1178 16.6158H3.06534C2.75343 16.6158 2.49529 16.3607 2.49529 16.0404V15.4542H18.3598L18.1124 16.6158H18.1178ZM37.2788 16.0404C37.2788 16.3552 37.0261 16.6158 36.7088 16.6158H21.6564L21.409 15.4542H37.2735V16.0404H37.2788Z" fill="var(--fill-0, #CEA36F)"/>
<path d="M19.3009 21.5501C19.3009 21.8758 19.5644 22.1417 19.8871 22.1417C20.2097 22.1417 20.4732 21.8758 20.4732 21.5501C20.4732 21.2244 20.2097 20.9584 19.8871 20.9584C19.5644 20.9584 19.3009 21.2244 19.3009 21.5501Z" fill="var(--fill-0, #CEA36F)"/>
</g>
</svg>
