<svg preserveAspectRatio="none" width="100%" height="100%" overflow="visible" style="display: block;" viewBox="0 0 22 22" fill="none" xmlns="http://www.w3.org/2000/svg">
<path id="Check" d="M21.9754 0C21.918 0.00557247 21.8597 0.00615904 21.8036 0.0175973C21.0625 0.168054 20.3703 0.459582 19.7051 0.827658C18.6571 1.40778 17.743 2.18646 16.844 2.98332C15.9076 3.81795 15.0206 4.712 14.188 5.66045C13.305 6.66086 12.4659 7.70115 11.721 8.81828C10.6462 10.4314 9.59596 12.06 8.53625 13.6827C8.41376 13.8702 8.29601 14.0608 8.16348 14.2693C8.11577 14.2022 8.07978 14.1588 8.05187 14.1112C7.72431 13.5778 7.39897 13.0431 7.07057 12.5102C6.47124 11.5373 5.77313 10.6525 4.94807 9.88086C4.42547 9.39195 3.82363 9.24032 3.14645 9.4204C2.44109 9.60781 1.796 9.94275 1.18049 10.3396C0.852085 10.5513 0.538747 10.7874 0.224573 11.0238C-0.0432849 11.2256 -0.0700707 11.5022 0.136403 11.7344C1.37248 13.124 2.45439 14.6567 3.3613 16.303C4.1459 17.7263 4.78429 19.2212 5.32977 20.761C5.43636 21.0625 5.56164 21.3572 5.68329 21.6525C5.79155 21.9145 5.99328 22.0315 6.25555 21.9928C6.48533 21.9611 6.71178 21.9068 6.93189 21.8306C7.58675 21.5959 8.17715 21.2249 8.7617 20.8425C9.38034 20.444 9.87332 19.8625 10.1788 19.1707C10.8384 17.7057 11.5037 16.2435 12.1746 14.7843C12.9632 13.0686 13.8206 11.3915 14.7469 9.75299C15.6562 8.14724 16.6769 6.62097 17.7603 5.14133C18.3697 4.31133 18.9916 3.49012 19.6323 2.68329C20.3242 1.8134 21.0516 0.976061 21.8538 0.214687C21.9059 0.159198 21.9547 0.100432 22 0.038714L21.9754 0Z" fill="var(--fill-0, #CEA36F)"/>
</svg>
