<svg preserveAspectRatio="none" width="100%" height="100%" overflow="visible" style="display: block;" viewBox="0 0 20 20" fill="none" xmlns="http://www.w3.org/2000/svg">
<g id="Vector">
<path d="M4.22095 4.53645V1.63068C4.22095 1.50876 4.16508 1.397 4.07111 1.32334C3.9746 1.24968 3.8527 1.22174 3.73587 1.25222L1.50603 1.81102C1.33079 1.8542 1.21143 2.00914 1.21143 2.18948V4.30277C1.11492 4.26721 1.00825 4.24689 0.899048 4.24689C0.40381 4.24689 0 4.65075 0 5.14605C0 5.64135 0.40381 6.04521 0.899048 6.04521C1.39429 6.04521 1.7981 5.64135 1.7981 5.14605V3.55601L3.63937 3.09627V3.69825C3.54286 3.66269 3.43619 3.64237 3.32698 3.64237C2.83175 3.64237 2.42794 4.04623 2.42794 4.54153C2.42794 5.03683 2.83175 5.44069 3.32698 5.44069C3.82222 5.44069 4.22603 5.03683 4.22603 4.54153L4.22095 4.53645ZM0.896508 5.45593C0.72381 5.45593 0.584127 5.31623 0.584127 5.14351C0.584127 4.97079 0.72381 4.83109 0.896508 4.83109C1.06921 4.83109 1.20889 4.97079 1.20889 5.14351C1.20889 5.31623 1.06921 5.45593 0.896508 5.45593ZM1.79556 2.94895V2.33934L3.63683 1.8796V2.48921L1.79556 2.94895ZM3.00952 4.53645C3.00952 4.36373 3.14921 4.22403 3.3219 4.22403C3.4946 4.22403 3.63429 4.36373 3.63429 4.53645C3.63429 4.70917 3.4946 4.84887 3.3219 4.84887C3.14921 4.84887 3.00952 4.70917 3.00952 4.53645Z" fill="var(--fill-0, #0D3442)"/>
<path d="M3.92889 8.857C3.43365 8.857 3.02984 9.26086 3.02984 9.75616C3.02984 10.2515 3.43365 10.6553 3.92889 10.6553C4.42413 10.6553 4.82794 10.2515 4.82794 9.75616V8.3871L6.37968 7.86894C6.53968 7.8156 6.64635 7.66574 6.64635 7.4981V6.48971C6.64635 6.36525 6.5854 6.24587 6.48381 6.17221C6.38222 6.09855 6.25016 6.07823 6.13079 6.11887L4.5054 6.65989C4.3454 6.71323 4.23873 6.86309 4.23873 7.03073V8.91288C4.14222 8.87732 4.03556 8.857 3.92635 8.857H3.92889ZM3.92889 10.0711C3.75619 10.0711 3.61651 9.93142 3.61651 9.7587C3.61651 9.58598 3.75619 9.44628 3.92889 9.44628C4.10159 9.44628 4.24127 9.58598 4.24127 9.7587C4.24127 9.93142 4.10159 10.0711 3.92889 10.0711ZM4.82794 7.17297L6.06222 6.76149V7.35839L4.82794 7.76988V7.17297Z" fill="var(--fill-0, #0D3442)"/>
<path d="M15.3473 1.21158L15.167 0.383541C15.1187 0.16002 14.9181 0 14.6895 0H13.1835C12.9549 0 12.7543 0.16256 12.706 0.383541L12.5257 1.21158H8.56635C8.19048 1.21158 7.88318 1.51892 7.88318 1.89484V3.32487C7.88318 3.48743 8.01524 3.61697 8.17524 3.61697C8.33524 3.61697 8.4673 3.48489 8.4673 3.32487V1.89484C8.4673 1.8415 8.51048 1.79832 8.56381 1.79832H19.3067C19.36 1.79832 19.4032 1.8415 19.4032 1.89484V15.6718C19.4032 15.7252 19.36 15.7684 19.3067 15.7684H8.56381C8.51048 15.7684 8.4673 15.7252 8.4673 15.6718V13.5636L8.60699 13.4925C8.76445 13.4112 8.88381 13.269 8.9346 13.0988C8.9346 13.0937 8.9346 13.0912 8.93714 13.0861C9.05905 13.0531 9.18603 13.0277 9.3181 13.0074C9.46794 12.9845 9.61016 12.9362 9.74222 12.86C9.92254 12.7559 10.0851 12.6289 10.2273 12.4841C10.5625 12.8245 11.0197 13.0201 11.5124 13.0201C11.5175 13.0201 11.5225 13.0201 11.5302 13.0201C12.0076 13.015 12.4571 12.8194 12.8 12.4663C13.1378 12.1158 13.3232 11.6612 13.3232 11.1836V7.57176L16.3759 6.96215V8.68682C16.3352 8.68682 16.2946 8.68682 16.2565 8.68936C15.3575 8.7427 14.6311 9.45898 14.5625 10.3556C14.5244 10.8687 14.6946 11.3564 15.0451 11.7323C15.3854 12.098 15.8679 12.3063 16.3657 12.3063C16.3708 12.3063 16.3759 12.3063 16.381 12.3063C16.8584 12.3012 17.3079 12.1057 17.6508 11.7526C17.9886 11.4021 18.174 10.9474 18.174 10.4699V8.79096C18.174 8.6284 18.0419 8.49886 17.8819 8.49886C17.7219 8.49886 17.5898 8.63094 17.5898 8.79096V10.4699C17.5898 11.143 17.0337 11.717 16.3784 11.7221C16.3759 11.7221 16.3708 11.7221 16.3683 11.7221C16.0305 11.7221 15.7054 11.5799 15.4743 11.3335C15.2381 11.0795 15.1213 10.7493 15.1492 10.4013C15.1949 9.7968 15.6876 9.31166 16.2946 9.2761C16.3454 9.27356 16.3962 9.27356 16.447 9.2761C16.5816 9.28372 16.7162 9.23546 16.8127 9.14402C16.9092 9.05258 16.9651 8.92304 16.9651 8.78842V6.84277C16.9651 6.69545 16.899 6.55829 16.7873 6.46431C16.673 6.37033 16.5257 6.33477 16.381 6.36271L13.1327 7.01295C12.9041 7.05867 12.739 7.25933 12.739 7.49048V11.1836C12.739 11.8567 12.1829 12.4308 11.5276 12.4359C11.5251 12.4359 11.52 12.4359 11.5175 12.4359C11.1568 12.4359 10.8241 12.2809 10.593 12.0117C10.8825 11.5062 10.979 10.8966 10.8317 10.3073L10.8089 10.2159C10.9943 10.0838 11.2152 10.0025 11.4413 9.98984C11.4921 9.9873 11.5429 9.9873 11.5937 9.98984C11.7283 9.99746 11.8629 9.9492 11.9594 9.85776C12.0559 9.76632 12.1117 9.63678 12.1117 9.50216V5.46609C12.1117 5.42037 12.1448 5.37973 12.1905 5.36957L17.473 4.31293C17.5111 4.30531 17.5416 4.32309 17.5543 4.33325C17.567 4.34341 17.5898 4.36881 17.5898 4.40945V7.41935C17.5898 7.58192 17.7219 7.71146 17.8819 7.71146C18.0419 7.71146 18.174 7.57938 18.174 7.41935V4.40945C18.174 4.20371 18.0825 4.01067 17.9251 3.88113C17.7651 3.75159 17.5594 3.69825 17.3587 3.73889L12.0762 4.79553C11.7587 4.85903 11.5276 5.14097 11.5276 5.46609V9.4031C11.487 9.4031 11.4464 9.4031 11.4083 9.40564C11.0806 9.42596 10.7632 9.53518 10.4914 9.72314C10.4559 9.71298 10.4178 9.70536 10.3797 9.70536H10.3771C10.1994 9.70536 10.047 9.82474 9.99873 9.99492L9.95302 10.1626C9.87175 10.4623 9.58476 10.6629 9.28508 10.6274C9.04889 10.5994 8.81524 10.6401 8.60445 10.7468C8.55873 10.7696 8.51556 10.795 8.47238 10.823V4.69393C8.47238 4.53137 8.34032 4.40183 8.18032 4.40183C8.02032 4.40183 7.88825 4.53391 7.88825 4.69393V11.3487C7.73079 11.3233 7.56572 11.3564 7.43111 11.4427L3.15683 14.2037C2.74032 14.4729 2.60825 15.0216 2.85714 15.4509C3.02984 15.748 3.33968 15.9157 3.66222 15.9157C3.80444 15.9157 3.95175 15.8827 4.08635 15.8141L7.89079 13.8659V15.6744C7.89079 16.0503 8.1981 16.3576 8.57397 16.3576H9.22159L8.55619 19.4056C8.52572 19.5504 8.55873 19.7003 8.6527 19.8171C8.74667 19.934 8.88381 20 9.03365 20H10.4533C10.6819 20 10.8825 19.8374 10.9308 19.6165L11.1111 18.7884H16.7797L16.96 19.6165C17.0083 19.84 17.2089 20 17.4375 20H18.8571C19.0044 20 19.1441 19.934 19.2381 19.8171C19.3321 19.7003 19.3676 19.553 19.3346 19.4056L18.6692 16.3576H19.3168C19.6927 16.3576 20 16.0503 20 15.6744V1.89484C20 1.51892 19.6927 1.21158 19.3168 1.21158H15.3473ZM13.2622 0.584201H14.6108L14.7479 1.21158H13.1251L13.2622 0.584201ZM8.64762 11.4427C8.70349 11.3665 8.77714 11.3056 8.86349 11.2624C8.97016 11.209 9.08952 11.1887 9.21143 11.2014C9.6381 11.2522 10.0495 11.0617 10.3035 10.7341C10.3492 11.3818 10.0241 12.0168 9.45016 12.347C9.38159 12.3851 9.30794 12.4105 9.23175 12.4232C9.09206 12.4435 8.95746 12.4714 8.82794 12.5044L8.38857 11.745C8.38857 11.745 8.39619 11.7374 8.40127 11.7323C8.48762 11.6408 8.56889 11.5443 8.64762 11.4402V11.4427ZM7.74095 11.9329C7.75873 11.9202 7.77905 11.9228 7.79175 11.9253C7.80445 11.9279 7.81968 11.9355 7.83238 11.9558L8.36825 12.8829C8.37841 12.9032 8.37841 12.921 8.37333 12.9337C8.37079 12.9464 8.36064 12.9616 8.34032 12.9718L7.30159 13.5052L6.76064 12.5705L7.74095 11.9355V11.9329ZM3.80952 15.2908C3.64698 15.3747 3.44635 15.3162 3.35492 15.1562C3.26349 14.9962 3.31175 14.793 3.46667 14.6939L6.26794 12.8829L6.77841 13.7668L3.80952 15.2883V15.2908ZM10.3644 19.4056H9.1454L9.81333 16.3526H11.0324L10.3644 19.4056ZM11.2305 18.1941L11.3676 17.5667H12.4216C12.5841 17.5667 12.7137 17.4346 12.7137 17.2746C12.7137 17.1146 12.5816 16.9825 12.4216 16.9825H11.4971L11.6343 16.3551H16.2413L16.3784 16.9825H13.7879C13.6254 16.9825 13.4959 17.1146 13.4959 17.2746C13.4959 17.4346 13.6279 17.5667 13.7879 17.5667H16.5054L16.6425 18.1941H11.2305ZM18.7276 19.4056H17.5086L16.8406 16.3526H18.0597L18.7276 19.4056Z" fill="var(--fill-0, #0D3442)"/>
</g>
</svg>
