<svg preserveAspectRatio="none" width="100%" height="100%" overflow="visible" style="display: block;" viewBox="0 0 26 26" fill="none" xmlns="http://www.w3.org/2000/svg">
<g id="Frame">
<path id="Vector" d="M17.875 13C17.875 13.2155 17.7894 13.4222 17.637 13.5745C17.4847 13.7269 17.278 13.8125 17.0625 13.8125H8.9375C8.72201 13.8125 8.51535 13.7269 8.36298 13.5745C8.2106 13.4222 8.125 13.2155 8.125 13C8.125 12.7845 8.2106 12.5778 8.36298 12.4255C8.51535 12.2731 8.72201 12.1875 8.9375 12.1875H17.0625C17.278 12.1875 17.4847 12.2731 17.637 12.4255C17.7894 12.5778 17.875 12.7845 17.875 13ZM23.5625 13C23.5625 15.0891 22.943 17.1312 21.7824 18.8682C20.6218 20.6052 18.9721 21.959 17.0421 22.7585C15.112 23.5579 12.9883 23.7671 10.9394 23.3595C8.89043 22.952 7.00838 21.946 5.53118 20.4688C4.05399 18.9916 3.04801 17.1096 2.64046 15.0606C2.2329 13.0117 2.44207 10.888 3.24152 8.95791C4.04097 7.02786 5.3948 5.37822 7.13179 4.2176C8.86878 3.05698 10.9109 2.4375 13 2.4375C15.8004 2.44046 18.4853 3.55424 20.4656 5.53445C22.4458 7.51466 23.5595 10.1996 23.5625 13ZM21.9375 13C21.9375 11.2323 21.4133 9.50436 20.4313 8.03459C19.4492 6.56483 18.0533 5.41929 16.4202 4.74283C14.7871 4.06637 12.9901 3.88938 11.2564 4.23423C9.52268 4.57909 7.93017 5.4303 6.68023 6.68023C5.4303 7.93017 4.57909 9.52268 4.23423 11.2564C3.88938 12.9901 4.06637 14.7871 4.74283 16.4202C5.41928 18.0533 6.56483 19.4492 8.03459 20.4313C9.50436 21.4133 11.2323 21.9375 13 21.9375C15.3695 21.9348 17.6413 20.9923 19.3168 19.3168C20.9923 17.6413 21.9348 15.3695 21.9375 13Z" fill="var(--fill-0, white)"/>
</g>
</svg>
