<svg preserveAspectRatio="none" width="100%" height="100%" overflow="visible" style="display: block;" viewBox="0 0 26 26" fill="none" xmlns="http://www.w3.org/2000/svg">
<g id="Frame">
<path id="Vector" d="M13 2.4375C10.9109 2.4375 8.86878 3.05698 7.13179 4.2176C5.3948 5.37823 4.04097 7.02786 3.24152 8.95791C2.44207 10.888 2.2329 13.0117 2.64046 15.0606C3.04801 17.1096 4.05399 18.9916 5.53119 20.4688C7.00838 21.946 8.89044 22.952 10.9394 23.3595C12.9883 23.7671 15.1121 23.5579 17.0421 22.7585C18.9721 21.959 20.6218 20.6052 21.7824 18.8682C22.943 17.1312 23.5625 15.0891 23.5625 13C23.5595 10.1996 22.4458 7.51466 20.4656 5.53445C18.4853 3.55424 15.8004 2.44046 13 2.4375ZM13 21.9375C11.2323 21.9375 9.50436 21.4133 8.03459 20.4313C6.56483 19.4492 5.41929 18.0534 4.74283 16.4202C4.06637 14.7871 3.88938 12.9901 4.23423 11.2564C4.57909 9.52268 5.4303 7.93017 6.68023 6.68023C7.93017 5.4303 9.52268 4.57909 11.2564 4.23423C12.9901 3.88938 14.7871 4.06637 16.4202 4.74283C18.0534 5.41929 19.4492 6.56483 20.4313 8.03459C21.4133 9.50436 21.9375 11.2323 21.9375 13C21.9348 15.3695 20.9923 17.6413 19.3168 19.3168C17.6413 20.9923 15.3695 21.9348 13 21.9375ZM17.875 13C17.875 13.2155 17.7894 13.4222 17.637 13.5745C17.4847 13.7269 17.278 13.8125 17.0625 13.8125H13.8125V17.0625C13.8125 17.278 13.7269 17.4847 13.5745 17.637C13.4222 17.7894 13.2155 17.875 13 17.875C12.7845 17.875 12.5779 17.7894 12.4255 17.637C12.2731 17.4847 12.1875 17.278 12.1875 17.0625V13.8125H8.9375C8.72201 13.8125 8.51535 13.7269 8.36298 13.5745C8.2106 13.4222 8.125 13.2155 8.125 13C8.125 12.7845 8.2106 12.5779 8.36298 12.4255C8.51535 12.2731 8.72201 12.1875 8.9375 12.1875H12.1875V8.9375C12.1875 8.72201 12.2731 8.51535 12.4255 8.36298C12.5779 8.2106 12.7845 8.125 13 8.125C13.2155 8.125 13.4222 8.2106 13.5745 8.36298C13.7269 8.51535 13.8125 8.72201 13.8125 8.9375V12.1875H17.0625C17.278 12.1875 17.4847 12.2731 17.637 12.4255C17.7894 12.5779 17.875 12.7845 17.875 13Z" fill="var(--fill-0, white)"/>
</g>
</svg>
