<svg preserveAspectRatio="none" width="100%" height="100%" overflow="visible" style="display: block;" viewBox="0 0 40 32" fill="none" xmlns="http://www.w3.org/2000/svg">
<g id="Vector">
<path d="M37.8631 7.90385H37.2589V1.95176C37.2589 0.873845 36.3778 0 35.2909 0H24.7698C24.4453 0 24.1841 0.259014 24.1841 0.580819C24.1841 0.902625 24.4453 1.16164 24.7698 1.16164H35.2909C35.7314 1.16164 36.0876 1.51484 36.0876 1.95176V7.90385H35.3278V2.99828C35.3278 2.41223 34.8476 1.93606 34.2567 1.93606H5.74858C5.15763 1.93606 4.67748 2.41223 4.67748 2.99828V6.55646C4.67748 6.86518 4.91228 7.13727 5.22359 7.15559C5.56391 7.17652 5.84883 6.90966 5.84883 6.57477V3.0977H34.1538V7.90385H27.3025C26.1206 7.90385 25.1629 8.85357 25.1629 10.0257V19.4496H5.84883V9.30619C5.84883 8.99747 5.61404 8.72537 5.30273 8.70706C4.96241 8.68613 4.67748 8.95299 4.67748 9.28788V19.5516C4.67748 20.1377 5.15763 20.6139 5.74858 20.6139H25.1629V22.0083H4.70914C4.2712 22.0057 3.91769 21.6525 3.91769 21.2182V1.95176C3.91769 1.51484 4.27384 1.16164 4.71442 1.16164H12.6052C12.9297 1.16164 13.1909 0.902625 13.1909 0.580819C13.1909 0.259014 12.9297 0 12.6052 0H4.71442C3.62749 0 2.74634 0.873845 2.74634 1.95176V21.2182C2.74634 21.6237 2.87033 22.0005 3.08666 22.3118C2.82285 22.4819 2.60388 22.72 2.45086 23.0078L0.189949 27.3064C0.0949743 27.4843 0.0369344 27.6753 0.0131909 27.8689C0.00527635 27.9081 0 27.95 0 27.9918V30.1032C0 31.1523 0.857407 32 1.91268 32H37.8604C39.0423 32 40 31.0503 40 29.8782V10.0283C40 8.85619 39.0423 7.90647 37.8604 7.90647L37.8631 7.90385ZM1.17399 28.0285C1.17926 27.9709 1.19509 27.9081 1.22939 27.8427L3.4903 23.5467C3.61166 23.3139 3.85174 23.17 4.11555 23.17H4.70387C4.70387 23.17 4.71178 23.17 4.71442 23.17H25.1629V24.0281H23.7884C23.4639 24.0281 23.2027 24.2871 23.2027 24.6089C23.2027 24.9308 23.4639 25.1898 23.7884 25.1898H25.1629V26.3671H4.83314L5.4109 25.1898H21.05C21.3745 25.1898 21.6357 24.9308 21.6357 24.6089C21.6357 24.2871 21.3745 24.0281 21.05 24.0281H5.19984C4.88326 24.0281 4.59042 24.2087 4.45324 24.4912L3.54307 26.3462C3.41644 26.6026 3.43227 26.9008 3.58528 27.1441C3.73829 27.3875 4.00211 27.5314 4.28967 27.5314H13.1012L12.7107 28.4471C12.6975 28.4785 12.6843 28.5125 12.6764 28.5439H1.65941C1.64094 28.5439 1.62248 28.5439 1.60401 28.5412C1.59873 28.5412 1.59346 28.5412 1.59082 28.5412C1.57499 28.5412 1.5618 28.536 1.54861 28.5334C1.54597 28.5334 1.54333 28.5334 1.54069 28.5334C1.52486 28.5282 1.50904 28.5256 1.49585 28.5203C1.49321 28.5203 1.48793 28.5177 1.48529 28.5151C1.47474 28.5099 1.46419 28.5072 1.45363 28.502C1.451 28.502 1.44572 28.4994 1.44308 28.4968C1.42989 28.4915 1.41934 28.4837 1.40879 28.4758C1.40615 28.4758 1.40351 28.4732 1.40087 28.4706C1.39296 28.4654 1.38504 28.4601 1.37713 28.4549C1.37185 28.4523 1.36921 28.4471 1.36394 28.4444C1.35866 28.4392 1.35338 28.4366 1.34811 28.4314C1.34283 28.4287 1.34019 28.4235 1.33492 28.4209C1.327 28.413 1.32173 28.4078 1.31381 28.4026C1.31117 28.4 1.30853 28.3974 1.3059 28.3947C1.29534 28.3843 1.28743 28.3738 1.27951 28.3633C1.27951 28.3633 1.27951 28.3607 1.27688 28.3581C1.25841 28.3319 1.24258 28.3058 1.22675 28.2796C1.22675 28.2796 1.22675 28.2744 1.22411 28.2744C1.21884 28.2613 1.21356 28.2508 1.20828 28.2378C1.20828 28.2351 1.20565 28.2299 1.20301 28.2273C1.19773 28.2142 1.19509 28.2011 1.19245 28.1907C1.19245 28.188 1.19245 28.1828 1.19245 28.1802C1.1819 28.1331 1.17663 28.086 1.17926 28.0389L1.17399 28.0285ZM1.91268 30.8357C1.50376 30.8357 1.17135 30.5061 1.17135 30.1006V29.6375C1.17135 29.6375 1.19773 29.6427 1.20828 29.6479C1.22411 29.6532 1.2373 29.6558 1.25313 29.6584C1.27424 29.6636 1.29534 29.6689 1.31645 29.6715C1.33492 29.6741 1.35338 29.6793 1.36921 29.682C1.38768 29.6846 1.40615 29.6872 1.42461 29.6898C1.44836 29.6924 1.46946 29.695 1.49321 29.6977C1.50904 29.6977 1.52223 29.7003 1.53806 29.7029C1.57763 29.7055 1.61456 29.7081 1.65414 29.7081H15.6259V30.0509C15.6259 30.3308 15.6866 30.595 15.7921 30.8357H1.91268ZM23.2027 30.0509C23.2027 30.4825 22.8466 30.8357 22.4113 30.8357H17.594C17.1587 30.8357 16.8025 30.4825 16.8025 30.0509V29.7081H23.2027V30.0509ZM13.9428 28.5465L14.3754 27.534H25.1655V28.5465H13.9428ZM24.2079 30.8357C24.3161 30.595 24.3741 30.3308 24.3741 30.0509V29.7081H25.1629V29.8756C25.1629 30.2209 25.2473 30.548 25.3951 30.8357H24.2053H24.2079ZM38.8313 29.8756C38.8313 30.4041 38.396 30.8357 37.8631 30.8357H27.3025C26.7696 30.8357 26.3343 30.4041 26.3343 29.8756V10.0283C26.3343 9.4998 26.7696 9.06811 27.3025 9.06811H37.8604C38.3934 9.06811 38.8287 9.4998 38.8287 10.0283V29.8756H38.8313Z" fill="var(--fill-0, #CEA36F)"/>
<path d="M37.2616 9.84253H34.7316C34.3226 9.84253 33.985 10.1486 33.9454 10.5542C33.8768 11.2527 33.2938 11.7786 32.5841 11.7786C31.8744 11.7786 31.2914 11.2527 31.2228 10.5542C31.1832 10.1486 30.8455 9.84253 30.4366 9.84253H27.9066C27.4713 9.84253 27.1178 10.1931 27.1178 10.6274V29.279C27.1178 29.7107 27.4713 30.0613 27.9066 30.0613H37.2616C37.6969 30.0613 38.0504 29.7107 38.0504 29.279V15.1353C38.0504 14.8135 37.7892 14.5545 37.4647 14.5545C37.1402 14.5545 36.879 14.8135 36.879 15.1353V28.9023H28.2891V11.0042H30.1121C30.3759 12.1292 31.3864 12.9402 32.5841 12.9402C33.7818 12.9402 34.7896 12.1292 35.0561 11.0042H36.879V12.4196C36.879 12.7414 37.1402 13.0004 37.4647 13.0004C37.7892 13.0004 38.0504 12.7414 38.0504 12.4196V10.6248C38.0504 10.1931 37.6969 9.83992 37.2616 9.83992V9.84253Z" fill="var(--fill-0, #CEA36F)"/>
<path d="M32.0433 10.6457C32.0591 10.6797 32.0749 10.7138 32.096 10.7452C32.1171 10.7766 32.1435 10.8079 32.1699 10.8341C32.2781 10.9414 32.4284 11.0042 32.5841 11.0042C32.7397 11.0042 32.8901 10.9414 32.9983 10.8341C33.0247 10.8079 33.0511 10.7766 33.0722 10.7452C33.0933 10.7138 33.1117 10.6797 33.1249 10.6457C33.1407 10.6091 33.1513 10.5725 33.1592 10.5359C33.1671 10.4992 33.1698 10.46 33.1698 10.4234C33.1698 10.3867 33.1645 10.3475 33.1592 10.3108C33.1513 10.2742 33.1407 10.2376 33.1249 10.201C33.1091 10.1643 33.0933 10.1329 33.0722 10.1015C33.0511 10.0702 33.0273 10.0388 32.9983 10.0126C32.8901 9.90532 32.7371 9.84253 32.5841 9.84253C32.4311 9.84253 32.2781 9.90532 32.1699 10.0126C32.1435 10.0388 32.1171 10.0702 32.096 10.1015C32.0749 10.1329 32.0565 10.167 32.0433 10.201C32.0274 10.235 32.0169 10.2716 32.009 10.3108C32.0011 10.3475 31.9984 10.3867 31.9984 10.4234C31.9984 10.46 32.0011 10.4992 32.009 10.5359C32.0169 10.5725 32.0274 10.6091 32.0433 10.6457Z" fill="var(--fill-0, #CEA36F)"/>
</g>
</svg>
