<svg preserveAspectRatio="none" width="100%" height="100%" overflow="visible" style="display: block;" viewBox="0 0 36 40" fill="none" xmlns="http://www.w3.org/2000/svg">
<path id="Vector" fill-rule="evenodd" clip-rule="evenodd" d="M3.70485 26.8805C3.67794 26.6948 3.66598 26.506 3.66299 26.3203C3.66299 20.491 9.35096 16.7825 14.5006 15.6322C9.39881 13.2148 8.18466 6.43292 12.2069 2.40392C15.4068 -0.801307 20.5953 -0.801307 23.7952 2.40392C27.8174 6.43292 26.6033 13.2148 21.5015 15.6322C26.6511 16.7855 32.3391 20.494 32.3391 26.3203C32.3391 26.509 32.3242 26.6948 32.2973 26.8805C32.5245 26.9134 32.7518 26.9524 32.9761 26.9973C33.2961 27.0602 33.5084 27.3717 33.4456 27.6923C33.4396 27.7282 33.4277 27.7642 33.4157 27.8001C32.8864 29.3428 32.0849 30.7747 31.0502 32.0358C30.8289 32.3054 30.5956 32.569 30.3504 32.8236C32.363 33.3628 34.2291 34.3573 35.7992 35.7323C36.0444 35.948 36.0683 36.3254 35.853 36.571C35.8321 36.592 35.8111 36.613 35.7902 36.634C30.7272 41.0584 23.1971 41.1273 18.0534 36.7957H17.9487C12.805 41.1273 5.27787 41.0614 0.211921 36.634C-0.0392826 36.4243 -0.0721783 36.0498 0.140149 35.7982C0.158092 35.7742 0.182016 35.7533 0.20295 35.7323C1.77297 34.3573 3.63607 33.3628 5.65168 32.8236C4.27305 31.3858 3.22338 29.6603 2.57743 27.7731C2.47276 27.4616 2.64023 27.1231 2.95124 27.0183C2.97517 27.0093 2.99909 27.0033 3.026 26.9973C3.25029 26.9524 3.47757 26.9134 3.70485 26.8805ZM18.4571 18.6038C19.8238 20.1735 20.8136 22.0337 21.3519 24.0467C22.8352 22.5459 24.6445 21.4076 26.6392 20.7246C26.9502 20.6198 27.2881 20.7876 27.3928 21.0991C27.4018 21.1231 27.4077 21.147 27.4137 21.174C27.7965 23.1331 27.7487 25.155 27.2702 27.0932C28.5322 26.7996 29.8301 26.6888 31.122 26.7637C31.1429 26.6169 31.1549 26.4701 31.1519 26.3203C31.1519 23.5494 29.6237 21.2668 27.4377 19.5983C24.7522 17.5464 21.0918 16.4171 17.9996 16.4171C14.9074 16.4171 11.2499 17.5464 8.56146 19.5983C6.37539 21.2668 4.84723 23.5494 4.84723 26.3203C4.84723 26.4671 4.8562 26.6169 4.87714 26.7637C6.17203 26.6918 7.46693 26.8026 8.72893 27.0932C8.25045 25.155 8.2026 23.1331 8.58539 21.174C8.64819 20.8505 8.96219 20.6408 9.28218 20.7067C9.3061 20.7127 9.33302 20.7187 9.35694 20.7276C11.3516 21.4106 13.1609 22.5489 14.6442 24.0497C15.1825 22.0337 16.1753 20.1675 17.548 18.5978C17.7633 18.3522 18.1401 18.3282 18.3853 18.5439C18.4063 18.5619 18.4272 18.5858 18.4481 18.6068L18.4571 18.6038ZM21.651 25.4726C21.8783 26.9434 21.8663 28.4442 21.6151 29.912C22.895 28.8456 24.3604 28.0218 25.9334 27.4766C26.4687 25.7362 26.6153 23.8999 26.3641 22.0966C24.5488 22.8335 22.9339 23.9898 21.651 25.4696V25.4726ZM21.0469 32.1077C20.5894 33.4138 19.9374 34.6389 19.109 35.7473C24.6624 36.3793 29.9557 33.231 32.058 28.0487C27.9401 27.4796 23.8101 29.0013 21.0439 32.1077H21.0469ZM16.8961 35.7473C16.1275 34.7168 15.5085 33.5815 15.0569 32.3773C15.024 32.2874 14.9911 32.1976 14.9582 32.1077C12.189 29.0043 8.06205 27.4826 3.9441 28.0487C6.04942 33.234 11.3427 36.3793 16.8961 35.7473ZM14.39 29.912C14.1388 28.4442 14.1268 26.9434 14.3541 25.4726C13.0712 23.9898 11.4563 22.8335 9.64104 22.0996C9.38984 23.9029 9.53637 25.7392 10.0717 27.4796C11.6477 28.0218 13.1101 28.8456 14.39 29.912ZM18.0025 19.9158C14.5066 24.4241 14.5066 30.7357 18.0025 35.244C21.4985 30.7357 21.4985 24.4241 18.0025 19.9158ZM29.3157 33.7972C26.8216 35.903 23.6576 37.0443 20.398 37.0174C24.815 39.6804 30.4132 39.3479 34.4833 36.1786C32.9701 34.9954 31.1997 34.1806 29.3187 33.7972H29.3157ZM15.6071 37.0174C12.3445 37.0443 9.1805 35.903 6.6894 33.7972C4.80537 34.1806 3.03797 34.9954 1.52476 36.1786C5.59486 39.3479 11.1931 39.6834 15.6101 37.0174H15.6071ZM22.9578 3.24567C20.2215 0.504749 15.7836 0.504749 13.0472 3.24567C10.3109 5.98659 10.3109 10.432 13.0472 13.1729C15.7836 15.9138 20.2215 15.9138 22.9578 13.1729C25.6942 10.432 25.6942 5.98659 22.9578 3.24567Z" fill="var(--fill-0, #CEA36F)"/>
</svg>
