<svg preserveAspectRatio="none" width="100%" height="100%" overflow="visible" style="display: block;" viewBox="0 0 26 40" fill="none" xmlns="http://www.w3.org/2000/svg">
<g id="Vector">
<path d="M25.7199 1.30322C25.4174 0.728876 24.9016 0.306711 24.2767 0.110355C23.6518 -0.0810913 22.9872 -0.0221847 22.407 0.277258L19.2428 1.91683C18.0427 2.54026 17.5814 4.01292 18.2063 5.19597C18.6427 6.02557 19.5007 6.49682 20.3835 6.49682C20.7654 6.49682 21.1572 6.40846 21.5192 6.21701L24.6834 4.57745C25.2636 4.278 25.6901 3.76748 25.8885 3.14896C26.0819 2.53044 26.0224 1.87265 25.7199 1.29831V1.30322ZM20.9092 5.07324C20.3538 5.36287 19.6644 5.14688 19.3718 4.59708C19.0792 4.04728 19.2974 3.36495 19.8529 3.07532L20.8497 2.55498L21.9061 4.54799L20.9092 5.06833V5.07324ZM24.0733 3.43367L23.0765 3.95402L22.0201 1.96101L23.017 1.44066C23.2848 1.30322 23.5923 1.27376 23.8849 1.36212C24.1775 1.45048 24.4106 1.64684 24.5544 1.91683C24.847 2.46662 24.6288 3.14896 24.0733 3.43858V3.43367Z" fill="var(--fill-0, #0D3442)"/>
<path d="M3.24364 6.61954L4.91002 7.25279C5.19767 7.36079 5.49523 7.41478 5.7928 7.41478C6.13004 7.41478 6.47225 7.34606 6.78965 7.2037C7.38974 6.93862 7.84601 6.46246 8.08407 5.85376C8.31716 5.24996 8.30228 4.58726 8.03447 3.99329C7.76666 3.39931 7.2856 2.94278 6.67062 2.71207L5.00425 2.07882L3.72967 1.59284C3.39242 1.46521 3.01055 1.63211 2.87664 1.96592C2.7477 2.29972 2.91632 2.6777 3.25356 2.81024L3.91317 3.0606L3.09486 5.1616L2.04345 4.75907C1.76076 4.65108 1.53759 4.44 1.4136 4.1651C1.28962 3.8902 1.2797 3.58585 1.38881 3.30113C1.42352 3.21768 1.46816 3.13423 1.52767 3.05078C1.74093 2.75625 1.67149 2.34881 1.37393 2.14264C1.07636 1.93155 0.664725 2.00028 0.456428 2.29481C0.332442 2.46662 0.233253 2.64825 0.16382 2.82988C-0.0692741 3.43367 -0.0543958 4.09637 0.213415 4.69035C0.481225 5.28433 0.962292 5.74085 1.57726 5.97157L3.24364 6.60482V6.61954ZM6.82933 4.52836C6.95331 4.80325 6.96323 5.10761 6.85412 5.39232C6.74502 5.67213 6.53176 5.89303 6.25403 6.01575C5.9763 6.13847 5.66881 6.14829 5.38117 6.04029L4.32976 5.63776L5.14807 3.53676L6.19948 3.93929C6.48216 4.04729 6.70534 4.25837 6.82933 4.53327V4.52836Z" fill="var(--fill-0, #0D3442)"/>
<path d="M11.1044 6.56555C11.3176 7.17916 11.759 7.67495 12.3442 7.96458C12.6864 8.13148 13.0534 8.21493 13.4254 8.21493C13.6932 8.21493 13.961 8.17075 14.2189 8.08239C14.8388 7.87131 15.3397 7.43442 15.6324 6.85517C15.92 6.27101 15.9646 5.61322 15.7514 4.99961L14.6008 1.65175C14.3875 1.03814 13.9461 0.542338 13.3609 0.252713C12.7708 -0.0320024 12.1062 -0.0761824 11.4863 0.1349C10.8663 0.345982 10.3654 0.782873 10.0728 1.36212C9.78516 1.94628 9.74053 2.60407 9.95378 3.21768L11.1044 6.56555ZM14.452 6.27592C14.3181 6.54591 14.085 6.74717 13.7974 6.84535C13.5097 6.94353 13.2022 6.92389 12.9295 6.79135C12.6567 6.65881 12.4533 6.4281 12.3542 6.14338L11.9921 5.08797L14.1445 4.36145L14.5066 5.41687C14.6057 5.70158 14.5859 6.00593 14.452 6.27592ZM11.2581 1.93646C11.392 1.66647 11.6251 1.46521 11.9128 1.36703C12.0318 1.32776 12.1558 1.30812 12.2798 1.30812C12.4533 1.30812 12.622 1.3474 12.7807 1.42594C13.0534 1.55848 13.2568 1.7892 13.356 2.07391L13.718 3.12932L11.5656 3.85584L11.2036 2.80043C11.1044 2.51571 11.1242 2.21136 11.2581 1.94137V1.93646Z" fill="var(--fill-0, #0D3442)"/>
<path d="M18.6923 12.3433L22.2086 12.9422C22.3524 12.9667 22.4913 12.9766 22.6351 12.9766C23.136 12.9766 23.627 12.8244 24.0436 12.5348C24.5792 12.1617 24.9363 11.6021 25.0504 10.9639C25.1644 10.3258 25.0156 9.67778 24.6387 9.14762C24.2618 8.61746 23.6964 8.26402 23.0517 8.15112L19.5354 7.55223C18.2014 7.32151 16.9268 8.21002 16.6986 9.53051C16.4655 10.851 17.3632 12.1126 18.6973 12.3384L18.6923 12.3433ZM23.751 10.7479C23.7014 11.0425 23.5328 11.3026 23.2848 11.4744C23.0368 11.6462 22.7343 11.715 22.4367 11.6659L21.3258 11.4744L21.7126 9.25562L22.8236 9.44706C23.4435 9.55506 23.8601 10.1392 23.751 10.7479ZM17.9881 9.75632C18.0823 9.21144 18.5634 8.82363 19.1089 8.82363C19.1734 8.82363 19.2379 8.82854 19.3024 8.83836L20.4133 9.02981L20.0264 11.2486L18.9155 11.0572C18.2956 10.9492 17.879 10.365 17.9881 9.75632Z" fill="var(--fill-0, #0D3442)"/>
<path d="M21.8366 33.6577L18.246 32.725C17.631 32.563 17.1995 32.0132 17.1995 31.3849V29.2741C18.3154 28.8715 19.3569 28.2677 20.2694 27.4872C22.0499 25.9655 23.2253 23.8645 23.5873 21.5769C23.6419 21.2235 23.3989 20.8897 23.0368 20.8308C22.6797 20.7768 22.3425 21.0173 22.283 21.3757C21.9705 23.3589 20.9489 25.1801 19.4065 26.5005C17.8492 27.8358 15.8506 28.5721 13.7874 28.5721C9.0462 28.5721 5.18775 24.753 5.18775 20.0601V14.9156C5.18775 14.8714 5.22742 14.8321 5.27206 14.8321H22.3028C22.3475 14.8321 22.3871 14.8714 22.3871 14.9156V18.9507C22.3871 19.309 22.6797 19.6036 23.0467 19.6036C23.4137 19.6036 23.7063 19.3139 23.7063 18.9507V14.9156C23.7063 14.1498 23.0765 13.5313 22.3078 13.5313H12.4781C12.4682 13.1533 12.369 12.7753 12.1806 12.4415L11.3276 10.8903L10.4745 9.34398C10.1621 8.77455 9.64134 8.35729 9.01149 8.17566C8.38164 7.99403 7.71707 8.06276 7.14177 8.37202C5.9515 9.01508 5.51507 10.4927 6.1598 11.6708L7.01283 13.222L7.18641 13.5362H5.27702C4.50334 13.5362 3.87845 14.1596 3.87845 14.9205V20.065C3.87845 24.2915 6.59127 27.8996 10.3803 29.279V31.3849C10.3803 32.0132 9.94882 32.5679 9.33385 32.725L5.74321 33.6577C5.69361 33.6724 5.64402 33.6872 5.59442 33.697H5.57954C5.23238 33.8001 5.02904 34.1633 5.13319 34.5119C5.2175 34.7966 5.48036 34.9782 5.76304 34.9782C5.82256 34.9782 5.88703 34.9684 5.9515 34.9537H5.96638C6.0011 34.9389 6.04077 34.9291 6.07549 34.9193L9.66613 33.9866C10.8614 33.6773 11.6946 32.6072 11.6946 31.3849V29.657C12.369 29.7993 13.0733 29.8779 13.7874 29.8779C14.5016 29.8779 15.2009 29.8042 15.8803 29.657V31.3898C15.8803 32.6121 16.7135 33.6823 17.9087 33.9915L21.4994 34.9242C23.265 35.3856 24.4999 36.9663 24.4999 38.7728V39.3471C24.4999 39.7055 24.7925 40 25.1595 40C25.5265 40 25.8191 39.7104 25.8191 39.3471V38.7728C25.8191 36.3723 24.1825 34.2713 21.8366 33.6626V33.6577ZM8.68416 13.5313L8.48083 13.1631L10.4795 12.0831L11.0201 13.0649C11.0994 13.2073 11.1441 13.3693 11.154 13.5313H8.68416ZM7.22112 10.1834C7.30543 9.89377 7.49885 9.65815 7.76666 9.51088C7.93528 9.41761 8.12374 9.37343 8.3122 9.37343C8.42131 9.37343 8.53042 9.38816 8.63457 9.41761C8.92718 9.50106 9.16523 9.69251 9.31401 9.95759L9.85459 10.9394L7.85593 12.0193L7.31535 11.0375C7.17153 10.7725 7.13681 10.4681 7.22112 10.1785V10.1834Z" fill="var(--fill-0, #0D3442)"/>
<path d="M4.05203 35.1942C3.77926 34.9537 3.36267 34.9782 3.11965 35.2433C2.24183 36.2152 1.76076 37.467 1.76076 38.7679V39.3422C1.76076 39.7006 2.05337 39.9951 2.42037 39.9951C2.78737 39.9951 3.07998 39.7055 3.07998 39.3422V38.7679C3.07998 37.7861 3.44202 36.8436 4.10659 36.1122C4.3496 35.8422 4.3248 35.4298 4.05699 35.1893L4.05203 35.1942Z" fill="var(--fill-0, #0D3442)"/>
</g>
</svg>
