<svg preserveAspectRatio="none" width="100%" height="100%" overflow="visible" style="display: block;" viewBox="0 0 36 40" fill="none" xmlns="http://www.w3.org/2000/svg">
<g id="Vector">
<path d="M7.99485 23.3371C9.09703 23.3371 9.9932 22.44 9.9932 21.3367C9.9932 20.2334 9.09703 19.3363 7.99485 19.3363C6.89267 19.3363 5.99651 20.2334 5.99651 21.3367C5.99651 22.44 6.89267 23.3371 7.99485 23.3371ZM7.99485 20.6768C8.36568 20.6768 8.6644 20.9758 8.6644 21.347C8.6644 21.7182 8.36568 22.0172 7.99485 22.0172C7.62403 22.0172 7.3253 21.7182 7.3253 21.347C7.3253 20.9758 7.62403 20.6768 7.99485 20.6768Z" fill="var(--fill-0, #56B5B7)"/>
<path d="M13.3203 24.6672C12.2182 24.6672 11.322 25.5643 11.322 26.6676C11.322 27.7709 12.2182 28.668 13.3203 28.668C14.4225 28.668 15.3187 27.7709 15.3187 26.6676C15.3187 25.5643 14.4225 24.6672 13.3203 24.6672ZM13.3203 27.3378C12.9495 27.3378 12.6508 27.0388 12.6508 26.6676C12.6508 26.2964 12.9495 25.9974 13.3203 25.9974C13.6912 25.9974 13.9899 26.2964 13.9899 26.6676C13.9899 27.0388 13.6912 27.3378 13.3203 27.3378Z" fill="var(--fill-0, #56B5B7)"/>
<path d="M35.5905 22.8524L34.612 21.4811C34.5296 21.3676 34.4884 21.2439 34.4781 21.1098L34.4472 19.4394C34.4266 18.5939 33.8703 17.8515 33.0669 17.5834L31.429 17.0369C31.2951 16.9957 31.1818 16.9132 31.0994 16.8101L30.0487 15.4696C29.5234 14.8097 28.6478 14.5313 27.8341 14.7684L26.1654 15.2531C26.0315 15.2943 25.8872 15.2943 25.7533 15.2531L24.1052 14.7684C23.2915 14.5313 22.4159 14.7994 21.8906 15.4696L20.8502 16.7998C20.7678 16.9132 20.6545 16.9957 20.5206 17.0369L18.8827 17.5834C18.7179 17.6453 18.5634 17.7175 18.4089 17.8206L16.8535 10.6749H20.1188C20.7884 10.6749 21.324 10.1387 21.324 9.46848C21.324 9.1179 21.1695 8.77763 20.9017 8.55079L11.4353 0.270878C10.9718 -0.100325 10.3022 -0.0900141 9.84899 0.301812L0.434108 8.54047C0.0426799 8.86012 -0.10153 9.39631 0.0735822 9.87062C0.238394 10.3552 0.691627 10.6749 1.20666 10.6749H4.472L0.423807 29.2351C0.0838829 30.7508 1.02125 32.2563 2.53546 32.5965C2.74147 32.6481 2.94749 32.6687 3.1638 32.6687H18.1617C19.2433 32.6687 20.2218 32.0397 20.6854 31.0602C20.7472 31.1014 20.7987 31.153 20.8502 31.2045L21.3858 31.8851L19.1815 37.1747C18.9033 37.8553 19.2227 38.6389 19.9025 38.9173C20.1497 39.0204 20.4175 39.0411 20.6751 38.9895L22.4365 38.6389L23.4048 39.6082C23.652 39.8556 23.9919 40 24.3421 40C24.4554 40 24.5584 39.9897 24.6718 39.9588C25.125 39.8453 25.4855 39.5051 25.6297 39.0514L26.0006 37.8553L26.3714 39.0514C26.5053 39.5051 26.8658 39.8453 27.3293 39.9588C27.4324 39.9897 27.5457 40 27.659 40C28.0092 40 28.3491 39.8556 28.5963 39.6082L29.5646 38.6492L31.3157 38.9895C32.0368 39.1339 32.7372 38.6595 32.8814 37.9378C32.933 37.68 32.902 37.4119 32.8093 37.1644L30.605 31.8851L31.1406 31.2045C31.223 31.0911 31.3363 31.0086 31.4702 30.9674L33.1081 30.4209C33.9115 30.1528 34.4575 29.4104 34.4781 28.5752L34.509 26.8944C34.509 26.7604 34.5605 26.6367 34.6326 26.5232L35.6214 25.1415C36.1262 24.461 36.1262 23.5227 35.6214 22.8421L35.5905 22.8524ZM18.1617 31.3386H3.1638C2.35005 31.3386 1.6908 30.6787 1.6805 29.8641C1.6805 29.7506 1.6908 29.6372 1.7217 29.5238L5.8317 10.6646H8.6541C9.02493 10.6646 9.32365 10.3656 9.32365 9.99436C9.32365 9.62315 9.02493 9.32413 8.6541 9.32413H5.32696C5.32696 9.32413 5.31666 9.32413 5.30636 9.32413C5.29606 9.32413 5.30636 9.32413 5.29606 9.32413H1.54659L10.6627 1.36387L19.7789 9.33444H16.0294C16.0294 9.33444 16.0191 9.33444 16.0088 9.33444C15.9985 9.33444 15.9985 9.33444 15.9882 9.33444H12.6611C12.2903 9.33444 11.9915 9.63346 11.9915 10.0047C11.9915 10.3759 12.2903 10.6749 12.6611 10.6749H15.4938L17.5024 19.8931L17.4818 21.1098C17.4818 21.2439 17.4303 21.3676 17.3582 21.4811L16.3694 22.8524C15.8646 23.533 15.8646 24.4713 16.3694 25.1518L17.3479 26.5232C17.4303 26.6367 17.4715 26.7604 17.4818 26.8944L17.5127 28.5649C17.5333 29.4104 18.0896 30.1528 18.893 30.4209L19.439 30.6065C19.1712 31.0602 18.687 31.3283 18.1617 31.3283V31.3386ZM24.3318 38.6699L23.3636 37.7006C23.0545 37.381 22.6013 37.2469 22.1687 37.3397L20.4072 37.6903L22.3747 32.9677C22.7146 33.2049 23.1163 33.3286 23.5284 33.3286C23.7241 33.3286 23.9198 33.2977 24.1155 33.2462L25.7842 32.7615C25.9078 32.7203 26.0418 32.7203 26.1654 32.7615L24.3524 38.6699H24.3318ZM31.5424 37.6903L29.8015 37.3397C29.3586 37.2366 28.9054 37.381 28.586 37.7006L27.6178 38.6699L26.6701 35.5868L27.4221 33.1224L27.8341 33.2462C28.4212 33.4214 29.0599 33.3286 29.5749 32.9884L31.5424 37.6903ZM34.5193 24.3682L33.5201 25.7602C33.2935 26.0902 33.1699 26.4717 33.1493 26.8635L33.1184 28.5442C33.1081 28.8226 32.9227 29.0701 32.6548 29.1526L31.017 29.6991C30.6359 29.8228 30.3063 30.06 30.059 30.3796L29.0187 31.7098C28.8333 31.9469 28.5139 32.0397 28.2255 31.9572L26.5774 31.4726C26.1963 31.3592 25.7842 31.3592 25.4031 31.4726L23.7344 31.9572C23.446 32.0397 23.1369 31.9469 22.9515 31.7098L21.9009 30.359C21.6536 30.0497 21.324 29.8125 20.9429 29.6888L19.3154 29.1423C19.0476 29.0598 18.8518 28.8123 18.8415 28.5236L18.8106 26.8429C18.8003 26.4407 18.6664 26.0592 18.4398 25.7293L17.4509 24.3476C17.2861 24.131 17.2861 23.832 17.4509 23.6052L18.4501 22.2131C18.6767 21.8832 18.8106 21.5017 18.8209 21.0995L18.8518 19.4188C18.8621 19.1404 19.0476 18.8929 19.3154 18.8104L20.9532 18.264C21.3343 18.1402 21.6639 17.9031 21.9112 17.5834L22.9515 16.2533C23.0957 16.078 23.3018 15.9749 23.5284 15.9749C23.6005 15.9749 23.6726 15.9852 23.7447 16.0058L25.3928 16.4904C25.7739 16.6038 26.186 16.6038 26.5774 16.4904L28.2461 16.0058C28.5345 15.9233 28.8436 16.0161 29.029 16.2533L30.0796 17.604C30.3269 17.9134 30.6565 18.1505 31.0376 18.2743L32.6651 18.8208C32.9329 18.9032 33.1287 19.1507 33.139 19.4394L33.1699 21.1202C33.1802 21.5223 33.3141 21.9038 33.5407 22.2338L34.5296 23.6258C34.6944 23.8423 34.6944 24.1413 34.5296 24.3579L34.5193 24.3682Z" fill="var(--fill-0, #56B5B7)"/>
<path d="M25.9799 18.0062C22.6734 18.0062 19.9849 20.6974 19.9849 24.0073C19.9849 27.3172 22.6734 30.0084 25.9799 30.0084C29.2865 30.0084 31.975 27.3172 31.975 24.0073C31.975 20.6974 29.2865 18.0062 25.9799 18.0062ZM25.9799 28.668C23.4048 28.668 21.3137 26.5748 21.3137 23.997C21.3137 21.4192 23.4048 19.3363 25.9799 19.326C28.5551 19.326 30.6462 21.4192 30.6462 23.997C30.6462 26.5748 28.5551 28.668 25.9799 28.668Z" fill="var(--fill-0, #56B5B7)"/>
<path d="M15.1127 19.5322C14.8551 19.2848 14.4431 19.2848 14.1856 19.5322L6.19222 27.5337C5.99651 27.7812 6.04801 28.1833 6.19222 28.4721C6.44974 28.7298 6.87207 28.7298 7.12959 28.4721L15.123 20.4706C15.3805 20.2025 15.3702 19.7797 15.1024 19.5322H15.1127Z" fill="var(--fill-0, #56B5B7)"/>
<path d="M27.4221 21.6357L25.2074 24.9559L24.4451 24.1929C24.1773 23.9351 23.755 23.9454 23.5078 24.2135C23.2606 24.4713 23.2606 24.8838 23.5078 25.1415L24.8366 26.4717C24.9602 26.5954 25.1353 26.6676 25.3104 26.6676C25.331 26.6676 25.3516 26.6676 25.3722 26.6676C25.5679 26.647 25.7533 26.5439 25.8563 26.3789L28.5242 22.3781C28.7302 22.0688 28.6478 21.6563 28.3388 21.4501C28.0298 21.2439 27.6178 21.3264 27.4118 21.6357H27.4221Z" fill="var(--fill-0, #56B5B7)"/>
</g>
</svg>
