<svg preserveAspectRatio="none" width="100%" height="100%" overflow="visible" style="display: block;" viewBox="0 0 36 38" fill="none" xmlns="http://www.w3.org/2000/svg">
<g id="Vector">
<path d="M29.3943 27.9944C29.1811 27.7538 28.8398 27.7271 28.5924 27.9231C28.5924 27.9231 28.5924 27.9231 28.5839 27.9231C28.3024 28.1458 28.2768 28.5735 28.5071 28.8407L31.6209 32.3599C31.8 32.5648 31.7915 32.8766 31.5953 33.0726L30.4095 34.2219C30.2133 34.409 29.9147 34.4001 29.727 34.1951L21.6312 25.0543C21.4521 24.8494 21.4606 24.5376 21.6568 24.3505L22.8426 23.2012C23.0388 23.0141 23.3374 23.023 23.5251 23.228L24.7535 24.6089C24.9583 24.8405 25.308 24.8761 25.5469 24.6891H25.5554C25.8369 24.4574 25.8711 24.0298 25.6322 23.7625L24.4038 22.3727C23.7725 21.6599 22.7061 21.6154 22.0236 22.2747L20.8293 23.4329C20.326 23.9318 20.1639 24.698 20.4198 25.3751L19.5411 26.2214C19.2682 26.4887 18.8587 26.5333 18.5345 26.3373C16.871 25.2325 15.3695 23.8872 14.0643 22.3549C12.6994 20.8759 11.5306 19.2099 10.6093 17.3924C10.4472 17.0361 10.524 16.6173 10.797 16.359L11.6757 15.5126C12.2984 15.8333 13.0491 15.7264 13.561 15.2275L14.7468 14.0782C15.4293 13.419 15.4719 12.3053 14.8406 11.5926L13.1174 9.64146C12.9041 9.40091 12.5458 9.33855 12.2899 9.54346C11.9998 9.7751 11.9742 10.2027 12.2131 10.47L13.9619 12.4479C14.1411 12.6528 14.1326 12.9646 13.9363 13.1606L12.7505 14.3099C12.5543 14.497 12.2558 14.4881 12.0766 14.2831L3.98932 5.13342C3.81017 4.92851 3.8187 4.61669 4.01491 4.42068L5.2007 3.2714C5.39691 3.08431 5.6955 3.09322 5.88318 3.29813L7.71732 5.36506C7.93059 5.6056 8.29742 5.66797 8.54482 5.46306C8.83487 5.23142 8.86046 4.80378 8.62159 4.5365L6.77039 2.44285C6.13057 1.74793 5.08127 1.71229 4.39027 2.34485L3.20447 3.49413C2.69262 3.99304 2.53053 4.75923 2.78646 5.43633L1.18265 6.99544C0.483118 7.64581 0.0736353 8.55454 0.0224499 9.52564C-0.105514 12.0202 0.176006 17.9181 4.59501 24.6356C4.77416 24.9118 5.14099 25.0187 5.41398 24.8405C5.72962 24.6445 5.79787 24.2347 5.60166 23.9407C1.37886 17.535 1.10587 11.9578 1.22531 9.59691C1.25943 8.95545 1.53242 8.34963 1.99309 7.92199L3.51159 6.45198L10.7884 14.6662L9.99507 15.4324C9.32966 16.0739 9.14198 17.1073 9.54293 17.9626C10.524 19.887 11.7524 21.651 13.1942 23.219C14.5762 24.8494 16.1714 26.266 17.9288 27.4331C18.7136 27.9142 19.7032 27.8073 20.3772 27.1569L21.1705 26.3907L28.4389 34.605L26.9204 36.075C26.4682 36.5115 25.8711 36.7521 25.2568 36.7432C22.9194 36.6897 17.2634 35.9146 11.2065 30.4711C11.0017 30.284 10.6946 30.2395 10.4643 30.3998C10.123 30.6404 10.106 31.1393 10.4046 31.4066C16.5724 36.9481 22.3819 37.8835 25.0009 37.9905C25.0777 37.9905 25.1545 37.9905 25.2312 37.9994C26.1611 38.0172 27.0569 37.6608 27.7393 37.0015L29.3431 35.4513C29.9659 35.781 30.7166 35.6652 31.2285 35.1662L32.4143 34.017C33.0967 33.3577 33.1394 32.244 32.5081 31.5313L29.3943 28.0211V27.9944Z" fill="var(--fill-0, #0D3442)"/>
<path d="M34.6408 9.21382C34.4702 8.82182 33.9754 8.72382 33.6768 9.02673C33.4892 9.21382 33.438 9.50782 33.5489 9.75728C34.419 11.744 34.8626 13.9713 34.7773 16.3055C34.7603 16.653 34.4873 16.9203 34.1546 16.9113C33.8219 16.9024 33.5659 16.6084 33.5745 16.261C33.8389 8.96436 28.3962 2.81703 21.4094 2.52303C21.0767 2.50521 20.8208 2.22012 20.8293 1.87266C20.8464 1.5252 21.1194 1.25793 21.4521 1.26684C23.9346 1.37375 26.2379 2.14884 28.2085 3.42286C28.4389 3.57431 28.7374 3.54758 28.9337 3.35158L28.9507 3.33376C29.2322 3.05758 29.1896 2.56758 28.8569 2.35376C26.7156 0.963924 24.2075 0.117553 21.5032 0.00173328C20.5051 -0.0428126 19.6606 0.776831 19.6264 1.8192C19.5923 2.86158 20.3686 3.74359 21.3668 3.77922C27.6881 4.0465 32.6105 9.60582 32.3716 16.2075C32.329 17.2499 33.1138 18.1319 34.1119 18.1675C35.11 18.2121 35.9546 17.3924 35.9887 16.3501C36.0825 13.811 35.5878 11.3787 34.6408 9.21382Z" fill="var(--fill-0, #0D3442)"/>
<path d="M28.6692 16.6797C28.3536 16.6352 28.1488 16.3144 28.1573 15.9848C28.1915 14.9424 28.0123 13.9446 27.6796 13.0269C27.5261 12.6082 27.0142 12.4924 26.6986 12.8042C26.5194 12.9824 26.4597 13.2497 26.545 13.4813C26.8351 14.2564 26.9716 15.1028 26.946 15.9848C26.9033 17.0272 27.6881 17.9092 28.6863 17.9448C29.6844 17.9804 30.5289 17.1697 30.5631 16.1273C30.7678 10.568 26.6218 5.88179 21.29 5.65906C20.2919 5.61451 19.4473 6.43416 19.4132 7.47653C19.3791 8.5189 20.1554 9.40091 21.1535 9.43655C22.0407 9.47219 22.8682 9.70382 23.6104 10.0958C23.8322 10.2116 24.1052 10.176 24.2928 9.98892C24.6 9.68601 24.5232 9.16037 24.1478 8.96436C23.2691 8.50109 22.2881 8.2249 21.2388 8.18036C20.9231 8.16254 20.6416 7.92199 20.616 7.59235C20.5904 7.20926 20.889 6.90634 21.2388 6.91525C25.8967 7.11125 29.5223 11.2095 29.3517 16.0739C29.3346 16.4481 29.019 16.7243 28.6607 16.6708L28.6692 16.6797Z" fill="var(--fill-0, #0D3442)"/>
<path d="M20.9402 15.1117C21.2729 15.1295 21.5288 15.4146 21.5203 15.7621C21.4777 16.8044 22.2625 17.6864 23.2606 17.7221C24.2587 17.7577 25.1033 16.947 25.1374 15.9046C25.2227 13.4724 23.4142 11.4233 21.0852 11.3253C20.0871 11.2807 19.2426 12.1004 19.2084 13.1428C19.1658 14.1851 19.9506 15.0671 20.9487 15.1028L20.9402 15.1117ZM21.034 12.5904C22.6976 12.6617 23.9943 14.1228 23.9346 15.8601C23.9175 16.2075 23.6445 16.4748 23.3118 16.4659C22.9791 16.4481 22.7232 16.163 22.7317 15.8155C22.7744 14.7731 21.9895 13.8911 20.9914 13.8555C20.6587 13.8377 20.4028 13.5526 20.4113 13.2051C20.4198 12.8577 20.7013 12.5904 21.034 12.5993V12.5904Z" fill="var(--fill-0, #0D3442)"/>
</g>
</svg>
