<svg preserveAspectRatio="none" width="100%" height="100%" overflow="visible" style="display: block;" viewBox="0 0 35 40" fill="none" xmlns="http://www.w3.org/2000/svg">
<g id="Vector">
<path d="M19.881 35.257C19.4429 35.257 19.0873 35.607 19.0873 36.0383C19.0873 36.4695 19.4429 36.8195 19.881 36.8195C20.319 36.8195 20.6746 36.4695 20.6746 36.0383C20.6746 35.607 20.319 35.257 19.881 35.257Z" fill="var(--fill-0, #0D3442)"/>
<path d="M8.73016 15.6477C8.29183 15.6477 7.93651 15.9974 7.93651 16.4289V31.3508C7.93651 31.7823 8.29183 32.132 8.73016 32.132C9.16849 32.132 9.52381 31.7823 9.52381 31.3508V16.4289C9.52381 15.9974 9.16849 15.6477 8.73016 15.6477Z" fill="var(--fill-0, #0D3442)"/>
<path d="M15.0794 15.6477C14.641 15.6477 14.2857 15.9974 14.2857 16.4289V31.3508C14.2857 31.7823 14.641 32.132 15.0794 32.132C15.5177 32.132 15.873 31.7823 15.873 31.3508V16.4289C15.873 15.9974 15.5177 15.6477 15.0794 15.6477Z" fill="var(--fill-0, #0D3442)"/>
<path d="M31.0317 12.5781H27.0635V10.2141C28.3075 9.29609 28.8988 7.74437 28.5482 6.21227C28.2202 4.77555 27.0154 3.60305 25.5507 3.29469C24.7721 3.13023 23.9879 3.18844 23.2733 3.45586C22.5568 2.34391 21.2986 1.64062 19.9206 1.64062C19.4013 1.64062 18.8937 1.73977 18.4244 1.93055C17.096 0.697031 15.3447 0 13.5317 0C11.1337 0 8.89714 1.20258 7.57698 3.17023C3.42857 2.9443 0 6.18406 0 10.1789V19.5539C0 20.8462 1.08587 21.8977 2.42063 21.8977C2.71341 21.8977 2.99397 21.8452 3.25397 21.7498V36.0937C3.25397 38.2477 5.03413 40 7.22222 40H23.0952C25.2833 40 27.0635 38.2477 27.0635 36.0937V33.75H31.0317C33.2198 33.75 35 31.9977 35 29.8437V16.4844C35 14.3305 33.2198 12.5781 31.0317 12.5781ZM25.4762 35.3125H23.0548C22.6164 35.3125 22.2611 35.6623 22.2611 36.0937C22.2611 36.5252 22.6164 36.8672 23.0548 36.8672H25.3397C25.0121 37.7765 24.1298 38.4375 23.0952 38.4375H7.22222C6.18762 38.4375 5.3054 37.7843 4.97778 36.875H16.7071C17.1455 36.875 17.5008 36.5252 17.5008 36.0937C17.5008 35.6623 17.1455 35.3125 16.7071 35.3125H4.84127V14.0239C6.62405 13.759 8.16778 12.6538 8.97937 11.0157C9.14492 11.0157 9.29079 11.0721 9.40071 11.1783C10.2964 12.0453 11.4817 12.5227 12.7381 12.5227C14.0403 12.5227 15.256 12.0153 16.1615 11.0934C16.2099 11.0441 16.2784 11.0157 16.3492 11.0157C17.5847 11.0157 18.3931 11.2755 18.7521 11.7877C19.0481 12.2099 19.0479 12.7966 19.0476 13.2681V16.429C19.0476 17.4474 19.7112 18.3159 20.6349 18.6384V31.3509C20.6349 31.7823 20.9902 32.1321 21.4286 32.1321C21.8669 32.1321 22.2222 31.7823 22.2222 31.3509V18.6383C23.146 18.3158 23.8095 17.4474 23.8095 16.4289V10.9239C24.3655 11.0331 24.9329 11.0338 25.4762 10.9245V35.3125ZM23.3756 9.13648C23.1296 9.01328 22.8363 9.02477 22.6009 9.16687C22.3656 9.30891 22.2221 9.56109 22.2221 9.83281V16.4289C22.2221 16.8597 21.8661 17.2102 21.4285 17.2102C20.9909 17.2102 20.6348 16.8597 20.6348 16.4289V13.2686C20.6351 12.6533 20.6355 11.7234 20.0586 10.9002C19.3856 9.94 18.1376 9.45312 16.3492 9.45312C15.85 9.45312 15.3654 9.65539 15.0199 10.0077C14.4166 10.622 13.6062 10.9602 12.7381 10.9602C11.9006 10.9602 11.1106 10.642 10.5131 10.0635C10.1057 9.66984 9.56103 9.45312 8.97937 9.45312C8.37786 9.45312 7.81881 9.79664 7.55508 10.3283C6.88984 11.6692 5.54317 12.5101 4.04079 12.5227C3.60516 12.5264 3.25389 12.8751 3.25389 13.304V19.5169C3.22595 19.977 2.86254 20.3352 2.42063 20.3352C1.96897 20.3352 1.5873 19.9773 1.5873 19.5539V10.1789C1.5873 7.16359 4.09381 4.72172 7.17516 4.72172C7.4146 4.72172 7.65532 4.73672 7.89587 4.76711C8.21691 4.80766 8.53064 4.65219 8.68897 4.37445C9.67754 2.64 11.5332 1.5625 13.5317 1.5625C15.0976 1.5625 16.6073 2.23555 17.6736 3.40914C17.932 3.69367 18.3615 3.75273 18.6894 3.54859C19.0523 3.32258 19.4781 3.20312 19.9206 3.20312C20.931 3.20312 21.834 3.83289 22.1677 4.77008C22.2489 4.9982 22.4329 5.17656 22.6659 5.25297C22.8988 5.32937 23.1547 5.29531 23.3587 5.16062C23.8996 4.80359 24.5598 4.68352 25.2181 4.82258C26.0752 5.00305 26.8078 5.71539 26.9995 6.55531C27.4513 8.52906 25.396 10.1481 23.3756 9.13648ZM27.0635 17.2656H30.2381V29.0625H27.0635V17.2656ZM33.4127 29.8437C33.4127 31.1361 32.3446 32.1875 31.0317 32.1875H27.0635V30.625H31.0317C31.4701 30.625 31.8254 30.2752 31.8254 29.8437V16.4844C31.8254 16.0529 31.4701 15.7031 31.0317 15.7031H27.0635V14.1406H31.0317C32.3446 14.1406 33.4127 15.192 33.4127 16.4844V29.8437Z" fill="var(--fill-0, #0D3442)"/>
</g>
</svg>
