<svg preserveAspectRatio="none" width="100%" height="100%" overflow="visible" style="display: block;" viewBox="0 0 40 40" fill="none" xmlns="http://www.w3.org/2000/svg">
<g id="Vector">
<path d="M31.998 27.5657C31.9223 25.4642 30.9181 23.6197 29.0933 22.2322C27.7536 21.2136 26.012 20.4619 24.0075 20.0271C24.5977 19.5714 25.1082 19.0174 25.5151 18.3906C25.7207 18.0742 25.4925 17.6555 25.1151 17.6555C24.955 17.6555 24.8047 17.7351 24.7179 17.8693C23.7165 19.4164 21.9753 20.4426 19.9987 20.4426C16.8866 20.4426 14.36 17.8998 14.3841 14.7833C14.4074 11.7454 16.8737 9.25936 19.9112 9.21272C22.1604 9.17827 24.118 10.4739 25.0451 12.3622C25.1255 12.5262 25.2909 12.6309 25.4735 12.6309H25.4753C25.8262 12.6309 26.0587 12.2635 25.9044 11.9485C24.8352 9.76526 22.5899 8.25833 19.9991 8.25833C16.3757 8.25833 13.4304 11.2051 13.4304 14.8271C13.4304 16.9415 14.4357 18.8244 15.9922 20.0271C13.988 20.4619 12.2464 21.2136 10.9067 22.2322C9.08192 23.6197 8.0766 25.4639 8.00018 27.5653C8.00018 27.5711 8.00018 27.5768 8.00018 27.5825V27.5915C8.00018 27.7584 8.13544 27.8936 8.30228 27.8936H8.6521C8.81893 27.8936 8.9542 27.7584 8.9542 27.5915C9.10991 23.4765 13.2916 21.3772 17.2063 20.7709C18.0545 21.1713 19.001 21.3962 19.9995 21.3962C20.998 21.3962 21.9455 21.1713 22.7941 20.7709C26.7095 21.3769 30.8915 23.4765 31.0451 27.5915V32.4959H26.543C26.9851 32.1762 27.2129 31.6473 27.2129 31.1224C27.2129 30.2889 26.6399 29.4454 25.5449 29.4454H23.7273C23.5759 29.4454 23.4883 29.3611 23.4492 29.3105C23.4108 29.261 23.3523 29.1562 23.39 29.0113C23.4298 28.857 23.4732 28.7027 23.5167 28.5477C23.7553 27.6945 24.0021 26.8119 23.7527 25.9081C23.4392 24.7671 22.4923 23.9602 21.5577 24.0298C20.815 24.0854 20.3059 24.6656 20.1964 25.5812C20.1584 25.8941 20.0888 26.2554 19.9891 26.6536C19.7795 27.4867 19.5406 28.0949 19.2639 28.7989L19.2317 28.881C19.0157 29.4307 17.9282 30.0668 17.0377 30.2186C16.8579 29.8239 16.4607 29.548 15.9997 29.548H13.9277C13.3002 29.548 12.7893 30.0596 12.7893 30.6886V32.4951H8.95384V31.5931C8.95384 31.3298 8.74036 31.1163 8.47701 31.1163C8.21366 31.1163 8.00018 31.3298 8.00018 31.5931V32.972C8.00018 33.2353 8.21366 33.4488 8.47701 33.4488H12.7896V38.83C12.7896 39.4589 13.3002 39.9706 13.9281 39.9706H16.0001C16.5077 39.9706 16.939 39.6369 17.0861 39.1773C17.6089 39.1486 18.0168 39.2835 18.546 39.4597C19.2693 39.7004 20.1695 40 21.7005 40H24.1908C25.2858 40 25.8588 39.1561 25.8588 38.323C25.8588 37.9775 25.7602 37.6302 25.5671 37.3421C25.6877 37.2653 25.7971 37.1716 25.8929 37.0633C26.1613 36.7583 26.3095 36.3536 26.3095 35.9227C26.3095 35.5782 26.2119 35.2324 26.0199 34.945C26.5089 34.6325 26.7612 34.0753 26.7612 33.5224C26.7612 33.498 26.7594 33.4736 26.7587 33.4492H31.5226C31.786 33.4492 31.9995 33.2357 31.9995 32.9723V27.5822C31.9995 27.5764 31.9995 27.5707 31.9995 27.565L31.998 27.5657ZM25.5442 31.8457H24.3046C24.0477 31.8457 23.8266 32.0431 23.8148 32.2996C23.8019 32.5733 24.02 32.7994 24.2913 32.7994H25.0921C25.6191 32.7994 25.8064 33.189 25.8064 33.5227C25.8064 33.8564 25.6195 34.246 25.0921 34.246H23.958C23.7011 34.246 23.4801 34.4434 23.4682 34.6999C23.4553 34.9737 23.6734 35.1997 23.9447 35.1997H24.6422C25.1682 35.1997 25.3547 35.5894 25.3547 35.923C25.3547 36.2567 25.1682 36.6464 24.6422 36.6464H23.6117C23.3548 36.6464 23.1338 36.8437 23.122 37.1002C23.1091 37.374 23.3272 37.6 23.5985 37.6H24.1901C24.7172 37.6 24.9044 37.9897 24.9044 38.3234C24.9044 38.657 24.7175 39.0467 24.1901 39.0467H21.6998C20.3231 39.0467 19.5384 38.7855 18.8463 38.5551C18.3081 38.3761 17.7929 38.2057 17.1399 38.2215V37.1871C17.1399 36.9237 16.9264 36.7102 16.6631 36.7102C16.3997 36.7102 16.1863 36.9237 16.1863 37.1871V38.8311C16.1863 38.9337 16.1023 39.0176 15.9997 39.0176H13.9281C13.8262 39.0176 13.7436 38.9337 13.7436 38.8311V30.6897C13.7436 30.5867 13.8262 30.5031 13.9281 30.5031H16.0001C16.103 30.5031 16.1866 30.5867 16.1866 30.6897V32.6311C16.1866 32.8945 16.4001 33.108 16.6635 33.108C16.9268 33.108 17.1403 32.8945 17.1403 32.6311V31.168C18.306 30.9864 19.7419 30.1917 20.1193 29.2308L20.1516 29.149C20.4404 28.4142 20.6898 27.7799 20.9144 26.8865C21.0238 26.4491 21.1009 26.0487 21.1433 25.696C21.1806 25.3839 21.295 25.0068 21.6287 24.9817C22.0428 24.9501 22.6283 25.4172 22.8332 26.1621C23.0122 26.8108 22.8113 27.5298 22.5982 28.2915C22.5533 28.4523 22.5085 28.6126 22.4672 28.7716C22.3642 29.1645 22.4471 29.5735 22.6943 29.8939C22.9422 30.2154 23.319 30.3998 23.7273 30.3998H25.5449C26.0719 30.3998 26.2592 30.7894 26.2592 31.1231C26.2592 31.4568 26.0723 31.8464 25.5449 31.8464L25.5442 31.8457Z" fill="var(--fill-0, #56B5B7)"/>
<path d="M16.1396 3.41606L17.8625 4.90326L17.3437 7.11701C17.2999 7.30394 17.3724 7.49877 17.5278 7.61179C17.611 7.67242 17.7093 7.70292 17.808 7.70292C17.8934 7.70292 17.9788 7.67996 18.0552 7.63403L19.9995 6.45612L21.9459 7.63403C22.1099 7.73342 22.3179 7.72481 22.4733 7.61179C22.6287 7.49877 22.7011 7.30394 22.657 7.11701L22.1382 4.90326L23.8611 3.41606C24.0064 3.29049 24.0624 3.09028 24.0032 2.90766C23.944 2.72503 23.7807 2.59586 23.5895 2.57972L21.322 2.39028L20.4397 0.292057C20.3654 0.115172 20.1921 0 20.0002 0C19.8082 0 19.6349 0.115172 19.5607 0.292416L18.6806 2.39028L16.4134 2.57972C16.2222 2.59586 16.0589 2.72503 15.9997 2.90766C15.9405 3.09028 15.9961 3.29049 16.1418 3.41606H16.1396ZM19.0462 3.31632C19.223 3.30161 19.3773 3.18967 19.4462 3.0257L19.9991 1.70821L20.5534 3.02606C20.6223 3.18967 20.7762 3.30161 20.9531 3.31632L22.3775 3.43544L21.2954 4.36974C21.1612 4.48563 21.102 4.66682 21.1426 4.8394L21.4687 6.23043L20.2456 5.49025C20.1699 5.44432 20.0841 5.42136 19.9987 5.42136C19.9134 5.42136 19.8276 5.44432 19.7515 5.49025L18.5309 6.22972L18.8567 4.8394C18.8973 4.66646 18.8384 4.48563 18.7039 4.36974L17.6218 3.43544L19.0462 3.31632Z" fill="var(--fill-0, #56B5B7)"/>
<path d="M39.9993 15.403C39.9893 15.2114 39.8652 15.0442 39.6847 14.9792L37.5427 14.2085L37.2352 11.955C37.2094 11.7648 37.0716 11.6084 36.8865 11.5589C36.701 11.5094 36.5037 11.5754 36.386 11.7271L34.9907 13.5258L32.7533 13.1225C32.5642 13.0884 32.3733 13.1709 32.2689 13.332C32.1641 13.4931 32.1663 13.7009 32.2739 13.8598L33.5516 15.7424L32.4777 17.7466C32.387 17.916 32.4067 18.123 32.5276 18.2722C32.6485 18.4215 32.8473 18.4836 33.0313 18.4301L35.2149 17.7954L36.79 19.4383C36.8815 19.5341 37.0067 19.5851 37.1344 19.5851C37.1918 19.5851 37.2496 19.5747 37.3052 19.5535C37.4846 19.4846 37.6048 19.3152 37.6109 19.1233L37.6827 16.8493L39.731 15.8568C39.9039 15.7732 40.0094 15.5942 39.9993 15.4023V15.403ZM37.0071 16.117C36.8474 16.1941 36.7441 16.3538 36.7383 16.531L36.6931 17.9594L35.7032 16.9268C35.6121 16.8317 35.4869 16.78 35.3588 16.78C35.3143 16.78 35.2698 16.7861 35.2257 16.799L33.854 17.1976L34.5286 15.939C34.6125 15.7826 34.6025 15.5928 34.5027 15.446L33.6998 14.2627L35.1055 14.516C35.2802 14.5476 35.4582 14.4794 35.5669 14.3391L36.4434 13.2093L36.6364 14.6244C36.6605 14.8006 36.7803 14.9487 36.9475 15.0087L38.2947 15.4934L37.0067 16.1173L37.0071 16.117Z" fill="var(--fill-0, #56B5B7)"/>
<path d="M34.3373 6.77329C34.3273 6.58169 34.2031 6.4145 34.0227 6.34955L31.8807 5.57923L31.5732 3.32565C31.5474 3.13549 31.41 2.97941 31.2245 2.92954C31.039 2.87967 30.8417 2.94605 30.724 3.09746L29.3286 4.89429L27.0887 4.49101C26.9 4.45728 26.7088 4.53944 26.6044 4.70054C26.5 4.86164 26.5021 5.06974 26.6098 5.22833L27.8896 7.11091L26.8153 9.11728C26.7246 9.28663 26.7443 9.49365 26.8652 9.64255C26.9861 9.79181 27.1842 9.85388 27.369 9.80042L29.5529 9.16572L31.128 10.8065C31.2195 10.9019 31.3447 10.9532 31.472 10.9532C31.5295 10.9532 31.5872 10.9428 31.6428 10.9216C31.8219 10.8528 31.9424 10.6834 31.9485 10.4915L32.0203 8.21779L34.0682 7.22752C34.2412 7.14392 34.347 6.96488 34.337 6.77293L34.3373 6.77329ZM31.3454 7.48477C31.1854 7.56191 31.082 7.72158 31.0763 7.89918L31.0311 9.32861L30.0412 8.29708C29.9501 8.202 29.8249 8.15033 29.6971 8.15033C29.6526 8.15033 29.6081 8.15643 29.564 8.16935L28.1917 8.56833L28.8669 7.30681C28.9508 7.15038 28.9404 6.96022 28.8407 6.81347L28.0367 5.63053L29.4438 5.88384C29.6175 5.91506 29.7961 5.84724 29.9049 5.70696L30.7814 4.57819L30.9744 5.99399C30.9984 6.17016 31.1183 6.31834 31.2855 6.37826L32.6313 6.86227L31.345 7.48406L31.3454 7.48477Z" fill="var(--fill-0, #56B5B7)"/>
<path d="M5.93141 7.22752L7.97973 8.21779L8.05149 10.4915C8.05759 10.6834 8.17814 10.8528 8.35717 10.9216C8.41279 10.9432 8.47055 10.9536 8.52796 10.9536C8.65533 10.9536 8.78054 10.9023 8.87203 10.8068L10.4471 9.16608L12.631 9.80078C12.8151 9.85424 13.0139 9.79217 13.1348 9.64291C13.2557 9.49365 13.2754 9.28663 13.1847 9.11764L12.1104 7.11091L13.3884 5.22797C13.4961 5.06902 13.4982 4.86128 13.3935 4.70018C13.2891 4.53944 13.0975 4.45656 12.9091 4.49065L10.6714 4.89393L9.27603 3.0971C9.15835 2.94533 8.96101 2.87895 8.77552 2.92918C8.59003 2.97906 8.45261 3.13513 8.42678 3.32529L8.1193 5.57887L5.97734 6.3492C5.79687 6.41414 5.67273 6.58133 5.66268 6.77293C5.65264 6.96452 5.75848 7.14392 5.93141 7.22752ZM8.71417 6.37862C8.88136 6.31834 9.0012 6.17052 9.02524 5.99435L9.21826 4.57855L10.0948 5.70732C10.2035 5.8476 10.3815 5.91577 10.5562 5.8842L11.9619 5.63089L11.1589 6.81419C11.0592 6.96094 11.0495 7.15074 11.1331 7.30717L11.8083 8.56869L10.436 8.16971C10.2656 8.12019 10.0819 8.16971 9.9588 8.29744L8.96891 9.32897L8.9237 7.89954C8.91796 7.72229 8.81427 7.56263 8.65461 7.48513L7.36836 6.86334L8.71417 6.37933V6.37862Z" fill="var(--fill-0, #56B5B7)"/>
<path d="M6.96867 18.4305C7.15308 18.4839 7.35149 18.4219 7.4724 18.2726C7.59332 18.1233 7.61305 17.9163 7.52228 17.747L6.44843 15.7427L7.72607 13.8602C7.8337 13.7012 7.83586 13.4935 7.73109 13.3324C7.62668 13.1716 7.43509 13.0888 7.24673 13.1228L5.00933 13.5261L3.61401 11.7275C3.49632 11.5757 3.29971 11.5094 3.1135 11.5592C2.928 11.6091 2.79059 11.7652 2.76476 11.9553L2.45728 14.2089L0.315316 14.9792C0.134846 15.0442 0.0107052 15.211 0.000659183 15.403C-0.00938686 15.5946 0.0960966 15.7736 0.269032 15.8576L2.31735 16.85L2.38911 19.124C2.39521 19.316 2.51576 19.4853 2.69479 19.5542C2.75041 19.5754 2.80817 19.5858 2.86558 19.5858C2.99295 19.5858 3.11816 19.5345 3.21001 19.439L4.78509 17.7961L6.96867 18.4308V18.4305ZM4.29642 16.9271L3.30653 17.9597L3.26132 16.5314C3.25558 16.3541 3.15225 16.1945 2.99259 16.1173L1.70454 15.4934L3.05179 15.0087C3.21898 14.9484 3.33882 14.8006 3.36286 14.6244L3.55588 13.2097L4.4324 14.3395C4.54111 14.4798 4.71907 14.548 4.8938 14.5164L6.29953 14.2631L5.49656 15.4464C5.39682 15.5931 5.38713 15.7833 5.47073 15.9394L6.14525 17.198L4.77325 16.7994C4.60246 16.7499 4.41877 16.7994 4.2957 16.9275L4.29642 16.9271Z" fill="var(--fill-0, #56B5B7)"/>
</g>
</svg>
