<svg preserveAspectRatio="none" width="100%" height="100%" overflow="visible" style="display: block;" viewBox="0 0 35 40" fill="none" xmlns="http://www.w3.org/2000/svg">
<path id="Vector" d="M34.9939 27.3756C34.9939 25.6724 33.9108 24.1325 32.2953 23.5396C31.9893 23.4276 31.6467 23.5819 31.5335 23.8844C31.4202 24.187 31.5763 24.5258 31.8822 24.6377C33.0327 25.0582 33.8067 26.1594 33.8067 27.3726C33.8067 28.982 32.485 30.2889 30.8573 30.2889C29.2296 30.2889 27.9078 28.982 27.9078 27.3726C27.9078 26.1988 28.6146 25.1429 29.7099 24.6861C30.0098 24.5591 30.1536 24.2172 30.0251 23.9177C29.8966 23.6182 29.5508 23.479 29.2479 23.6061C28.3331 23.9873 27.6141 24.668 27.1796 25.5029L24.8971 24.9917C25.1419 24.4986 25.2735 23.951 25.2735 23.3943C25.2735 21.7516 24.172 20.36 22.6453 19.9153C23.1256 18.9896 23.4224 17.9579 23.4836 16.8628H23.609C25.2276 16.8628 26.5432 15.5619 26.5432 13.9616C26.5432 13.1175 26.1761 12.3582 25.5947 11.8288V9.70504C25.5947 4.35335 21.192 0 15.7795 0C13.8489 0 11.9794 0.553623 10.3762 1.60339C10.1039 1.78188 10.0274 2.14491 10.2079 2.41416C10.3884 2.68341 10.7556 2.75904 11.0279 2.58055C12.4384 1.65784 14.0814 1.17078 15.7795 1.17078C20.5372 1.17078 24.4107 4.99773 24.4107 9.70504V11.1723C24.1567 11.0997 23.8875 11.0634 23.6121 11.0634H23.4867C23.3643 8.87006 22.3057 6.85524 20.5403 5.4848C20.3108 5.30631 20.0171 5.23975 19.7325 5.29723C19.448 5.35471 19.2032 5.5332 19.0655 5.7843C16.9483 9.6052 14.8494 10.7003 13.5429 10.9787L13.9407 9.59613C14.0447 9.23612 13.8978 8.86401 13.5735 8.6704C13.2492 8.47678 12.8484 8.51913 12.573 8.77628C11.0187 10.2314 9.58989 11.0664 8.6567 11.0664C8.15187 11.0664 7.64397 11.0392 7.15137 11.1753V9.70806C7.15137 7.66904 7.88874 5.69657 9.22885 4.15368C9.44303 3.90864 9.41243 3.53956 9.1646 3.32779C8.91677 3.11602 8.5435 3.14627 8.32932 3.39132C6.80564 5.14899 5.96424 7.39071 5.96424 9.70806V11.8318C5.38291 12.3612 5.01576 13.1206 5.01576 13.9646C5.01576 15.565 6.3314 16.8658 7.94993 16.8658H8.07538C8.13657 17.961 8.43335 18.9956 8.91371 19.9183C7.38696 20.363 6.2855 21.7546 6.2855 23.3974C6.2855 23.954 6.41706 24.5016 6.66183 24.9947L3.54409 25.6935C1.91331 26.0596 0.744537 27.4119 0.628271 29.0607L0.518125 30.6761C0.496708 30.9998 0.741477 31.2782 1.06886 31.2993C1.08109 31.2993 1.09639 31.2993 1.10863 31.2993C1.41765 31.2993 1.67772 31.0634 1.69914 30.7548L1.80928 29.1393C1.88577 28.0109 2.68739 27.0852 3.80415 26.8371L10.9392 25.2398L12.6801 28.8277C12.7168 28.9064 12.7382 28.9941 12.7382 29.0818V38.8292H7.66539V34.1824C7.66539 33.8587 7.3992 33.5955 7.07182 33.5955C6.74444 33.5955 6.47826 33.8587 6.47826 34.1824V38.8292H1.77869C1.61347 38.8292 1.46049 38.7627 1.34422 38.6447C1.23102 38.5237 1.17594 38.3694 1.18512 38.206L1.52474 33.3081C1.54616 32.9844 1.30139 32.7061 0.974008 32.6849C0.646629 32.6607 0.365144 32.9058 0.343727 33.2295L0.00410952 38.1243C-0.0295463 38.6084 0.144852 39.0894 0.47835 39.4434C0.811848 39.7973 1.28609 40 1.77869 40H29.7864C30.276 40 30.7502 39.7973 31.0867 39.4434C31.4233 39.0894 31.5946 38.6084 31.561 38.1243L31.3346 34.8389L31.8822 35.2594C32.0628 35.3986 32.28 35.4712 32.5003 35.4712C32.6502 35.4712 32.8032 35.4379 32.9439 35.3683C33.2927 35.1989 33.51 34.8571 33.51 34.4728V30.5158C34.4187 29.7655 35 28.6371 35 27.3786L34.9939 27.3756ZM24.0894 23.3974C24.0894 23.8693 23.9517 24.3322 23.6947 24.7255L20.3077 23.9661V22.6138C20.9472 22.154 21.5132 21.6004 21.9844 20.9711C23.1838 21.1496 24.0894 22.1691 24.0894 23.3974ZM25.3622 13.9676C25.3622 14.9206 24.5789 15.6951 23.6152 15.6951H23.502V12.2402H23.6152C24.5789 12.2402 25.3622 13.0147 25.3622 13.9676ZM9.25027 12.1797C10.3364 11.9679 11.4868 11.2298 12.469 10.4341L12.2548 11.1814C12.1814 11.4385 12.2395 11.7168 12.4109 11.9226C12.5822 12.1313 12.8484 12.2432 13.1207 12.2221C16.4006 11.977 18.7963 8.6583 19.9956 6.55271C21.4765 7.784 22.3179 9.57193 22.3179 11.493V16.4362C22.3179 19.997 19.3868 22.8952 15.7856 22.8952C12.1844 22.8952 9.25333 19.997 9.25333 16.4362V12.1767L9.25027 12.1797ZM6.20289 13.9676C6.20289 13.0147 6.98615 12.2402 7.94993 12.2402H8.06314V15.6951H7.94993C6.98615 15.6951 6.20289 14.9206 6.20289 13.9676ZM7.47569 23.3974C7.47569 22.1721 8.38134 21.1526 9.58071 20.9711C10.0519 21.6004 10.6179 22.154 11.2574 22.6138V23.9661L7.87038 24.7255C7.61337 24.3322 7.47569 23.8693 7.47569 23.3974ZM12.0835 24.8767C12.3068 24.6952 12.4445 24.4229 12.4445 24.1234V23.3157C13.4572 23.7967 14.5893 24.069 15.7856 24.069C16.9819 24.069 18.114 23.7997 19.1267 23.3157V24.1234C19.1267 24.426 19.2644 24.6982 19.4877 24.8767L17.8172 28.3195C17.704 28.5554 17.6428 28.8186 17.6428 29.0788V29.097C17.0768 29.3995 16.4404 29.5568 15.7887 29.5568C15.137 29.5568 14.5006 29.3965 13.9345 29.097V29.0788C13.9345 28.8186 13.8734 28.5554 13.7601 28.3195L12.0896 24.8767H12.0835ZM13.9284 30.3887C14.5159 30.6156 15.1462 30.7336 15.7826 30.7336C16.419 30.7336 17.0492 30.6156 17.6367 30.3887V38.8292H13.9284V30.3887ZM30.2178 38.6417C30.1046 38.7627 29.9516 38.8262 29.7834 38.8262H25.2062V34.1794C25.2062 33.8557 24.94 33.5925 24.6126 33.5925C24.2852 33.5925 24.019 33.8557 24.019 34.1794V38.8262H18.8177V29.0788C18.8177 28.9911 18.8391 28.9033 18.8758 28.8247L20.6167 25.2367L26.791 26.6193C26.7452 26.8643 26.7207 27.1184 26.7207 27.3756C26.7207 28.6341 27.2989 29.7625 28.2107 30.5158V34.4728C28.2107 34.8571 28.4279 35.1989 28.7767 35.3683C29.1255 35.5377 29.5325 35.4954 29.8384 35.2594L30.1566 35.0144L30.3769 38.203C30.3892 38.3664 30.331 38.5237 30.2178 38.6417ZM32.3198 34.1128L31.4753 33.4654C31.1112 33.1871 30.6033 33.1871 30.2392 33.4654L29.3948 34.1128V31.1995C29.8507 31.3689 30.3402 31.4627 30.8573 31.4627C31.3744 31.4627 31.8639 31.3689 32.3198 31.1995V34.1128Z" fill="var(--fill-0, #CEA36F)"/>
</svg>
