<svg preserveAspectRatio="none" width="100%" height="100%" overflow="visible" style="display: block;" viewBox="0 0 20 20" fill="none" xmlns="http://www.w3.org/2000/svg">
<g id="Vector">
<path d="M3.39127 16.0171C4.06017 16.6945 4.43406 17.6085 4.42529 18.5604V19.6496C4.42529 19.8394 4.58011 19.9942 4.76997 19.9942C4.95983 19.9942 5.11465 19.8394 5.11465 19.6496V18.5604C5.11757 17.4245 4.66774 16.3354 3.86739 15.5294L1.72631 13.3715C1.05741 12.6941 0.683523 11.7801 0.692286 10.8282V4.42451C0.692286 4.40699 0.698128 4.39239 0.712733 4.38363C0.727337 4.37487 0.744863 4.37487 0.756547 4.38363C1.35827 4.58512 1.75552 5.16036 1.72631 5.79401V5.86409C1.72631 7.64532 1.72631 11.821 4.59763 13.5409C4.75244 13.6518 4.9686 13.6197 5.07959 13.465C5.19059 13.3102 5.15846 13.0941 5.00365 12.9831C4.9832 12.9685 4.96568 12.9569 4.94231 12.9481C3.45845 12.0633 2.84505 10.3668 2.59092 8.77537H3.00862C3.28611 8.77537 3.54608 8.91261 3.69797 9.1433L4.50416 10.3434C4.62392 10.5186 4.75536 10.6822 4.89849 10.8369L4.93354 10.8749C5.18767 11.1406 5.47393 11.3713 5.78939 11.564C6.73579 12.1247 7.61208 12.7933 8.40367 13.5555C8.90023 14.0665 9.15728 14.7615 9.11054 15.471L8.84473 19.6292C8.83305 19.819 8.97618 19.9825 9.16604 19.9942H9.18941C9.37343 19.9942 9.5224 19.8511 9.53408 19.67L9.79989 15.5119C9.85539 14.6067 9.52824 13.7219 8.89731 13.0707C8.06483 12.2648 7.13596 11.5582 6.13699 10.9683C5.91207 10.8252 5.70468 10.653 5.52066 10.4573V4.31063C5.52066 3.74122 5.26946 3.20102 4.83131 2.83601L4.29677 2.41553C3.99007 2.15564 3.53148 2.1936 3.27151 2.49729C3.21893 2.56153 3.17512 2.63161 3.14591 2.71045L2.80123 2.41261C2.58216 2.22864 2.27838 2.18776 2.01841 2.31041C1.75844 2.42721 1.59195 2.68125 1.58318 2.96449V4.05367C1.40793 3.92227 1.21806 3.81715 1.01359 3.73538C0.636787 3.58354 0.210325 3.76458 0.0555128 4.14127C0.0175401 4.23471 1.42287e-05 4.33107 1.42287e-05 4.42743V10.8282C-0.00290675 11.9641 0.444003 13.0561 1.24727 13.8592L3.38835 16.0171H3.39127ZM3.79436 2.96741C3.79436 2.94697 3.80313 2.92653 3.82065 2.91777C3.83526 2.90901 3.85278 2.90901 3.87031 2.91777L4.39024 3.35578C4.67066 3.5923 4.83131 3.94271 4.82839 4.31063V9.54626L4.30846 8.76369C4.22667 8.64105 4.12735 8.53301 4.01636 8.43957V4.30187C4.01636 3.98651 3.93749 3.67698 3.78852 3.39958V3.37622L3.79436 2.96741ZM2.31635 2.91777C2.31635 2.91777 2.34848 2.90901 2.36016 2.91777L2.8801 3.35578C3.16051 3.58938 3.32409 3.93687 3.32116 4.30479V8.09792C3.22769 8.07748 3.13422 8.0658 3.03783 8.0658H2.50913C2.43611 7.33287 2.40398 6.59702 2.40982 5.86409V5.79401C2.40982 5.51077 2.36016 5.23044 2.25793 4.96764V2.96741C2.25793 2.94405 2.27253 2.92361 2.2959 2.91777H2.31635Z" fill="var(--fill-0, #0D3442)"/>
<path d="M19.6786 3.81131C19.4742 3.67406 19.2171 3.64778 18.9893 3.7383C18.7877 3.82007 18.595 3.92519 18.4197 4.05659V2.96741C18.4197 2.67833 18.2532 2.41553 17.9932 2.29581C17.7333 2.17316 17.4295 2.21404 17.2104 2.39801L16.8657 2.69585C16.7168 2.32209 16.2932 2.14104 15.9223 2.28704C15.8463 2.31625 15.7733 2.36005 15.7119 2.41553L15.1774 2.83601C14.7393 3.20102 14.4851 3.74122 14.4881 4.31063V10.4602C14.2953 10.6588 14.0762 10.8311 13.8396 10.9742C12.8406 11.564 11.9147 12.2707 11.0793 13.0766C10.46 13.7307 10.1416 14.6154 10.2059 15.5148L10.4746 19.67C10.4863 19.8511 10.6382 19.9942 10.8193 19.9942H10.8427C11.0325 19.9825 11.1757 19.819 11.164 19.6292L10.8982 15.471C10.8456 14.7644 11.0968 14.0665 11.5875 13.5555C12.3791 12.7933 13.2554 12.1247 14.2018 11.564C14.5143 11.3713 14.8035 11.1406 15.0577 10.8749L15.0927 10.8369C15.2417 10.6851 15.376 10.5216 15.4987 10.3464L16.2874 9.16082C16.4422 8.93013 16.6992 8.79289 16.9767 8.79289H17.3944C17.1403 10.3814 16.524 12.0779 15.043 12.9656C14.8707 13.0445 14.7918 13.2489 14.8707 13.4212C14.9496 13.5934 15.154 13.6723 15.3264 13.5934C15.3468 13.5847 15.3673 13.573 15.3877 13.5584C18.2766 11.8239 18.2766 7.64824 18.2766 5.86701V5.79693C18.2474 5.16036 18.6475 4.5822 19.2522 4.38363C19.2668 4.37487 19.2843 4.37487 19.296 4.38363C19.3106 4.39239 19.3164 4.40991 19.3164 4.42451V10.834C19.3223 11.7859 18.9513 12.6999 18.2824 13.3774L16.1413 15.5353C15.3381 16.3383 14.8882 17.4304 14.8941 18.5663V19.6554C14.8941 19.8452 15.0489 20 15.2388 20C15.4286 20 15.5834 19.8452 15.5834 19.6554V18.5663C15.5776 17.6143 15.9485 16.7004 16.6175 16.0229L18.7585 13.865C19.5589 13.0591 20.0058 11.9699 19.9999 10.834V4.42451C19.9999 4.17923 19.8802 3.94855 19.6757 3.81131H19.6786ZM15.7119 8.76369L15.192 9.54626V4.31063C15.192 3.94563 15.3497 3.59814 15.6302 3.36162L16.1501 2.92361C16.1647 2.91485 16.1822 2.91485 16.1998 2.92361C16.2173 2.93237 16.229 2.95281 16.226 2.97325V3.41418C16.0771 3.69158 15.9982 4.00111 15.9982 4.31647V8.45417C15.8901 8.54469 15.7937 8.64981 15.7119 8.76369ZM16.9767 8.07456C16.8803 8.07456 16.7869 8.08624 16.6934 8.10668V4.31355C16.6934 3.94855 16.8541 3.59814 17.1345 3.36454L17.6544 2.92653C17.6544 2.92653 17.6865 2.91777 17.6982 2.92653C17.7187 2.93529 17.7303 2.95281 17.7303 2.97617V4.9764C17.634 5.23628 17.5843 5.51369 17.5843 5.79401V5.86409C17.5931 6.60578 17.5638 7.34747 17.4908 8.08916L16.9738 8.07748L16.9767 8.07456Z" fill="var(--fill-0, #0D3442)"/>
<path d="M13.6585 2.97033C13.6088 2.84769 13.492 2.76885 13.3606 2.76009C13.2875 2.76009 11.6985 2.51189 10.6002 3.19226C10.5944 2.70169 10.4513 2.22572 10.1855 1.814C10.1738 1.79356 10.1592 1.77312 10.1446 1.7556C10.0511 1.62128 9.85539 1.61544 9.759 1.74684C9.71226 1.81108 9.66553 1.87532 9.61587 1.93956C9.55745 2.0184 9.55453 2.12644 9.61003 2.21112C9.9547 2.81265 10.0131 3.5339 9.77068 4.18215C9.75024 4.23471 9.73271 4.28727 9.7181 4.33983C9.22446 4.23179 8.16707 3.91643 7.57703 3.04041C7.49232 2.90317 7.44266 2.74549 7.43098 2.58489C7.39009 1.96584 7.2382 1.35847 6.97823 0.794905C7.40469 0.876666 7.94799 1.01683 8.4504 1.25919C8.58769 1.32635 8.74834 1.29423 8.8535 1.18327L8.85934 1.17743C9.01707 1.00807 8.96449 0.733584 8.75418 0.631383C7.60624 0.0765757 6.32101 0.000654648 6.24214 0.000654648C6.05228 -0.0110255 5.8887 0.134976 5.87994 0.327699C5.8741 0.43574 5.92083 0.543782 6.00554 0.610943C6.55469 1.08107 6.71534 2.18776 6.75039 2.64037C6.77084 2.91777 6.86139 3.18934 7.01328 3.42294C7.64421 4.26391 8.57308 4.83332 9.61003 5.01436V7.47011C9.20401 7.53727 8.82721 7.72708 8.52635 8.01032L8.42411 8.10668C8.23425 8.28188 7.99181 8.38701 7.73476 8.41037C7.27033 8.46585 6.49042 8.78413 6.4875 10.3201C6.4875 10.504 6.62771 10.6676 6.81173 10.6792C7.01036 10.6909 7.17685 10.5332 7.17685 10.3347C7.17685 9.56378 7.39009 9.14622 7.81363 9.09657C8.21964 9.06153 8.59937 8.89217 8.90023 8.61769L9.00247 8.51841C9.52532 8.03952 10.3257 8.022 10.869 8.48045L11.1523 8.73157C11.4152 8.95349 11.7336 9.10241 12.0724 9.16374C12.8728 9.31558 12.7618 10.1157 12.7413 10.2734C12.7092 10.4602 12.8319 10.6384 13.0159 10.6734H13.0801C13.2496 10.6734 13.3956 10.5566 13.4248 10.3902C13.5329 9.83243 13.4248 8.71113 12.2068 8.47753C11.9877 8.43957 11.7803 8.3432 11.6109 8.1972L11.3246 7.94608C11.0325 7.68912 10.6733 7.52267 10.2906 7.46135V6.01593C11.0442 6.00717 11.7686 5.73269 12.3353 5.23628C12.496 5.08444 12.6157 4.89172 12.68 4.68148C12.8728 4.05075 13.1707 3.5777 13.4745 3.42002C13.6497 3.34702 13.7315 3.14262 13.6585 2.96741V2.97033ZM12.014 4.48291C11.9877 4.57928 11.9351 4.6698 11.865 4.7428C11.4298 5.11364 10.8777 5.32096 10.3052 5.33265C10.2819 5.08152 10.3052 4.8304 10.3666 4.58804L10.387 4.52379C10.4483 4.33107 10.5564 4.15295 10.6966 4.00695C11.1552 3.53682 11.9264 3.42878 12.5047 3.4171C12.2886 3.74706 12.1221 4.10623 12.0111 4.48583L12.014 4.48291Z" fill="var(--fill-0, #0D3442)"/>
</g>
</svg>
