<svg preserveAspectRatio="none" width="100%" height="100%" overflow="visible" style="display: block;" viewBox="0 0 38 38" fill="none" xmlns="http://www.w3.org/2000/svg">
<g id="Vector">
<path d="M6.93057 11.6982C6.93057 12.0052 7.18399 12.2574 7.49251 12.2574H25.9153C26.2238 12.2574 26.4772 12.0052 26.4772 11.6982C26.4772 11.3912 26.2238 11.1391 25.9153 11.1391H7.49251C7.18399 11.1391 6.93057 11.3912 6.93057 11.6982Z" fill="var(--fill-0, #0D3442)"/>
<path d="M37.727 19.1864C37.5176 18.0242 36.5921 17.1033 35.4241 16.884C34.4766 16.7086 33.1654 16.1933 32.2949 14.79C31.755 13.9348 30.8405 13.4195 29.8378 13.4195H29.6946V3.44259C29.6946 1.54587 28.141 0 26.2348 0H10.0928C8.97999 0 7.92222 0.438546 7.1289 1.21696L1.22304 7.10444C0.440736 7.89383 0 8.93537 0 10.0427V12.071C0 12.378 0.253423 12.6301 0.561938 12.6301C0.870453 12.6301 1.12388 12.378 1.12388 12.071V10.6347C1.12388 9.77957 1.82905 9.08886 2.68849 9.08886H5.69651C7.60269 9.08886 9.15629 7.54299 9.15629 5.64628V2.6532C9.15629 1.79804 9.86146 1.09636 10.7209 1.09636H26.2348C27.5239 1.09636 28.5817 2.13791 28.5817 3.43162V13.4085H24.6922C24.1744 13.4085 23.6785 13.5401 23.2488 13.7923H3.79033C3.48181 13.7923 3.22839 14.0444 3.22839 14.3514C3.22839 14.6584 3.48181 14.9106 3.79033 14.9106H22.158C21.6511 15.6671 21.0121 16.1495 20.384 16.4564H3.79033C3.48181 16.4564 3.22839 16.7086 3.22839 17.0156C3.22839 17.3226 3.48181 17.5747 3.79033 17.5747H17.7066C17.2658 17.9804 16.9463 18.5176 16.8141 19.1206H3.79033C3.48181 19.1206 3.22839 19.3728 3.22839 19.6797C3.22839 19.9867 3.48181 20.2389 3.79033 20.2389H16.6488C16.5937 20.7542 16.5496 21.2695 16.5386 21.7848H3.79033C3.48181 21.7848 3.22839 22.0369 3.22839 22.3439C3.22839 22.6509 3.48181 22.9031 3.79033 22.9031H16.5496C16.5717 23.4184 16.6157 23.9336 16.6818 24.4489H3.79033C3.48181 24.4489 3.22839 24.7011 3.22839 25.0081C3.22839 25.3151 3.48181 25.5672 3.79033 25.5672H16.8802C17.0565 26.4553 17.3099 27.3324 17.6404 28.1875C18.2575 29.7992 19.1059 31.2903 20.1637 32.6388H3.45978C2.17062 32.6388 1.11286 31.5972 1.11286 30.3035V14.3295C1.11286 14.0225 0.859435 13.7703 0.55092 13.7703C0.242405 13.7703 0 14.0006 0 14.3076V30.2816C0 32.1783 1.55359 33.7242 3.45978 33.7242H21.1112C21.6952 34.3381 22.3122 34.9083 22.9844 35.4345L25.4745 37.386C26.0034 37.8027 26.6315 38 27.2595 38C27.8876 38 28.5156 37.7917 29.0445 37.386L31.5346 35.4345C33.9477 33.5378 35.8098 31.0271 36.9006 28.1656C37.9914 25.3041 38.2779 22.2014 37.727 19.1864ZM8.03241 2.66417V5.65724C8.03241 6.93999 6.98566 7.9925 5.68549 7.9925H2.67747C2.35794 7.9925 2.06044 8.04732 1.78498 8.14599C1.86211 8.05828 1.93924 7.97057 2.01637 7.88286L7.93324 2.00635C8.02139 1.91864 8.10954 1.84189 8.19768 1.77611C8.09852 2.0502 8.04343 2.35718 8.04343 2.66417H8.03241ZM30.8405 34.5574L28.3503 36.5089C27.7113 37.0133 26.8078 37.0133 26.1687 36.5089L23.6785 34.5574C22.9954 34.0202 22.3673 33.4391 21.7944 32.8142C21.7834 32.7923 21.7613 32.7813 21.7503 32.7594C19.7339 30.5557 18.4117 27.8367 17.8939 24.9423C17.8939 24.8984 17.8939 24.8656 17.8718 24.8327C17.7286 24.0214 17.6515 23.1881 17.6515 22.3549V22.333C17.6515 22.333 17.6515 22.311 17.6515 22.3001C17.6515 21.3353 17.7286 20.3595 17.9049 19.3837C18.0371 18.6711 18.599 18.1119 19.3152 17.9694C19.7339 17.8927 20.2188 17.7501 20.7146 17.5309C20.7146 17.5309 20.7366 17.5309 20.7476 17.5199C21.6071 17.1252 22.4996 16.4784 23.1937 15.371C23.337 15.1518 23.5133 14.9654 23.7226 14.8229C23.7226 14.8229 23.7446 14.8119 23.7446 14.8009C24.0201 14.6255 24.3506 14.5159 24.6922 14.5159H29.8378C30.4548 14.5159 31.0168 14.8338 31.3473 15.3601C32.4381 17.1033 34.0579 17.7392 35.2258 17.9585C35.942 18.09 36.5039 18.6601 36.6362 19.3728C37.6829 25.1177 35.4682 30.9394 30.8515 34.5574H30.8405Z" fill="var(--fill-0, #0D3442)"/>
<path d="M34.3333 19.8113C32.4822 19.3508 30.9396 18.2874 29.8709 16.7634C29.7717 16.6099 29.5954 16.5222 29.4081 16.5222H25.1219C24.9346 16.5222 24.7693 16.6099 24.6592 16.7634C23.5904 18.2983 22.0478 19.3508 20.1967 19.8113C19.9763 19.8661 19.8111 20.0525 19.778 20.2718C19.4585 22.5522 19.7229 24.9094 20.5383 27.0583C21.4308 29.3935 22.9403 31.4437 24.9126 32.9896L26.9069 34.5574C27.0061 34.6342 27.1273 34.678 27.2485 34.678C27.3697 34.678 27.4909 34.6342 27.5901 34.5574L29.5844 32.9896C30.0472 32.6278 30.4879 32.2331 30.8956 31.8165C31.1159 31.5972 31.1049 31.2464 30.8956 31.0271C30.6752 30.8078 30.3226 30.8188 30.1022 31.0271C29.7276 31.4108 29.3199 31.7727 28.9012 32.1016L27.2485 33.3953L25.5957 32.1016C23.7777 30.6763 22.3894 28.7905 21.574 26.6526C20.8578 24.7888 20.6044 22.7605 20.8248 20.7761C22.6869 20.2279 24.2515 19.1425 25.3864 17.6186H29.0996C30.2345 19.1425 31.8101 20.2279 33.6612 20.7761C33.8816 22.7605 33.6281 24.7888 32.9119 26.6526C32.5483 27.6174 32.0525 28.5384 31.4685 29.3826C31.2922 29.6347 31.3583 29.9856 31.6118 30.161C31.8652 30.3364 32.2178 30.2706 32.3941 30.0185C33.0442 29.0975 33.573 28.0998 33.9697 27.0473C34.7961 24.8875 35.0605 22.5413 34.73 20.2608C34.6969 20.0415 34.5316 19.8552 34.3113 19.8003L34.3333 19.8113Z" fill="var(--fill-0, #0D3442)"/>
<path d="M24.4608 7.66359C24.0201 7.66359 23.8989 7.64166 23.5683 7.43335C23.3149 7.2689 22.9623 7.33468 22.7971 7.59781C22.6318 7.84997 22.6979 8.20081 22.9623 8.36526C23.3259 8.5955 23.6014 8.70514 23.9099 8.74899V8.88055C23.9099 9.18754 24.1633 9.4397 24.4718 9.4397C24.7804 9.4397 25.0338 9.18754 25.0338 8.88055V8.68321C25.7279 8.46394 26.1687 7.84997 26.2678 7.24697C26.4111 6.4247 25.9593 5.69013 25.155 5.40508C24.7363 5.26255 24.2735 5.07617 24.0201 4.87882C23.965 4.83497 23.943 4.71437 23.965 4.59377C23.976 4.52799 24.0311 4.30871 24.2515 4.24293C24.7032 4.11137 25.0007 4.33064 25.0338 4.36353C25.2762 4.56088 25.6288 4.52799 25.8271 4.28679C26.0254 4.04559 25.9924 3.69475 25.75 3.4974C25.5737 3.34391 25.3203 3.21235 25.0338 3.1356V3.015C25.0338 2.70802 24.7804 2.45586 24.4718 2.45586C24.1633 2.45586 23.9099 2.70802 23.9099 3.015V3.16849C23.37 3.33295 22.9733 3.79342 22.8632 4.36353C22.764 4.90075 22.9403 5.42701 23.3259 5.72302C23.7006 6.01904 24.2515 6.22735 24.7804 6.41373C25.177 6.55626 25.188 6.85228 25.155 7.01673C25.1109 7.30179 24.8685 7.60877 24.4608 7.60877V7.66359Z" fill="var(--fill-0, #0D3442)"/>
<path d="M30.9617 21.0941C30.0802 20.6007 28.9563 20.9077 28.4605 21.7848L26.9951 24.3612L26.5543 23.7911C25.9373 22.9908 24.7693 22.8482 23.976 23.4622C23.1717 24.0762 23.0284 25.2383 23.6455 26.0277L25.783 28.7796C26.1246 29.2181 26.6755 29.4922 27.2375 29.4922C27.2815 29.4922 27.3256 29.4922 27.3697 29.4922C27.9867 29.4484 28.5376 29.0975 28.8351 28.5713L31.6558 23.5938C32.1517 22.7167 31.8432 21.5984 30.9617 21.0941ZM30.6862 23.0456L27.8655 28.0231C27.7443 28.2314 27.535 28.363 27.2926 28.3849C27.0502 28.4068 26.8188 28.2972 26.6645 28.1108L24.5269 25.3589C24.2845 25.041 24.3396 24.5915 24.6592 24.3503C24.7914 24.2516 24.9456 24.1968 25.0999 24.1968C25.3203 24.1968 25.5296 24.2954 25.6729 24.4709L26.6315 25.7098C26.7416 25.8523 26.929 25.94 27.1163 25.929C27.3036 25.9181 27.4689 25.8084 27.568 25.644L29.4411 22.3439C29.6395 22.004 30.0802 21.8725 30.4218 22.0698C30.7634 22.2672 30.8956 22.7057 30.6972 23.0456H30.6862Z" fill="var(--fill-0, #0D3442)"/>
</g>
</svg>
