<svg preserveAspectRatio="none" width="100%" height="100%" overflow="visible" style="display: block;" viewBox="0 0 30 40" fill="none" xmlns="http://www.w3.org/2000/svg">
<g id="Vector">
<path d="M16.8838 25.4613V24.5808C16.8838 24.2583 16.6227 23.9946 16.2977 23.9946C15.9727 23.9946 15.7116 24.2557 15.7116 24.5808V25.4613C15.7116 25.7838 15.9727 26.0474 16.2977 26.0474C16.6227 26.0474 16.8838 25.7864 16.8838 25.4613Z" fill="var(--fill-0, #CEA36F)"/>
<path d="M1.61004 15.7603C2.04 16.1622 2.59792 16.3592 3.1584 16.3592C3.54229 16.3592 3.92874 16.2645 4.2768 16.0802C4.35102 16.1852 4.43292 16.285 4.52505 16.3772C4.97292 16.8251 5.55899 17.0478 6.14762 17.0478C6.51616 17.0478 6.88213 16.9608 7.2174 16.7841C7.29418 16.8942 7.38119 16.9992 7.47588 17.0964C7.92376 17.5444 8.50983 17.767 9.09846 17.767C9.68709 17.767 10.2732 17.5444 10.721 17.0964L11.9316 15.8857H16.9912C17.864 15.8857 18.6855 15.5453 19.3048 14.9284L23.3229 10.9098L23.3613 10.9482C23.6325 11.2195 23.9857 11.3526 24.3415 11.3526C24.6972 11.3526 25.0504 11.2169 25.3217 10.9482L29.1862 7.08314C29.4472 6.82206 29.5931 6.47395 29.5931 6.1028C29.5931 5.73165 29.4498 5.38354 29.1862 5.12246L27.7837 3.71978C27.5559 3.49198 27.1848 3.49198 26.9545 3.71978C26.7267 3.94759 26.7267 4.31874 26.9545 4.5491L28.3569 5.95178C28.4414 6.03625 28.4414 6.17191 28.3569 6.25382L24.4925 10.1189C24.408 10.2033 24.2724 10.2033 24.1905 10.1189L19.4737 5.40146C19.3893 5.31699 19.3893 5.18133 19.4737 5.09943L23.3382 1.23438C23.4227 1.14991 23.5583 1.14991 23.6402 1.23438L25.0222 2.61658C25.25 2.84439 25.6211 2.84439 25.8514 2.61658C26.0792 2.38878 26.0792 2.01763 25.8514 1.78726L24.4694 0.405062C23.9294 -0.135021 23.049 -0.135021 22.509 0.405062L18.6445 4.2701C18.1045 4.81019 18.1045 5.6907 18.6445 6.23078L18.6829 6.26918L17.9151 7.03707C17.8819 7.07034 17.8358 7.09082 17.7872 7.09082H13.1267C12.8043 7.09082 12.5407 7.3519 12.5407 7.67697C12.5407 8.00205 12.8017 8.26313 13.1267 8.26313H17.7872C18.148 8.26313 18.4884 8.12235 18.7443 7.86639L19.5121 7.0985L22.4937 10.0805L18.4756 14.0991C18.0789 14.4958 17.5517 14.7134 16.9912 14.7134H11.2585C11.0589 14.7134 10.8695 14.6341 10.7262 14.4907C10.5854 14.3499 10.5086 14.1631 10.5086 13.966C10.5086 13.9481 10.5086 13.9276 10.5086 13.9097C10.5086 13.8969 10.5086 13.8841 10.5086 13.8713C10.5086 13.8508 10.5112 13.8329 10.5137 13.815C10.5137 13.8022 10.5137 13.7894 10.5163 13.7766C10.5163 13.7587 10.5214 13.7433 10.524 13.7254C10.524 13.71 10.5265 13.6947 10.5291 13.6793C10.5291 13.6665 10.5342 13.6512 10.5368 13.6384C10.5393 13.6204 10.5444 13.6025 10.547 13.5846C10.547 13.5744 10.5521 13.5667 10.5521 13.5564C10.5572 13.5334 10.5624 13.5129 10.5675 13.4899C10.5675 13.4848 10.5675 13.4822 10.57 13.4771C10.7825 12.699 11.476 12.1154 12.3078 12.0744C12.3411 12.0744 12.3718 12.0744 12.405 12.0744H15.0283C15.3508 12.0744 15.6144 11.8133 15.6144 11.4883C15.6144 11.1632 15.3533 10.9021 15.0283 10.9021H8.17456C8.01845 10.9021 7.87001 10.9635 7.75996 11.0736L3.99016 14.8439C3.55253 15.2816 2.83849 15.3098 2.40342 14.9028C2.1782 14.6929 2.05024 14.4062 2.04512 14.0991C2.04 13.7919 2.15517 13.5027 2.3727 13.2851L6.86422 8.79297C7.20716 8.44998 7.66271 8.26057 8.14641 8.26057H10.3858C10.7082 8.26057 10.9718 7.99949 10.9718 7.67441C10.9718 7.34934 10.7108 7.08826 10.3858 7.08826H8.14641C7.34792 7.08826 6.60061 7.39797 6.03502 7.96365L1.55118 12.4558C1.10587 12.9012 0.867855 13.4899 0.880652 14.1196C0.890889 14.7467 1.15193 15.3303 1.6126 15.7603H1.61004ZM8.30509 16.2671C8.23343 16.1954 8.172 16.1135 8.12082 16.0265L9.46955 14.6776C9.65126 15.1357 10.0019 15.5069 10.4472 15.7117L9.89183 16.2671C9.4542 16.7048 8.74016 16.7048 8.30253 16.2671H8.30509ZM8.42537 12.0744H10.0019C9.7869 12.3457 9.61799 12.6555 9.50282 12.9882L6.94356 15.5478C6.50592 15.9855 5.79189 15.9855 5.35425 15.5478C5.28515 15.4787 5.22629 15.4019 5.18022 15.32L8.42537 12.0744Z" fill="var(--fill-0, #CEA36F)"/>
<path d="M29.3704 15.942C28.9635 15.535 28.4235 15.3098 27.8477 15.3098C27.2718 15.3098 26.7318 15.535 26.3249 15.942L25.813 16.4565L25.3242 15.9676C24.4925 15.1357 23.1309 15.105 22.2915 15.9036C21.8666 16.3081 21.6286 16.8533 21.621 17.4394C21.6133 18.0256 21.8385 18.5759 22.2505 18.9905L25.0171 21.7575C25.2372 21.9776 25.5238 22.0851 25.8105 22.0851C26.0971 22.0851 26.3863 21.9751 26.6038 21.7575L29.3704 18.9905C30.2099 18.151 30.2099 16.7841 29.3704 15.942ZM28.5412 18.1612L25.8105 20.8924L23.0797 18.1612C22.8904 17.9718 22.788 17.721 22.7931 17.4522C22.7957 17.186 22.9057 16.9352 23.1002 16.7509C23.2845 16.5768 23.5225 16.4898 23.7656 16.4898C24.0292 16.4898 24.2954 16.5922 24.4976 16.7944L25.401 17.6979C25.511 17.808 25.6595 17.8694 25.8156 17.8694C25.9717 17.8694 26.1201 17.808 26.2302 17.6979L27.1567 16.7713C27.3435 16.5845 27.5892 16.4847 27.8528 16.4847C28.1164 16.4847 28.3621 16.587 28.5489 16.7713C28.9328 17.1553 28.9328 17.7773 28.5489 18.1612H28.5412Z" fill="var(--fill-0, #CEA36F)"/>
<path d="M6.47009 29.311L10.611 32.595C10.8848 32.8126 11.2124 32.9226 11.5451 32.9226C11.7678 32.9226 11.993 32.8714 12.2029 32.7716C12.7275 32.5182 13.0551 31.9986 13.0551 31.415V24.4554C13.0551 23.9178 12.6175 23.4776 12.0774 23.4776H10.3269C10.0659 23.4776 9.82017 23.58 9.63591 23.7643L6.33701 27.0636C6.03246 27.3682 5.87378 27.788 5.89682 28.2155C5.92241 28.6455 6.12971 29.0422 6.46497 29.311H6.47009ZM7.17133 27.8904L10.4114 24.6473H11.8855V31.4099C11.8855 31.5993 11.7524 31.6838 11.6961 31.7119C11.6398 31.7401 11.4914 31.7913 11.3404 31.6735L7.19948 28.3895C7.09711 28.3076 7.07664 28.2027 7.07408 28.1463C7.07152 28.09 7.0792 27.9825 7.17133 27.8904Z" fill="var(--fill-0, #CEA36F)"/>
<path d="M26.3044 24.0919H21.214C20.9914 24.0919 20.7918 23.969 20.6919 23.7719L20.0649 22.5408C18.9619 20.3727 16.7635 19.0264 14.3322 19.0264H10.5086C9.10614 19.0264 7.77276 19.4718 6.6518 20.3113C5.53084 21.1509 4.72979 22.3078 4.33566 23.6516L3.56021 26.2957C3.46807 26.6054 3.64722 26.9331 3.95689 27.0227C4.01064 27.038 4.06694 27.0457 4.12068 27.0457C4.37405 27.0457 4.60695 26.8793 4.68372 26.6234L5.45918 23.9793C6.11179 21.7524 8.18736 20.1961 10.5086 20.1961H14.3322C16.3233 20.1961 18.1199 21.2968 19.0207 23.0706L19.6478 24.3018C19.9498 24.8931 20.5486 25.2616 21.214 25.2616H23.5071C23.438 25.4536 23.3996 25.6609 23.3996 25.876C23.3996 26.8614 24.2007 27.6626 25.186 27.6626H25.5955L24.3133 31.9576C24.1418 32.5336 23.6018 32.9329 23.003 32.9329H17.8153C17.3828 32.9329 16.9861 33.1299 16.7251 33.4755C16.464 33.821 16.3821 34.2587 16.5024 34.6734L17.6157 38.5768C17.6387 38.6588 17.6055 38.7202 17.585 38.7483C17.5645 38.7765 17.5133 38.8251 17.4289 38.8251H1.36947C1.28502 38.8251 1.23639 38.7765 1.21336 38.7458C1.19032 38.7151 1.15961 38.6562 1.18265 38.5743L3.91594 29.2444C4.00808 28.9347 3.82893 28.6071 3.51926 28.5175C3.20959 28.4279 2.882 28.6045 2.79242 28.9142L0.0565676 38.2492C-0.0662772 38.6664 0.0130601 39.1041 0.274105 39.4522C0.535151 39.8003 0.934396 40 1.36947 40H17.4238C17.8563 40 18.253 39.8029 18.514 39.4574C18.775 39.1118 18.8569 38.6741 18.7367 38.2594L17.6234 34.356C17.6003 34.2741 17.6336 34.2127 17.6541 34.1845C17.6771 34.1564 17.7257 34.1077 17.8102 34.1077H22.9978C24.1111 34.1077 25.1118 33.3629 25.4317 32.2955L26.8393 27.5832C27.5636 27.3554 28.0882 26.6771 28.0882 25.8811C28.0882 24.8956 27.2872 24.0944 26.3019 24.0944L26.3044 24.0919ZM24.5692 25.8785C24.5692 25.5406 24.8456 25.2642 25.1835 25.2642H26.3044C26.6422 25.2642 26.9186 25.5406 26.9186 25.8785C26.9186 26.1933 26.6781 26.4544 26.371 26.4877C26.3582 26.4877 26.3479 26.4877 26.3351 26.4877C26.3249 26.4877 26.3147 26.4877 26.3044 26.4877H25.1835C24.8456 26.4877 24.5692 26.2113 24.5692 25.8734V25.8785Z" fill="var(--fill-0, #CEA36F)"/>
</g>
</svg>
