<svg preserveAspectRatio="none" width="100%" height="100%" overflow="visible" style="display: block;" viewBox="0 0 32 40" fill="none" xmlns="http://www.w3.org/2000/svg">
<g id="Vector">
<path d="M26.606 31.6312C25.8467 28.8862 22.944 27.2566 20.1351 27.9988C17.3263 28.741 15.659 31.578 16.4183 34.323C17.0535 36.6191 19.1884 38.1346 21.5135 38.1346C21.968 38.1346 22.4301 38.0766 22.8892 37.9553C25.6981 37.2132 27.3653 34.3762 26.606 31.6312ZM22.5763 36.8237C20.4055 37.3973 18.1628 36.138 17.5762 34.017C17.2384 32.7961 17.5229 31.5522 18.2384 30.6064L23.9391 36.1777C23.5411 36.4667 23.0832 36.6898 22.5763 36.8237ZM24.7859 35.3477L19.0852 29.7764C19.4833 29.4874 19.9412 29.2643 20.448 29.1304C22.6187 28.5568 24.8613 29.8161 25.4481 31.9371C25.7858 33.158 25.5013 34.4019 24.7859 35.3477Z" fill="var(--fill-0, #0D3442)"/>
<path d="M16.7349 18.8745C15.9208 17.7501 14.7074 17.0028 13.3181 16.7702C10.4513 16.2909 7.71757 18.1799 7.22643 20.9827C6.73536 23.7854 8.66893 26.4561 11.5368 26.9361C11.838 26.9865 12.1394 27.0114 12.4387 27.0114C13.5207 27.0114 14.5741 26.686 15.4754 26.0629C16.6259 25.2673 17.3905 24.0813 17.6284 22.7237C17.8663 21.3659 17.5491 19.999 16.7349 18.8745ZM8.43591 22.6605C8.33479 22.1862 8.32008 21.6863 8.40865 21.1805C8.74847 19.2414 10.4768 17.868 12.4254 17.868C12.653 17.868 12.884 17.8868 13.1158 17.9256C14.1892 18.1052 15.1269 18.6827 15.7559 19.5516C15.8481 19.6788 15.9309 19.8105 16.0065 19.9452L8.43591 22.6605ZM16.4462 22.5258C16.2624 23.5748 15.6715 24.4912 14.7825 25.106C13.8934 25.7208 12.8126 25.9606 11.7392 25.7807C10.4636 25.5672 9.42812 24.7923 8.85063 23.7603L16.4211 21.045C16.523 21.5263 16.5337 22.0267 16.4462 22.5258Z" fill="var(--fill-0, #0D3442)"/>
<path d="M30.0794 0H1.92062C0.861585 0 0 0.842109 0 1.87711V38.1229C0 39.1579 0.861585 40 1.92062 40H30.0794C31.1384 40 32 39.1579 32 38.1229V1.87711C32 0.842109 31.1384 0 30.0794 0ZM7.15009 38.7664C6.6595 38.6957 6.17427 38.537 5.71901 38.2815C4.77469 37.7513 4.09801 36.8935 3.81374 35.8661C3.52948 34.8386 3.67169 33.7644 4.21416 32.8415C4.75655 31.9185 5.63428 31.2573 6.68564 30.9795C6.8396 30.9387 6.99468 30.9087 7.15009 30.8859V38.7664ZM8.34941 38.7647V30.8841C8.8468 30.9565 9.33131 31.1185 9.78041 31.3706C11.73 32.465 12.4051 34.9054 11.2853 36.8107C10.6408 37.9075 9.53963 38.5904 8.34941 38.7647ZM30.8007 38.123C30.8007 38.5116 30.4771 38.8279 30.0794 38.8279H11.0778C11.5673 38.44 11.9933 37.9597 12.3254 37.3945C13.7744 34.9288 12.9008 31.7705 10.3778 30.3543C9.15552 29.6682 7.73308 29.4884 6.3726 29.8479C5.01195 30.2074 3.87609 31.0632 3.17407 32.2577C2.47212 33.4521 2.28802 34.8423 2.6559 36.172C2.94896 37.2314 3.56529 38.1506 4.42152 38.8279H1.92062C1.52292 38.8279 1.19933 38.5116 1.19933 38.123V5.64406H5.23954C5.57081 5.64406 5.83924 5.38164 5.83924 5.05797C5.83924 4.7343 5.57081 4.47188 5.23954 4.47188H1.19933V3.66664H30.8006V4.47195H8.08801C7.75674 4.47195 7.48831 4.73437 7.48831 5.05805C7.48831 5.38172 7.75674 5.64414 8.08801 5.64414H30.8007V38.123ZM30.8007 2.49445H1.19933V1.87711C1.19933 1.48844 1.52292 1.17219 1.92062 1.17219H30.0794C30.4771 1.17219 30.8007 1.48844 30.8007 1.87711V2.49445Z" fill="var(--fill-0, #0D3442)"/>
</g>
</svg>
