<svg preserveAspectRatio="none" width="100%" height="100%" overflow="visible" style="display: block;" viewBox="0 0 39 40" fill="none" xmlns="http://www.w3.org/2000/svg">
<g id="Vector">
<path d="M29.62 9.54353L31.43 10.5224L32.4199 12.3106C32.5707 12.5929 32.8629 12.7624 33.1835 12.7624C33.504 12.7624 33.7962 12.5929 33.9471 12.3106L34.9369 10.5224L36.7469 9.54353C37.0297 9.39294 37.1994 9.10118 37.1994 8.78118C37.1994 8.46118 37.0203 8.16941 36.7469 8.01882L34.9369 7.04L33.9471 5.25176C33.7962 4.96941 33.504 4.8 33.1835 4.8C32.8629 4.8 32.5707 4.96941 32.4199 5.25176L31.43 7.04L29.62 8.01882C29.3372 8.16941 29.1675 8.46118 29.1675 8.78118C29.1675 9.10118 29.3466 9.39294 29.62 9.54353ZM32.0616 8.02824C32.2125 7.95294 32.3256 7.83059 32.4104 7.68L33.174 6.28706L33.9376 7.68C34.0225 7.83059 34.1356 7.94353 34.2864 8.02824L35.6817 8.78118L34.2864 9.53412C34.1356 9.60941 34.0225 9.73176 33.9376 9.88235L33.174 11.2753L32.4104 9.88235C32.3256 9.73176 32.2125 9.61882 32.0616 9.53412L30.6664 8.78118L32.0616 8.02824Z" fill="var(--fill-0, #56B5B7)"/>
<path d="M19.4764 20.6682C18.4394 20.6682 17.5722 19.8965 17.4779 18.88C17.4496 18.56 17.1574 18.3247 16.8368 18.3529C16.5163 18.3812 16.2806 18.6729 16.3089 18.9929C16.4692 20.6118 17.8361 21.8353 19.4764 21.8353C21.1168 21.8353 22.4837 20.6118 22.6439 18.9929C22.6722 18.6729 22.4365 18.3812 22.116 18.3529C21.7955 18.3247 21.5033 18.56 21.475 18.88C21.3713 19.8965 20.5134 20.6682 19.4764 20.6682Z" fill="var(--fill-0, #56B5B7)"/>
<path d="M24.4351 15.4918C24.6613 15.2659 24.6708 14.8894 24.4351 14.6635C24.2088 14.4376 23.8318 14.4282 23.6055 14.6635C23.1907 15.0776 22.512 15.0776 22.0877 14.6635C21.8615 14.4376 21.4844 14.4376 21.2582 14.6635C21.0319 14.8894 21.0319 15.2659 21.2582 15.4918C21.6918 15.9247 22.2669 16.1412 22.8419 16.1412C23.417 16.1412 23.992 15.9247 24.4257 15.4918H24.4351Z" fill="var(--fill-0, #56B5B7)"/>
<path d="M16.8745 14.6541C16.4598 15.0682 15.781 15.0682 15.3568 14.6541C15.1305 14.4282 14.7534 14.4282 14.5272 14.6541C14.3009 14.88 14.3009 15.2565 14.5272 15.4824C14.9608 15.9153 15.5359 16.1318 16.1109 16.1318C16.686 16.1318 17.2611 15.9153 17.6947 15.4824C17.921 15.2565 17.9304 14.88 17.6947 14.6541C17.4685 14.4282 17.0914 14.4188 16.8651 14.6541H16.8745Z" fill="var(--fill-0, #56B5B7)"/>
<path d="M10.7469 5.92941L12.4627 6.91765C12.5569 6.97412 12.6512 6.99294 12.7549 6.99294C12.9623 6.99294 13.1603 6.88941 13.264 6.70118C13.4242 6.41882 13.3299 6.06118 13.0471 5.90118L11.3314 4.91294C11.0486 4.75294 10.6904 4.84706 10.5301 5.12941C10.3698 5.41176 10.4641 5.76941 10.7469 5.92941Z" fill="var(--fill-0, #56B5B7)"/>
<path d="M15.0928 3.87765C15.2059 4.06588 15.3945 4.16941 15.6019 4.16941C15.7056 4.16941 15.7999 4.14118 15.8941 4.09412C16.1769 3.93412 16.2712 3.57647 16.1109 3.29412L15.1211 1.59059C14.9608 1.30824 14.6026 1.21412 14.3198 1.37412C14.037 1.53412 13.9427 1.89176 14.103 2.17412L15.0928 3.87765Z" fill="var(--fill-0, #56B5B7)"/>
<path d="M19.4764 3.14353C19.797 3.14353 20.0609 2.88 20.0609 2.56V0.583529C20.0609 0.263529 19.797 0 19.4764 0C19.1559 0 18.8919 0.263529 18.8919 0.583529V2.55059C18.8919 2.87059 19.1559 3.13412 19.4764 3.13412V3.14353Z" fill="var(--fill-0, #56B5B7)"/>
<path d="M23.0682 4.09412C23.1624 4.15059 23.2661 4.16941 23.3604 4.16941C23.5584 4.16941 23.7563 4.06588 23.8695 3.87765L24.8593 2.17412C25.0196 1.89176 24.9253 1.53412 24.6425 1.37412C24.3597 1.21412 24.0015 1.30824 23.8412 1.59059L22.8513 3.29412C22.6911 3.57647 22.7854 3.93412 23.0682 4.09412Z" fill="var(--fill-0, #56B5B7)"/>
<path d="M26.2074 6.99294C26.3111 6.99294 26.4054 6.96471 26.4996 6.91765L28.2154 5.92941C28.4982 5.76941 28.5925 5.41176 28.4322 5.12941C28.2719 4.84706 27.9137 4.75294 27.6309 4.91294L25.9152 5.90118C25.6323 6.06118 25.5381 6.41882 25.6983 6.70118C25.8115 6.88941 26 6.99294 26.2074 6.99294Z" fill="var(--fill-0, #56B5B7)"/>
<path d="M38.4721 13.5247C38.1421 13.1953 37.6991 13.0165 37.2277 13.0165C35.3611 13.0165 33.8339 14.5412 33.8339 16.4047V16.9412C33.8339 17.2612 34.0979 17.5247 34.4184 17.5247C34.7389 17.5247 35.0029 17.2612 35.0029 16.9412V16.4047C35.0029 15.1906 36.0022 14.2024 37.2277 14.1929C37.388 14.1929 37.5294 14.2494 37.6425 14.3624C37.7462 14.4659 37.8122 14.6071 37.8122 14.7576V24.5365C37.8122 25.2047 37.5482 25.8259 37.0769 26.2965L32.0051 31.3224C31.6846 31.6424 31.4677 32.0376 31.364 32.4612H27.0841V29.0165C27.0841 28.3953 27.3292 27.8212 27.7629 27.3788L33.4191 21.7694C33.4191 21.7694 33.438 21.76 33.438 21.7506C33.5228 21.6847 33.6454 21.6941 33.7302 21.7694C33.7679 21.8071 33.8057 21.8447 33.8339 21.8824C33.8716 21.92 33.8999 21.9671 33.9376 22.0141C34.1545 22.3247 34.2676 22.6824 34.2676 23.0682C34.2676 23.5576 34.0696 24.0282 33.7208 24.3765L31.2698 26.8047C31.0435 27.0306 31.0341 27.4071 31.2698 27.6329C31.3829 27.7459 31.5337 27.8024 31.6846 27.8024C31.8354 27.8024 31.9862 27.7459 32.0993 27.6329L34.5504 25.2047C35.1255 24.6306 35.446 23.8776 35.446 23.0682C35.446 22.5035 35.2951 21.9671 35.0029 21.4965V19.6612C35.0029 19.3412 34.7389 19.0776 34.4184 19.0776C34.0979 19.0776 33.8339 19.3412 33.8339 19.6612V20.5459C33.6642 20.5176 33.4851 20.5176 33.3154 20.5459C33.3154 20.5459 33.3154 20.5459 33.306 20.5459C33.2212 20.5647 33.1458 20.5835 33.0609 20.6212C33.0609 20.6212 33.0515 20.6212 33.0421 20.6212C33.0044 20.64 32.9666 20.6494 32.9289 20.6682C32.9289 20.6682 32.9195 20.6682 32.9101 20.6682C32.8818 20.6871 32.8441 20.7059 32.8158 20.7247C32.8158 20.7247 32.8064 20.7247 32.797 20.7341C32.7592 20.7529 32.731 20.7812 32.7027 20.8094C32.7027 20.8094 32.6838 20.8188 32.6838 20.8282C32.6555 20.8565 32.6178 20.8847 32.5896 20.9129L27.81 25.6565L26.9427 26.5224C26.2828 27.1812 25.9152 28.0565 25.9152 28.9882V32.4329H25.4438C24.6896 32.4329 24.0769 33.0447 24.0769 33.7976V38.5976C24.0769 39.3506 24.6896 39.9624 25.4438 39.9624H33.2212C33.9753 39.9624 34.5881 39.3506 34.5881 38.5976V33.7976C34.5881 33.0447 33.9753 32.4329 33.2212 32.4329H32.6178C32.6744 32.32 32.7498 32.2165 32.8441 32.1224L37.9159 27.0965C38.6135 26.4 39 25.4776 39 24.4988V14.72C39 14.2588 38.8209 13.8165 38.4909 13.4965L38.4721 13.5247ZM33.4097 33.8259V38.6259C33.4097 38.7294 33.3249 38.8235 33.2117 38.8235H25.4344C25.3307 38.8235 25.2364 38.7388 25.2364 38.6259V33.8259C25.2364 33.7224 25.3212 33.6282 25.4344 33.6282H33.2117C33.3154 33.6282 33.4097 33.7129 33.4097 33.8259Z" fill="var(--fill-0, #56B5B7)"/>
<path d="M29.1298 16.7906C29.1298 11.4824 24.8028 7.16235 19.4859 7.16235C17.1668 7.16235 14.9231 8 13.1697 9.51529C11.4351 11.0212 10.2944 13.0824 9.94561 15.3412C9.89848 15.6612 10.1153 15.9624 10.4358 16.0094C10.7563 16.0565 11.058 15.84 11.1051 15.52C11.4068 13.5435 12.4061 11.7271 13.9333 10.4094C15.4699 9.07294 17.4402 8.34824 19.4764 8.34824C24.1523 8.34824 27.9514 12.1412 27.9514 16.8094C27.9514 21.4776 24.1523 25.2706 19.4764 25.2706C17.4402 25.2706 15.4699 24.5365 13.9333 23.2094C12.4061 21.8918 11.4068 20.0753 11.1051 18.0988C11.058 17.7788 10.7563 17.5624 10.4358 17.6094C10.1153 17.6565 9.89848 17.9576 9.94561 18.2776C10.285 20.5271 11.4351 22.5976 13.1697 24.1035C14.9231 25.6188 17.1668 26.4565 19.4859 26.4565C24.8028 26.4565 29.1298 22.1365 29.1298 16.8282V16.7906Z" fill="var(--fill-0, #56B5B7)"/>
<path d="M2.21537 9.54353L4.02538 10.5224L5.01523 12.3106C5.16606 12.5929 5.4583 12.7624 5.77882 12.7624C6.09935 12.7624 6.39159 12.5929 6.54242 12.3106L7.53227 10.5224L9.34228 9.54353C9.62509 9.39294 9.79478 9.10118 9.79478 8.78118C9.79478 8.46118 9.61566 8.16941 9.34228 8.01882L7.53227 7.04L6.54242 5.25176C6.39159 4.96941 6.09935 4.8 5.77882 4.8C5.4583 4.8 5.16606 4.96941 5.01523 5.25176L4.02538 7.04L2.21537 8.01882C1.93256 8.16941 1.76287 8.46118 1.76287 8.78118C1.76287 9.10118 1.94199 9.39294 2.21537 9.54353ZM4.66642 8.01882C4.81726 7.94353 4.93038 7.82118 5.01523 7.67059L5.77882 6.27765L6.54242 7.67059C6.62727 7.82118 6.74039 7.93412 6.89123 8.01882L8.28644 8.77176L6.89123 9.52471C6.74039 9.6 6.62727 9.72235 6.54242 9.87294L5.77882 11.2659L5.01523 9.87294C4.93038 9.72235 4.81726 9.60941 4.66642 9.52471L3.27121 8.77176L4.66642 8.01882Z" fill="var(--fill-0, #56B5B7)"/>
<path d="M13.0566 32.4612V29.0165C13.0566 28.0847 12.6889 27.2094 12.029 26.5506L11.1617 25.6847L6.38216 20.9412C6.35388 20.9129 6.31617 20.8847 6.28789 20.8565C6.28789 20.8565 6.27846 20.8471 6.26903 20.8376C6.24075 20.8094 6.20305 20.7906 6.17476 20.7624C6.17476 20.7624 6.16534 20.7624 6.15591 20.7529C6.12763 20.7341 6.08992 20.7153 6.05221 20.6965C6.05221 20.6965 6.05221 20.6965 6.04278 20.6965C6.00508 20.6776 5.96737 20.6588 5.92966 20.64C5.92966 20.64 5.92023 20.64 5.9108 20.64C5.83539 20.6118 5.75054 20.5835 5.6657 20.5647C5.49601 20.5271 5.3169 20.5271 5.14721 20.5647V16.4047C5.14721 14.5506 3.62944 13.0259 1.75344 13.0165C1.28209 13.0165 0.848441 13.1953 0.509065 13.5247C0.179115 13.8541 0 14.2871 0 14.7482V24.5271C0 25.5059 0.386512 26.4282 1.08412 27.1247L2.62074 28.6494C2.84699 28.8753 3.22408 28.8753 3.45033 28.6494C3.67658 28.4235 3.67658 28.0471 3.45033 27.8212L1.91371 26.2965C1.44235 25.8259 1.17839 25.1953 1.17839 24.5365V14.7576C1.17839 14.6071 1.23495 14.4659 1.34808 14.3624C1.4612 14.2494 1.60261 14.1929 1.76287 14.1929C2.9884 14.1929 3.98767 15.1906 3.98767 16.4047V21.5059C3.69543 21.9765 3.5446 22.5129 3.5446 23.0776C3.5446 23.8871 3.86512 24.64 4.44017 25.2141L6.89123 27.6424C7.00435 27.7553 7.15518 27.8118 7.30602 27.8118C7.45685 27.8118 7.60769 27.7553 7.72081 27.6424C7.94706 27.4165 7.94706 27.04 7.72081 26.8141L5.26976 24.3859C4.92096 24.0376 4.72299 23.5765 4.72299 23.0776C4.72299 22.6918 4.83611 22.3341 5.05294 22.0235C5.08122 21.9765 5.11893 21.9388 5.15663 21.8918C5.19434 21.8541 5.22262 21.8165 5.26033 21.7788C5.34518 21.6941 5.47716 21.6941 5.562 21.7788L11.2183 27.3882C11.6613 27.8212 11.9065 28.4047 11.9065 29.0259V32.4706H7.62654C7.52284 32.0376 7.30602 31.6518 6.9855 31.3318L5.40174 29.76C5.17549 29.5341 4.7984 29.5341 4.57215 29.76C4.3459 29.9859 4.3459 30.3624 4.57215 30.5882L6.15591 32.16C6.25018 32.2541 6.3256 32.3576 6.38216 32.4706H5.77882C5.02465 32.4706 4.41189 33.0824 4.41189 33.8353V38.6353C4.41189 39.3882 5.02465 40 5.77882 40H13.5562C13.9239 40 14.2632 39.8588 14.5272 39.5953C14.7912 39.3318 14.9326 38.9929 14.9326 38.6259V33.8259C14.9326 33.0729 14.3198 32.4612 13.5656 32.4612H13.0566ZM13.7165 38.6353C13.7165 38.7012 13.6788 38.7482 13.6599 38.7765C13.641 38.7953 13.5939 38.8329 13.5185 38.8329H5.74112C5.63742 38.8329 5.54315 38.7482 5.54315 38.6353V33.8353C5.54315 33.7318 5.62799 33.6376 5.74112 33.6376H13.5185C13.6222 33.6376 13.7165 33.7224 13.7165 33.8353V38.6353Z" fill="var(--fill-0, #56B5B7)"/>
</g>
</svg>
