<svg preserveAspectRatio="none" width="100%" height="100%" overflow="visible" style="display: block;" viewBox="0 0 40 40" fill="none" xmlns="http://www.w3.org/2000/svg">
<path id="Vector" d="M29.9344 8.1648L28.2486 6.48157C28.0379 6.27117 27.6867 6.27117 27.476 6.48157L25.3044 8.64989L24.3034 7.65048C24.0927 7.44007 23.7415 7.43423 23.5308 7.65048L21.845 9.3337C21.6343 9.54995 21.6343 9.89477 21.845 10.1052L22.8459 11.1046L21.0314 12.9164C18.9944 12.2326 16.7876 13.3314 16.1086 15.3652C15.8394 16.1659 15.8394 17.0309 16.1086 17.8316L14.2941 19.6434L13.2931 18.644C13.0824 18.4336 12.7312 18.4278 12.5205 18.644L10.8347 20.3272C10.624 20.5376 10.6181 20.8883 10.8347 21.0987L11.8356 22.0981L9.66401 24.2664C9.45328 24.4769 9.45328 24.8275 9.66401 25.0379L11.3498 26.7211C11.5605 26.9316 11.9117 26.9374 12.1224 26.7211L14.2941 24.5528L15.295 25.5522C15.5057 25.7626 15.8569 25.7685 16.0677 25.5522L17.7534 23.869C17.9642 23.6528 17.9642 23.3079 17.7534 23.0975L16.7525 22.0981L18.5671 20.2863C20.6041 20.9701 22.8108 19.8714 23.4898 17.8375C23.7591 17.0368 23.7591 16.1718 23.4898 15.3711L25.3044 13.5593L26.3053 14.5587C26.5219 14.7633 26.8614 14.7633 27.0779 14.5587L28.7637 12.8755C28.9745 12.6651 28.9803 12.3144 28.7637 12.104L27.7628 11.1046L29.9344 8.93627C30.1451 8.72002 30.1451 8.3752 29.9344 8.1648ZM26.6038 10.7189C26.3931 10.9293 26.3872 11.2799 26.6038 11.4903L27.6048 12.4897L26.6916 13.4015L25.6907 12.4021C25.4741 12.1917 25.1288 12.1917 24.918 12.4021L22.4655 14.8509C22.3074 15.0087 22.2606 15.2542 22.3542 15.4588C22.9864 16.8673 22.3542 18.5213 20.9494 19.1525C20.2177 19.4798 19.3865 19.4798 18.6549 19.1525C18.45 19.059 18.2042 19.1057 18.0461 19.2635L15.5935 21.7124C15.3828 21.9228 15.377 22.2735 15.5935 22.4839L16.5945 23.4833L15.6813 24.395L14.6804 23.3956C14.4697 23.1852 14.1185 23.1794 13.9077 23.3956L11.7361 25.5639L10.823 24.6522L12.9946 22.4839C13.2053 22.2735 13.2112 21.9228 12.9946 21.7124L11.9937 20.713L12.9068 19.8012L13.9077 20.8006C14.1185 21.0111 14.4697 21.0169 14.6804 20.8006L17.1388 18.3518C17.2969 18.194 17.3437 17.9485 17.25 17.744C16.6179 16.3354 17.25 14.6814 18.6549 14.0502C19.3865 13.7229 20.2177 13.7229 20.9494 14.0502C21.1543 14.1437 21.4001 14.097 21.5582 13.9392L24.0108 11.4903C24.2215 11.2799 24.2273 10.9293 24.0108 10.7189L23.0098 9.71944L23.923 8.80769L24.9239 9.80711C25.1405 10.0175 25.4858 10.0175 25.6965 9.80711L27.8682 7.63879L28.7813 8.55053L26.6097 10.7189H26.6038ZM39.9672 39.6492C39.8852 39.8596 39.6804 39.9999 39.4579 39.9999H0.544369C0.245844 40.0057 0 39.7603 0 39.4564C0 39.2986 0.0702411 39.1524 0.18731 39.0472C0.210723 39.0297 2.27698 37.2121 5.07492 34.9795C5.30906 34.7924 5.65441 34.8275 5.84172 35.0671C6.02903 35.3009 5.99391 35.6457 5.75392 35.8328C4.20861 37.0659 2.88574 38.1706 2.01943 38.907H37.9887C33.347 34.9502 23.6127 27.2822 20.0012 27.2822C18.6549 27.2822 15.5935 28.3751 8.67478 33.5709C8.43479 33.7521 8.08944 33.7053 7.90798 33.4599C7.72652 33.2203 7.77335 32.8754 8.01919 32.6942C9.05525 31.9169 10.0386 31.2039 10.9635 30.5668L3.32475 22.9456C3.11402 22.7293 3.11402 22.3845 3.32475 22.1741C3.83399 21.6656 3.83399 20.8416 3.32475 20.3331C3.10817 20.1168 3.10817 19.772 3.31304 19.5558L22.7464 0.157802C22.9571 -0.0526007 23.3083 -0.0526007 23.5191 0.157802C24.0283 0.67212 24.8536 0.677964 25.3688 0.169491C25.5795 -0.0409117 25.9307 -0.0467562 26.1414 0.169491L36.2561 10.2688C36.4668 10.4792 36.4668 10.8299 36.2561 11.0403C35.7469 11.5488 35.7469 12.3729 36.2561 12.8813C36.3615 12.9865 36.42 13.1268 36.42 13.2729C36.42 13.419 36.3673 13.5593 36.262 13.6645L30.9705 18.9479C30.7598 19.1583 30.4086 19.1583 30.1978 18.9479C29.9871 18.7375 29.9871 18.3869 30.1978 18.1765L35.1498 13.2378C34.664 12.4664 34.6581 11.4786 35.144 10.7013L25.7141 1.28579C24.9356 1.76505 23.9522 1.76505 23.1737 1.27995L4.4369 19.9883C4.92273 20.7597 4.92273 21.7416 4.44275 22.5189L11.8825 29.9473C15.6052 27.4576 18.3329 26.1951 20.0012 26.1951C20.6158 26.2185 21.2304 26.3354 21.8099 26.5458L24.2449 24.1145C24.4556 23.9041 24.8068 23.9041 25.0175 24.1145C25.2283 24.3249 25.2283 24.6756 25.0175 24.886L22.922 26.9783C29.1501 29.7019 39.3116 38.6031 39.815 39.0472C39.9848 39.1992 40.0433 39.4388 39.9672 39.6492ZM17.1505 31.6189C16.8462 31.6189 16.6062 31.3734 16.6062 31.0753C16.6062 30.7772 16.852 30.5318 17.1505 30.5318H18.011C18.3154 30.5318 18.5554 30.7772 18.5554 31.0753C18.5554 31.3734 18.3095 31.6189 18.011 31.6189H17.1505ZM22.3074 33.1384C22.003 33.1384 21.763 32.893 21.763 32.5949C21.763 32.2968 22.0089 32.0513 22.3074 32.0513H23.1679C23.4722 32.0513 23.7122 32.2968 23.7122 32.5949C23.7122 32.893 23.4664 33.1384 23.1679 33.1384H22.3074ZM12.579 35.0905C12.2746 35.0905 12.0346 34.845 12.0346 34.547C12.0346 34.2489 12.2805 34.0034 12.579 34.0034H13.4395C13.7438 34.0034 13.9838 34.2489 13.9838 34.547C13.9838 34.845 13.738 35.0905 13.4395 35.0905H12.579ZM19.5739 37.5861C19.2695 37.5861 19.0295 37.3406 19.0295 37.0426C19.0295 36.7445 19.2753 36.499 19.5739 36.499H20.4343C20.7387 36.499 20.9787 36.7445 20.9787 37.0426C20.9787 37.3406 20.7328 37.5861 20.4343 37.5861H19.5739ZM27.7394 36.1834C27.435 36.1834 27.195 35.938 27.195 35.6399C27.195 35.3418 27.4409 35.0963 27.7394 35.0963H28.5998C28.9042 35.0963 29.1442 35.3418 29.1442 35.6399C29.1442 35.938 28.8984 36.1834 28.5998 36.1834H27.7394ZM28.354 20.7831C28.5647 20.9935 28.5647 21.3442 28.354 21.5546L27.634 22.2735C27.4174 22.4839 27.0721 22.478 26.8614 22.2618C26.6565 22.0514 26.6565 21.7124 26.8614 21.502L27.5813 20.7831C27.7921 20.5727 28.1433 20.5727 28.354 20.7831Z" fill="var(--fill-0, #0D3442)"/>
</svg>
