<svg preserveAspectRatio="none" width="100%" height="100%" overflow="visible" style="display: block;" viewBox="0 0 33 40" fill="none" xmlns="http://www.w3.org/2000/svg">
<g id="Vector">
<path d="M16.0985 16.9307V12.1438H17.4991C17.591 12.1438 17.6821 12.1253 17.767 12.0894C17.8519 12.0535 17.929 12.0008 17.994 11.9344C18.0589 11.8681 18.1104 11.7893 18.1455 11.7026C18.1806 11.6159 18.1986 11.523 18.1984 11.4292V6.42881C18.1984 6.23956 18.1248 6.05805 17.9936 5.92423C17.8625 5.7904 17.6846 5.71522 17.4991 5.71522H3.49962C3.31415 5.71522 3.13628 5.7904 3.00513 5.92423C2.87399 6.05805 2.80031 6.23956 2.80031 6.42881V11.4292C2.80018 11.523 2.81817 11.6159 2.85325 11.7026C2.88833 11.7893 2.93982 11.8681 3.00477 11.9344C3.06972 12.0008 3.14686 12.0535 3.23177 12.0894C3.31668 12.1253 3.4077 12.1438 3.49962 12.1438H4.90029V16.9307C3.84717 17.3442 2.89662 17.99 2.11666 18.8221C1.3367 19.6542 0.746612 20.6519 0.388619 21.7438C0.353322 21.8513 0.343592 21.9658 0.360232 22.0779C0.376873 22.19 0.419407 22.2964 0.484321 22.3884C0.549234 22.4804 0.634666 22.5553 0.733559 22.607C0.832452 22.6586 0.941969 22.6856 1.05306 22.6855C1.20001 22.6852 1.34315 22.6378 1.46221 22.5499C1.58127 22.462 1.67023 22.3381 1.71649 22.1958C2.02989 21.2346 2.56401 20.3639 3.27429 19.6562C3.98456 18.9486 4.8504 18.4245 5.79955 18.1277C5.94412 18.0835 6.07091 17.993 6.16121 17.8696C6.2515 17.7462 6.30049 17.5964 6.30096 17.4424V12.1428H14.7009V17.4424C14.7009 17.5959 14.7493 17.7454 14.8391 17.8687C14.9288 17.9919 15.0551 18.0824 15.1992 18.1267C16.4687 18.523 17.5807 19.3234 18.3725 20.4108C19.1644 21.4982 19.5945 22.8155 19.6001 24.1702V37.2681C19.6001 37.6138 19.4655 37.9454 19.2259 38.1899C18.9863 38.4344 18.6614 38.5718 18.3225 38.5718H2.67727C2.33842 38.5718 2.01345 38.4344 1.77385 38.1899C1.53425 37.9454 1.39964 37.6138 1.39964 37.2681V27.6848C1.39964 27.4956 1.32597 27.314 1.19482 27.1802C1.06367 27.0464 0.885802 26.9712 0.700334 26.9712C0.608413 26.9711 0.517368 26.9894 0.432405 27.0252C0.347443 27.061 0.270231 27.1136 0.205185 27.1799C0.14014 27.2461 0.0885373 27.3248 0.0533296 27.4115C0.018122 27.4981 -9.88129e-08 27.591 0 27.6848V37.2681C0 37.9926 0.282068 38.6875 0.784153 39.1998C1.28624 39.7122 1.96721 40 2.67727 40H18.3225C19.0326 40 19.7135 39.7122 20.2156 39.1998C20.7177 38.6875 20.9998 37.9926 20.9998 37.2681V24.1702C20.9926 22.6001 20.5208 21.0689 19.6462 19.7771C18.7716 18.4853 17.535 17.4932 16.0985 16.9307ZM4.20406 10.7145V7.14345H5.5996V7.85704C5.5996 8.04657 5.67338 8.22834 5.80472 8.36236C5.93606 8.49639 6.11419 8.57168 6.29993 8.57168C6.48567 8.57168 6.6638 8.49639 6.79514 8.36236C6.92648 8.22834 7.00026 8.04657 7.00026 7.85704V7.14345H7.69957V7.85704C7.69957 8.04657 7.77336 8.22834 7.9047 8.36236C8.03604 8.49639 8.21417 8.57168 8.39991 8.57168C8.58565 8.57168 8.76378 8.49639 8.89512 8.36236C9.02646 8.22834 9.10024 8.04657 9.10024 7.85704V7.14345H9.79955V7.85704C9.79955 8.04657 9.87333 8.22834 10.0047 8.36236C10.136 8.49639 10.3141 8.57168 10.4999 8.57168C10.6856 8.57168 10.8638 8.49639 10.9951 8.36236C11.1264 8.22834 11.2002 8.04657 11.2002 7.85704V7.14345H11.8995V7.85704C11.8995 8.04657 11.9733 8.22834 12.1047 8.36236C12.236 8.49639 12.4141 8.57168 12.5999 8.57168C12.7856 8.57168 12.9637 8.49639 13.0951 8.36236C13.2264 8.22834 13.3002 8.04657 13.3002 7.85704V7.14345H13.9995V7.85704C13.9995 8.04657 14.0733 8.22834 14.2046 8.36236C14.336 8.49639 14.5141 8.57168 14.6998 8.57168C14.8856 8.57168 15.0637 8.49639 15.1951 8.36236C15.3264 8.22834 15.4002 8.04657 15.4002 7.85704V7.14345H16.7998V10.7145H4.20406Z" fill="#0D3442"/>
<path d="M7.84928 27.4002C7.41334 27.2518 6.95301 27.1924 6.49459 27.2256C6.03618 27.2587 5.58865 27.3837 5.17758 27.5934C4.76651 27.8031 4.39995 28.0934 4.09885 28.4476C3.79774 28.8019 3.56799 29.2133 3.42272 29.6582L2.53781 32.3692C2.39212 32.814 2.33371 33.2838 2.36594 33.7517C2.39816 34.2196 2.52038 34.6764 2.72561 35.0961C2.93085 35.5158 3.21509 35.8901 3.56209 36.1977C3.9091 36.5053 4.31207 36.7401 4.74802 36.8888C5.18396 37.0374 5.64434 37.097 6.10285 37.0642C6.56137 37.0313 7.00905 36.9066 7.42033 36.6971C7.83161 36.4877 8.19844 36.1977 8.49988 35.8436C8.80131 35.4895 9.03145 35.0783 9.17715 34.6334L10.062 31.913C10.2078 31.4682 10.2662 30.9984 10.2338 30.5305C10.2014 30.0626 10.079 29.6059 9.87347 29.1863C9.66795 28.7668 9.38339 28.3927 9.03605 28.0855C8.68872 27.7783 8.28544 27.544 7.84928 27.396V27.4002ZM8.73521 31.4652L7.84928 34.1762C7.67319 34.7154 7.29442 35.1611 6.79627 35.4153C6.29813 35.6695 5.72143 35.7114 5.19303 35.5317C4.66464 35.352 4.22784 34.9655 3.97872 34.4572C3.7296 33.9489 3.68857 33.3604 3.86465 32.8212L4.75058 30.1102C4.92735 29.571 5.30678 29.1255 5.8054 28.8718C6.30403 28.6181 6.881 28.5769 7.40939 28.7573C7.93779 28.9377 8.37432 29.3248 8.62296 29.8336C8.87159 30.3425 8.91197 30.9312 8.73521 31.4704V31.4652Z" fill="#0D3442"/>
<path d="M7.28019 29.9428C7.13215 29.9428 6.98743 29.9876 6.86433 30.0715C6.74124 30.1554 6.6453 30.2747 6.58864 30.4143C6.53199 30.5539 6.51717 30.7074 6.54605 30.8556C6.57493 31.0038 6.64622 31.1399 6.75091 31.2467C6.85559 31.3535 6.98896 31.4262 7.13416 31.4557C7.27936 31.4852 7.42987 31.4701 7.56664 31.4123C7.70342 31.3544 7.82032 31.2565 7.90257 31.1309C7.98482 31.0053 8.02872 30.8576 8.02872 30.7066C8.02872 30.6063 8.00936 30.507 7.97174 30.4143C7.93413 30.3216 7.87899 30.2374 7.80948 30.1665C7.73997 30.0956 7.65746 30.0393 7.56664 30.0009C7.47583 29.9625 7.37849 29.9428 7.28019 29.9428Z" fill="#0D3442"/>
<path d="M5.87953 32.0856C5.73148 32.0856 5.58676 32.1304 5.46367 32.2144C5.34057 32.2983 5.24463 32.4176 5.18798 32.5571C5.13132 32.6967 5.1165 32.8503 5.14538 32.9985C5.17426 33.1466 5.24555 33.2827 5.35024 33.3895C5.45492 33.4964 5.58829 33.5691 5.73349 33.5986C5.87869 33.6281 6.0292 33.6129 6.16597 33.5551C6.30275 33.4973 6.41965 33.3994 6.5019 33.2738C6.58415 33.1482 6.62805 33.0005 6.62805 32.8494C6.62805 32.6469 6.54919 32.4526 6.40881 32.3093C6.26844 32.1661 6.07805 32.0856 5.87953 32.0856Z" fill="#0D3442"/>
<path d="M15.7755 22.3214C15.1772 21.5968 14.3213 21.1445 13.3962 21.0638C12.4711 20.9832 11.5524 21.2808 10.8424 21.8913C10.1323 22.5018 9.689 23.3752 9.60997 24.3192C9.53093 25.2632 9.82265 26.2006 10.4209 26.9252L12.2235 29.112C12.8218 29.8367 13.6777 30.2892 14.603 30.3699C15.5282 30.4507 16.447 30.1531 17.1572 29.5426C17.8674 28.932 18.3108 28.0587 18.3899 27.1145C18.469 26.1704 18.1774 25.2329 17.5791 24.5082L15.7755 22.3214ZM16.2533 28.4476C15.8267 28.8127 15.2756 28.9904 14.7209 28.9415C14.1661 28.8927 13.653 28.6214 13.294 28.187L11.4914 26.0013C11.1391 25.5657 10.9695 25.0057 11.0196 24.4432C11.0697 23.8807 11.3354 23.3612 11.7589 22.9975C12.1825 22.6339 12.7296 22.4555 13.2813 22.5014C13.833 22.5472 14.3446 22.8134 14.705 23.2421L16.5086 25.4258C16.8668 25.8608 17.0413 26.4232 16.9936 26.9893C16.9459 27.5555 16.68 28.0792 16.2543 28.4455L16.2533 28.4476Z" fill="#0D3442"/>
<path d="M13.9452 24.5113C14.023 24.3825 14.0616 24.2331 14.056 24.0819C14.0505 23.9307 14.001 23.7846 13.914 23.6621C13.827 23.5396 13.7062 23.4462 13.5671 23.3938C13.428 23.3415 13.2768 23.3324 13.1326 23.3679C12.9885 23.4033 12.8579 23.4817 12.7575 23.593C12.657 23.7042 12.5912 23.8435 12.5684 23.993C12.5456 24.1425 12.5668 24.2955 12.6294 24.4327C12.6919 24.5699 12.793 24.685 12.9198 24.7635C13.0888 24.8678 13.2913 24.8998 13.4833 24.8526C13.6753 24.8054 13.8413 24.6827 13.9452 24.5113Z" fill="#0D3442"/>
<path d="M14.7655 25.7983C14.6393 25.7189 14.4928 25.6795 14.3446 25.6852C14.1964 25.6908 14.0532 25.7413 13.9332 25.8301C13.8132 25.9189 13.7217 26.0421 13.6704 26.1841C13.619 26.326 13.6102 26.4803 13.6449 26.6274C13.6797 26.7745 13.7564 26.9077 13.8655 27.0103C13.9745 27.1128 14.111 27.1799 14.2575 27.2032C14.404 27.2264 14.554 27.2048 14.6884 27.141C14.8229 27.0771 14.9357 26.974 15.0126 26.8446C15.1151 26.6722 15.1466 26.4655 15.1003 26.2695C15.054 26.0735 14.9336 25.9041 14.7655 25.7983Z" fill="#0D3442"/>
<path d="M32.2666 32.8547H30.8957V22.7054C30.8957 22.6116 30.8776 22.5187 30.8424 22.4321C30.8072 22.3454 30.7556 22.2667 30.6905 22.2004C30.6255 22.1341 30.5483 22.0816 30.4633 22.0458C30.3783 22.01 30.2873 21.9916 30.1954 21.9918C30.0099 21.9918 29.832 22.067 29.7009 22.2008C29.5697 22.3346 29.4961 22.5161 29.4961 22.7054V27.8543H25.292V25.7146H26.6619C26.8477 25.7178 27.0274 25.6475 27.1634 25.5183C27.2993 25.3891 27.3809 25.2112 27.391 25.0219C27.3934 24.9266 27.3772 24.8318 27.3431 24.7431C27.3091 24.6543 27.258 24.5734 27.1928 24.5051C27.1276 24.4369 27.0497 24.3826 26.9636 24.3456C26.8775 24.3085 26.7851 24.2895 26.6917 24.2895H25.2961V23.5749H26.666C26.8518 23.5781 27.0315 23.5078 27.1675 23.3786C27.3034 23.2494 27.385 23.0715 27.3951 22.8822C27.3975 22.7869 27.3813 22.6921 27.3472 22.6033C27.3132 22.5146 27.2621 22.4337 27.1969 22.3654C27.1317 22.2971 27.0538 22.2429 26.9677 22.2058C26.8816 22.1688 26.7892 22.1497 26.6958 22.1498H25.2961V21.4289H26.666C26.8518 21.4321 27.0315 21.3618 27.1675 21.2326C27.3034 21.1034 27.385 20.9255 27.3951 20.7362C27.3975 20.6409 27.3813 20.5461 27.3472 20.4573C27.3132 20.3686 27.2621 20.2877 27.1969 20.2194C27.1317 20.1511 27.0538 20.0969 26.9677 20.0598C26.8816 20.0228 26.7892 20.0037 26.6958 20.0038H25.2961V19.2891H26.666C26.8518 19.2924 27.0315 19.222 27.1675 19.0929C27.3034 18.9637 27.385 18.7858 27.3951 18.5965C27.3975 18.5012 27.3813 18.4064 27.3472 18.3176C27.3132 18.2288 27.2621 18.1479 27.1969 18.0797C27.1317 18.0114 27.0538 17.9571 26.9677 17.9201C26.8816 17.8831 26.7892 17.864 26.6958 17.864H25.2961V17.1494H26.666C26.8518 17.1527 27.0315 17.0823 27.1675 16.9531C27.3034 16.824 27.385 16.646 27.3951 16.4567C27.3975 16.3615 27.3813 16.2666 27.3472 16.1779C27.3132 16.0891 27.2621 16.0082 27.1969 15.9399C27.1317 15.8717 27.0538 15.8174 26.9677 15.7804C26.8816 15.7434 26.7892 15.7243 26.6958 15.7243H25.2961V14.2856H29.5002V19.2033C29.5 19.2971 29.518 19.39 29.5531 19.4767C29.5882 19.5634 29.6397 19.6422 29.7046 19.7086C29.7696 19.775 29.8467 19.8276 29.9316 19.8636C30.0165 19.8995 30.1076 19.918 30.1995 19.918C30.3852 19.918 30.5633 19.8427 30.6947 19.7087C30.826 19.5746 30.8998 19.3929 30.8998 19.2033V13.572C30.8998 13.3825 30.826 13.2007 30.6947 13.0667C30.5633 12.9327 30.3852 12.8574 30.1995 12.8574H29.5002V10.7145C29.5002 10.525 29.4264 10.3432 29.295 10.2092C29.1637 10.0752 28.9856 9.9999 28.7998 9.9999H28.0954V0.744155C28.0986 0.554621 28.0296 0.371206 27.9031 0.23247C27.7765 0.0937341 27.6021 0.010484 27.4166 0.000221416C27.3232 -0.00215219 27.2302 0.0145787 27.1432 0.0494283C27.0562 0.084278 26.977 0.136541 26.9101 0.203139C26.8432 0.269737 26.79 0.349323 26.7538 0.437207C26.7175 0.525091 26.6988 0.619495 26.6988 0.714858V9.9999H25.9985C25.9066 9.9999 25.8156 10.0184 25.7306 10.0543C25.6457 10.0902 25.5686 10.1429 25.5036 10.2093C25.4387 10.2757 25.3872 10.3544 25.3521 10.4411C25.317 10.5278 25.2991 10.6207 25.2992 10.7145V12.8574H24.5989C24.5069 12.8574 24.4158 12.8759 24.3308 12.9118C24.2459 12.9477 24.1687 13.0004 24.1036 13.0667C24.0386 13.1331 23.987 13.2119 23.9518 13.2986C23.9166 13.3853 23.8985 13.4782 23.8985 13.572V32.8547H22.5245C22.3389 32.8514 22.1593 32.9216 22.0234 33.0506C21.8875 33.1795 21.8058 33.3572 21.7955 33.5463C21.7933 33.6416 21.8098 33.7364 21.844 33.8251C21.8782 33.9138 21.9294 33.9946 21.9946 34.0628C22.0599 34.1311 22.1378 34.1853 22.2239 34.2224C22.3099 34.2595 22.4024 34.2786 22.4958 34.2787H26.6999V37.1446H25.3269C25.1413 37.1413 24.9617 37.2115 24.8258 37.3405C24.6898 37.4694 24.6081 37.6471 24.5978 37.8362C24.5954 37.9316 24.6117 38.0265 24.6458 38.1153C24.6799 38.2042 24.7311 38.2851 24.7964 38.3534C24.8617 38.4217 24.9397 38.4759 25.0259 38.5129C25.1121 38.5498 25.2047 38.5688 25.2982 38.5686H29.4684C29.6541 38.5719 29.8339 38.5015 29.9698 38.3724C30.1058 38.2432 30.1874 38.0652 30.1974 37.876C30.1999 37.7807 30.1836 37.6859 30.1496 37.5971C30.1155 37.5083 30.0644 37.4274 29.9992 37.3592C29.9341 37.2909 29.8561 37.2366 29.7701 37.1996C29.684 37.1626 29.5915 37.1435 29.4981 37.1435H28.0954V34.286H32.2994C32.3929 34.2861 32.4854 34.267 32.5715 34.23C32.6577 34.193 32.7357 34.1387 32.8009 34.0705C32.8662 34.0022 32.9174 33.9213 32.9516 33.8326C32.9857 33.7438 33.0021 33.649 32.9998 33.5536C32.9913 33.3625 32.9098 33.1823 32.7728 33.0517C32.6358 32.9211 32.4541 32.8504 32.2666 32.8547ZM26.6958 11.426H28.0954V12.8543H26.6958V11.426ZM26.6958 32.8547H25.2961V29.2857H26.6958V32.8547ZM29.4961 32.8547H28.0954V29.2857H29.4961V32.8547Z" fill="#0D3442"/>
</g>
</svg>
