<svg preserveAspectRatio="none" width="100%" height="100%" overflow="visible" style="display: block;" viewBox="0 0 50 50" fill="none" xmlns="http://www.w3.org/2000/svg">
<g id="Vector">
<rect width="50" height="50" rx="25" fill="var(--fill-0, white)" fill-opacity="0.7"/>
<path id="Vector_2" d="M19.503 17.8474L26.8619 25.0011L19.503 32.1526C19.1812 32.4652 19.0002 32.8893 19 33.3316C18.9998 33.7738 19.1803 34.1981 19.5019 34.511C19.8234 34.8239 20.2597 34.9998 20.7146 35C21.1696 35.0002 21.606 34.8247 21.9279 34.5121L30.4979 26.1786C30.8194 25.866 31 25.442 31 25C31 24.558 30.8194 24.134 30.4979 23.8214L21.9279 15.4879C21.606 15.1753 21.1696 14.9998 20.7146 15C20.2597 15.0002 19.8234 15.1761 19.5019 15.489C19.1803 15.8019 18.9998 16.2262 19 16.6684C19.0002 17.1107 19.1812 17.5348 19.503 17.8474Z" fill="var(--fill-0, #0D3442)"/>
</g>
</svg>
