<svg preserveAspectRatio="none" width="100%" height="100%" overflow="visible" style="display: block;" viewBox="0 0 20 20" fill="none" xmlns="http://www.w3.org/2000/svg">
<g id="Vector">
<path d="M19.7063 12.4806H7.81714L7.20782 8.76927C7.57815 8.80394 7.90471 9.03202 8.06525 9.36593C8.10721 9.45534 8.13822 9.55022 8.15647 9.6524C8.17289 9.75276 8.23856 9.83122 8.32248 9.87136C8.37356 9.89508 8.43194 9.90421 8.49214 9.89326C8.50126 9.89326 8.51039 9.88961 8.51951 9.88778C8.52133 9.88778 8.52498 9.88778 8.52681 9.88596C8.53228 9.88413 8.53958 9.88231 8.54505 9.88049C8.5487 9.88049 8.55052 9.87866 8.55417 9.87684C8.55964 9.87501 8.56512 9.87136 8.57059 9.86954C8.57424 9.86954 8.57606 9.86589 8.57971 9.86406C8.58518 9.86224 8.58883 9.85859 8.5943 9.85494C8.59795 9.85312 8.59978 9.85129 8.60343 9.84947C8.6089 9.84582 8.61255 9.84399 8.61802 9.84034C8.62167 9.83852 8.62349 9.83669 8.62714 9.83487C8.63079 9.83122 8.63626 9.82757 8.63991 9.82392C8.64174 9.8221 8.64539 9.82027 8.64721 9.81662C8.65086 9.81297 8.65633 9.8075 8.65998 9.80385C8.66181 9.80203 8.66363 9.8002 8.66545 9.79655C8.6691 9.79108 8.67458 9.7856 8.67822 9.78013C8.67822 9.78013 8.68005 9.77648 8.68187 9.77466C8.69282 9.76006 8.70194 9.74364 8.70924 9.72722C8.70924 9.72539 8.70924 9.72357 8.71106 9.72174C8.71289 9.71627 8.71653 9.70897 8.71836 9.70349C8.71836 9.69985 8.71836 9.69802 8.72018 9.69437C8.72201 9.6889 8.72383 9.68342 8.72566 9.67612C8.72566 9.67248 8.72566 9.67065 8.72748 9.667C8.72748 9.66153 8.72931 9.65605 8.73113 9.64876C8.73113 9.64511 8.73113 9.64146 8.73113 9.63963C8.73113 9.63416 8.73113 9.62686 8.73113 9.62138C8.73113 9.61774 8.73113 9.61409 8.73113 9.61226C8.73113 9.61044 8.73113 9.60679 8.73113 9.60496C8.73113 9.60131 8.73113 9.59584 8.73113 9.59219C8.73113 9.59037 8.73113 9.58854 8.73113 9.58489C8.73113 9.57577 8.73113 9.56665 8.72748 9.55752C8.72748 9.55752 8.72748 9.5557 8.72748 9.55387C8.72748 9.54475 8.72566 9.5338 8.72383 9.52468C8.72383 9.51738 8.72201 9.51008 8.72018 9.50461C8.72018 9.50096 8.72018 9.49913 8.72018 9.49548C8.72018 9.49183 8.72018 9.48819 8.72018 9.48636C8.72018 9.47541 8.71836 9.46264 8.71654 9.45169C8.71654 9.45169 8.71654 9.45169 8.71654 9.44987C8.68735 8.95174 9.0139 8.49558 9.49552 8.3642C9.49552 8.3642 9.49552 8.3642 9.49735 8.3642C9.51194 8.36055 9.52654 8.3569 9.54113 8.35325C9.54296 8.35325 9.5466 8.35325 9.54843 8.35143C9.56667 8.34778 9.58309 8.34413 9.60133 8.34048C9.61775 8.33683 9.63417 8.33501 9.65241 8.33318C9.65789 8.33318 9.66519 8.33318 9.67066 8.33136C9.6816 8.33136 9.69073 8.32953 9.70167 8.32953C9.70897 8.32953 9.71809 8.32953 9.72539 8.32953C9.73451 8.32953 9.74181 8.32953 9.75093 8.32953C9.76005 8.32953 9.76917 8.32953 9.77829 8.32953C9.78559 8.32953 9.79106 8.32953 9.79836 8.32953C9.80931 8.32953 9.81843 8.32953 9.82937 8.32953C9.83485 8.32953 9.84032 8.32953 9.84397 8.32953C9.85492 8.32953 9.86769 8.32953 9.87863 8.33136C9.88046 8.33136 9.88228 8.33136 9.8841 8.33136C9.94066 8.33683 9.99721 8.34778 10.0519 8.36238C10.0538 8.36238 10.0574 8.36238 10.0592 8.3642C10.0702 8.36785 10.0811 8.3715 10.0939 8.37515C10.0976 8.37515 10.1012 8.37697 10.1067 8.3788C10.1176 8.38245 10.1267 8.3861 10.1377 8.38975C10.1432 8.39157 10.1486 8.39339 10.1523 8.39522C10.1614 8.39887 10.1705 8.40252 10.1796 8.40617C10.1869 8.40799 10.1924 8.41164 10.1997 8.41529C10.207 8.41894 10.2143 8.42259 10.2234 8.42624C10.2326 8.43171 10.2435 8.43536 10.2526 8.44084C10.2563 8.44266 10.2617 8.44449 10.2654 8.44631C10.4442 8.53937 10.5956 8.68351 10.6978 8.86233C10.6978 8.86415 10.6996 8.86598 10.7014 8.8678C10.7087 8.88058 10.7142 8.89152 10.7215 8.9043C10.7215 8.90795 10.7251 8.9116 10.7269 8.91525C10.7324 8.92619 10.7379 8.93714 10.7434 8.94809C10.7452 8.95356 10.747 8.95721 10.7507 8.96269C10.7543 8.97181 10.7598 8.98276 10.7634 8.99188C10.7653 8.99735 10.7689 9.00465 10.7707 9.01013C10.7944 9.07399 10.8145 9.14333 10.8255 9.21449C10.851 9.37323 11.0024 9.48271 11.1611 9.45534C11.3053 9.43162 11.4074 9.30755 11.4074 9.16705C11.4074 9.15063 11.4074 9.13603 11.4038 9.11961C11.3582 8.84043 11.4238 8.55944 11.588 8.32953C11.754 8.09963 11.9985 7.94818 12.2776 7.90074C12.8286 7.80951 13.3503 8.16349 13.4799 8.69811L13.4835 8.72183C13.4872 8.74008 13.4908 8.75832 13.4926 8.77657C13.4926 8.7784 13.4926 8.78205 13.4926 8.78387C13.4926 8.79117 13.4944 8.79847 13.4981 8.80577C13.4981 8.80759 13.4981 8.80942 13.4981 8.81124C13.4999 8.81854 13.5017 8.82584 13.5054 8.83314C13.5054 8.83314 13.5054 8.83679 13.5072 8.83679C13.5109 8.84408 13.5127 8.85138 13.5163 8.85868C13.5163 8.86051 13.5182 8.86233 13.52 8.86416C13.5236 8.87145 13.5273 8.87693 13.5309 8.88423C13.5309 8.88788 13.5346 8.8897 13.5364 8.89152C13.5401 8.897 13.5437 8.90247 13.5474 8.90612C13.551 8.90977 13.5528 8.91342 13.5565 8.91707C13.5601 8.92072 13.5619 8.92437 13.5656 8.92802C13.5692 8.93167 13.5729 8.93532 13.5784 8.93897C13.582 8.94262 13.5838 8.94444 13.5875 8.94809C13.5911 8.95174 13.5966 8.95539 13.6021 8.95904C13.6057 8.96086 13.6076 8.96451 13.6112 8.96634C13.6185 8.97181 13.6258 8.97546 13.6331 8.98093C13.6349 8.98093 13.6386 8.98276 13.6404 8.98458C13.6459 8.98823 13.6513 8.99006 13.6568 8.99371C13.6586 8.99371 13.6623 8.99553 13.6641 8.99735C13.6696 8.99918 13.6769 9.00283 13.6824 9.00465C13.6842 9.00465 13.686 9.00465 13.6878 9.00648C13.6969 9.0083 13.7042 9.01195 13.7134 9.01378C13.7152 9.01378 13.7188 9.01378 13.7207 9.01378C13.7261 9.01378 13.7334 9.0156 13.7389 9.01743C13.7426 9.01743 13.7444 9.01743 13.748 9.01743C13.7535 9.01743 13.759 9.01743 13.7663 9.01743C13.7699 9.01743 13.7717 9.01743 13.7754 9.01743C13.7754 9.01743 13.7772 9.01743 13.779 9.01743C13.7845 9.01743 13.7882 9.01743 13.7936 9.01743C13.7973 9.01743 13.8009 9.01743 13.8028 9.01743C13.8119 9.01743 13.821 9.0156 13.8301 9.01378H13.8319C13.8411 9.01195 13.852 9.01013 13.8611 9.00648C13.8648 9.00648 13.8666 9.00465 13.8703 9.00283C13.8757 9.001 13.883 8.99918 13.8885 8.99735C13.8922 8.99735 13.8958 8.9937 13.8994 8.99188C13.9049 8.99006 13.9104 8.98823 13.914 8.98458C13.9195 8.98276 13.9232 8.97911 13.9286 8.97546C13.9323 8.97363 13.9359 8.97181 13.9378 8.96998C13.9451 8.96634 13.9505 8.96086 13.956 8.95721C13.956 8.95721 13.9597 8.95539 13.9597 8.95356C13.9669 8.94809 13.9724 8.94261 13.9779 8.93714C13.9779 8.93714 13.9779 8.93714 13.9797 8.93532C14.0326 8.88423 14.0655 8.81306 14.0691 8.73643C14.0691 8.73643 14.0691 8.73643 14.0691 8.7346C14.0691 8.72731 14.0691 8.72001 14.0691 8.71088C14.0691 8.70906 14.0691 8.70723 14.0691 8.70541C14.0691 8.69811 14.0691 8.69264 14.0673 8.68534C14.0673 8.68169 14.0673 8.67804 14.0673 8.67439C14.0636 8.65067 14.0582 8.62695 14.0527 8.6014C14.0527 8.59411 14.0509 8.58681 14.049 8.58133C13.7243 6.75303 12.7173 5.15464 11.2067 4.0708C9.67066 2.96871 7.7989 2.53079 5.93444 2.83551C5.93444 2.83551 5.93261 2.83551 5.93079 2.83551C4.0645 3.14205 2.4299 4.15838 1.32618 5.69474C0.227939 7.23839 -0.209899 9.11231 0.0965878 10.9789C0.120304 11.1231 0.244358 11.2253 0.384831 11.2253C0.40125 11.2253 0.415845 11.2253 0.432264 11.2216L0.477872 11.2143C0.554494 11.2015 0.623818 11.1596 0.667602 11.0957C0.71321 11.0318 0.731454 10.9534 0.718683 10.8767C0.673075 10.5976 0.738751 10.3166 0.90294 10.0867C1.06895 9.85676 1.31341 9.70532 1.59254 9.65788C2.10882 9.57394 2.59956 9.87684 2.76558 10.3549C2.77105 10.3677 2.7747 10.3823 2.77835 10.395C2.77835 10.3969 2.77835 10.3987 2.78017 10.4023C2.78382 10.4151 2.78747 10.4279 2.79112 10.4388C2.79112 10.4443 2.79294 10.4498 2.79477 10.4553C2.79659 10.4644 2.80024 10.4735 2.80207 10.4844C2.80571 10.5009 2.80936 10.5155 2.81119 10.5319C2.81119 10.5319 2.81119 10.5319 2.81119 10.5337C2.81119 10.5428 2.81484 10.5501 2.81666 10.5593C2.81666 10.5629 2.81848 10.5666 2.82031 10.5702C2.82031 10.5757 2.82396 10.5812 2.82578 10.5866C2.82578 10.5903 2.82943 10.5939 2.82943 10.5976C2.83125 10.603 2.83308 10.6067 2.83673 10.6122C2.83673 10.6158 2.84038 10.6195 2.8422 10.6231C2.84402 10.6268 2.84767 10.6322 2.8495 10.6359C2.85132 10.6395 2.85315 10.6432 2.8568 10.6468C2.86044 10.6505 2.86227 10.656 2.86592 10.6596C2.86774 10.6633 2.87139 10.6651 2.87321 10.6687C2.87686 10.6724 2.88051 10.676 2.88416 10.6797C2.88598 10.6833 2.88963 10.6852 2.89146 10.6888C2.89511 10.6925 2.89875 10.6961 2.9024 10.6998C2.90423 10.7016 2.90788 10.7052 2.9097 10.7071C2.91335 10.7107 2.91882 10.7144 2.9243 10.718C2.92612 10.718 2.92977 10.7216 2.93159 10.7235C2.93889 10.7289 2.94619 10.7326 2.95348 10.7381C2.95348 10.7381 2.95348 10.7381 2.95531 10.7381C2.96261 10.7417 2.9699 10.7454 2.9772 10.749C2.98085 10.749 2.98267 10.7508 2.98632 10.7527C2.9918 10.7545 2.99727 10.7563 3.00274 10.76C3.00639 10.76 3.01004 10.7618 3.01369 10.7636C3.01916 10.7636 3.02463 10.7673 3.02828 10.7673C3.03193 10.7673 3.03558 10.7673 3.03923 10.7691C3.0447 10.7691 3.05017 10.7709 3.05565 10.7727C3.0593 10.7727 3.06294 10.7727 3.06659 10.7727C3.07207 10.7727 3.07754 10.7727 3.08301 10.7727C3.08666 10.7727 3.09031 10.7727 3.09396 10.7727C3.09578 10.7727 3.09761 10.7727 3.09943 10.7727C3.10308 10.7727 3.10673 10.7727 3.1122 10.7727C3.11403 10.7727 3.11767 10.7727 3.1195 10.7727C3.12862 10.7727 3.13774 10.7727 3.14686 10.7691C3.14686 10.7691 3.14869 10.7691 3.15051 10.7691C3.15963 10.7691 3.16693 10.7654 3.17423 10.7636C3.17788 10.7636 3.18153 10.7618 3.18517 10.76C3.19065 10.76 3.19612 10.7563 3.20159 10.7545C3.20524 10.7545 3.20889 10.7508 3.21254 10.7508C3.21801 10.749 3.22166 10.7472 3.22713 10.7454C3.23078 10.7454 3.23443 10.7417 3.23808 10.7399C3.24173 10.7381 3.2472 10.7344 3.25085 10.7326C3.2545 10.7308 3.25815 10.7289 3.2618 10.7253C3.26544 10.7235 3.26909 10.7198 3.27457 10.7162C3.27821 10.7144 3.28186 10.7107 3.28369 10.7089C3.28734 10.7052 3.29098 10.7034 3.29463 10.6998C3.29828 10.6961 3.30011 10.6943 3.30376 10.6906C3.3074 10.687 3.31105 10.6833 3.3147 10.6797C3.31653 10.676 3.32017 10.6742 3.322 10.6706C3.32565 10.6669 3.3293 10.6633 3.33112 10.6578C3.33294 10.6541 3.33659 10.6523 3.33842 10.6487C3.34207 10.6432 3.34571 10.6359 3.34936 10.6304C3.35119 10.6268 3.35301 10.6231 3.35484 10.6213C3.35849 10.6158 3.36031 10.6103 3.36396 10.603C3.36396 10.5994 3.36761 10.5957 3.36761 10.5921C3.36943 10.5866 3.37126 10.583 3.37308 10.5775C3.37308 10.5739 3.3749 10.5702 3.37673 10.5666C3.37673 10.5611 3.38038 10.5574 3.38038 10.552C3.38038 10.5483 3.3822 10.5447 3.3822 10.5392C3.3822 10.5337 3.38403 10.5301 3.38585 10.5246C3.38585 10.5209 3.38585 10.5173 3.38585 10.5118C3.38585 10.5063 3.38585 10.5009 3.38585 10.4972C3.38585 10.4936 3.38585 10.4899 3.38585 10.4844C3.38585 10.4826 3.38585 10.4808 3.38585 10.479C3.38585 10.4753 3.38585 10.4717 3.38585 10.468C3.38585 10.4644 3.38585 10.4625 3.38585 10.4589C3.38585 10.4516 3.38585 10.4425 3.3822 10.4352C3.3822 10.4352 3.3822 10.4334 3.3822 10.4315C3.33112 10.125 3.41869 9.82757 3.59747 9.60131C3.59747 9.60131 3.5993 9.59766 3.60112 9.59584C3.61024 9.58489 3.61936 9.57212 3.63031 9.56117C3.63578 9.5557 3.64126 9.55022 3.64673 9.54292C3.6522 9.53563 3.6595 9.53015 3.66497 9.52285C3.81822 9.36411 4.02254 9.25098 4.25605 9.21266C4.38193 9.19259 4.50781 9.19442 4.62822 9.21814C4.77599 9.24733 4.91829 9.30754 5.04599 9.39878C5.24666 9.54292 5.38896 9.74911 5.45281 9.98449C5.46193 10.0192 5.46923 10.052 5.4747 10.0885C5.50025 10.2472 5.65166 10.3567 5.81038 10.3293C5.9545 10.3056 6.05667 10.1816 6.05667 10.0411C6.05667 10.0246 6.05667 10.01 6.05302 9.99361C6.04572 9.95347 6.04207 9.91515 6.04025 9.87684C6.04025 9.86041 6.04025 9.84399 6.04025 9.8294C6.04025 9.8221 6.04025 9.81297 6.04025 9.80568C6.04025 9.79655 6.04025 9.78925 6.04025 9.78013C6.05484 9.3933 6.28288 9.04662 6.62221 8.8751L7.21511 12.477H0.295439C0.133074 12.477 0.00172272 12.6083 0.00172272 12.7707C0.00172272 12.9331 0.133074 13.0645 0.295439 13.0645H7.32092L7.62376 14.9074C7.03633 14.5005 6.41971 14.1319 5.74288 13.9038C4.76687 13.5718 3.65585 13.5699 2.61598 13.8984C1.57429 14.2268 0.665778 14.8636 0.0564525 15.6938C-0.0384125 15.8234 -0.0110476 16.0077 0.11848 16.1025C0.248007 16.1974 0.432264 16.1701 0.527129 16.0405C1.06348 15.3106 1.86801 14.7468 2.79112 14.4567C3.71423 14.1666 4.69572 14.1666 5.55498 14.4585C6.46531 14.7669 7.29356 15.38 8.09626 15.9712C9.22552 16.805 10.3949 17.6681 11.8398 17.7393C11.9036 17.7429 11.9675 17.7447 12.0313 17.7447C12.834 17.7447 13.5911 17.5021 14.2442 17.2703C14.3975 17.2156 14.4759 17.0495 14.423 16.8963C14.3683 16.743 14.2023 16.6645 14.049 16.7175C13.3959 16.9492 12.637 17.1919 11.869 17.1535C10.5992 17.0915 9.55208 16.3179 8.44289 15.5004C8.3918 15.4621 8.34072 15.4256 8.28964 15.3873C8.28964 15.369 8.28964 15.349 8.28599 15.3307L7.91383 13.0645H19.7063C19.8686 13.0645 20 12.9331 20 12.7707C20 12.6083 19.8686 12.477 19.7063 12.477V12.4806ZM9.70897 7.74199C9.70897 7.74199 9.70532 7.74199 9.7035 7.74199C9.68525 7.74199 9.66701 7.74382 9.65059 7.74564C9.64512 7.74564 9.63964 7.74564 9.63417 7.74564C9.61958 7.74564 9.60498 7.74929 9.58856 7.75112C9.58309 7.75112 9.57762 7.75112 9.57214 7.75294C9.55208 7.75477 9.53201 7.75842 9.51194 7.76207C9.48093 7.76754 9.44991 7.77301 9.4189 7.78031C9.40978 7.78214 9.40248 7.78396 9.39336 7.78579C9.36964 7.79126 9.34593 7.79673 9.32221 7.80403C9.31491 7.80586 9.30762 7.80768 9.30032 7.81133C9.27113 7.82045 9.24377 7.82958 9.2164 7.8387C9.2164 7.8387 9.2164 7.8387 9.21458 7.8387C8.94275 7.93723 8.70376 8.1051 8.51768 8.32953C8.24403 6.98112 7.90836 5.7513 7.54532 4.79336C7.32822 4.22042 7.1093 3.7679 6.89586 3.44494C7.56721 3.59456 8.24039 4.03613 8.85518 4.74044C9.57214 5.56154 10.1432 6.6618 10.508 7.90804C10.2654 7.78944 9.99356 7.7274 9.71079 7.74017L9.70897 7.74199ZM5.88518 8.72366C5.72646 7.4537 5.65531 6.2695 5.6845 5.30609C5.72646 3.87738 5.97822 3.45224 6.06214 3.41575C6.157 3.42487 6.52917 3.74783 7.02721 5.08895C7.36288 5.99398 7.67667 7.14351 7.93207 8.40069C7.93025 8.40069 7.92843 8.39887 7.9266 8.39704C7.90653 8.3861 7.88647 8.37332 7.86457 8.3642C7.85728 8.36055 7.84816 8.3569 7.84086 8.35325C7.82626 8.34595 7.81167 8.33866 7.79525 8.33136C7.78613 8.32771 7.77701 8.32406 7.76788 8.31858C7.75329 8.31311 7.74052 8.30581 7.72593 8.30034C7.7168 8.29669 7.70586 8.29304 7.69674 8.28939C7.68214 8.28392 7.66937 8.27844 7.65478 8.27297C7.64566 8.26932 7.63471 8.26567 7.62559 8.26202C7.61099 8.25655 7.5964 8.2529 7.5818 8.24742C7.57268 8.24377 7.56356 8.24195 7.55261 8.2383C7.5362 8.23465 7.51978 8.22918 7.50336 8.22553C7.49606 8.2237 7.48694 8.22188 7.47964 8.22005C7.45592 8.21458 7.43038 8.20911 7.40667 8.20546H7.40302C7.3793 8.20181 7.35559 8.19816 7.33187 8.19451C7.32457 8.19451 7.31545 8.19268 7.30815 8.19086C7.29174 8.18903 7.27349 8.18721 7.25707 8.18538C7.24795 8.18538 7.23883 8.18538 7.22971 8.18356C7.21329 8.18356 7.19687 8.18174 7.18228 8.17991C7.17315 8.17991 7.16403 8.17991 7.15491 8.17991C7.15309 8.17991 7.15126 8.17991 7.14944 8.17991C7.13667 8.17991 7.1239 8.17991 7.1093 8.17991C7.10565 8.17991 7.102 8.17991 7.09836 8.17991C7.09106 8.17991 7.08376 8.17991 7.07646 8.17991C7.06917 8.17991 7.06005 8.17991 7.05275 8.17991C7.0418 8.17991 7.03086 8.17991 7.01991 8.17991C7.01444 8.17991 7.01079 8.17991 7.00532 8.17991C7.00167 8.17991 6.99802 8.17991 6.99619 8.17991C6.9889 8.17991 6.98342 8.17991 6.97613 8.17991C6.96153 8.17991 6.94876 8.18174 6.93417 8.18356C6.93052 8.18356 6.92687 8.18356 6.92322 8.18356C6.91957 8.18356 6.9141 8.18356 6.91045 8.18356C6.88856 8.18538 6.86849 8.18903 6.8466 8.19268C6.8466 8.19268 6.84478 8.19268 6.84295 8.19268C6.8393 8.19268 6.83383 8.19268 6.83018 8.19451C6.82836 8.19451 6.82471 8.19451 6.82288 8.19451C6.81741 8.19451 6.81194 8.19633 6.80464 8.19816C6.78822 8.20181 6.7718 8.20546 6.75538 8.20911C6.74809 8.20911 6.73896 8.21275 6.73167 8.21458C6.7043 8.22188 6.67694 8.22735 6.6514 8.23647C6.64957 8.23647 6.64592 8.23648 6.6441 8.2383C6.61309 8.24742 6.58207 8.25837 6.55288 8.26932C6.54923 8.26932 6.54741 8.27114 6.54376 8.27297C6.28836 8.36603 6.06579 8.5193 5.89065 8.71453L5.88518 8.72366ZM13.1296 7.45005C12.8432 7.31868 12.5148 7.26941 12.1809 7.32415C11.7559 7.39349 11.3837 7.62157 11.1283 7.96643C10.5737 5.91734 9.51194 4.28793 8.27322 3.44129C9.19816 3.61281 10.083 3.98869 10.8692 4.5525C11.9 5.29331 12.6753 6.29505 13.1278 7.45005H13.1296ZM1.76767 9.05757C1.6801 9.05757 1.58889 9.06487 1.4995 9.07946C1.14193 9.13785 0.829967 9.30937 0.592805 9.55022C0.643886 8.29669 1.05801 7.08512 1.80781 6.04142C2.37335 5.255 3.09031 4.61637 3.91126 4.15656C3.59017 4.5817 3.32382 5.09443 3.11403 5.68561C3.0593 5.83888 3.13957 6.00493 3.29281 6.05967C3.44605 6.11258 3.61207 6.03412 3.6668 5.88085C4.03349 4.8408 4.6045 4.0781 5.28862 3.6858C5.18646 4.05802 5.12443 4.55798 5.10072 5.18931C5.06241 6.21659 5.1372 7.49567 5.31234 8.86963C5.20288 8.80029 5.08612 8.74373 4.96572 8.70359C4.77051 8.63607 4.56254 8.6087 4.35457 8.61965C4.29254 8.6233 4.23234 8.62877 4.17031 8.63972C4.1393 8.6452 4.10828 8.65067 4.07909 8.65797C4.0718 8.65797 4.0645 8.66162 4.0572 8.66344C4.02801 8.67074 3.99882 8.67804 3.97146 8.68534C3.97146 8.68534 3.96963 8.68534 3.96781 8.68534C3.93862 8.69446 3.90943 8.70359 3.88024 8.71453C3.87295 8.71636 3.86747 8.72001 3.86018 8.72183C3.83463 8.73096 3.80909 8.7419 3.78355 8.75285C3.78173 8.75285 3.77808 8.75468 3.77626 8.7565C3.74889 8.76927 3.72153 8.78205 3.69599 8.79482C3.69051 8.79847 3.68322 8.80029 3.67774 8.80394C3.65403 8.81671 3.63213 8.82949 3.60842 8.84226C3.60477 8.84408 3.60112 8.84591 3.59747 8.84773C3.57193 8.86233 3.54822 8.87875 3.52267 8.89517C3.5172 8.89882 3.51173 8.90247 3.50626 8.90612C3.48619 8.92072 3.46612 8.93532 3.44605 8.94991C3.4424 8.95356 3.43693 8.95539 3.43328 8.95904C3.40957 8.97728 3.38767 8.99553 3.36578 9.01378C3.36031 9.01743 3.35484 9.0229 3.35119 9.02655C3.33294 9.04297 3.31653 9.05939 3.29828 9.07581C3.29281 9.07946 3.28916 9.08494 3.28369 9.08859C3.26544 9.10683 3.24903 9.12326 3.23078 9.1415C3.20159 8.48828 3.23443 7.85147 3.3293 7.24022C3.35484 7.07965 3.24355 6.93002 3.08484 6.9063C2.9243 6.88258 2.7747 6.99206 2.75098 7.15081C2.64335 7.84782 2.61051 8.57404 2.65429 9.31667C2.39524 9.15063 2.08875 9.05574 1.76767 9.05574V9.05757Z" fill="var(--fill-0, #0D3442)"/>
<path d="M16.7527 4.86999C17.6466 4.86999 18.3745 4.14196 18.3745 3.24788C18.3745 2.3538 17.6466 1.62576 16.7527 1.62576C15.8588 1.62576 15.1309 2.3538 15.1309 3.24788C15.1309 4.14196 15.8588 4.86999 16.7527 4.86999ZM16.7527 2.20965C17.3237 2.20965 17.7889 2.67494 17.7889 3.24605C17.7889 3.81717 17.3237 4.28246 16.7527 4.28246C16.1817 4.28246 15.7165 3.81717 15.7165 3.24605C15.7165 2.67494 16.1817 2.20965 16.7527 2.20965Z" fill="var(--fill-0, #0D3442)"/>
<path d="M16.7527 1.27908C16.9151 1.27908 17.0464 1.14771 17.0464 0.985312V0.293769C17.0464 0.131375 16.9151 0 16.7527 0C16.5903 0 16.459 0.131375 16.459 0.293769V0.987136C16.459 1.14953 16.5903 1.28091 16.7527 1.28091V1.27908Z" fill="var(--fill-0, #0D3442)"/>
<path d="M16.459 5.5068V6.20016C16.459 6.36256 16.5903 6.49393 16.7527 6.49393C16.9151 6.49393 17.0464 6.36256 17.0464 6.20016V5.5068C17.0464 5.3444 16.9151 5.21303 16.7527 5.21303C16.5903 5.21303 16.459 5.3444 16.459 5.5068Z" fill="var(--fill-0, #0D3442)"/>
<path d="M18.3508 1.94143C18.4256 1.94143 18.5004 1.91223 18.5588 1.85567L19.0495 1.36484C19.1645 1.24989 19.1645 1.0656 19.0495 0.950643C18.9346 0.83569 18.7503 0.83569 18.6354 0.950643L18.1447 1.44147C18.0297 1.55643 18.0297 1.74072 18.1447 1.85567C18.2012 1.91223 18.276 1.94143 18.3526 1.94143H18.3508Z" fill="var(--fill-0, #0D3442)"/>
<path d="M14.9466 4.63826L14.4559 5.12909C14.3409 5.24405 14.3409 5.42834 14.4559 5.54329C14.5124 5.59985 14.5872 5.62905 14.6638 5.62905C14.7405 5.62905 14.8134 5.59985 14.8718 5.54329L15.3626 5.05246C15.4775 4.93751 15.4775 4.75322 15.3626 4.63826C15.2476 4.52331 15.0634 4.52331 14.9484 4.63826H14.9466Z" fill="var(--fill-0, #0D3442)"/>
<path d="M18.7193 3.24788C18.7193 3.41027 18.8507 3.54165 19.013 3.54165H19.7063C19.8686 3.54165 20 3.41027 20 3.24788C20 3.08548 19.8686 2.95411 19.7063 2.95411H19.013C18.8507 2.95411 18.7193 3.08548 18.7193 3.24788Z" fill="var(--fill-0, #0D3442)"/>
<path d="M13.7991 3.53982H14.4924C14.6547 3.53982 14.7861 3.40845 14.7861 3.24605C14.7861 3.08366 14.6547 2.95229 14.4924 2.95229H13.7991C13.6367 2.95229 13.5054 3.08366 13.5054 3.24605C13.5054 3.40845 13.6367 3.53982 13.7991 3.53982Z" fill="var(--fill-0, #0D3442)"/>
<path d="M18.1428 4.63826C18.0279 4.75322 18.0279 4.93751 18.1428 5.05246L18.6336 5.54329C18.6901 5.59985 18.7649 5.62905 18.8416 5.62905C18.9182 5.62905 18.9911 5.59985 19.0495 5.54329C19.1645 5.42834 19.1645 5.24405 19.0495 5.12909L18.5588 4.63826C18.4438 4.52331 18.2596 4.52331 18.1447 4.63826H18.1428Z" fill="var(--fill-0, #0D3442)"/>
<path d="M14.9466 1.85567C15.0032 1.91223 15.078 1.94143 15.1546 1.94143C15.2312 1.94143 15.3042 1.91223 15.3626 1.85567C15.4775 1.74072 15.4775 1.55643 15.3626 1.44147L14.8718 0.950643C14.7569 0.83569 14.5726 0.83569 14.4577 0.950643C14.3428 1.0656 14.3428 1.24989 14.4577 1.36484L14.9484 1.85567H14.9466Z" fill="var(--fill-0, #0D3442)"/>
<path d="M1.34078 16.628C0.963143 16.628 0.963143 17.2138 1.34078 17.2138C1.71841 17.2138 1.71841 16.628 1.34078 16.628Z" fill="var(--fill-0, #0D3442)"/>
<path d="M5.38531 18.2629C5.00768 18.2629 5.00768 18.8486 5.38531 18.8486C5.76295 18.8486 5.76295 18.2629 5.38531 18.2629Z" fill="var(--fill-0, #0D3442)"/>
<path d="M6.40329 16.046C6.02565 16.046 6.02565 16.6317 6.40329 16.6317C6.78092 16.6317 6.78092 16.046 6.40329 16.046Z" fill="var(--fill-0, #0D3442)"/>
<path d="M14.1676 19.4143C13.79 19.4143 13.79 20 14.1676 20C14.5453 20 14.5453 19.4143 14.1676 19.4143Z" fill="var(--fill-0, #0D3442)"/>
<path d="M17.6411 17.7849C17.2635 17.7849 17.2635 18.3706 17.6411 18.3706C18.0188 18.3706 18.0188 17.7849 17.6411 17.7849Z" fill="var(--fill-0, #0D3442)"/>
<path d="M11.3618 15.088C11.1994 15.088 11.0681 15.2194 11.0681 15.3818C11.0681 15.5442 11.1994 15.6756 11.3618 15.6756H13.6167C13.779 15.6756 13.9104 15.5442 13.9104 15.3818C13.9104 15.2194 13.779 15.088 13.6167 15.088H11.3618Z" fill="var(--fill-0, #0D3442)"/>
<path d="M18.3745 14.183C18.3745 14.0206 18.2432 13.8892 18.0808 13.8892H13.042C12.8796 13.8892 12.7483 14.0206 12.7483 14.183C12.7483 14.3454 12.8796 14.4768 13.042 14.4768H18.0808C18.2432 14.4768 18.3745 14.3454 18.3745 14.183Z" fill="var(--fill-0, #0D3442)"/>
<path d="M19.8887 16.9309C19.2593 16.4036 18.5478 16.0825 17.7725 15.9803C17.1832 15.9018 16.5648 15.9456 15.8825 16.1117C15.7256 16.15 15.6289 16.3087 15.6672 16.4657C15.7055 16.6226 15.8642 16.7193 16.0211 16.681C17.4058 16.3416 18.5478 16.5697 19.5129 17.3798C19.5676 17.4254 19.6351 17.4491 19.7008 17.4491C19.7847 17.4491 19.8668 17.4126 19.9252 17.3451C20.0292 17.2211 20.0128 17.0368 19.8887 16.9328V16.9309Z" fill="var(--fill-0, #0D3442)"/>
</g>
</svg>
