<svg preserveAspectRatio="none" width="100%" height="100%" overflow="visible" style="display: block;" viewBox="0 0 24 14" fill="none" xmlns="http://www.w3.org/2000/svg">
<g id="Vector">
<path d="M8.77219 5.76283C8.89172 5.91144 9.11297 5.93787 9.26578 5.82163C9.41859 5.70539 9.44578 5.49023 9.32625 5.34163C9.12141 5.08635 8.81297 4.94048 8.48016 4.94048C7.88813 4.94048 7.40672 5.40863 7.40672 5.98437C7.40672 6.17309 7.56422 6.32626 7.75828 6.32626C7.95234 6.32626 8.10984 6.17309 8.10984 5.98437C8.10984 5.78562 8.27578 5.62425 8.48016 5.62425C8.595 5.62425 8.70141 5.67485 8.77219 5.76283Z" fill="var(--fill-0, #0D3442)"/>
<path d="M11.0395 5.28191C11.1923 5.39815 11.4136 5.37171 11.5331 5.2231C11.6039 5.13513 11.7103 5.08453 11.8252 5.08453C12.0295 5.08453 12.1955 5.2459 12.1955 5.44465C12.1955 5.6434 12.353 5.78653 12.547 5.78653C12.7411 5.78653 12.8986 5.63337 12.8986 5.44465C12.8986 4.86891 12.4172 4.40076 11.8252 4.40076C11.4923 4.40076 11.1844 4.54708 10.9791 4.8019C10.8595 4.95051 10.8867 5.16567 11.0395 5.28191Z" fill="var(--fill-0, #0D3442)"/>
<path d="M14.7675 6.63715C14.8036 6.64854 14.8402 6.65401 14.8763 6.65401C15.0244 6.65401 15.1622 6.56193 15.2105 6.41788C15.2461 6.31167 15.3281 6.22871 15.4359 6.19041C15.5288 6.15759 15.6295 6.1617 15.7191 6.20227C15.8086 6.24284 15.8766 6.31532 15.9108 6.40557C15.9773 6.5829 16.1789 6.67452 16.3613 6.60979C16.5436 6.54506 16.6378 6.34905 16.5713 6.17172C16.4733 5.90961 16.2759 5.70038 16.0163 5.58277C15.7566 5.46516 15.465 5.4524 15.1955 5.54812C14.8828 5.6589 14.6447 5.89867 14.5416 6.20682C14.4816 6.38643 14.5828 6.57925 14.7675 6.6376V6.63715Z" fill="var(--fill-0, #0D3442)"/>
<path d="M9.87516 7.71523C9.91125 7.72662 9.94781 7.73209 9.98391 7.73209C10.132 7.73209 10.2698 7.64047 10.3181 7.49596C10.3538 7.38975 10.4358 7.30679 10.5436 7.26849C10.6364 7.23567 10.7372 7.23978 10.8267 7.28035C10.9163 7.32092 10.9842 7.39294 11.018 7.48365C11.0845 7.66098 11.2861 7.7526 11.4684 7.68787C11.6508 7.62314 11.745 7.42713 11.6784 7.2498C11.5805 6.98769 11.3831 6.77846 11.1234 6.66085C10.8638 6.54324 10.5722 6.53048 10.3027 6.6262C9.99 6.73698 9.75188 6.97675 9.64875 7.2849C9.58875 7.46451 9.69 7.65733 9.87422 7.71568L9.87516 7.71523Z" fill="var(--fill-0, #0D3442)"/>
<path d="M22.9448 8.30418H21.7959C22.3359 8.08218 22.6767 7.69061 22.6767 7.24069C22.6767 6.91157 22.4958 6.60979 22.1756 6.38324C22.4236 6.08192 22.5816 5.73138 22.627 5.37536C22.6866 4.90994 22.5502 4.48919 22.2436 4.19107C21.9497 3.90525 21.5419 3.78263 21.1148 3.81271C21.0314 3.66821 20.9072 3.54285 20.7478 3.44439C21.0862 2.83902 21.0825 2.22271 20.7084 1.85895C20.4689 1.62601 20.1216 1.53757 19.7306 1.59729C19.6261 0.69608 18.9727 0 18.1847 0C17.3967 0 16.7447 0.694712 16.6392 1.59456C16.2478 1.53438 15.9005 1.62327 15.6609 1.85621C15.3773 2.132 15.307 2.55275 15.4364 3.00404C15.2278 2.88825 14.9873 2.82124 14.7314 2.82124C14.4755 2.82124 14.2298 2.8878 14.0133 3.00996C13.7461 2.70956 13.3542 2.5295 12.9305 2.5295C12.5859 2.5295 12.2564 2.65258 12 2.86546C11.7436 2.65258 11.4141 2.5295 11.0695 2.5295C10.6458 2.5295 10.2539 2.70956 9.98672 3.00996C9.77063 2.8878 9.52313 2.82124 9.26859 2.82124C8.67 2.82124 8.1525 3.18501 7.94016 3.69693C7.80797 3.65818 7.66969 3.63812 7.52813 3.63812C7.27547 3.63812 7.03828 3.7024 6.83203 3.81408C6.50766 3.62034 6.12656 3.50821 5.71875 3.50821C4.54266 3.50821 3.58594 4.43859 3.58594 5.58231C3.58594 5.63291 3.58828 5.6826 3.59203 5.73183C2.60297 5.91144 1.85156 6.75703 1.85156 7.77038C1.85156 7.955 1.87734 8.13369 1.92422 8.30372H1.05469C0.472969 8.30372 0 8.76368 0 9.32938V9.46568C0 10.0314 0.472969 10.4913 1.05469 10.4913H2.78016C3.76922 11.935 5.29688 13.1202 7.17797 13.8847C7.36641 13.9613 7.56516 14 7.76813 14H13.5938C13.7878 14 13.9453 13.8468 13.9453 13.6581C13.9453 13.4694 13.7878 13.3162 13.5938 13.3162H7.76813C7.65844 13.3162 7.55109 13.2953 7.44891 13.2538C5.865 12.6106 4.55391 11.6524 3.64313 10.4913H20.3569C19.4461 11.6524 18.135 12.6101 16.5511 13.2538C16.4489 13.2953 16.3416 13.3162 16.2319 13.3162H15.2812C15.0872 13.3162 14.9297 13.4694 14.9297 13.6581C14.9297 13.8468 15.0872 14 15.2812 14H16.2319C16.4348 14 16.6336 13.9613 16.822 13.8847C18.7036 13.1207 20.2313 11.935 21.2198 10.4913H22.9453C23.527 10.4913 24 10.0314 24 9.46568V9.32938C24 8.76368 23.527 8.30372 22.9453 8.30372L22.9448 8.30418ZM21.7462 4.67426C21.8962 4.82014 21.9609 5.03894 21.9291 5.29103C21.893 5.57456 21.7416 5.8581 21.5034 6.08967C21.4641 6.12796 21.4205 6.1658 21.3745 6.20227C21.2766 6.2793 21.2287 6.40102 21.2484 6.52182C21.2681 6.64262 21.353 6.74381 21.4706 6.78757C21.7762 6.90062 21.9736 7.07841 21.9736 7.24069C21.9736 7.45402 21.6136 7.72753 21.0314 7.79728C20.9147 7.81141 20.8125 7.88115 20.76 7.98372C20.708 8.08537 20.7112 8.20526 20.7684 8.30418H20.1131C20.1211 8.24538 20.1253 8.18566 20.1253 8.12503C20.1253 7.74166 19.965 7.39431 19.7062 7.14222L20.8505 6.0295C20.9878 5.89594 20.9878 5.67941 20.8505 5.54585C20.7131 5.41228 20.4905 5.41228 20.3531 5.54585L19.2042 6.66313C19.2173 6.58746 19.2244 6.51042 19.2244 6.43247C19.2244 5.93696 18.9567 5.50117 18.5545 5.2541C18.6469 4.75541 18.9042 4.45135 19.1086 4.45135C19.2755 4.45135 19.4583 4.64327 19.5745 4.94048C19.6191 5.0549 19.7231 5.13695 19.8473 5.15655C19.9716 5.1757 20.0967 5.1292 20.1759 5.03438C20.213 4.99017 20.2514 4.94823 20.2903 4.91085C20.7506 4.46321 21.4172 4.35517 21.7458 4.67472L21.7462 4.67426ZM16.1573 2.33941C16.2122 2.28608 16.2994 2.25964 16.4067 2.25964C16.5309 2.25964 16.6823 2.29474 16.8422 2.36448C16.957 2.41463 17.0906 2.40141 17.1923 2.32938C17.2941 2.25781 17.3489 2.13884 17.3358 2.01713C17.3297 1.9606 17.3264 1.90453 17.3264 1.8512C17.3264 1.21848 17.7192 0.683316 18.1837 0.683316C18.6483 0.683316 19.0411 1.21803 19.0411 1.8512C19.0411 1.90544 19.0378 1.96243 19.0317 2.01941C19.0186 2.14112 19.073 2.26055 19.1752 2.33212C19.2769 2.40414 19.4105 2.41736 19.5253 2.36722C19.8234 2.23685 20.0925 2.22682 20.2102 2.34169C20.3653 2.49258 20.3095 2.93338 19.9486 3.38285C19.8759 3.4731 19.8548 3.59254 19.8923 3.70148C19.9298 3.80998 20.0203 3.8934 20.1342 3.92348C20.2261 3.94764 20.3053 3.98046 20.3681 4.01921C20.2378 4.08349 20.1108 4.16189 19.9903 4.25488C19.7573 3.94308 19.447 3.76713 19.1086 3.76713C18.9019 3.76713 18.7078 3.83368 18.5353 3.95357V2.25736C18.5353 2.06864 18.3778 1.91547 18.1837 1.91547C17.9897 1.91547 17.8322 2.06864 17.8322 2.25736V4.59768C17.6466 4.04702 17.1169 3.64724 16.4911 3.63858C16.5037 3.54786 16.4794 3.45533 16.4203 3.38239C16.058 2.93247 16.0017 2.4903 16.1569 2.33941H16.1573ZM5.71828 4.19243C5.92547 4.19243 6.12234 4.23574 6.30047 4.31323C6.17016 4.52292 6.09516 4.76862 6.09516 5.03074C6.09516 5.03484 6.09516 5.03894 6.09516 5.04304C5.55 5.08407 5.09016 5.42277 4.88672 5.89229C4.7025 5.80796 4.50375 5.7487 4.29562 5.71907C4.29094 5.67439 4.28859 5.62881 4.28859 5.58277C4.28859 4.81603 4.92984 4.19243 5.71828 4.19243ZM2.55422 7.77084C2.55422 7.0041 3.19547 6.3805 3.98391 6.3805C4.28203 6.3805 4.55859 6.46985 4.78781 6.6221C4.79672 6.68683 4.81031 6.7502 4.82859 6.81219C4.27312 7.0041 3.87422 7.52012 3.87422 8.12503C3.87422 8.18566 3.87844 8.24538 3.88641 8.30418H2.66391C2.59313 8.13962 2.55422 7.95956 2.55422 7.77084ZM23.2964 9.46614C23.2964 9.65486 23.1389 9.80802 22.9448 9.80802H1.05422C0.860156 9.80802 0.702656 9.65486 0.702656 9.46614V9.32984C0.702656 9.14112 0.860156 8.98795 1.05422 8.98795H6.93703C7.13109 8.98795 7.28859 8.83479 7.28859 8.64607C7.28859 8.45735 7.13109 8.30418 6.93703 8.30418H4.60172C4.58625 8.24674 4.57734 8.18703 4.57734 8.12503C4.57734 7.73392 4.90453 7.41619 5.30344 7.41619H5.31281C5.32172 7.41756 5.33063 7.41801 5.33906 7.41847C5.47641 7.42485 5.60391 7.35237 5.66672 7.23385C5.72953 7.11533 5.71594 6.97219 5.63156 6.86689C5.53078 6.74108 5.47734 6.59065 5.47734 6.43247C5.47734 6.04135 5.80453 5.72363 6.20625 5.72363C6.27984 5.72363 6.35297 5.73411 6.42281 5.75554C6.55266 5.79474 6.69422 5.75736 6.78609 5.65981C6.87797 5.56226 6.90375 5.42185 6.85219 5.29923C6.81609 5.21353 6.79781 5.12327 6.79781 5.03119C6.79781 4.64008 7.125 4.32235 7.52672 4.32235C7.68891 4.32235 7.84313 4.37386 7.97203 4.47141C8.0775 4.55073 8.22 4.56577 8.34047 4.50925C8.46094 4.45272 8.53781 4.33511 8.53922 4.2052C8.54391 3.81909 8.87063 3.50501 9.26766 3.50501C9.47391 3.50501 9.67172 3.59163 9.81047 3.74251C9.89063 3.83003 10.012 3.87106 10.1306 3.85191C10.2497 3.83277 10.35 3.75527 10.3969 3.64724C10.5113 3.38376 10.7752 3.21327 11.0691 3.21327C11.3292 3.21327 11.5636 3.3441 11.6967 3.56336C11.76 3.66775 11.8753 3.73157 11.9995 3.73157C12.1238 3.73157 12.2391 3.66775 12.3023 3.56336C12.4355 3.3441 12.6698 3.21327 12.93 3.21327C13.2239 3.21327 13.4878 3.38376 13.6022 3.64724C13.6491 3.75527 13.7494 3.83231 13.8684 3.85191C13.987 3.87106 14.108 3.83003 14.1886 3.74251C14.3273 3.59163 14.5252 3.50501 14.7314 3.50501C15.1284 3.50501 15.4552 3.81909 15.4598 4.2052C15.4612 4.33511 15.5386 4.45272 15.6586 4.50925C15.7786 4.56577 15.9216 4.55118 16.027 4.47141C16.1564 4.37386 16.3106 4.32235 16.4723 4.32235C16.8745 4.32235 17.2012 4.64053 17.2012 5.03119C17.2012 5.12327 17.183 5.21353 17.1469 5.29923C17.0953 5.42185 17.1211 5.56226 17.213 5.65981C17.3048 5.75736 17.4464 5.79474 17.5762 5.75554C17.6461 5.73457 17.7187 5.72363 17.7928 5.72363C18.195 5.72363 18.5217 6.04181 18.5217 6.43247C18.5217 6.59065 18.4683 6.74108 18.3675 6.86689C18.2831 6.97219 18.2695 7.11533 18.3323 7.23385C18.3952 7.35237 18.5231 7.42485 18.66 7.41847C18.6689 7.41847 18.6778 7.41756 18.6862 7.4171H18.6928C19.095 7.41665 19.4217 7.73437 19.4217 8.12549C19.4217 8.18748 19.4128 8.2472 19.3973 8.30464H8.57766C8.38359 8.30464 8.22609 8.4578 8.22609 8.64652C8.22609 8.83524 8.38359 8.98841 8.57766 8.98841H22.9448C23.1389 8.98841 23.2964 9.14157 23.2964 9.33029V9.46659V9.46614Z" fill="var(--fill-0, #0D3442)"/>
</g>
</svg>
