<svg preserveAspectRatio="none" width="100%" height="100%" overflow="visible" style="display: block;" viewBox="0 0 27 40" fill="none" xmlns="http://www.w3.org/2000/svg">
<g id="Vector">
<path d="M15.8382 35.0383C15.5084 35.0383 15.2446 35.3012 15.2446 35.6229C15.2446 35.9446 15.5116 36.2076 15.8382 36.2076H19.1076C19.4374 36.2076 19.7012 35.9446 19.7012 35.6229C19.7012 35.3012 19.4342 35.0383 19.1076 35.0383H15.8382Z" fill="var(--fill-0, #CEA36F)"/>
<path d="M10.3484 35.8611C10.6762 35.8611 10.942 35.5994 10.942 35.2765C10.942 34.9536 10.6762 34.6918 10.3484 34.6918C10.0206 34.6918 9.7548 34.9536 9.7548 35.2765C9.7548 35.5994 10.0206 35.8611 10.3484 35.8611Z" fill="var(--fill-0, #CEA36F)"/>
<path d="M10.3484 37.9336C10.6762 37.9336 10.942 37.6719 10.942 37.349C10.942 37.0261 10.6762 36.7644 10.3484 36.7644C10.0206 36.7644 9.7548 37.0261 9.7548 37.349C9.7548 37.6719 10.0206 37.9336 10.3484 37.9336Z" fill="var(--fill-0, #CEA36F)"/>
<path d="M26.4064 33.8999C26.7362 33.8999 27 33.637 27 33.3153V31.2861C26.9969 28.7866 24.9272 26.7543 22.3833 26.7543H17.2735V25.5881C18.8878 24.5395 20.0278 22.835 20.3042 20.8646C21.752 20.8213 22.914 19.6489 22.914 18.2136C22.914 17.2361 22.3739 16.3823 21.5761 15.9214C21.5793 15.8874 21.5824 15.8503 21.5824 15.8132V10.0348C22.3236 9.77805 22.9769 9.31405 23.4574 8.69229C24.0509 7.92823 24.3399 6.97549 24.2771 6.01036C24.2143 5.08236 23.8185 4.19766 23.159 3.52332C22.4995 2.84587 21.617 2.41899 20.6779 2.3231C19.7923 2.23339 18.9129 2.42827 18.1685 2.87062C17.8074 2.14987 17.2735 1.50955 16.6171 1.02699C15.7094 0.355734 14.6291 0 13.4921 0C12.3552 0 11.2749 0.355734 10.3672 1.02699C9.71083 1.51264 9.17692 2.14987 8.81575 2.87062C8.07142 2.42827 7.19204 2.23339 6.30639 2.3231C5.36734 2.41899 4.48796 2.84587 3.82529 3.52332C3.16576 4.20076 2.7669 5.08236 2.70722 6.01036C2.64127 6.97549 2.93335 7.92823 3.52693 8.69229C4.00744 9.31405 4.66384 9.77805 5.40188 10.0348V11.034C5.40188 11.3588 5.66884 11.6186 5.99546 11.6186C6.32209 11.6186 6.58904 11.3557 6.58904 11.034V9.59245C6.58904 9.31714 6.39432 9.07896 6.12109 9.02018C4.73607 8.72013 3.79702 7.48898 3.89124 6.0877C3.98232 4.74519 5.07212 3.62849 6.42573 3.48929C7.26428 3.40268 8.05886 3.66561 8.67128 4.2255C8.82203 4.36161 9.03245 4.4142 9.23031 4.36161C9.42817 4.30902 9.5852 4.16054 9.64488 3.96876C10.1662 2.29526 11.7083 1.17238 13.4859 1.17238C15.2635 1.17238 16.8055 2.29526 17.3269 3.96876C17.3865 4.16054 17.5436 4.31212 17.7414 4.36161C17.9393 4.4142 18.1497 4.36161 18.3005 4.2255C18.9129 3.66561 19.7106 3.40268 20.546 3.48929C21.9028 3.62849 22.9926 4.74519 23.0805 6.0877C23.1747 7.48589 22.2357 8.72013 20.8506 9.02018C20.5774 9.07896 20.3827 9.31714 20.3827 9.59245V15.5564H6.60475V13.586C6.60475 13.2612 6.33779 13.0013 6.01117 13.0013C5.68454 13.0013 5.41759 13.2642 5.41759 13.586V15.8101C5.41759 15.8472 5.41759 15.8812 5.42387 15.9183C4.62301 16.3792 4.08596 17.233 4.08596 18.2105C4.08596 19.6458 5.25113 20.8182 6.69896 20.8615C6.97534 22.8443 8.12795 24.5549 9.75794 25.6036V26.7512H8.52367C8.1939 26.7512 7.93009 27.0142 7.93009 27.3359C7.93009 27.6576 8.19705 27.9205 8.52367 27.9205H9.7862C9.99035 29.5569 11.2811 30.8685 12.9237 31.1252V32.2543C12.9237 32.2976 12.8891 32.3316 12.8452 32.3316H8.57078C7.87042 32.3316 7.30197 32.8915 7.30197 33.5813V38.8245H5.95778V34.9548C5.95778 34.63 5.69082 34.3701 5.3642 34.3701C5.03757 34.3701 4.77062 34.6331 4.77062 34.9548V38.8245H1.26881C1.22485 38.8245 1.1903 38.7905 1.1903 38.7472V31.283C1.1903 29.4301 2.72921 27.9236 4.61673 27.9236H5.92637C6.25614 27.9236 6.51995 27.6607 6.51995 27.339C6.51995 27.0172 6.253 26.7543 5.92637 26.7543H4.61673C2.07282 26.7543 0.00314063 28.7866 0 31.2861V38.7503C0 39.4401 0.568454 40 1.26881 40H25.7312C26.4315 40 27 39.4401 27 38.7503V35.8673C27 35.5425 26.733 35.2827 26.4064 35.2827C26.0798 35.2827 25.8128 35.5456 25.8128 35.8673V38.7503C25.8128 38.7936 25.7783 38.8276 25.7343 38.8276H22.2325V34.9579C22.2325 34.6331 21.9656 34.3732 21.6389 34.3732C21.3123 34.3732 21.0454 34.6361 21.0454 34.9579V38.8276H8.49226V33.5844C8.49226 33.5411 8.52681 33.5071 8.57078 33.5071H12.8452C13.5455 33.5071 14.114 32.9472 14.114 32.2574V31.1283C15.7565 30.8715 17.0473 29.56 17.2515 27.9236H22.3896C23.3003 27.9236 24.1609 28.2731 24.8078 28.9073C25.4579 29.5414 25.816 30.3859 25.816 31.283V33.3122C25.816 33.637 26.0829 33.8968 26.4096 33.8968L26.4064 33.8999ZM20.3733 19.6891V16.9144C20.3733 16.8587 20.3733 16.7999 20.3733 16.7443C21.1364 16.8154 21.7332 17.4495 21.7332 18.2167C21.7332 18.9838 21.1364 19.618 20.3764 19.6891H20.3733ZM5.26998 18.2167C5.26998 17.4495 5.8667 16.8154 6.62987 16.7443C6.62987 16.7999 6.62987 16.8587 6.62987 16.9144V19.6891C5.86984 19.6149 5.27312 18.9838 5.27312 18.2167H5.26998ZM7.81703 19.9366V16.9144C7.81703 16.8556 7.81703 16.7968 7.81703 16.735H19.1798C19.1798 16.7938 19.1798 16.8525 19.1798 16.9144V19.9366C19.1798 23.0237 16.6296 25.5355 13.4953 25.5355C10.3609 25.5355 7.81075 23.0237 7.81075 19.9366H7.81703ZM13.5141 30.0085C12.0946 30.0085 10.942 28.8733 10.942 27.4751V26.2192C11.7334 26.5316 12.5971 26.7048 13.4984 26.7048C14.3998 26.7048 15.2854 26.5285 16.0863 26.2068V27.472C16.0863 28.8702 14.9337 30.0054 13.5141 30.0054V30.0085Z" fill="var(--fill-0, #CEA36F)"/>
<path d="M10.8069 12.7538V10.0936C10.8069 9.76877 10.54 9.50893 10.2133 9.50893C9.8867 9.50893 9.61975 9.77187 9.61975 10.0936V12.7538C9.61975 13.0786 9.8867 13.3385 10.2133 13.3385C10.54 13.3385 10.8069 13.0756 10.8069 12.7538Z" fill="var(--fill-0, #CEA36F)"/>
<path d="M14.0951 12.7538V10.0936C14.0951 9.76877 13.8282 9.50893 13.5016 9.50893C13.1749 9.50893 12.908 9.77187 12.908 10.0936V12.7538C12.908 13.0786 13.1749 13.3385 13.5016 13.3385C13.8282 13.3385 14.0951 13.0756 14.0951 12.7538Z" fill="var(--fill-0, #CEA36F)"/>
<path d="M17.3834 12.7538V10.0936C17.3834 9.76877 17.1164 9.50893 16.7898 9.50893C16.4632 9.50893 16.1962 9.77187 16.1962 10.0936V12.7538C16.1962 13.0786 16.4632 13.3385 16.7898 13.3385C17.1164 13.3385 17.3834 13.0756 17.3834 12.7538Z" fill="var(--fill-0, #CEA36F)"/>
</g>
</svg>
