<svg preserveAspectRatio="none" width="100%" height="100%" overflow="visible" style="display: block;" viewBox="0 0 98 28" fill="none" xmlns="http://www.w3.org/2000/svg">
<g id="Vector">
<path d="M14.0393 0H83.9607C91.7126 0 98 6.2698 98 14C98 21.7302 91.7126 28 83.9607 28H14.0393C6.28742 28 0 21.7302 0 14C0 6.2698 6.28742 0 14.0393 0Z" fill="#F5F7F9"/>
<path d="M13.3071 23.4267C8.09326 23.4267 3.85393 19.1992 3.85393 14C3.85393 8.80078 8.09326 4.57333 13.3071 4.57333C14.8266 4.57333 16.3352 4.94118 17.6675 5.63294C17.9373 5.77569 18.0419 6.1051 17.8988 6.37412C17.7611 6.64314 17.4253 6.74745 17.1555 6.60471C15.9608 5.98431 14.6615 5.66588 13.3016 5.66588C8.69888 5.66588 4.94955 9.39922 4.94955 13.9945C4.94955 18.5898 8.69337 22.3231 13.3016 22.3231C17.9098 22.3231 21.6536 18.5898 21.6536 13.9945C21.6536 13.5608 21.6206 13.1325 21.5545 12.7153C21.5049 12.4133 21.7142 12.1333 22.0115 12.0894C22.3143 12.04 22.5951 12.2486 22.6391 12.5451C22.7162 13.0173 22.7492 13.5059 22.7492 13.9945C22.7492 19.1937 18.5099 23.4212 13.2961 23.4212L13.3071 23.4267Z" fill="#CCCCCC"/>
<path d="M24.2247 7.90039L23.4429 6.36863C16.6765 8.27922 13.2465 12.4847 13.2465 12.4847L10.1083 10.1898L8.53921 11.7216L13.2465 17.8376C16.8747 11.2439 24.2247 7.8949 24.2247 7.8949V7.90039Z" fill="#FF5754"/>
<path d="M54.3349 7.62039V6.40706L53.1953 4.69412H53.7844L54.5937 5.95137L55.392 4.69412H55.9811L54.847 6.40706V7.62039H54.3349Z" fill="#8A8D96"/>
<path d="M50.47 7.62039V4.69412H51.9125C52.4465 4.69412 52.7493 5.02902 52.7493 5.44078C52.7493 5.80863 52.5126 6.05569 52.2373 6.11059C52.5511 6.16 52.8044 6.47294 52.8044 6.8298C52.8044 7.28 52.5016 7.62039 51.951 7.62039H50.47ZM50.982 5.90745H51.8024C52.0666 5.90745 52.2153 5.74824 52.2153 5.52863C52.2153 5.30902 52.0666 5.14431 51.8024 5.14431H50.982V5.90745ZM50.982 7.1702H51.8244C52.1052 7.1702 52.2758 7.01647 52.2758 6.76392C52.2758 6.54431 52.1217 6.35765 51.8244 6.35765H50.982V7.1702Z" fill="#8A8D96"/>
<path d="M45.5865 7.62039V4.69412H46.6766C47.5906 4.69412 48.2127 5.29804 48.2127 6.16C48.2127 7.02196 47.5906 7.62039 46.6766 7.62039H45.5865ZM46.0985 7.1702H46.6766C47.3153 7.1702 47.6842 6.71451 47.6842 6.16C47.6842 5.60549 47.3318 5.14431 46.6766 5.14431H46.0985V7.1702Z" fill="#8A8D96"/>
<path d="M42.7346 7.62039V4.69412H44.7442V5.14431H43.2466V5.90196H44.7111V6.35216H43.2466V7.16471H44.7442V7.6149H42.7346V7.62039Z" fill="#8A8D96"/>
<path d="M41.2811 7.62039V4.69412H41.7986V7.62039H41.2811Z" fill="#8A8D96"/>
<path d="M38.4953 7.62039V4.69412H40.5048V5.14431H39.0073V5.90196H40.4718V6.35216H39.0073V7.6149H38.4898L38.4953 7.62039Z" fill="#8A8D96"/>
<path d="M37.0418 7.62039V4.69412H37.5593V7.62039H37.0418Z" fill="#8A8D96"/>
<path d="M35.6434 7.62039L34.9937 6.52784H34.4817V7.62039H33.9642V4.69412H35.2525C35.8306 4.69412 36.2104 5.07294 36.2104 5.61098C36.2104 6.14902 35.8691 6.41255 35.5167 6.47294L36.2325 7.62039H35.6379H35.6434ZM35.6874 5.61098C35.6874 5.33098 35.4782 5.14431 35.1864 5.14431H34.4817V6.07216H35.1864C35.4782 6.07216 35.6874 5.88549 35.6874 5.60549V5.61098Z" fill="#8A8D96"/>
<path d="M31.1122 7.62039V4.69412H33.1218V5.14431H31.6243V5.90196H33.0888V6.35216H31.6243V7.16471H33.1218V7.6149H31.1122V7.62039Z" fill="#8A8D96"/>
<path d="M28.6788 7.62039L27.5281 4.69412H28.1117L28.9981 7.06588L29.8845 4.69412H30.4681L29.3174 7.62039H28.6733H28.6788Z" fill="#8A8D96"/>
<path fill-rule="evenodd" clip-rule="evenodd" d="M48.1852 13.149C48.1852 12.4408 47.6291 11.8698 46.9464 11.8698H45.9829V9.68471H44.6065V20.9451H45.9829V19.2925C45.9829 19.2925 45.9829 19.298 45.9829 19.3035V13.6651C45.9829 13.1984 46.1481 13.16 46.4069 13.16C46.6656 13.16 46.8308 13.1984 46.8308 13.6651V20.9396H48.1797V13.1435L48.1852 13.149Z" fill="white"/>
<path fill-rule="evenodd" clip-rule="evenodd" d="M57.2089 19.309C57.2089 19.7757 57.0492 19.8141 56.807 19.8141C56.5647 19.8141 56.4051 19.7757 56.4051 19.309V13.8518C56.4051 13.3851 56.5592 13.3467 56.807 13.3467C57.0547 13.3467 57.2089 13.3851 57.2089 13.8518V19.309ZM56.807 11.8643C55.816 11.8643 55.0121 12.6933 55.0121 13.7145V19.2761C55.0121 20.2973 55.816 21.1263 56.807 21.1263C57.798 21.1263 58.5963 20.2973 58.5963 19.2761V13.7145C58.5963 12.6933 57.7925 11.8643 56.807 11.8643Z" fill="white"/>
<path fill-rule="evenodd" clip-rule="evenodd" d="M88.5028 11.8643H87.2751V19.2761C87.2751 19.3584 87.2751 19.4243 87.2585 19.4847V19.5396H87.2475C87.1925 19.7592 87.0493 19.7812 86.8456 19.7812C86.6419 19.7812 86.5043 19.7592 86.4492 19.5396H86.4327V19.4463C86.4272 19.3969 86.4217 19.342 86.4217 19.2816V11.8698H85.0508V19.6878C85.0508 20.3961 85.6068 20.9726 86.2895 20.9726H87.253V23.1302H88.6349V11.8698H88.4973L88.5028 11.8643Z" fill="white"/>
<path fill-rule="evenodd" clip-rule="evenodd" d="M78.7909 19.1992C78.7909 19.5341 78.7083 19.6494 78.5762 19.6824C78.5101 19.7153 78.4275 19.7208 78.3339 19.7208C78.0917 19.7208 77.932 19.6824 77.932 19.2157V13.7584C77.932 13.4235 78.0146 13.3082 78.1467 13.2753C78.2128 13.2424 78.2954 13.2369 78.389 13.2369C78.6312 13.2369 78.7909 13.2753 78.7909 13.742V19.1992ZM78.7303 9.68471V11.8698H77.7669C77.0842 11.8698 76.5281 12.4463 76.5281 13.149V19.6659C76.5281 20.3741 77.0842 20.9451 77.7669 20.9451H80.1122V9.68471H78.7303Z" fill="white"/>
<path fill-rule="evenodd" clip-rule="evenodd" d="M74.4745 19.309C74.4745 19.7757 74.3093 19.8141 74.0506 19.8141C73.7918 19.8141 73.6266 19.7757 73.6266 19.309V13.8518C73.6266 13.3851 73.7918 13.3467 74.0506 13.3467C74.3093 13.3467 74.4745 13.3851 74.4745 13.8518V19.309ZM74.0451 11.8643C73.0596 11.8643 72.2502 12.6933 72.2502 13.7145V19.2761C72.2502 20.2973 73.054 21.1263 74.0451 21.1263C75.0361 21.1263 75.8399 20.2973 75.8399 19.2761V13.7145C75.8399 12.6933 75.0361 11.8643 74.0451 11.8643Z" fill="white"/>
<path fill-rule="evenodd" clip-rule="evenodd" d="M54.1312 9.88784C53.8945 9.65726 53.5972 9.52549 53.2779 9.50902H53.1347V20.9396H54.5001V10.7937C54.5001 10.4424 54.368 10.1129 54.1312 9.88235V9.88784Z" fill="white"/>
<path fill-rule="evenodd" clip-rule="evenodd" d="M69.1781 9.68471V11.1067H70.2792V20.9451H71.6611V11.1067H72.7622V9.68471H69.1781Z" fill="white"/>
<path fill-rule="evenodd" clip-rule="evenodd" d="M51.0646 19.309C51.0646 19.7757 50.9104 19.8141 50.6627 19.8141C50.4149 19.8141 50.2608 19.7757 50.2608 19.309V13.8518C50.2608 13.3851 50.4149 13.3467 50.6627 13.3467C50.9104 13.3467 51.0646 13.3851 51.0646 13.8518V19.309ZM50.6572 11.8643C49.6717 11.8643 48.8624 12.6933 48.8624 13.7145V19.2761C48.8624 20.2973 49.6662 21.1263 50.6572 21.1263C51.6482 21.1263 52.452 20.2973 52.452 19.2761V13.7145C52.452 12.6933 51.6482 11.8643 50.6572 11.8643Z" fill="white"/>
<path fill-rule="evenodd" clip-rule="evenodd" d="M35.3626 14.4557V13.6486C35.3626 12.6275 34.5367 11.7929 33.5237 11.7929C32.5107 11.7929 31.6848 12.622 31.6848 13.6486V15.8667C31.6848 16.5749 32.2574 17.1514 32.9566 17.1514H33.9476V17.9529C33.9476 17.9859 33.9476 18.0133 33.9476 18.0518V19.4133C33.9476 19.88 33.7825 19.9184 33.5182 19.9184C33.2539 19.9184 33.0888 19.88 33.0888 19.4133V18.4251H31.6793V19.2322C31.6793 20.2533 32.5052 21.0878 33.5182 21.0878C34.5312 21.0878 35.3571 20.2588 35.3571 19.2322V17.0141C35.3571 16.3059 34.7845 15.7294 34.0853 15.7294H33.0943V13.8298H33.0998V13.8078C33.0998 13.3412 33.2649 13.3027 33.5182 13.3027C33.7715 13.3027 33.9366 13.3412 33.9366 13.8078V14.4557H35.3626Z" fill="var(--fill-0, #477BE4)"/>
<path fill-rule="evenodd" clip-rule="evenodd" d="M29.7909 14.2471C29.7909 14.7192 29.6257 14.7576 29.3725 14.7576C29.1192 14.7576 28.954 14.7192 28.954 14.2525V11.6118C28.954 11.1451 29.1192 11.1067 29.3725 11.1067C29.6257 11.1067 29.7909 11.1451 29.7909 11.6118V14.2525V14.2471ZM29.9285 9.70118H27.5281V20.989H28.943V16.0588H29.934C30.6333 16.0588 31.2058 15.4824 31.2058 14.7741V10.9804C31.2058 10.2722 30.6333 9.69569 29.934 9.69569L29.9285 9.70118Z" fill="var(--fill-0, #477BE4)"/>
<path fill-rule="evenodd" clip-rule="evenodd" d="M61.4867 18.9851H61.4812V19.2925C61.4812 19.7592 61.3161 19.7976 61.0573 19.7976C60.7985 19.7976 60.6334 19.7592 60.6334 19.2925V13.8243C60.6334 13.3576 60.7985 13.3192 61.0573 13.3192C61.3161 13.3192 61.4812 13.3576 61.4812 13.8243V14.1482H61.4867V18.9851ZM61.0738 11.8643C60.0828 11.8643 59.279 12.6933 59.279 13.7145V19.7702C59.279 20.4784 59.8351 21.0549 60.5178 21.0549H61.4812V21.8784H59.5157V23.3059H61.6244C62.3071 23.3059 62.8631 22.7294 62.8631 22.0212V13.7145C62.8631 12.6933 62.0593 11.8643 61.0683 11.8643H61.0738Z" fill="white"/>
<path fill-rule="evenodd" clip-rule="evenodd" d="M42.1235 19.7592C41.8647 19.7592 41.7051 19.7208 41.7051 19.2541V13.7969C41.7051 13.3302 41.8702 13.2918 42.1235 13.2918C42.3767 13.2918 42.5419 13.3302 42.5419 13.7969V14.5106H43.9128V13.709C43.9128 12.6878 43.109 11.8588 42.118 11.8588C41.127 11.8588 40.3231 12.6878 40.3231 13.709V19.2706C40.3231 20.2918 41.127 21.1208 42.118 21.1208C43.109 21.1208 43.9128 20.2918 43.9128 19.2706V18.469H42.5419V19.2541C42.5419 19.7208 42.3767 19.7592 42.1235 19.7592Z" fill="white"/>
<path fill-rule="evenodd" clip-rule="evenodd" d="M83.0302 19.1773C83.0302 19.3035 83.0192 19.3969 82.9917 19.4682V19.5231H82.9697C82.8981 19.6659 82.7604 19.6824 82.5843 19.6824C82.4081 19.6824 82.2704 19.6659 82.1989 19.5231H82.1603V19.4133C82.1438 19.3529 82.1383 19.2761 82.1383 19.1773V15.8996C82.1383 15.8063 82.1438 15.7294 82.1603 15.6635V15.6086H82.1768C82.2429 15.4165 82.3861 15.3945 82.5843 15.3945C82.854 15.3945 83.0247 15.4329 83.0247 15.8996V19.1773H83.0302ZM81.0262 11.8643V13.2863H82.9917V14.1867H82.0282C81.3455 14.1867 80.7894 14.7631 80.7894 15.4659V19.6659C80.7894 20.3741 81.3455 20.9451 82.0282 20.9451H84.3736V13.1435C84.3736 12.4353 83.8175 11.8643 83.1348 11.8643H81.0262Z" fill="white"/>
<path fill-rule="evenodd" clip-rule="evenodd" d="M39.3376 11.8643H38.1099V19.2761C38.1099 19.3584 38.1099 19.4243 38.0934 19.4847V19.5396H38.0824C38.0273 19.7592 37.8842 19.7812 37.6804 19.7812C37.4767 19.7812 37.3391 19.7592 37.284 19.5396H37.2675V19.4463C37.262 19.3969 37.2565 19.342 37.2565 19.2816V11.8698H35.8856V19.6878C35.8856 20.3961 36.4417 20.9726 37.1244 20.9726H38.0879V23.1302H39.4643V11.8698H39.3266L39.3376 11.8643Z" fill="white"/>
<path fill-rule="evenodd" clip-rule="evenodd" d="M66.9924 11.8643H65.7646V19.2761C65.7646 19.3584 65.7591 19.4243 65.7481 19.4847V19.5396H65.7371C65.682 19.7592 65.5389 19.7812 65.3352 19.7812C65.1315 19.7812 64.9938 19.7592 64.9388 19.5396H64.9222V19.4463C64.9167 19.3969 64.9112 19.342 64.9112 19.2816V11.8698H63.5403V19.6878C63.5403 20.3961 64.0964 20.9726 64.7791 20.9726H65.7426V23.1302H67.119V11.8698H66.9813L66.9924 11.8643Z" fill="white"/>
<path fill-rule="evenodd" clip-rule="evenodd" d="M48.1852 13.149C48.1852 12.4408 47.6291 11.8698 46.9464 11.8698H45.9829V9.68471H44.6065V20.9451H45.9829V19.2925C45.9829 19.2925 45.9829 19.298 45.9829 19.3035V13.6651C45.9829 13.1984 46.1481 13.16 46.4069 13.16C46.6656 13.16 46.8308 13.1984 46.8308 13.6651V20.9396H48.1797V13.1435L48.1852 13.149Z" fill="var(--fill-0, #477BE4)"/>
<path fill-rule="evenodd" clip-rule="evenodd" d="M57.2089 19.309C57.2089 19.7757 57.0492 19.8141 56.807 19.8141C56.5647 19.8141 56.4051 19.7757 56.4051 19.309V13.8518C56.4051 13.3851 56.5592 13.3467 56.807 13.3467C57.0547 13.3467 57.2089 13.3851 57.2089 13.8518V19.309ZM56.807 11.8643C55.816 11.8643 55.0121 12.6933 55.0121 13.7145V19.2761C55.0121 20.2973 55.816 21.1263 56.807 21.1263C57.798 21.1263 58.5963 20.2973 58.5963 19.2761V13.7145C58.5963 12.6933 57.7925 11.8643 56.807 11.8643Z" fill="var(--fill-0, #477BE4)"/>
<path fill-rule="evenodd" clip-rule="evenodd" d="M88.5028 11.8643H87.2751V19.2761C87.2751 19.3584 87.2751 19.4243 87.2585 19.4847V19.5396H87.2475C87.1925 19.7592 87.0493 19.7812 86.8456 19.7812C86.6419 19.7812 86.5043 19.7592 86.4492 19.5396H86.4327V19.4463C86.4272 19.3969 86.4217 19.342 86.4217 19.2816V11.8698H85.0508V19.6878C85.0508 20.3961 85.6068 20.9726 86.2895 20.9726H87.253V23.1302H88.6349V11.8698H88.4973L88.5028 11.8643Z" fill="var(--fill-0, #477BE4)"/>
<path fill-rule="evenodd" clip-rule="evenodd" d="M78.7909 19.1992C78.7909 19.5341 78.7083 19.6494 78.5762 19.6824C78.5101 19.7153 78.4275 19.7208 78.3339 19.7208C78.0917 19.7208 77.932 19.6824 77.932 19.2157V13.7584C77.932 13.4235 78.0146 13.3082 78.1467 13.2753C78.2128 13.2424 78.2954 13.2369 78.389 13.2369C78.6312 13.2369 78.7909 13.2753 78.7909 13.742V19.1992ZM78.7303 9.68471V11.8698H77.7669C77.0842 11.8698 76.5281 12.4463 76.5281 13.149V19.6659C76.5281 20.3741 77.0842 20.9451 77.7669 20.9451H80.1122V9.68471H78.7303Z" fill="var(--fill-0, #477BE4)"/>
<path fill-rule="evenodd" clip-rule="evenodd" d="M74.4745 19.309C74.4745 19.7757 74.3093 19.8141 74.0506 19.8141C73.7918 19.8141 73.6266 19.7757 73.6266 19.309V13.8518C73.6266 13.3851 73.7918 13.3467 74.0506 13.3467C74.3093 13.3467 74.4745 13.3851 74.4745 13.8518V19.309ZM74.0451 11.8643C73.0596 11.8643 72.2502 12.6933 72.2502 13.7145V19.2761C72.2502 20.2973 73.054 21.1263 74.0451 21.1263C75.0361 21.1263 75.8399 20.2973 75.8399 19.2761V13.7145C75.8399 12.6933 75.0361 11.8643 74.0451 11.8643Z" fill="var(--fill-0, #477BE4)"/>
<path fill-rule="evenodd" clip-rule="evenodd" d="M54.1312 9.88784C53.8945 9.65726 53.5972 9.52549 53.2779 9.50902H53.1347V20.9396H54.5001V10.7937C54.5001 10.4424 54.368 10.1129 54.1312 9.88235V9.88784Z" fill="var(--fill-0, #477BE4)"/>
<path fill-rule="evenodd" clip-rule="evenodd" d="M69.1781 9.68471V11.1067H70.2792V20.9451H71.6611V11.1067H72.7622V9.68471H69.1781Z" fill="var(--fill-0, #477BE4)"/>
<path fill-rule="evenodd" clip-rule="evenodd" d="M51.0646 19.309C51.0646 19.7757 50.9104 19.8141 50.6627 19.8141C50.4149 19.8141 50.2608 19.7757 50.2608 19.309V13.8518C50.2608 13.3851 50.4149 13.3467 50.6627 13.3467C50.9104 13.3467 51.0646 13.3851 51.0646 13.8518V19.309ZM50.6572 11.8643C49.6717 11.8643 48.8624 12.6933 48.8624 13.7145V19.2761C48.8624 20.2973 49.6662 21.1263 50.6572 21.1263C51.6482 21.1263 52.452 20.2973 52.452 19.2761V13.7145C52.452 12.6933 51.6482 11.8643 50.6572 11.8643Z" fill="var(--fill-0, #477BE4)"/>
<path fill-rule="evenodd" clip-rule="evenodd" d="M61.4867 18.9851H61.4812V19.2925C61.4812 19.7592 61.3161 19.7976 61.0573 19.7976C60.7985 19.7976 60.6334 19.7592 60.6334 19.2925V13.8243C60.6334 13.3576 60.7985 13.3192 61.0573 13.3192C61.3161 13.3192 61.4812 13.3576 61.4812 13.8243V14.1482H61.4867V18.9851ZM61.0738 11.8643C60.0828 11.8643 59.279 12.6933 59.279 13.7145V19.7702C59.279 20.4784 59.8351 21.0549 60.5178 21.0549H61.4812V21.8784H59.5157V23.3059H61.6244C62.3071 23.3059 62.8631 22.7294 62.8631 22.0212V13.7145C62.8631 12.6933 62.0593 11.8643 61.0683 11.8643H61.0738Z" fill="var(--fill-0, #477BE4)"/>
<path fill-rule="evenodd" clip-rule="evenodd" d="M42.1235 19.7592C41.8647 19.7592 41.7051 19.7208 41.7051 19.2541V13.7969C41.7051 13.3302 41.8702 13.2918 42.1235 13.2918C42.3767 13.2918 42.5419 13.3302 42.5419 13.7969V14.5106H43.9128V13.709C43.9128 12.6878 43.109 11.8588 42.118 11.8588C41.127 11.8588 40.3231 12.6878 40.3231 13.709V19.2706C40.3231 20.2918 41.127 21.1208 42.118 21.1208C43.109 21.1208 43.9128 20.2918 43.9128 19.2706V18.469H42.5419V19.2541C42.5419 19.7208 42.3767 19.7592 42.1235 19.7592Z" fill="var(--fill-0, #477BE4)"/>
<path fill-rule="evenodd" clip-rule="evenodd" d="M83.0302 19.1773C83.0302 19.3035 83.0192 19.3969 82.9917 19.4682V19.5231H82.9697C82.8981 19.6659 82.7604 19.6824 82.5843 19.6824C82.4081 19.6824 82.2704 19.6659 82.1989 19.5231H82.1603V19.4133C82.1438 19.3529 82.1383 19.2761 82.1383 19.1773V15.8996C82.1383 15.8063 82.1438 15.7294 82.1603 15.6635V15.6086H82.1768C82.2429 15.4165 82.3861 15.3945 82.5843 15.3945C82.854 15.3945 83.0247 15.4329 83.0247 15.8996V19.1773H83.0302ZM81.0262 11.8643V13.2863H82.9917V14.1867H82.0282C81.3455 14.1867 80.7894 14.7631 80.7894 15.4659V19.6659C80.7894 20.3741 81.3455 20.9451 82.0282 20.9451H84.3736V13.1435C84.3736 12.4353 83.8175 11.8643 83.1348 11.8643H81.0262Z" fill="var(--fill-0, #477BE4)"/>
<path fill-rule="evenodd" clip-rule="evenodd" d="M39.3376 11.8643H38.1099V19.2761C38.1099 19.3584 38.1099 19.4243 38.0934 19.4847V19.5396H38.0824C38.0273 19.7592 37.8842 19.7812 37.6804 19.7812C37.4767 19.7812 37.3391 19.7592 37.284 19.5396H37.2675V19.4463C37.262 19.3969 37.2565 19.342 37.2565 19.2816V11.8698H35.8856V19.6878C35.8856 20.3961 36.4417 20.9726 37.1244 20.9726H38.0879V23.1302H39.4643V11.8698H39.3266L39.3376 11.8643Z" fill="var(--fill-0, #477BE4)"/>
<path fill-rule="evenodd" clip-rule="evenodd" d="M66.9924 11.8643H65.7646V19.2761C65.7646 19.3584 65.7591 19.4243 65.7481 19.4847V19.5396H65.7371C65.682 19.7592 65.5389 19.7812 65.3352 19.7812C65.1315 19.7812 64.9938 19.7592 64.9388 19.5396H64.9222V19.4463C64.9167 19.3969 64.9112 19.342 64.9112 19.2816V11.8698H63.5403V19.6878C63.5403 20.3961 64.0964 20.9726 64.7791 20.9726H65.7426V23.1302H67.119V11.8698H66.9813L66.9924 11.8643Z" fill="var(--fill-0, #477BE4)"/>
</g>
</svg>
