<svg preserveAspectRatio="none" width="100%" height="100%" overflow="visible" style="display: block;" viewBox="0 0 303 44" fill="none" xmlns="http://www.w3.org/2000/svg">
<g id="Vector">
<path d="M19.8604 43.996H19.8644C21.398 43.996 25.4849 43.7953 30.3305 41.9128C36.0353 39.7011 43.9963 34.6477 49.5325 23.152C51.5518 18.9615 53.9686 15.1082 56.9274 11.3713C58.1599 9.8139 59.5209 8.61777 60.9661 7.815C62.9213 6.73125 65.8921 6.24558 67.1848 6.07699C66.2855 5.26218 64.1899 3.44791 62.034 2.15946C60.6811 1.35267 57.923 0 54.6592 0C50.0985 0 46.1281 1.69787 42.5229 5.18993C41.166 6.50648 39.5923 8.57763 37.7736 10.9779L37.5488 11.2749L37.2959 11.01C37.1192 10.7893 36.9346 10.5725 36.7379 10.3598C28.4798 1.4771 3.00696 4.06203 1.92702 4.17442L0 4.37913L0.738691 6.16931C5.56427 17.8657 16.7611 29.526 22.0965 28.4342C27.6728 27.3184 32.6269 22 35.8667 18.0985L36.509 17.3238L36.3765 18.3233C36.3525 18.4879 36.3284 18.6564 36.2962 18.829C33.5061 34.1259 20.1133 40.5039 18.5958 41.1783C17.3552 41.7723 14.5289 42.9042 12.9391 43.5344C14.7939 43.703 18.2746 44 19.7319 44C19.7761 44 19.8162 44 19.8563 44L19.8604 43.996ZM35.5214 13.908C31.4506 19.114 26.6049 24.5769 21.5304 25.5924C21.4502 25.6085 21.3658 25.6165 21.2735 25.6165C18.375 25.6165 9.43437 17.8015 4.40003 7.26911L4.21536 6.88378L4.64091 6.85568C8.54714 6.59077 28.3553 5.60336 34.6021 12.3386C34.9674 12.732 35.2846 13.1534 35.5415 13.5869L35.6419 13.7555L35.5214 13.9121V13.908ZM26.7856 39.5125C31.4145 35.8639 37.32 29.4056 39.1547 19.3468C39.4839 17.5446 39.4317 15.8588 39.0021 14.3375L38.962 14.197L40.074 12.732C41.8204 10.428 43.3299 8.44116 44.5343 7.27313C47.5733 4.33096 50.8814 2.90203 54.6551 2.90203C56.3573 2.90203 58.2161 3.42383 60.1753 4.45539L60.6771 4.72031L60.1712 4.97318C58.1198 5.9927 56.265 7.54205 54.6551 9.57307C51.5639 13.4745 49.0347 17.5045 46.923 21.8956C41.2342 33.7125 32.9762 38.2722 27.0506 40.0182L25.6093 40.4437L26.7896 39.5125H26.7856Z" fill="#CEA36F"/>
<path d="M77.9641 6.06897H80.9429V13.1133H89.0284V6.06897H92.0072V23.0115H89.0284V15.8708H80.9429V23.0115H77.9641V6.06897Z" fill="var(--fill-0, white)"/>
<path d="M97.696 6.06897H110.258V8.73016H100.671V13.1334H109.17V15.7946H100.671V20.3463H110.378V23.0075H97.696V6.06897Z" fill="var(--fill-0, white)"/>
<path d="M124.012 5.94855L131.467 23.0115H128.32L126.601 18.9214H118.588L116.846 23.0115H113.795L121.25 5.94855H124.012ZM125.513 16.2843L122.583 9.50885L119.676 16.2843H125.513Z" fill="var(--fill-0, white)"/>
<path d="M135.706 6.06897H138.685V20.3021H147.594V23.0115H135.706V6.06897Z" fill="var(--fill-0, white)"/>
<path d="M153.768 8.8305H148.393V6.07298H162.143V8.8305H156.767V23.0115H153.764V8.8305H153.768Z" fill="var(--fill-0, white)"/>
<path d="M166.623 6.06897H169.602V13.1133H177.687V6.06897H180.666V23.0115H177.687V15.8708H169.602V23.0115H166.623V6.06897Z" fill="var(--fill-0, white)"/>
<path d="M191.341 16.3324L184.613 6.06897H188.146L192.867 13.5468L197.66 6.06897H201.073L194.344 16.2602V23.0115H191.341V16.3324Z" fill="var(--fill-0, white)"/>
<path d="M213.618 6.06897H216.597V20.3021H225.506V23.0115H213.618V6.06897Z" fill="var(--fill-0, white)"/>
<path d="M230.106 6.06897H233.085V23.0115H230.106V6.06897Z" fill="var(--fill-0, white)"/>
<path d="M240.781 6.06897L245.888 19.0899L250.97 6.06897H254.19L247.169 23.1319H244.531L237.485 6.06897H240.781Z" fill="var(--fill-0, white)"/>
<path d="M258.602 6.06897H261.581V23.0115H258.602V6.06897Z" fill="var(--fill-0, white)"/>
<path d="M267.438 6.06897H270.196L279.274 17.7814V6.06897H282.204V23.0115H279.711L270.369 10.9579V23.0115H267.438V6.06897Z" fill="var(--fill-0, white)"/>
<path d="M287.142 14.5864V14.5382C287.142 9.79383 290.775 5.77595 295.882 5.77595C298.837 5.77595 300.651 6.5988 302.394 8.0759L300.507 10.3277C299.198 9.21182 297.917 8.51341 295.762 8.51341C292.638 8.51341 290.266 11.2469 290.266 14.4901V14.5382C290.266 18.0223 292.566 20.5871 296.027 20.5871C297.624 20.5871 299.078 20.0774 300.118 19.3027V16.1317H295.786V13.5428H303V20.6594C301.33 22.0883 298.933 23.2965 295.93 23.2965C290.631 23.2965 287.142 19.5194 287.142 14.5824V14.5864Z" fill="var(--fill-0, white)"/>
<path d="M106.335 33.4154H109.471C110.366 33.4154 111.085 33.6884 111.546 34.146C111.9 34.4992 112.108 35.013 112.108 35.5829V35.603C112.108 36.8112 111.273 37.5216 110.129 37.7263L112.369 40.7086H111.358L109.242 37.8748H107.158V40.7086H106.335V33.4154ZM109.403 37.1363C110.499 37.1363 111.277 36.5743 111.277 35.6351V35.615C111.277 34.7199 110.591 34.1781 109.411 34.1781H107.158V37.1363H109.403Z" fill="var(--fill-0, white)"/>
<path d="M115.963 33.4154H121.238V34.166H116.786V36.6546H120.768V37.4052H116.786V39.958H121.29V40.7086H115.963V33.4154Z" fill="var(--fill-0, white)"/>
<path d="M124.554 39.645L125.064 39.0389C125.826 39.7252 126.553 40.0704 127.565 40.0704C128.576 40.0704 129.191 39.5486 129.191 38.8301V38.8101C129.191 38.1317 128.825 37.7464 127.296 37.4253C125.618 37.06 124.847 36.5182 124.847 35.318V35.2979C124.847 34.15 125.859 33.3071 127.244 33.3071C128.308 33.3071 129.066 33.6081 129.809 34.2022L129.331 34.8404C128.653 34.2864 127.978 34.0496 127.228 34.0496C126.28 34.0496 125.674 34.5714 125.674 35.2257V35.2458C125.674 35.9361 126.047 36.3175 127.653 36.6627C129.279 37.0159 130.03 37.6099 130.03 38.7258V38.7458C130.03 39.9982 128.986 40.809 127.541 40.809C126.384 40.809 125.433 40.4236 124.558 39.6409L124.554 39.645Z" fill="var(--fill-0, white)"/>
<path d="M133.864 33.4154H134.687V40.7086H133.864V33.4154Z" fill="var(--fill-0, white)"/>
<path d="M138.91 33.4154H141.443C143.736 33.4154 145.321 34.9889 145.321 37.044V37.064C145.321 39.1191 143.736 40.7126 141.443 40.7126H138.91V33.4154ZM139.733 34.1781V39.95H141.443C143.29 39.95 144.466 38.7017 144.466 37.0841V37.064C144.466 35.4505 143.29 34.1781 141.443 34.1781H139.733Z" fill="var(--fill-0, white)"/>
<path d="M149.147 33.4154H154.423V34.166H149.97V36.6546H153.953V37.4052H149.97V39.958H154.475V40.7086H149.147V33.4154Z" fill="var(--fill-0, white)"/>
<path d="M158.22 33.4154H158.991L163.588 39.2636V33.4154H164.391V40.7086H163.733L159.023 34.728V40.7086H158.22V33.4154Z" fill="var(--fill-0, white)"/>
<path d="M170.469 34.1781H168.02V33.4154H173.753V34.1781H171.304V40.7126H170.469V34.1781Z" fill="var(--fill-0, white)"/>
<path d="M177.459 33.4154H178.282V40.7086H177.459V33.4154Z" fill="var(--fill-0, white)"/>
<path d="M185.203 33.3633H185.974L189.298 40.7086H188.415L187.559 38.782H183.589L182.726 40.7086H181.883L185.207 33.3633H185.203ZM187.234 38.0314L185.576 34.3226L183.91 38.0314H187.234Z" fill="var(--fill-0, white)"/>
<path d="M192.827 33.4154H193.65V39.95H197.757V40.7126H192.827V33.4154Z" fill="var(--fill-0, white)"/>
<path d="M206.577 33.4154H209.307C210.953 33.4154 212.037 34.2905 212.037 35.7274V35.7475C212.037 37.3209 210.724 38.1357 209.17 38.1357H207.4V40.7086H206.577V33.4154ZM209.202 37.3851C210.411 37.3851 211.202 36.7389 211.202 35.7796V35.7595C211.202 34.7159 210.419 34.1741 209.242 34.1741H207.396V37.3851H209.202Z" fill="var(--fill-0, white)"/>
<path d="M215.63 33.4154H218.765C219.66 33.4154 220.379 33.6884 220.841 34.146C221.194 34.4992 221.403 35.013 221.403 35.5829V35.603C221.403 36.8112 220.568 37.5216 219.423 37.7263L221.664 40.7086H220.652L218.536 37.8748H216.453V40.7086H215.63V33.4154ZM218.693 37.1363C219.789 37.1363 220.568 36.5743 220.568 35.6351V35.615C220.568 34.7199 219.881 34.1781 218.701 34.1781H216.449V37.1363H218.693Z" fill="var(--fill-0, white)"/>
<path d="M224.928 37.0841V37.064C224.928 35.0531 226.441 33.291 228.661 33.291C230.881 33.291 232.371 35.033 232.371 37.044V37.064C232.371 39.075 230.857 40.8371 228.637 40.8371C226.417 40.8371 224.928 39.0951 224.928 37.0841ZM231.516 37.0841V37.064C231.516 35.4063 230.307 34.0536 228.637 34.0536C226.967 34.0536 225.783 35.3862 225.783 37.044V37.064C225.783 38.7218 226.991 40.0744 228.661 40.0744C230.331 40.0744 231.516 38.7418 231.516 37.0841Z" fill="var(--fill-0, white)"/>
<path d="M235.875 37.0841V37.064C235.875 35.0651 237.345 33.291 239.533 33.291C240.761 33.291 241.524 33.6442 242.251 34.2583L241.721 34.8845C241.159 34.3948 240.532 34.0496 239.501 34.0496C237.887 34.0496 236.727 35.4143 236.727 37.04V37.06C236.727 38.802 237.843 40.0945 239.613 40.0945C240.448 40.0945 241.219 39.7734 241.721 39.364V37.5497H239.501V36.8112H242.512V39.7172C241.833 40.3193 240.813 40.8331 239.581 40.8331C237.289 40.8331 235.871 39.1673 235.871 37.0801L235.875 37.0841Z" fill="var(--fill-0, white)"/>
<path d="M246.462 33.4154H249.597C250.493 33.4154 251.211 33.6884 251.673 34.146C252.026 34.4992 252.235 35.013 252.235 35.5829V35.603C252.235 36.8112 251.4 37.5216 250.256 37.7263L252.496 40.7086H251.484L249.369 37.8748H247.285V40.7086H246.462V33.4154ZM249.525 37.1363C250.621 37.1363 251.4 36.5743 251.4 35.6351V35.615C251.4 34.7199 250.713 34.1781 249.533 34.1781H247.281V37.1363H249.525Z" fill="var(--fill-0, white)"/>
<path d="M258.783 33.3633H259.554L262.878 40.7086H261.995L261.139 38.782H257.169L256.306 40.7086H255.463L258.787 33.3633H258.783ZM260.814 38.0314L259.156 34.3226L257.49 38.0314H260.814Z" fill="var(--fill-0, white)"/>
<path d="M266.407 33.4154H267.242L269.899 37.3972L272.557 33.4154H273.392V40.7086H272.569V34.8002L269.911 38.7097H269.867L267.21 34.8123V40.7086H266.407V33.4154Z" fill="var(--fill-0, white)"/>
</g>
</svg>
