<svg preserveAspectRatio="none" width="100%" height="100%" overflow="visible" style="display: block;" viewBox="0 0 39 40" fill="none" xmlns="http://www.w3.org/2000/svg">
<path id="Vector" d="M36.309 32.0312H22.678C22.351 32.0312 22.0839 32.2949 22.0839 32.6177C22.0839 32.9405 22.351 33.2042 22.678 33.2042H36.309C36.9303 33.2042 37.4372 33.7046 37.4372 34.318C37.4372 34.9314 36.9303 35.4318 36.309 35.4318H22.122C19.0318 35.4318 16.0233 36.212 13.418 37.6863C12.1045 38.4342 10.6003 38.827 9.07423 38.827C7.41736 38.827 5.80955 38.3697 4.41974 37.5034C3.06264 36.6586 1.9726 35.4695 1.25317 34.0543C1.11691 33.7907 1.22592 33.5647 1.28042 33.484C1.33492 33.3979 1.48753 33.2042 1.78729 33.2042H20.0891C20.4161 33.2042 20.6832 32.9405 20.6832 32.6177C20.6832 32.2949 20.4161 32.0312 20.0891 32.0312H13.8922L12.4207 29.7767C12.0555 29.2225 11.5813 28.7651 11.0309 28.4262L13.3036 26.1878L13.7941 26.672C14.0666 26.9411 14.4209 27.0702 14.7752 27.0702C15.1294 27.0702 15.4837 26.9357 15.7562 26.672L16.8408 25.6013L16.9825 25.7412C17.3204 26.0748 17.7673 26.2577 18.2415 26.2577C18.7157 26.2577 19.1626 26.0748 19.5005 25.7412L21.6097 23.6589C21.8441 23.4275 21.8441 23.0616 21.6097 22.8302C21.3754 22.6043 21.0047 22.5989 20.7704 22.8302L18.6612 24.9126C18.5467 25.0256 18.3995 25.0847 18.2415 25.0847C18.0834 25.0847 17.9363 25.0256 17.8218 24.9126L13.7723 20.9147C13.5434 20.6887 13.5434 20.3121 13.7723 20.0861L15.2766 18.601L17.7237 21.017C17.8382 21.1299 17.9908 21.1891 18.1434 21.1891C18.296 21.1891 18.4486 21.1299 18.5631 21.017C18.7974 20.7856 18.7974 20.4197 18.5631 20.1883L16.1159 17.7724L18.0398 15.873L20.487 18.2889C20.6014 18.4019 20.754 18.4611 20.9066 18.4611C21.0593 18.4611 21.2119 18.4019 21.3263 18.2889C21.5607 18.0576 21.5607 17.6917 21.3263 17.4603L18.8792 15.0444L20.8031 13.145L25.6974 17.9769L22.6017 21.0331C22.3673 21.2645 22.3673 21.6303 22.6017 21.8617C22.7161 21.9747 22.8687 22.0339 23.0213 22.0339C23.1739 22.0339 23.3265 21.9747 23.441 21.8617L31.164 14.2373L31.3384 14.4095C31.7526 14.8184 32.2976 15.0229 32.8426 15.0229C33.3876 15.0229 33.9327 14.8184 34.3469 14.4095C34.3469 14.4095 34.3469 14.4095 34.3523 14.4041C34.7502 14.0113 34.9682 13.484 34.9682 12.9298C34.9682 12.3756 34.7447 11.8429 34.3469 11.4447L32.3575 9.48076L35.2244 6.65052L35.644 7.06484C36.0255 7.44149 36.5324 7.63519 37.0338 7.63519C37.5353 7.63519 38.0421 7.44687 38.4236 7.06484C39.1921 6.30616 39.1921 5.07398 38.4236 4.31531L36.9303 2.841C36.6959 2.60963 36.3253 2.60963 36.0909 2.841C35.8566 3.07237 35.8566 3.43826 36.0909 3.66963L37.5843 5.14393C37.8895 5.44525 37.8895 5.93489 37.5843 6.23621C37.2791 6.53753 36.7831 6.53753 36.4779 6.23621L32.6846 2.49126C32.5374 2.34598 32.4557 2.15227 32.4557 1.94781C32.4557 1.74334 32.5374 1.54964 32.6791 1.40436C32.8263 1.2537 33.0225 1.17299 33.2296 1.17299C33.4367 1.17299 33.6329 1.2537 33.7801 1.39898L34.2488 1.86172C34.4831 2.09309 34.8537 2.09309 35.0881 1.86172C35.3225 1.63035 35.3225 1.26446 35.0881 1.03309L34.6194 0.570352C34.2488 0.204466 33.7528 0 33.2296 0C32.7064 0 32.2158 0.199085 31.8452 0.564972C31.8452 0.564972 31.8452 0.564972 31.8398 0.570352C31.4692 0.936239 31.2621 1.42588 31.2621 1.94243C31.2621 2.45897 31.4692 2.94861 31.8398 3.3145L32.2594 3.72881L29.3926 6.55905L27.4033 4.5951C26.5749 3.77724 25.2287 3.77724 24.4002 4.5951C24.4002 4.5951 24.4002 4.5951 24.3948 4.60048C23.9969 4.99327 23.7789 5.52058 23.7789 6.07479C23.7789 6.629 24.0024 7.16169 24.4002 7.55986L24.5746 7.73204L12.9112 19.2467C12.219 19.9301 12.219 21.0492 12.9112 21.7326L13.0529 21.8725L11.9683 22.9432C11.4287 23.4759 11.4287 24.3422 11.9683 24.8749L12.4588 25.3592L9.85906 27.9257C9.47754 27.8235 9.08513 27.7697 8.68181 27.7697C7.16665 27.7697 5.7714 28.523 4.94841 29.7767L3.47686 32.0312H1.78184C1.16051 32.0312 0.593691 32.3433 0.266678 32.8652C-0.0603349 33.3871 -0.0875859 34.0274 0.190375 34.5763C1.00246 36.1797 2.24511 37.5356 3.78207 38.4934C5.36263 39.4781 7.1939 40 9.06878 40C10.8019 40 12.5079 39.5534 14.0067 38.7033C16.432 37.3258 19.2389 36.5994 22.122 36.5994H36.309C37.5843 36.5994 38.6253 35.5771 38.6253 34.3126C38.6253 33.0482 37.5898 32.0258 36.309 32.0258V32.0312ZM21.6315 12.3056L22.7379 11.2133L27.6268 16.0398L26.5204 17.1321L21.6261 12.3002L21.6315 12.3056ZM28.4988 11.6115L26.6566 13.4302L25.3867 12.1765L27.2289 10.3578L28.4988 11.6115ZM28.4715 15.222L27.496 14.2588L29.3381 12.4401L30.3137 13.4033L28.4715 15.222ZM33.1042 4.56282L34.3741 5.81652L31.5073 8.64676L30.2374 7.39306L33.1042 4.56282ZM25.245 5.43449C25.6102 5.07937 26.2043 5.07937 26.564 5.43449L33.4857 12.268C33.6602 12.4401 33.7583 12.6769 33.7583 12.9244C33.7583 13.1719 33.6602 13.4033 33.4857 13.5808C33.1206 13.936 32.5265 13.936 32.1668 13.5808L25.2505 6.75276C25.0761 6.58058 24.978 6.34383 24.978 6.09631C24.978 5.8488 25.0761 5.61743 25.2505 5.43987L25.245 5.43449ZM26.395 9.52919L24.5528 11.3479L23.5773 10.3847L25.4194 8.56605L26.395 9.52919ZM12.8131 23.7719L13.8977 22.7011L15.996 24.7727L14.9114 25.8434C14.8351 25.9188 14.7098 25.9188 14.6334 25.8434L12.8131 24.0463C12.7368 23.9709 12.7368 23.8472 12.8131 23.7719ZM5.9458 30.417C6.55078 29.4969 7.57542 28.9427 8.68181 28.9427C9.78821 28.9427 10.8183 29.4915 11.4233 30.417L12.4806 32.0366H4.88846L5.9458 30.417Z" fill="var(--fill-0, #0D3442)"/>
</svg>
