<svg preserveAspectRatio="none" width="100%" height="100%" overflow="visible" style="display: block;" viewBox="0 0 20 16" fill="none" xmlns="http://www.w3.org/2000/svg">
<g id="Vector">
<path d="M18.9315 3.95193H18.6295V0.975881C18.6295 0.436923 18.1889 0 17.6454 0H12.3849C12.2227 0 12.0921 0.129507 12.0921 0.29041C12.0921 0.451312 12.2227 0.580819 12.3849 0.580819H17.6454C17.8657 0.580819 18.0438 0.75742 18.0438 0.975881V3.95193H17.6639V1.49914C17.6639 1.20612 17.4238 0.968032 17.1283 0.968032H2.87429C2.57882 0.968032 2.33874 1.20612 2.33874 1.49914V3.27823C2.33874 3.43259 2.45614 3.56864 2.61179 3.57779C2.78196 3.58826 2.92442 3.45483 2.92442 3.28738V1.54885H17.0769V3.95193H13.6512C13.0603 3.95193 12.5815 4.42678 12.5815 5.01284V9.7248H2.92442V4.65309C2.92442 4.49873 2.80702 4.36269 2.65137 4.35353C2.4812 4.34306 2.33874 4.47649 2.33874 4.64394V9.77582C2.33874 10.0688 2.57882 10.3069 2.87429 10.3069H12.5815V11.0042H2.35457C2.1356 11.0029 1.95884 10.8263 1.95884 10.6091V0.975881C1.95884 0.75742 2.13692 0.580819 2.35721 0.580819H6.3026C6.46485 0.580819 6.59544 0.451312 6.59544 0.29041C6.59544 0.129507 6.46485 0 6.3026 0H2.35721C1.81375 0 1.37317 0.436923 1.37317 0.975881V10.6091C1.37317 10.8119 1.43517 11.0002 1.54333 11.1559C1.41142 11.2409 1.30194 11.36 1.22543 11.5039L0.0949743 13.6532C0.0474871 13.7421 0.0184672 13.8376 0.00659544 13.9344C0.00263817 13.9541 0 13.975 0 13.9959V15.0516C0 15.5762 0.428703 16 0.956338 16H18.9302C19.5212 16 20 15.5251 20 14.9391V5.01414C20 4.42809 19.5212 3.95323 18.9302 3.95323L18.9315 3.95193ZM0.586994 14.0142C0.589632 13.9854 0.597547 13.9541 0.614695 13.9213L1.74515 11.7734C1.80583 11.6569 1.92587 11.585 2.05778 11.585H2.35193C2.35193 11.585 2.35589 11.585 2.35721 11.585H12.5815V12.0141H11.8942C11.732 12.0141 11.6014 12.1436 11.6014 12.3045C11.6014 12.4654 11.732 12.5949 11.8942 12.5949H12.5815V13.1836H2.41657L2.70545 12.5949H10.525C10.6872 12.5949 10.8178 12.4654 10.8178 12.3045C10.8178 12.1436 10.6872 12.0141 10.525 12.0141H2.59992C2.44163 12.0141 2.29521 12.1043 2.22662 12.2456L1.77153 13.1731C1.70822 13.3013 1.71613 13.4504 1.79264 13.5721C1.86915 13.6937 2.00106 13.7657 2.14484 13.7657H6.55059L6.35536 14.2235C6.34877 14.2392 6.34217 14.2562 6.33821 14.2719H0.829706C0.820472 14.2719 0.811239 14.2719 0.802005 14.2706C0.799367 14.2706 0.796729 14.2706 0.79541 14.2706C0.787495 14.2706 0.7809 14.268 0.774304 14.2667C0.772985 14.2667 0.771666 14.2667 0.770347 14.2667C0.762432 14.2641 0.754518 14.2628 0.747923 14.2602C0.746603 14.2602 0.743965 14.2589 0.742646 14.2575C0.73737 14.2549 0.732093 14.2536 0.726817 14.251C0.725498 14.251 0.72286 14.2497 0.721541 14.2484C0.714945 14.2458 0.709669 14.2418 0.704393 14.2379C0.703074 14.2379 0.701754 14.2366 0.700435 14.2353C0.696478 14.2327 0.692521 14.2301 0.688564 14.2275C0.685925 14.2261 0.684606 14.2235 0.681968 14.2222C0.67933 14.2196 0.676692 14.2183 0.674054 14.2157C0.671415 14.2144 0.670096 14.2118 0.667458 14.2104C0.663501 14.2065 0.660863 14.2039 0.656905 14.2013C0.655586 14.2 0.654267 14.1987 0.652948 14.1974C0.647672 14.1921 0.643715 14.1869 0.639757 14.1817C0.639757 14.1817 0.639757 14.1804 0.638438 14.1791C0.629205 14.166 0.62129 14.1529 0.613376 14.1398C0.613376 14.1398 0.613376 14.1372 0.612056 14.1372C0.609418 14.1307 0.60678 14.1254 0.604142 14.1189C0.604142 14.1176 0.602823 14.115 0.601504 14.1136C0.598866 14.1071 0.597547 14.1006 0.596227 14.0953C0.596227 14.094 0.596227 14.0914 0.596227 14.0901C0.590951 14.0666 0.588313 14.043 0.589632 14.0195L0.586994 14.0142ZM0.956338 15.4179C0.75188 15.4179 0.585675 15.253 0.585675 15.0503V14.8187C0.585675 14.8187 0.598866 14.8214 0.604142 14.824C0.612056 14.8266 0.618652 14.8279 0.626566 14.8292C0.637119 14.8318 0.647672 14.8344 0.658225 14.8357C0.667458 14.8371 0.676692 14.8397 0.684606 14.841C0.69384 14.8423 0.703074 14.8436 0.712307 14.8449C0.724179 14.8462 0.734732 14.8475 0.746603 14.8488C0.754518 14.8488 0.761113 14.8501 0.769028 14.8514C0.788814 14.8528 0.807281 14.8541 0.827068 14.8541H7.81295V15.0254C7.81295 15.1654 7.84329 15.2975 7.89606 15.4179H0.956338ZM11.6014 15.0254C11.6014 15.2413 11.4233 15.4179 11.2056 15.4179H8.79699C8.57934 15.4179 8.40127 15.2413 8.40127 15.0254V14.8541H11.6014V15.0254ZM6.97138 14.2732L7.18771 13.767H12.5828V14.2732H6.97138ZM12.1039 15.4179C12.158 15.2975 12.187 15.1654 12.187 15.0254V14.8541H12.5815V14.9378C12.5815 15.1105 12.6237 15.274 12.6975 15.4179H12.1026H12.1039ZM19.4156 14.9378C19.4156 15.202 19.198 15.4179 18.9315 15.4179H13.6512C13.3848 15.4179 13.1671 15.202 13.1671 14.9378V5.01414C13.1671 4.7499 13.3848 4.53405 13.6512 4.53405H18.9302C19.1967 4.53405 19.4143 4.7499 19.4143 5.01414V14.9378H19.4156Z" fill="var(--fill-0, #0D3442)"/>
<path d="M18.6308 4.92127H17.3658C17.1613 4.92127 16.9925 5.07432 16.9727 5.27708C16.9384 5.62636 16.6469 5.8893 16.292 5.8893C15.9372 5.8893 15.6457 5.62636 15.6114 5.27708C15.5916 5.07432 15.4228 4.92127 15.2183 4.92127H13.9533C13.7357 4.92127 13.5589 5.09656 13.5589 5.31371V14.6395C13.5589 14.8554 13.7357 15.0307 13.9533 15.0307H18.6308C18.8484 15.0307 19.0252 14.8554 19.0252 14.6395V7.56766C19.0252 7.40675 18.8946 7.27725 18.7324 7.27725C18.5701 7.27725 18.4395 7.40675 18.4395 7.56766V14.4511H14.1446V5.50209H15.0561C15.188 6.06459 15.6932 6.47012 16.292 6.47012C16.8909 6.47012 17.3948 6.06459 17.528 5.50209H18.4395V6.2098C18.4395 6.3707 18.5701 6.5002 18.7324 6.5002C18.8946 6.5002 19.0252 6.3707 19.0252 6.2098V5.3124C19.0252 5.09656 18.8484 4.91996 18.6308 4.91996V4.92127Z" fill="var(--fill-0, #0D3442)"/>
<path d="M16.0216 5.32287C16.0295 5.33987 16.0375 5.35688 16.048 5.37258C16.0586 5.38828 16.0718 5.40397 16.085 5.41706C16.139 5.47069 16.2142 5.50209 16.292 5.50209C16.3699 5.50209 16.4451 5.47069 16.4991 5.41706C16.5123 5.40397 16.5255 5.38828 16.5361 5.37258C16.5466 5.35688 16.5559 5.33987 16.5625 5.32287C16.5704 5.30455 16.5757 5.28624 16.5796 5.26793C16.5836 5.24961 16.5849 5.22999 16.5849 5.21168C16.5849 5.19336 16.5822 5.17374 16.5796 5.15542C16.5757 5.13711 16.5704 5.1188 16.5625 5.10048C16.5545 5.08217 16.5466 5.06647 16.5361 5.05077C16.5255 5.03508 16.5137 5.01938 16.4991 5.0063C16.4451 4.95266 16.3686 4.92127 16.292 4.92127C16.2155 4.92127 16.139 4.95266 16.085 5.0063C16.0718 5.01938 16.0586 5.03508 16.048 5.05077C16.0375 5.06647 16.0282 5.08348 16.0216 5.10048C16.0137 5.11749 16.0084 5.1358 16.0045 5.15542C16.0005 5.17374 15.9992 5.19336 15.9992 5.21168C15.9992 5.22999 16.0005 5.24961 16.0045 5.26793C16.0084 5.28624 16.0137 5.30455 16.0216 5.32287Z" fill="var(--fill-0, #0D3442)"/>
</g>
</svg>
