<svg preserveAspectRatio="none" width="100%" height="100%" overflow="visible" style="display: block;" viewBox="0 0 40 35" fill="none" xmlns="http://www.w3.org/2000/svg">
<g id="Vector">
<path d="M3.70074 31.3314C3.38093 31.3314 3.11822 31.5934 3.11822 31.9124V34.4189C3.11822 34.738 3.38093 35 3.70074 35C4.02056 35 4.28327 34.738 4.28327 34.4189V31.9124C4.28327 31.5934 4.02056 31.3314 3.70074 31.3314Z" fill="var(--fill-0, #56B5B7)"/>
<path d="M37.9555 27.6514L34.8829 26.626C34.6088 26.5348 34.426 26.2842 34.426 25.9993V24.8372C35.5682 24.0511 36.3107 22.7409 36.3107 21.2598V20.861C36.7219 20.3711 36.9389 19.7673 36.9389 19.1292V18.7646C36.9389 16.7139 35.2713 15.0505 33.2153 15.0505H30.7025C28.6465 15.0505 26.9789 16.7139 26.9789 18.7646V19.1292C26.9789 19.7673 27.1959 20.3825 27.6071 20.861V21.2598C27.6071 22.6611 28.2696 23.903 29.2975 24.6891V25.8057C29.2975 25.8057 29.2176 25.7715 29.1719 25.7601L24.6488 24.2562C24.1234 24.0853 23.7579 23.584 23.7579 23.0257V20.7243C25.3684 19.6647 26.522 17.9557 26.819 15.9619C28.4637 14.6517 29.4118 12.7148 29.4118 10.6071C29.4118 7.67904 27.5614 5.17253 24.9572 4.19271C24.7744 3.04199 24.1919 1.99381 23.3124 1.23047C22.4101 0.444336 21.245 0 20.0343 0C18.8235 0 17.6699 0.432943 16.7561 1.23047C15.8766 1.99381 15.2941 3.05339 15.1114 4.19271C12.5071 5.17253 10.6568 7.67904 10.6568 10.6071C10.6568 12.7148 11.5934 14.6517 13.2381 15.9505C13.4437 17.4202 14.1176 18.776 15.1913 19.8356C15.534 20.1774 15.9109 20.485 16.3107 20.7357V23.0257C16.3107 23.584 15.9566 24.0739 15.4198 24.2562L10.8966 25.7601C10.8966 25.7601 10.7938 25.7943 10.7367 25.8171V24.7119C11.7875 23.9144 12.4614 22.6611 12.4614 21.2484V20.8496C12.8726 20.3597 13.0897 19.7559 13.0897 19.1178V18.7533C13.0897 16.7025 11.422 15.0391 9.36608 15.0391H6.85323C4.79726 15.0391 3.12964 16.7025 3.12964 18.7533V19.1178C3.12964 19.7559 3.34666 20.3711 3.75785 20.8496V21.2484C3.75785 22.7295 4.50029 24.0397 5.64249 24.8258V25.988C5.64249 26.2728 5.45974 26.5348 5.18561 26.6146L2.11308 27.64C0.845231 28.0615 0 29.235 0 30.568V34.3962C0 34.7152 0.262707 34.9772 0.582524 34.9772C0.902341 34.9772 1.16505 34.7152 1.16505 34.3962V30.568C1.16505 29.7363 1.69046 29.0072 2.47858 28.7451L4.66019 28.0159L8.77213 31.5365V34.3962C8.77213 34.7152 9.03484 34.9772 9.35465 34.9772C9.67447 34.9772 9.93718 34.7152 9.93718 34.3962V31.4453C9.97144 31.3428 9.97144 31.2288 9.93718 31.1263V28.6882C9.93718 27.8564 10.4626 27.1273 11.2507 26.8652L12.7127 26.3753L12.2444 27.3096C11.9817 27.8223 11.9817 28.4375 12.2444 28.9502L15.0999 34.6468C15.2027 34.8519 15.4083 34.9658 15.6254 34.9658C15.7167 34.9658 15.8081 34.943 15.8881 34.9089C16.1736 34.7607 16.2993 34.4076 16.1508 34.1227L13.2953 28.4261C13.2039 28.2438 13.2039 28.0159 13.2953 27.8337L14.2661 25.8854C14.2661 25.8854 14.2661 25.8626 14.2776 25.8512L15.7282 25.3727L17.5557 34.5101C17.6128 34.7835 17.8527 34.9772 18.1268 34.9772C18.161 34.9772 18.2067 34.9772 18.241 34.9658C18.5608 34.8975 18.7664 34.5898 18.6979 34.2822L17.076 26.193L19.6002 28.5628C19.7144 28.6654 19.8629 28.7223 20 28.7223C20.1371 28.7223 20.2855 28.6654 20.3998 28.5628L22.924 26.193L21.3021 34.2822C21.2336 34.6012 21.4392 34.9089 21.759 34.9658C21.7933 34.9658 21.8389 34.9772 21.8732 34.9772C22.1473 34.9772 22.3872 34.7835 22.4443 34.5101L24.2718 25.3727L25.7224 25.8512C25.7224 25.8512 25.7224 25.874 25.7339 25.8854L26.7047 27.8337C26.7961 28.0159 26.7961 28.2438 26.7047 28.4261L23.8492 34.1227C23.7007 34.4076 23.8264 34.7607 24.1119 34.9089C24.1919 34.9544 24.2833 34.9658 24.3746 34.9658C24.5917 34.9658 24.7973 34.8519 24.9001 34.6468L27.7556 28.9502C28.0183 28.4375 28.0183 27.8223 27.7556 27.3096L27.2873 26.3753L28.7493 26.8652C29.5374 27.1273 30.0628 27.8564 30.0628 28.6882V34.3962C30.0628 34.7152 30.3255 34.9772 30.6453 34.9772C30.9652 34.9772 31.2279 34.7152 31.2279 34.3962V31.5251L35.3398 28.0273L37.5214 28.7565C38.3095 29.0186 38.8349 29.7477 38.8349 30.5794V34.4076C38.8349 34.7266 39.0977 34.9886 39.4175 34.9886C39.7373 34.9886 40 34.7266 40 34.4076V30.5794C40 29.2464 39.1433 28.0729 37.8869 27.6514H37.9555ZM4.29469 18.7646C4.29469 17.3633 5.43689 16.224 6.8418 16.224H9.35465C10.7596 16.224 11.9018 17.3633 11.9018 18.7646V19.1292C11.9018 19.4255 11.8218 19.7103 11.6619 19.9609L6.39634 18.2064C6.22501 18.1494 6.03084 18.1722 5.88235 18.2747L4.29469 19.3229C4.29469 19.2546 4.28327 19.1862 4.28327 19.1178V18.7533L4.29469 18.7646ZM4.9229 21.2712V20.3369L6.30497 19.4141L11.285 21.0661V21.2712C11.285 23.0143 9.85722 24.4385 8.10965 24.4385C6.36208 24.4385 4.93432 23.0143 4.93432 21.2712H4.9229ZM5.91662 27.5716C6.46488 27.2412 6.80754 26.6488 6.80754 25.9993V25.4183C7.21873 25.5436 7.65277 25.612 8.09823 25.612C8.61222 25.612 9.09195 25.5208 9.54883 25.3613V26.6488C9.05768 27.207 8.76071 27.9248 8.76071 28.6995V30.0098L5.9052 27.5716H5.91662ZM28.2239 10.6299C28.2239 11.9971 27.7441 13.2731 26.8875 14.2871C26.8875 13.0225 25.9395 11.9743 24.6945 11.849L23.0497 11.5527C21.8161 11.3363 20.6625 10.9375 19.6116 10.3792C16.5049 8.70443 15.2484 6.15234 14.9743 5.5485C15.7396 5.17253 16.5962 4.95605 17.51 4.95605H22.5357C25.6768 4.95605 28.2239 7.49675 28.2239 10.6299ZM20.0228 1.19629C21.7019 1.19629 23.1753 2.31283 23.6551 3.8737C23.2895 3.81673 22.9126 3.78255 22.5243 3.78255H17.4986C17.1102 3.78255 16.7333 3.81673 16.3678 3.8737C16.8475 2.31283 18.321 1.19629 20 1.19629H20.0228ZM14.3347 15.0049V13.6491C14.3347 12.6579 14.723 11.735 15.4198 11.04C15.6482 10.8122 15.6482 10.4362 15.4198 10.2083C15.1913 9.98047 14.8144 9.98047 14.5859 10.2083C13.6608 11.1312 13.1582 12.3503 13.1582 13.6491V14.2871C12.3015 13.2731 11.8218 11.9971 11.8218 10.6299C11.8218 8.82975 12.667 7.22331 13.9806 6.18652C14.4146 7.13216 15.8424 9.67285 19.052 11.4046C20.2056 12.0312 21.4849 12.4642 22.8441 12.7035L24.5117 12.9997C24.5117 12.9997 24.546 12.9997 24.5574 12.9997C25.2085 13.0566 25.711 13.6263 25.711 14.2871V14.9365C25.711 18.0924 23.1639 20.6673 20.0457 20.6787C20.0457 20.6787 20.0343 20.6787 20.0228 20.6787C18.5037 20.6787 17.076 20.0863 16.0023 19.0267C14.9286 17.9557 14.3232 16.5316 14.3232 15.0049H14.3347ZM20.0228 27.3551L16.9846 24.5068C17.293 24.0967 17.4643 23.584 17.4643 23.0485V21.3737C18.2638 21.6927 19.1319 21.8636 20.0114 21.8636C20.0114 21.8636 20.0228 21.8636 20.0343 21.8636C20.9252 21.8636 21.7818 21.6813 22.5585 21.3623V23.0485C22.5585 23.584 22.7299 24.0967 23.0383 24.5068L20 27.3551H20.0228ZM28.1439 18.7646C28.1439 17.3633 29.2861 16.224 30.691 16.224H33.2039C34.6088 16.224 35.751 17.3633 35.751 18.7646V19.1292C35.751 19.4255 35.671 19.7103 35.5111 19.9609L30.2456 18.2064C30.0742 18.1494 29.8801 18.1722 29.7316 18.2747L28.1439 19.3229C28.1439 19.2546 28.1325 19.1862 28.1325 19.1178V18.7533L28.1439 18.7646ZM28.7721 21.2712V20.3369L30.1542 19.4141L35.1342 21.0661V21.2712C35.1342 23.0143 33.7065 24.4385 31.9589 24.4385C30.2113 24.4385 28.7835 23.0143 28.7835 21.2712H28.7721ZM30.4626 26.6146V25.3499C30.9309 25.5208 31.422 25.612 31.9475 25.612C32.3929 25.612 32.8384 25.5436 33.2381 25.4183V25.9993C33.2381 26.6488 33.5808 27.2412 34.1291 27.5716L31.2736 29.9984V28.7109C31.2736 27.9134 30.9652 27.1729 30.4512 26.6146H30.4626Z" fill="var(--fill-0, #56B5B7)"/>
<path d="M36.3449 31.3314C36.0251 31.3314 35.7624 31.5934 35.7624 31.9124V34.4189C35.7624 34.738 36.0251 35 36.3449 35C36.6648 35 36.9275 34.738 36.9275 34.4189V31.9124C36.9275 31.5934 36.6648 31.3314 36.3449 31.3314Z" fill="var(--fill-0, #56B5B7)"/>
</g>
</svg>
