<svg preserveAspectRatio="none" width="100%" height="100%" overflow="visible" style="display: block;" viewBox="0 0 40 30" fill="none" xmlns="http://www.w3.org/2000/svg">
<path id="Vector" d="M31.0798 13.193C30.844 13.4976 30.8983 13.9362 31.2015 14.173C31.7266 14.5837 32.4039 14.81 33.107 14.81C33.8115 14.81 34.4882 14.5837 35.0133 14.173C35.3165 13.9355 35.3707 13.4969 35.1343 13.1923C34.8978 12.8878 34.4597 12.834 34.1579 13.0708C33.5945 13.5115 32.6202 13.5122 32.0555 13.0708C31.7523 12.834 31.3162 12.8885 31.0798 13.193ZM0.0688677 18.2054C0.211435 18.7034 0.561248 19.1148 1.02929 19.3334L2.50712 20.0235L3.10939 23.4685C3.43903 25.3509 5.05874 26.7171 6.96149 26.7171H9.82328C10.1147 26.7171 10.3692 26.9253 10.429 27.2116L10.8908 29.444C10.9576 29.7681 11.242 30 11.5716 30H28.428C28.7577 30 29.0421 29.7674 29.1089 29.444L29.5706 27.2116C29.6298 26.9246 29.885 26.7171 30.1764 26.7171H33.0382C34.9409 26.7171 36.5606 25.3509 36.8903 23.4692L37.4925 20.0235L38.9704 19.3334C39.4384 19.1148 39.7882 18.7034 39.9308 18.2054C40.0734 17.7066 39.9934 17.1716 39.7117 16.7364L37.5663 13.4249V11.9197C37.5663 5.34692 32.2419 0 25.6977 0H24.932C23.1878 0 21.5124 0.382072 19.9922 1.06938C18.4365 0.368103 16.7848 0 15.0684 0H14.3027C7.75848 0 2.4341 5.34761 2.4341 11.9197V13.4249L0.288632 16.7364C0.00627833 17.1709 -0.0730045 17.7066 0.0688677 18.2054ZM17.9663 21.2347L15.816 17.685C14.3089 15.197 13.8743 12.1565 14.6233 9.34366C15.414 6.37649 17.41 3.97998 19.9929 2.62142C22.6426 4.01001 24.5996 6.43586 25.3743 9.34366C26.124 12.1565 25.6893 15.197 24.1816 17.685L22.0313 21.2347C21.1578 22.6771 20.865 24.3814 21.2064 26.034L21.7385 28.6037H18.2591L18.7911 26.034C19.1326 24.3814 18.8398 22.6771 17.9663 21.2347ZM27.8619 28.6037H23.1586L22.5681 25.7497C22.2983 24.4449 22.5292 23.0997 23.2198 21.9611L25.3701 18.4114C27.074 15.5993 27.565 12.1627 26.7179 8.98254C25.939 6.05728 24.103 3.56089 21.5987 1.939C22.6551 1.58906 23.7761 1.39628 24.932 1.39628H25.6977C31.4755 1.39628 36.1754 6.11665 36.1754 11.919V13.6317C36.1754 13.7672 36.2143 13.8992 36.288 14.0123L38.5462 17.4978C38.631 17.6284 38.6122 17.7555 38.5941 17.8191C38.5761 17.8827 38.5239 18.0007 38.3841 18.0664L36.578 18.9101C36.3722 19.0065 36.2261 19.1979 36.1865 19.4228L35.5209 23.2268C35.3088 24.4393 34.2643 25.3201 33.0389 25.3201H30.1771C29.2299 25.3201 28.4023 25.9963 28.2097 26.9274L27.8619 28.6037ZM1.45421 17.4985L3.71234 14.013C3.78537 13.8999 3.82501 13.7672 3.82501 13.6324V11.9197C3.82501 6.11735 8.52487 1.39697 14.3027 1.39697H15.0684C16.2138 1.39697 17.3258 1.58487 18.3947 1.939C15.9405 3.53085 14.0732 6.00419 13.2797 8.98394C12.4326 12.1634 12.9236 15.6 14.6275 18.4128L16.7778 21.9625C17.4677 23.101 17.6993 24.4463 17.4294 25.7511L16.839 28.6051H12.1384L11.7914 26.9288C11.5988 25.9977 10.7712 25.3215 9.82398 25.3215H6.96219C5.73611 25.3215 4.69223 24.4414 4.48012 23.2282L3.81457 19.4249C3.77493 19.2 3.62889 19.0086 3.42304 18.9122L1.61695 18.0685C1.47646 18.0028 1.425 17.8855 1.40692 17.8212C1.38884 17.7569 1.36936 17.6284 1.45421 17.4985ZM5.84182 13.0708C6.40583 13.5115 7.37946 13.5122 7.94417 13.0708C8.24739 12.834 8.68413 12.8878 8.91989 13.193C9.15565 13.4976 9.1014 13.9362 8.79819 14.173C8.27312 14.5837 7.59575 14.81 6.89265 14.81C6.18815 14.81 5.51148 14.5837 4.98641 14.173C4.68319 13.9355 4.62895 13.4969 4.8654 13.1923C5.10255 12.8878 5.53929 12.834 5.84182 13.0708Z" fill="var(--fill-0, #0D3442)"/>
</svg>
