<svg preserveAspectRatio="none" width="100%" height="100%" overflow="visible" style="display: block;" viewBox="0 0 40 35" fill="none" xmlns="http://www.w3.org/2000/svg">
<g id="Vector">
<path d="M34.447 34.1872C35.0291 33.8357 35.8862 33.4842 36.5039 33.2906C38.5414 32.7295 39.1624 31.4845 39.3241 30.5363C39.4405 29.8493 39.3208 29.1204 38.978 28.4238C38.0918 26.6274 39.2626 24.5761 39.2755 24.5568C39.3629 24.4052 39.3435 24.2117 39.227 24.0794L36.9373 21.5218C36.7885 21.3541 36.5298 21.3412 36.3648 21.4864C36.2743 21.567 35.857 21.8476 34.3047 22.1508C33.6966 22.2701 33.0886 22.2862 32.4935 22.2056C32.0246 22.1411 31.6332 22.0508 31.3131 21.9347L30.6436 19.5254C31.1966 19.748 31.8758 19.7222 32.3545 19.4835C33.3635 19.0223 33.8519 17.887 33.4864 16.8453L30.967 9.50793C30.7536 8.88868 30.1714 8.47586 29.5149 8.47586H22.3609C21.7044 8.47586 21.1223 8.89191 20.9088 9.50793L18.3829 16.8485C18.0304 17.8935 18.5188 19.0255 19.5116 19.4803C19.7962 19.6157 20.0938 19.6835 20.4237 19.6835C20.718 19.6835 21.0026 19.6157 21.2646 19.5029L19.3532 26.3822C19.3208 26.5048 19.3435 26.637 19.4211 26.737C19.4987 26.837 19.6184 26.8983 19.7445 26.8983H21.8079V32.494C21.8079 33.1455 22.0602 33.7389 22.4741 34.1872H13.4638C13.9424 33.6809 14.2173 33.0068 14.2173 32.3134V24.9212H16.022C17.196 24.9212 18.1501 23.9698 18.1501 22.799V14.9779C18.1501 11.6237 15.414 8.89513 12.0505 8.89513H6.90168C3.53816 8.89513 0.80207 11.6237 0.80207 14.9779V22.799C0.80207 23.9698 1.75614 24.9212 2.93014 24.9212H4.7348V32.436C4.7348 33.0971 4.98706 33.7164 5.43984 34.1872H3.47671C3.25032 34.1872 3.06921 34.3679 3.06921 34.5936C3.06921 34.8194 3.25356 35 3.47671 35H39.5925C39.8189 35 40 34.8194 40 34.5936C40 34.3679 39.8189 34.1872 39.5925 34.1872H34.447ZM27.9884 28.4818C27.6455 29.1785 27.5259 29.9074 27.6423 30.5944C27.7911 31.4748 28.3409 32.6166 30.055 33.2197C29.7801 33.7938 29.1915 34.1872 28.5285 34.1872C27.5938 34.1872 26.8305 33.4261 26.8305 32.494V26.8983H28.315C28.3279 27.4111 28.2471 27.9561 27.9884 28.4818ZM26.423 33.8583C26.5006 33.9744 26.588 34.084 26.6818 34.1872H26.1643C26.2581 34.084 26.3454 33.9744 26.423 33.8583ZM30.8409 33.4713C31.381 33.6583 32.0052 33.9196 32.4612 34.1872H30.3719C30.566 33.9776 30.7244 33.7357 30.8376 33.4713H30.8409ZM34.4567 22.9538C35.6339 22.7248 36.2387 22.4959 36.5589 22.3281L38.425 24.4116C38.0918 25.0986 37.3577 26.9918 38.2406 28.7818C38.5091 29.3236 38.6028 29.8816 38.5155 30.3976C38.3376 31.4361 37.5873 32.1425 36.271 32.5069C35.8959 32.6262 34.2594 33.1681 33.4573 33.9067C32.6617 33.181 31.0511 32.6746 30.6759 32.5617C29.3726 32.2037 28.6222 31.4942 28.4444 30.4557C28.357 29.9396 28.4508 29.3785 28.7193 28.8398C29.6022 27.0499 28.868 25.1599 28.5349 24.4697L30.3913 22.3991C30.5175 22.4765 30.6533 22.5475 30.8053 22.612C30.8247 22.6216 30.8441 22.6281 30.8635 22.6345C31.2775 22.8055 31.7755 22.9345 32.3739 23.0151C33.0563 23.1086 33.7581 23.0893 34.4534 22.9506L34.4567 22.9538ZM22.4741 18.1741C22.4741 18.1741 22.4741 18.1708 22.4741 18.1676C22.4741 18.1676 22.4741 18.1676 22.4741 18.1644C22.4741 18.1579 22.4871 18.1225 22.4871 18.116L23.9554 12.8202C24.0168 12.6041 23.8875 12.3784 23.6708 12.3203C23.4573 12.2623 23.2277 12.388 23.1695 12.6041L21.6979 17.9096C21.6979 17.9096 21.6915 17.9322 21.6882 17.9483C21.5136 18.4934 20.9896 18.8739 20.414 18.8739C20.2102 18.8739 20.0259 18.8352 19.8512 18.7482C19.2335 18.4643 18.9295 17.7612 19.1494 17.113L21.6753 9.77239C21.7755 9.48535 22.0472 9.29184 22.3545 9.29184H29.5084C29.8157 9.29184 30.0873 9.48535 30.1876 9.77239L32.707 17.113C32.9334 17.758 32.6326 18.4611 31.9955 18.7514C31.837 18.832 31.6527 18.8707 31.4424 18.8707C30.9347 18.8707 30.4689 18.5804 30.2458 18.1321L28.7096 12.6041C28.6481 12.388 28.425 12.259 28.2083 12.3203C27.9916 12.3784 27.8622 12.6041 27.9237 12.8202L29.3726 18.1096C29.4017 18.2192 29.4405 18.3257 29.4858 18.4289L30.3266 21.4509C30.2167 21.4509 30.11 21.496 30.0323 21.5831L27.7426 24.1407C27.6261 24.2729 27.6067 24.4632 27.694 24.618C27.7005 24.6277 28.0466 25.2437 28.2212 26.0855H20.2749L22.4741 18.1773V18.1741ZM22.6197 32.494V26.8983H26.0155V32.494C26.0155 33.4261 25.2555 34.1872 24.3176 34.1872C23.3797 34.1872 22.6197 33.4261 22.6197 32.494ZM9.47283 33.8196C9.55692 33.9518 9.65718 34.0711 9.77037 34.1872H9.17852C9.28525 34.0744 9.38874 33.9518 9.47283 33.8196ZM6.06727 33.668C5.73415 33.339 5.54981 32.9004 5.54981 32.436V18.1418C5.54981 17.9161 5.36546 17.7354 5.1423 17.7354C4.91915 17.7354 4.7348 17.9161 4.7348 18.1418V24.1085H2.93014C2.20569 24.1085 1.61708 23.5215 1.61708 22.799V14.9779C1.61708 12.072 3.98771 9.71111 6.89845 9.71111H12.0472C14.9612 9.71111 17.3286 12.0752 17.3286 14.9779V22.799C17.3286 23.5215 16.74 24.1085 16.0155 24.1085H14.2109V18.0257C14.2109 17.7999 14.0265 17.6193 13.8034 17.6193C13.5802 17.6193 13.3959 17.7999 13.3959 18.0257V32.3134C13.3959 33.3293 12.5582 34.2292 11.5686 34.1872C11.1287 34.1711 10.7115 33.9873 10.3978 33.668C10.0647 33.339 9.88034 32.9004 9.88034 32.436V24.3987C9.88034 24.173 9.69599 23.9924 9.47283 23.9924C9.24968 23.9924 9.06533 24.173 9.06533 24.3987V32.436C9.06533 33.4035 8.2762 34.1872 7.30918 34.1872C6.84023 34.1872 6.40039 34.0034 6.06727 33.668Z" fill="var(--fill-0, #CEA36F)"/>
<path d="M1.89845 34.1872H0.407503C0.181113 34.1872 0 34.3679 0 34.5936C0 34.8194 0.184347 35 0.407503 35H1.89845C2.12484 35 2.30595 34.8194 2.30595 34.5936C2.30595 34.3679 2.1216 34.1872 1.89845 34.1872Z" fill="var(--fill-0, #CEA36F)"/>
<path d="M25.9314 7.58892C28.0304 7.58892 29.7348 5.88601 29.7348 3.79607C29.7348 1.70614 28.0272 0 25.9314 0C23.8357 0 22.1281 1.70291 22.1281 3.79285C22.1281 5.88279 23.8357 7.5857 25.9314 7.5857V7.58892ZM25.9314 0.812753C27.5776 0.812753 28.9198 2.14799 28.9198 3.79285C28.9198 5.43771 27.5809 6.77295 25.9314 6.77295C24.282 6.77295 22.9431 5.43771 22.9431 3.79285C22.9431 2.14799 24.282 0.812753 25.9314 0.812753Z" fill="var(--fill-0, #CEA36F)"/>
<path d="M13.4799 3.99604C13.4799 1.79322 11.6818 0 9.47283 0C7.26391 0 5.46572 1.79322 5.46572 3.99604C5.46572 6.19886 7.26391 7.99208 9.47283 7.99208C11.6818 7.99208 13.4799 6.19886 13.4799 3.99604ZM6.28396 3.99604C6.28396 2.24152 7.71669 0.815979 9.47283 0.815979C11.229 0.815979 12.6617 2.24475 12.6617 3.99604C12.6617 5.74733 11.2322 7.17932 9.47283 7.17932C7.71345 7.17932 6.28396 5.75055 6.28396 3.99604Z" fill="var(--fill-0, #CEA36F)"/>
<path d="M30.8668 29.0269L31.9955 30.1525C32.1928 30.3492 32.5097 30.3492 32.707 30.1525L36.0996 26.7693C36.2969 26.5725 36.2969 26.2565 36.0996 26.0597C35.9023 25.863 35.5854 25.863 35.3881 26.0597L32.3512 29.0882L31.5783 28.3174C31.381 28.1206 31.064 28.1206 30.8668 28.3174C30.6695 28.5141 30.6695 28.8302 30.8668 29.0269Z" fill="var(--fill-0, #CEA36F)"/>
</g>
</svg>
