<svg viewBox="0 0 68 44" fill="none" xmlns="http://www.w3.org/2000/svg">
<path d="M19.8604 43.996H19.8644C21.398 43.996 25.4849 43.7953 30.3305 41.9128C36.0353 39.7011 43.9963 34.6477 49.5325 23.152C51.5518 18.9615 53.9686 15.1082 56.9274 11.3713C58.1599 9.8139 59.5209 8.61777 60.9661 7.815C62.9213 6.73125 65.8921 6.24558 67.1848 6.07699C66.2855 5.26218 64.1899 3.44791 62.034 2.15946C60.6811 1.35267 57.923 0 54.6592 0C50.0985 0 46.1281 1.69787 42.5229 5.18993C41.166 6.50648 39.5923 8.57763 37.7736 10.9779L37.5488 11.2749L37.2959 11.01C37.1192 10.7893 36.9346 10.5725 36.7379 10.3598C28.4798 1.4771 3.00696 4.06203 1.92702 4.17442L0 4.37913L0.738691 6.16931C5.56427 17.8657 16.7611 29.526 22.0965 28.4342C27.6728 27.3184 32.6269 22 35.8667 18.0985L36.509 17.3238L36.3765 18.3233C36.3525 18.4879 36.3284 18.6564 36.2962 18.829C33.5061 34.1259 20.1133 40.5039 18.5958 41.1783C17.3552 41.7723 14.5289 42.9042 12.9391 43.5344C14.7939 43.703 18.2746 44 19.7319 44C19.7761 44 19.8162 44 19.8563 44L19.8604 43.996ZM35.5214 13.908C31.4506 19.114 26.6049 24.5769 21.5304 25.5924C21.4502 25.6085 21.3658 25.6165 21.2735 25.6165C18.375 25.6165 9.43437 17.8015 4.40003 7.26911L4.21536 6.88378L4.64091 6.85568C8.54714 6.59077 28.3553 5.60336 34.6021 12.3386C34.9674 12.732 35.2846 13.1534 35.5415 13.5869L35.6419 13.7555L35.5214 13.9121V13.908ZM26.7856 39.5125C31.4145 35.8639 37.32 29.4056 39.1547 19.3468C39.4839 17.5446 39.4317 15.8588 39.0021 14.3375L38.962 14.197L40.074 12.732C41.8204 10.428 43.3299 8.44116 44.5343 7.27313C47.5733 4.33096 50.8814 2.90203 54.6551 2.90203C56.3573 2.90203 58.2161 3.42383 60.1753 4.45539L60.6771 4.72031L60.1712 4.97318C58.1198 5.9927 56.265 7.54205 54.6551 9.57307C51.5639 13.4745 49.0347 17.5045 46.923 21.8956C41.2342 33.7125 32.9762 38.2722 27.0506 40.0182L25.6093 40.4437L26.7896 39.5125H26.7856Z" fill="#CEA36F"/>
</svg>
