<svg preserveAspectRatio="none" width="100%" height="100%" overflow="visible" style="display: block;" viewBox="0 0 155 28" fill="none" xmlns="http://www.w3.org/2000/svg">
<path id="Aetna" d="M70.6671 18.3573C77.9002 18.3573 81.6188 16.2402 81.6188 11.6939C81.6188 7.77144 78.5453 5.14969 71.8812 5.14969C63.8205 5.14969 60.5919 8.49407 59.8433 14.5084C58.6537 14.4348 57.3932 14.412 55.6319 14.412V13.4384C55.6319 7.35307 52.9097 5.13701 45.7147 5.13701C42.1757 5.13701 39.075 5.61876 37.1885 6.34139L37.4607 11.1995C39.1132 10.383 41.5659 9.58942 43.918 9.58942C47.2228 9.58942 48.2328 10.8572 48.2328 13.8998V14.3562H47.0949C38.8818 14.3562 35.057 16.6661 35.057 20.974C35.057 25.4011 37.4335 27.9975 44.1766 27.9975C47.7155 27.9975 51.2273 27.5411 55.749 27.5411C55.4114 25.7662 55.4114 23.2104 55.4114 21.4558C55.4114 20.543 55.4632 19.4273 55.5149 18.1596C57.4531 18.1849 58.8742 18.2331 59.8025 18.2559C60.5021 25.3782 64.4521 28 72.7197 28C75.7659 28 78.8421 27.5208 80.4673 26.821L80.195 21.9629C78.2825 22.9798 76.1197 23.5179 73.9175 23.5248C69.864 23.5248 67.6562 21.5521 67.6562 18.4537V18.3092C68.3667 18.332 69.815 18.3573 70.6671 18.3573ZM45.9461 23.7454C43.4416 23.7454 42.3826 22.9847 42.3826 21.0044C42.3826 19.1281 43.7437 18.0455 47.1602 18.0455C47.4705 18.0455 47.8571 18.0455 48.1429 18.0683C48.1157 19.8964 48.0912 22.0136 48.1947 23.4817C47.4604 23.6591 46.7046 23.7477 45.9461 23.7454ZM67.6181 14.6047V14.483C67.6181 11.4404 68.6526 9.19134 71.6743 9.19134C73.3785 9.19134 74.4647 10.0331 74.4647 11.524C74.4647 13.6412 72.9402 14.6275 69.7878 14.6275C69.0647 14.6578 68.3403 14.6502 67.6181 14.6047ZM96.4443 23.1444C94.0188 23.1444 93.3191 22.2545 93.3191 18.9836V10.5149H98.0995V5.83175H93.3981C93.3981 4.1735 93.526 1.7191 93.6703 0H89.2657C88.6695 4.11519 87.4036 6.23236 83.3747 6.84597C83.3502 7.954 83.4264 9.47025 83.3747 10.5048H86.0616C86.0098 12.8375 85.9336 17.0972 85.9336 20.9943C85.9336 25.9487 88.6967 27.9696 93.8636 27.9696C95.5414 27.9959 97.216 27.8256 98.8481 27.4625L98.5459 22.6399C97.9043 22.9751 97.18 23.149 96.4443 23.1444ZM146.842 13.4384C146.842 7.35307 144.12 5.13701 136.922 5.13701C133.383 5.13701 130.285 5.61876 128.398 6.34139L128.671 11.1995C130.326 10.383 132.779 9.58942 135.131 9.58942C138.435 9.58942 139.443 10.8572 139.443 13.8998V14.3562H138.318C130.078 14.3562 126.28 16.6661 126.28 20.974C126.28 25.4011 128.657 27.9975 135.397 27.9975C138.936 27.9975 142.451 27.5411 146.97 27.5411C146.635 25.7662 146.635 23.2104 146.635 21.4558C146.635 19.4628 146.842 16.6737 146.842 13.4384ZM137.156 23.758C134.649 23.758 133.59 22.9974 133.59 21.0171C133.59 19.1408 134.951 18.0581 138.37 18.0581C138.678 18.0581 139.067 18.0581 139.35 18.081C139.35 19.9091 139.298 22.0263 139.402 23.4943C138.668 23.6675 137.913 23.7518 137.156 23.7454V23.758ZM123.272 17.4065C123.272 15.5784 123.324 13.124 123.324 13.124C123.324 7.61424 120.741 5.16237 113.407 5.16237C109.299 5.16237 106.353 5.83428 101.783 5.83428C102.039 9.68324 102.039 14.4729 102.039 17.4319C102.066 20.439 101.938 25.827 101.783 27.574H109.661C109.479 25.8397 109.323 20.8371 109.351 17.4445C109.351 15.5201 109.375 13.1848 109.454 10.0915C110.381 9.79795 111.352 9.64389 112.332 9.63506C115.095 9.63506 115.969 10.8268 115.969 14.1458C115.969 14.1458 116.02 16.2148 116.02 17.442C116.02 20.4492 115.917 25.8397 115.762 27.5715H123.645C123.414 25.7662 123.259 20.7636 123.283 17.3938L123.272 17.4065ZM25.7713 4.16336C25.0654 3.50593 24.1098 3.13421 23.1116 3.12886C22.6164 3.12575 22.1255 3.21578 21.6685 3.39353C21.2115 3.57129 20.7977 3.83313 20.4519 4.16336L16.1126 8.22023L11.757 4.16336C11.4089 3.83563 10.9945 3.57546 10.5377 3.39789C10.0809 3.22033 9.59091 3.1289 9.09596 3.1289C8.601 3.1289 8.11097 3.22033 7.6542 3.39789C7.19744 3.57546 6.78302 3.83563 6.43493 4.16336L1.10471 9.09499C0.754564 9.41985 0.476734 9.80591 0.28716 10.231C0.0975865 10.6561 0 11.1119 0 11.5722C0 12.0325 0.0975865 12.4883 0.28716 12.9134C0.476734 13.3385 0.754564 13.7246 1.10471 14.0494L16.0772 27.9949L31.0498 14.0494C31.3993 13.7242 31.6765 13.3381 31.8657 12.913C32.0548 12.488 32.1522 12.0323 32.1522 11.5722C32.1522 11.1121 32.0548 10.6565 31.8657 10.2314C31.6765 9.80636 31.3993 9.42019 31.0498 9.09499L25.7713 4.16336ZM153.092 6.39971C153.092 5.65426 152.602 5.33985 151.671 5.33985H150.174V8.97329H150.814V7.41139H151.407L152.414 8.97329H153.138L152.05 7.36322C152.678 7.31504 153.092 7.04881 153.092 6.39971ZM150.814 6.92964V5.86978H151.589C151.976 5.86978 152.442 5.91796 152.442 6.35153C152.442 6.88146 152.028 6.92964 151.538 6.92964H150.814ZM151.538 3.82613C151.074 3.82157 150.614 3.90407 150.185 4.06872C149.757 4.23336 149.368 4.47677 149.043 4.78442C148.717 5.09207 148.461 5.45765 148.291 5.85933C148.121 6.26101 148.039 6.69056 148.051 7.12234C148.051 8.99864 149.496 10.4185 151.538 10.4185C152.001 10.4243 152.46 10.3424 152.888 10.1779C153.315 10.0133 153.703 9.76954 154.026 9.46129C154.35 9.15304 154.603 8.78677 154.77 8.3847C154.937 7.98263 155.014 7.55316 154.998 7.12234C154.979 5.12433 153.378 3.82613 151.543 3.82613H151.538ZM151.538 9.81509C149.858 9.81509 148.816 8.58788 148.816 7.09698C148.816 5.48438 150.002 4.37888 151.538 4.37888C153.073 4.37888 154.225 5.50973 154.225 7.09698C154.225 8.68423 153.04 9.81509 151.543 9.81509H151.538Z" fill="var(--fill-0, #7D3F98)"/>
</svg>
