<svg preserveAspectRatio="none" width="100%" height="100%" overflow="visible" style="display: block;" viewBox="0 0 202 30" fill="none" xmlns="http://www.w3.org/2000/svg">
<g id="Vector">
<path d="M139.665 27.9232C139.672 28.1326 139.636 28.3413 139.558 28.5365C139.481 28.7318 139.364 28.9095 139.214 29.0589C139.065 29.2082 138.886 29.3262 138.689 29.4055C138.491 29.4847 138.28 29.5237 138.066 29.5201C137.853 29.5224 137.641 29.4827 137.444 29.4031C137.246 29.3235 137.067 29.2058 136.917 29.0568C136.766 28.9079 136.648 28.7308 136.568 28.5361C136.489 28.3413 136.45 28.1329 136.455 27.9232C136.443 27.7091 136.476 27.495 136.552 27.2938C136.627 27.0926 136.743 26.9087 136.894 26.7532C137.044 26.5976 137.225 26.4738 137.425 26.3891C137.626 26.3045 137.841 26.2608 138.06 26.2608C138.278 26.2608 138.494 26.3045 138.694 26.3891C138.895 26.4738 139.076 26.5976 139.226 26.7532C139.376 26.9087 139.492 27.0926 139.568 27.2938C139.643 27.495 139.676 27.7091 139.665 27.9232ZM136.756 27.9232C136.756 28.2704 136.897 28.6033 137.147 28.8487C137.396 29.0942 137.735 29.2321 138.089 29.2321C138.262 29.2322 138.434 29.1981 138.594 29.132C138.754 29.0658 138.898 28.9689 139.02 28.847C139.141 28.725 139.236 28.5804 139.3 28.4218C139.363 28.2632 139.394 28.0936 139.389 27.9232C139.389 27.5801 139.251 27.2511 139.004 27.0085C138.757 26.7659 138.422 26.6296 138.073 26.6296C137.724 26.6296 137.389 26.7659 137.142 27.0085C136.895 27.2511 136.756 27.5801 136.756 27.9232ZM138.089 27.0506C138.346 27.0506 138.741 27.1204 138.741 27.548C138.742 27.6089 138.731 27.6694 138.708 27.726C138.685 27.7826 138.651 27.8341 138.608 27.8776C138.564 27.9211 138.513 27.9556 138.456 27.9791C138.398 28.0027 138.337 28.0148 138.275 28.0148L138.848 28.7653H138.475L137.924 28.0323H137.756V28.7653H137.431V27.0506H138.089ZM137.76 27.3211V27.7836H138.089C138.262 27.7836 138.422 27.7531 138.422 27.548C138.422 27.3429 138.262 27.3211 138.089 27.3211H137.76ZM171.092 27.9232C171.099 28.1326 171.063 28.3413 170.986 28.5365C170.908 28.7318 170.791 28.9095 170.642 29.0589C170.492 29.2082 170.313 29.3262 170.116 29.4055C169.919 29.4847 169.707 29.5237 169.494 29.5201C169.28 29.5224 169.068 29.4827 168.871 29.4031C168.673 29.3235 168.494 29.2058 168.344 29.0568C168.194 28.9079 168.075 28.7308 167.996 28.5361C167.916 28.3413 167.878 28.1329 167.882 27.9232C167.87 27.7091 167.903 27.495 167.979 27.2938C168.054 27.0926 168.171 26.9087 168.321 26.7532C168.471 26.5976 168.652 26.4738 168.852 26.3891C169.053 26.3045 169.269 26.2608 169.487 26.2608C169.705 26.2608 169.921 26.3045 170.122 26.3891C170.322 26.4738 170.503 26.5976 170.653 26.7532C170.803 26.9087 170.92 27.0926 170.995 27.2938C171.071 27.495 171.104 27.7091 171.092 27.9232ZM168.193 27.9232C168.193 28.2651 168.329 28.5935 168.572 28.8381C168.815 29.0827 169.146 29.2241 169.494 29.2321C169.667 29.2322 169.839 29.1981 169.999 29.132C170.159 29.0658 170.304 28.9689 170.425 28.847C170.546 28.725 170.641 28.5804 170.705 28.4218C170.768 28.2632 170.799 28.0936 170.795 27.9232C170.795 27.5842 170.658 27.259 170.414 27.0193C170.17 26.7795 169.839 26.6449 169.494 26.6449C169.149 26.6449 168.818 26.7795 168.574 27.0193C168.33 27.259 168.193 27.5842 168.193 27.9232ZM168.872 27.0506H169.529C169.787 27.0506 170.182 27.1204 170.182 27.548C170.183 27.6093 170.172 27.6701 170.149 27.727C170.125 27.7839 170.091 27.8356 170.047 27.8792C170.003 27.9227 169.951 27.9571 169.893 27.9804C169.835 28.0037 169.774 28.0154 169.711 28.0148L170.288 28.7653H169.911L169.365 28.0323H169.196V28.7653H168.872V27.0506ZM169.196 27.3211V27.7836H169.516C169.689 27.7836 169.844 27.7531 169.844 27.548C169.844 27.3429 169.689 27.3211 169.516 27.3211H169.196ZM199.087 27.9232C199.095 28.1328 199.059 28.3417 198.982 28.5373C198.905 28.7328 198.788 28.9107 198.638 29.0603C198.489 29.2098 198.31 29.3277 198.112 29.4067C197.914 29.4858 197.702 29.5244 197.489 29.5201C197.276 29.5219 197.064 29.4816 196.867 29.4018C196.67 29.322 196.492 29.2041 196.342 29.0553C196.192 28.9064 196.074 28.7295 195.995 28.5351C195.916 28.3406 195.877 28.1326 195.881 27.9232C195.881 27.5055 196.05 27.1049 196.351 26.8095C196.652 26.5141 197.059 26.3482 197.484 26.3482C197.909 26.3482 198.317 26.5141 198.618 26.8095C198.918 27.1049 199.087 27.5055 199.087 27.9232ZM196.188 27.9232C196.188 28.2651 196.324 28.5935 196.567 28.8381C196.81 29.0827 197.141 29.2241 197.489 29.2321C197.662 29.2328 197.834 29.1991 197.995 29.1332C198.155 29.0672 198.3 28.9704 198.421 28.8483C198.543 28.7262 198.638 28.5814 198.701 28.4225C198.764 28.2636 198.795 28.0938 198.79 27.9232C198.79 27.5842 198.653 27.259 198.409 27.0193C198.165 26.7795 197.834 26.6449 197.489 26.6449C197.144 26.6449 196.813 26.7795 196.569 27.0193C196.325 27.259 196.188 27.5842 196.188 27.9232ZM196.867 27.0506H197.529C197.782 27.0506 198.181 27.1204 198.181 27.548C198.182 27.6091 198.17 27.6697 198.147 27.7263C198.124 27.7829 198.089 27.8344 198.045 27.8778C198.001 27.9212 197.949 27.9557 197.892 27.9792C197.835 28.0027 197.773 28.0148 197.711 28.0148L198.284 28.7653H197.911L197.364 28.0105H197.191V28.7435H196.867V27.0506ZM197.191 27.3211V27.7836H197.515C197.684 27.7836 197.844 27.7531 197.844 27.548C197.844 27.3429 197.684 27.3211 197.515 27.3211H197.191Z" fill="var(--fill-0, #1355E9)"/>
<path d="M198.381 4.32373C196.787 5.1527 193.399 5.63263 190.163 5.63263C186.926 5.63263 183.538 5.16143 181.944 4.32373C181.362 5.19633 181.247 7.40838 181.296 9.05759C181.549 17.5611 185.523 21.7321 186.082 22.3997C186.841 23.3072 189.656 25.8901 190.167 26.0166C190.678 25.8857 193.493 23.3072 194.248 22.3997C194.807 21.7321 198.785 17.5611 199.038 9.05323C199.087 7.40838 198.967 5.18325 198.386 4.31937L198.381 4.32373ZM189.124 23.5602C189.11 23.5843 189.088 23.6023 189.062 23.6104C189.035 23.6186 189.006 23.6162 188.981 23.6038C188.813 23.5122 188.786 23.1675 188.786 23.0759C188.784 22.8422 188.845 22.6121 188.964 22.4096C189.082 22.207 189.254 22.0394 189.461 21.9241V22.7312C189.221 22.9494 189.248 23.377 189.124 23.5602ZM190.482 22.4564C190.482 23.3551 190.393 24.2016 190.389 24.267C190.277 24.3151 190.154 24.337 190.032 24.3309C189.909 24.3249 189.79 24.2911 189.683 24.2321C189.683 24.1143 189.683 23.4599 189.652 22.9232C189.621 22.3866 189.603 21.466 189.572 20.7024C189.671 20.7371 189.772 20.7662 189.874 20.7897C190.067 20.8442 190.239 20.9553 190.367 21.1082C190.531 21.2696 190.482 22.0899 190.482 22.4564ZM190.66 22.3429V21.3525C190.663 21.2575 190.645 21.163 190.608 21.0751C190.572 20.9872 190.517 20.9078 190.447 20.8421C190.314 20.7238 190.164 20.6253 190.003 20.5497C189.834 20.4735 189.657 20.4178 189.474 20.3839C187.37 19.8691 187.889 17.9232 189.177 17.9145C189.177 18.0846 189.217 18.2504 189.217 18.3944C189.217 18.5384 189.257 18.726 189.266 18.9572C188.946 19.123 189.195 19.1536 189.341 19.2059C189.488 19.2583 189.892 19.4546 190.114 19.5462C190.336 19.6379 190.66 19.7557 190.802 19.8168C191.996 20.3185 191.876 21.7234 190.664 22.3429H190.66ZM190.544 18.2373C190.544 18.5428 190.544 18.534 190.544 18.8307C190.544 18.9921 190.544 19.3194 190.544 19.4677C190.351 19.42 190.162 19.3558 189.981 19.2757C189.797 19.1891 189.62 19.0884 189.452 18.9747C189.452 18.9267 189.452 18.7347 189.452 18.6955V18.3464L189.421 17.9101C189.421 17.7792 189.399 17.356 189.421 17.2033C189.612 17.2033 189.714 17.2426 189.941 17.2644C190.153 17.2642 190.365 17.2788 190.575 17.308C190.575 17.3691 190.575 17.6178 190.575 17.7007C190.575 17.8621 190.544 18.0803 190.544 18.2417V18.2373ZM190.744 18.918C190.744 18.6606 190.744 18.3857 190.784 18.1108C190.78 17.9919 190.799 17.8732 190.842 17.7618C190.993 17.6003 191.286 17.5393 191.077 17.2251C190.953 17.0462 190.491 17.0899 190.074 17.0462C189.682 17.0215 189.292 16.972 188.906 16.8979C187.223 16.5794 187.348 14.4764 188.435 14.0663L188.764 14.856L189.057 15.5148C189.523 15.5454 189.692 15.5148 190.256 15.6065C190.349 15.6065 190.522 15.6544 190.842 15.7199C193.097 16.1911 192.565 18.7609 190.749 18.918H190.744ZM188.524 13.6518L189.061 12.8098L190.562 12.9232V15.4232L189.23 15.301L188.862 14.4852L188.524 13.6518ZM190.877 15.1614C190.758 14.6377 190.729 14.0977 190.793 13.5646C191.49 13.4948 190.984 12.7705 190.793 12.7356C190.518 12.6876 190.3 12.6876 189.834 12.644C189.537 12.6134 189.026 12.5785 188.764 12.5436C184.279 11.9721 184.937 8.00175 187.117 7.64834C188.702 7.39092 189.559 7.98429 189.83 8.61693C189.571 8.7334 189.288 8.79012 189.004 8.78272C188.618 8.73136 188.228 8.72258 187.84 8.75654C188.085 8.97469 188.884 9.10122 189.212 9.38045C188.835 9.51702 188.427 9.5502 188.031 9.47644C187.694 9.43732 187.363 9.35821 187.046 9.24084C186.921 9.63787 186.655 10.4843 188.653 10.8813C188.977 10.9614 189.307 11.0212 189.639 11.0602C189.984 11.0955 190.327 11.1538 190.664 11.2347C190.798 11.2696 190.913 11.3133 191.037 11.3394C193.848 12.0157 192.969 15.192 190.873 15.1614H190.877ZM192.924 8.66056C191.765 9.7644 191.215 10.336 190.922 10.637C190.847 10.7769 190.75 10.9036 190.633 11.0122L189.008 10.7461C188.949 10.3856 188.928 10.02 188.946 9.65532C189.171 9.65685 189.389 9.57419 189.554 9.42408L189.483 9.20593C189.832 9.33066 190.2 9.39703 190.571 9.40227L190.362 9.17976C190.136 9.13613 189.918 9.02269 189.616 8.93543C189.793 8.92389 189.964 8.86995 190.114 8.77836C190.064 8.62685 189.998 8.48068 189.918 8.34206C189.719 8.02279 189.433 7.76444 189.092 7.59599C189.027 7.48207 189.004 7.34964 189.026 7.22077C189.026 6.65794 189.332 6.78447 189.914 6.97208C189.991 7.01465 190.064 7.06432 190.131 7.12042C190.518 7.27312 190.882 7.50436 190.869 7.61344C190.869 7.61344 190.837 8.9616 190.984 8.8918C191.255 8.76091 191.956 8.14136 192.187 7.98866C192.667 7.66143 193.359 8.24171 192.92 8.66056H192.924Z" fill="var(--fill-0, #1355E9)"/>
<path d="M188.435 8.13263C188.522 8.20374 188.633 8.23963 188.746 8.23298C188.893 8.23298 188.959 8.0192 188.959 8.0192C188.668 7.88676 188.338 7.865 188.031 7.95811C188.174 7.99306 188.309 8.05211 188.431 8.13263H188.435Z" fill="var(--fill-0, #1355E9)"/>
<path d="M200.144 0C197.253 1.50524 194.372 2.26876 190.167 2.26876C185.962 2.26876 183.063 1.50524 180.19 0C179.031 1.9808 178.352 4.88656 178.352 8.45986C178.396 14.8434 180.815 20.9906 185.154 25.7417C186.486 27.1379 189.15 29.2932 190.18 29.507C191.21 29.2932 193.87 27.1379 195.211 25.7417C199.54 20.989 201.954 14.8467 202 8.46859C201.987 4.88656 201.307 1.97644 200.144 0ZM194.696 23.1981C193.852 24.2016 190.731 26.9546 190.167 27.0855C189.603 26.9546 186.477 24.2016 185.642 23.1981C182.266 18.9677 180.443 13.7402 180.47 8.36387C180.47 6.53141 180.758 3.87435 181.407 2.91448C183.183 3.83072 186.566 4.69023 190.167 4.69023C193.768 4.69023 197.054 3.8918 198.816 2.97557L198.919 2.92321C199.567 3.88307 199.86 6.54014 199.86 8.3726C199.883 13.7443 198.064 18.967 194.696 23.1981Z" fill="var(--fill-0, #1355E9)"/>
<path d="M174.325 8.2897H165.995V0.139616H152.741V8.2897H144.407V21.3307H152.741V29.5026H165.999V21.3307H174.329L174.325 8.2897ZM153.598 9.07504C154.361 8.32781 155.266 7.73582 156.262 7.33302C157.257 6.93022 158.324 6.72453 159.401 6.72775C161.177 6.72775 163.704 7.79232 165.062 8.94415C166.088 9.81675 166.27 10.144 166.87 11.4092H161.217C160.763 11.4377 160.317 11.2888 159.974 10.9948C159.645 10.6632 159.619 10.1789 160.072 9.63787C160.866 8.68237 160.174 7.83159 159.339 7.79668C158.504 7.76178 157.816 8.66928 158.611 9.63787C159.055 10.1789 159.055 10.6675 158.709 10.9948C158.54 11.1408 158.344 11.2526 158.131 11.3238C157.919 11.3949 157.694 11.424 157.47 11.4092H151.951C152.357 10.5479 152.915 9.76366 153.598 9.0925V9.07504ZM151.196 14.7469C151.194 13.8115 151.357 12.8828 151.68 12.0026C153.682 12.0462 155.467 12.3342 156.564 12.3953C157.736 12.4651 158.606 13.0759 157.812 14.5419L154.26 21.0253C153.307 20.2752 152.538 19.3252 152.007 18.2448C151.477 17.1645 151.2 15.9812 151.196 14.7818V14.7469ZM159.401 22.8316C157.743 22.8366 156.123 22.345 154.757 21.4223C155.445 20.4407 158.42 16.1867 158.602 15.9031C158.784 15.6195 158.984 15.3578 159.33 15.3578C159.677 15.3578 159.854 15.5672 160.067 15.9031C160.28 16.2391 163.961 21.4791 163.961 21.4791C162.614 22.3698 161.025 22.8412 159.401 22.8316ZM167.616 14.7818C167.616 16.0105 167.33 17.223 166.779 18.3259C166.228 19.4287 165.426 20.3925 164.436 21.1431C164.33 20.938 161.661 16.0384 160.858 14.5768C160.054 13.1152 160.933 12.5 162.114 12.4302C163.295 12.3604 165.071 12.0593 167.123 12.0244C167.451 12.908 167.617 13.8414 167.616 14.7818Z" fill="var(--fill-0, #1355E9)"/>
<path d="M157.252 8.17626C155.915 8.49486 154.736 9.26752 153.922 10.3578H157.705C157.705 9.70768 156.835 9.5986 157.252 8.17626Z" fill="var(--fill-0, #1355E9)"/>
<path d="M164.756 10.3578C163.806 9.41972 162.709 8.44677 161.421 8.17626C161.839 9.60733 160.977 9.70768 160.977 10.3578H164.756Z" fill="var(--fill-0, #1355E9)"/>
<path d="M159.339 16.8892C159.099 16.8892 156.391 21.082 156.391 21.082C157.32 21.4848 158.325 21.6928 159.341 21.6928C160.357 21.6928 161.362 21.4848 162.292 21.082C162.292 21.082 159.583 16.8892 159.339 16.8892Z" fill="var(--fill-0, #1355E9)"/>
<path d="M156.457 13.5253C156.218 13.5253 152.399 13.2199 152.399 13.2199C152.166 14.2873 152.186 15.3931 152.456 16.452C152.726 17.5109 153.24 18.4949 153.958 19.3281C153.958 19.3281 156.493 14.6335 156.773 14.123C157.052 13.6126 156.773 13.5558 156.457 13.5253Z" fill="var(--fill-0, #1355E9)"/>
<path d="M162.221 13.5253C161.914 13.5602 161.635 13.5908 161.914 14.1056L164.729 19.3063C165.446 18.4724 165.96 17.4886 166.231 16.43C166.502 15.3714 166.523 14.2659 166.292 13.1981C166.292 13.1981 162.469 13.5253 162.221 13.5253Z" fill="var(--fill-0, #1355E9)"/>
<path d="M18.3289 23.9572H7.33956L5.11949 29.4983H0L10.0836 4.83857H15.8558L25.9793 29.4983H20.5268L18.3067 23.9616L18.3289 23.9572ZM16.6816 19.6902L12.8365 9.95637L8.98685 19.6902H16.6816ZM27.933 11.0689H32.7194V13.6867C33.7007 11.7234 35.5878 10.5672 38.0476 10.5672C42.3679 10.5672 45.1518 13.5297 45.1518 18.3421V29.4983H40.3742V19.0271C40.3742 16.5227 38.9223 14.9476 36.569 14.9476C34.2158 14.9476 32.7194 16.5227 32.7194 19.0271V29.4983H27.933V11.0689ZM46.9279 11.0689H50.2269V6.30017H55.1111V11.0689H60.1196V15.2225H55.0933V23.0759C55.0933 24.8211 55.8038 25.6108 57.2113 25.6108C57.6256 25.6138 58.0362 25.5337 58.4179 25.3754C58.7996 25.2171 59.1445 24.984 59.4314 24.6902L61.5537 28.1806C60.5325 29.1841 58.7653 29.9913 56.452 29.9913C52.6468 29.9913 50.2136 27.6832 50.2136 23.1806V15.2181H46.9323V11.0646L46.9279 11.0689ZM63.9026 3.02792H68.6891V13.6867C69.6703 11.7234 71.5529 10.5672 74.0172 10.5672C78.3331 10.5672 81.1215 13.5297 81.1215 18.3421V29.4983H76.3439V19.0271C76.3439 16.5227 74.8919 14.9476 72.5342 14.9476C70.1765 14.9476 68.6891 16.5227 68.6891 19.0271V29.4983H63.9026V3.02792ZM83.7278 20.2661C83.7278 14.9171 87.7684 10.5716 93.1853 10.5716C94.4402 10.549 95.6868 10.7756 96.8503 11.2377C98.0139 11.6999 99.0706 12.3881 99.957 13.2612C100.843 14.1342 101.541 15.1741 102.009 16.3186C102.477 17.463 102.704 18.6885 102.678 19.9215C102.693 20.4752 102.653 21.0289 102.558 21.575H88.6298C88.8276 22.8096 89.4791 23.93 90.461 24.7243C91.4429 25.5187 92.687 25.9319 93.9579 25.8857C94.8218 25.8869 95.677 25.7172 96.4727 25.3866C97.2683 25.056 97.9881 24.5714 98.589 23.9616L101.062 27.1946C99.6102 28.7696 96.9417 30 93.8025 30C87.9548 30 83.719 25.637 83.719 20.2705L83.7278 20.2661ZM88.7496 18.3246H97.7365C97.1504 15.8639 95.4631 14.555 93.2653 14.555C91.0674 14.555 89.3402 16.0951 88.7496 18.3246ZM105.356 29.5201V11.0689H110.142V13.8787C110.597 12.8758 111.342 12.0268 112.285 11.4378C113.228 10.8488 114.327 10.546 115.444 10.5672C118.308 10.5672 120.51 11.9546 121.607 14.4154C122.588 12.2339 124.395 10.5672 127.379 10.5672C131.735 10.5672 134.599 13.4162 134.599 18.3421V29.4983H129.763V19.0271C129.763 16.5227 128.347 14.9476 126.074 14.9476C123.8 14.9476 122.344 16.5227 122.344 19.0271V29.4983H117.557V19.0271C117.557 16.5227 116.145 14.9476 113.868 14.9476C111.59 14.9476 110.142 16.5227 110.142 19.0271V29.4983L105.356 29.5201Z" fill="var(--fill-0, #1355E9)"/>
</g>
</svg>
