<svg preserveAspectRatio="none" width="100%" height="100%" overflow="visible" style="display: block;" viewBox="0 0 164 32" fill="none" xmlns="http://www.w3.org/2000/svg">
<g id="BlueCross">
<path d="M70.6556 0.276149H75.5652C77.9087 0.12643 80.3078 1.12456 80.3078 3.72968C80.3078 5.19027 79.3063 6.20504 78.0167 6.64754V6.68747C79.6728 7.02018 80.9068 8.2013 80.9068 10.161C80.9068 12.8027 77.6337 13.7642 75.6175 13.6145H70.6556V0.276149ZM75.6732 5.62612C76.8547 5.62612 77.5061 5.12706 77.5061 4.05573C77.5061 2.98441 76.8515 2.48534 75.6732 2.48534H73.4704V5.62945H75.6732V5.62612ZM75.6732 11.392C76.9987 11.392 77.9054 11.1524 77.9054 9.61864C77.9054 8.08485 76.9955 7.84863 75.6732 7.84863H73.4704V11.3986H75.6732V11.392Z" fill="var(--fill-0, black)"/>
<path d="M85.4269 0.272822V13.6112H82.7037V0.272822H85.4269Z" fill="var(--fill-0, black)"/>
<path d="M93.7208 12.4666C93.4139 12.9322 92.9928 13.3084 92.4992 13.5582C92.0056 13.8079 91.4565 13.9225 90.906 13.8906C89.9961 13.8906 88.2352 13.1886 87.9079 11.8378C87.7892 11.3546 87.7277 10.8587 87.7246 10.3606V4.32523H90.4543V9.90145C90.4543 10.8996 90.7423 12.0441 92.0908 12.0441C92.9418 12.0441 93.6881 11.2489 93.7274 9.90145V4.32523H96.4506V11.9509C96.4702 12.5032 96.5062 13.0622 96.5618 13.6145H93.8321L93.7208 12.47V12.4666Z" fill="var(--fill-0, black)"/>
<path d="M101.278 9.71513C101.278 10.9129 101.442 12.0441 102.843 12.0441C103.789 12.0441 104.26 11.6914 104.515 10.843H106.97C106.735 13.1354 104.967 13.894 102.843 13.894C99.7203 13.894 98.4635 12.1007 98.4635 8.99648C98.4635 6.20504 100.061 4.06239 102.843 4.06239C104.555 4.06239 105.969 4.65461 106.735 6.27824C106.978 6.80212 107.131 7.36494 107.186 7.94179C107.247 8.53077 107.271 9.12306 107.258 9.71513H101.278ZM104.443 7.86859C104.443 6.8505 104.172 5.91226 102.843 5.91226C101.593 5.91226 101.318 6.85382 101.278 7.86859H104.443Z" fill="var(--fill-0, black)"/>
<path d="M116.436 4.59805C116.455 3.19069 115.618 2.06613 113.929 2.06613C111.929 2.06613 111.418 5.07715 111.418 6.94366C111.418 8.81016 111.929 11.8245 113.929 11.8245C115.618 11.8245 116.455 10.7 116.436 9.29259H119.437C119.31 12.6197 116.946 13.894 113.929 13.894C110.129 13.894 108.42 10.8463 108.42 6.95031C108.42 3.05428 110.129 0 113.929 0C116.946 0 119.31 1.25764 119.437 4.60138H116.436V4.59805Z" fill="var(--fill-0, black)"/>
<path d="M123.394 4.32523L123.45 6.00541H123.486C124.069 4.54814 125.234 4.17551 126.599 4.21543V6.68747H125.417C124.906 6.72444 124.429 6.96325 124.088 7.35289C123.826 7.86563 123.7 8.43897 123.722 9.01644V13.6145H121.005L120.985 6.18508C120.985 5.79913 120.93 5.02059 120.894 4.33854H123.394V4.32523Z" fill="var(--fill-0, black)"/>
<path d="M132.559 13.8906C129.58 13.8906 127.8 11.8944 127.8 8.97651C127.8 6.05865 129.58 4.06239 132.559 4.06239C135.537 4.06239 137.321 6.05865 137.321 8.97651C137.321 11.8944 135.541 13.8906 132.559 13.8906ZM132.559 12.0408C134.231 12.0408 134.506 10.4504 134.506 8.97319C134.506 7.49595 134.235 5.90227 132.559 5.90227C130.883 5.90227 130.615 7.49263 130.615 8.97319C130.615 10.4537 130.89 12.0408 132.559 12.0408Z" fill="var(--fill-0, black)"/>
<path d="M143.887 6.8139C143.848 6.18508 143.268 5.90893 142.65 5.90893C141.904 5.90893 141.56 6.12852 141.56 6.7407C141.56 8.19797 146.774 7.3662 146.774 10.8397C146.774 12.8725 144.339 13.8906 142.65 13.8906C140.522 13.8906 138.666 13.0389 138.634 10.8962H141.161C141.213 11.6182 141.848 12.0241 142.653 12.0241C143.399 12.0241 143.962 11.7114 143.962 10.9894C143.962 10.2674 142.653 9.93805 142.11 9.80829C140.365 9.38242 138.748 8.99315 138.748 6.8139C138.748 4.87753 141.039 4.02579 142.656 4.02579C144.581 4.02579 146.217 4.72448 146.345 6.78063H143.887V6.8139Z" fill="var(--fill-0, black)"/>
<path d="M152.973 6.8139C152.937 6.18508 152.358 5.90893 151.736 5.90893C150.99 5.90893 150.646 6.12852 150.646 6.7407C150.646 8.19797 155.863 7.3662 155.863 10.8397C155.863 12.8725 153.425 13.8906 151.736 13.8906C149.608 13.8906 147.756 13.0389 147.72 10.8962H150.233C150.289 11.6182 150.927 12.0241 151.726 12.0241C152.472 12.0241 153.035 11.7114 153.035 10.9894C153.035 10.2674 151.726 9.93805 151.183 9.80829C149.435 9.38242 147.821 8.99315 147.821 6.8139C147.821 4.87753 150.129 4.02579 151.729 4.02579C153.657 4.02579 155.294 4.72448 155.418 6.78063H152.96L152.973 6.8139Z" fill="var(--fill-0, black)"/>
<path d="M70.6556 31.7206V18.3789H75.5652C77.9087 18.2325 80.3078 19.2306 80.3078 21.8324C80.3078 23.293 79.3063 24.3111 78.0167 24.7503V24.7869C79.6728 25.1396 80.9068 26.304 80.9068 28.2604C80.9068 30.9021 77.6337 31.8636 75.6175 31.7172H70.6556V31.7206ZM75.6732 23.7355C76.8547 23.7355 77.5061 23.2365 77.5061 22.1651C77.5061 21.0938 76.8515 20.5914 75.6732 20.5914H73.4704V23.7355H75.6732ZM75.6732 29.4981C76.9987 29.4981 77.9054 29.2585 77.9054 27.7247C77.9054 26.1909 76.9955 25.9514 75.6732 25.9514H73.4704V29.5014L75.6732 29.4981Z" fill="var(--fill-0, black)"/>
<path d="M85.4269 18.3789V31.7206H82.7037V18.3789H85.4269Z" fill="var(--fill-0, black)"/>
<path d="M93.7208 30.5694C93.4144 31.0355 92.9934 31.412 92.4997 31.6618C92.0059 31.9116 91.4566 32.0259 90.906 31.9934C89.9961 31.9934 88.2352 31.2947 87.9079 29.9439C87.789 29.4595 87.7275 28.9625 87.7246 28.4633V22.4413H90.4543V28.0042C90.4543 29.0023 90.7423 30.1468 92.0908 30.1468C92.9418 30.1468 93.6881 29.355 93.7274 28.0042V22.4413H96.4506V30.0504C96.4702 30.606 96.5062 31.1616 96.5618 31.7139H93.8321L93.7208 30.5694Z" fill="var(--fill-0, black)"/>
<path d="M101.278 27.8179C101.278 29.0223 101.442 30.1468 102.843 30.1468C103.789 30.1468 104.26 29.7942 104.515 28.9491H106.97C106.735 31.2381 104.967 31.9967 102.843 31.9967C99.7203 31.9967 98.4635 30.2067 98.4635 27.1025C98.4635 24.3144 100.061 22.1685 102.843 22.1685C104.555 22.1685 105.969 22.7607 106.735 24.3876C106.978 24.9115 107.131 25.4743 107.186 26.0512C107.247 26.6391 107.271 27.2302 107.258 27.8212H101.278V27.8179ZM104.443 25.9713C104.443 24.9732 104.172 24.015 102.843 24.015C101.593 24.015 101.318 24.9599 101.278 25.9713H104.443Z" fill="var(--fill-0, black)"/>
<path d="M116.056 22.1818C115.945 20.831 115.238 20.1655 113.876 20.1655C112.839 20.1655 111.785 20.7212 111.785 21.8857C111.785 23.3263 113.058 23.4893 114.184 23.7688C116.194 24.2878 119.139 24.8601 119.139 27.5384C119.139 30.8455 116.305 31.9901 113.49 31.9901C110.489 31.9901 108.365 30.8089 108.453 27.4452H111.327C111.215 28.9225 112.053 29.9206 113.526 29.9206C114.652 29.9206 116.145 29.5679 116.145 28.1439C116.145 26.5735 114.272 26.4804 113.146 26.1676C111.31 25.7085 108.803 24.8568 108.803 22.4912C108.803 19.4436 111.566 18.0928 114.259 18.0928C116.806 18.0928 118.783 19.4968 118.783 22.1751H116.073L116.056 22.1818Z" fill="var(--fill-0, black)"/>
<path d="M121.129 31.7206V18.3789H123.836V23.5326L123.872 23.5725C124.435 22.7208 125.293 22.1651 126.671 22.1651C127.581 22.1651 129.342 22.8505 129.669 24.198C129.787 24.6812 129.849 25.1772 129.852 25.6752V31.7206H127.129V26.141C127.109 25.1429 126.838 24.015 125.492 24.015C124.638 24.015 123.892 24.7935 123.856 26.141V31.7206H121.129Z" fill="var(--fill-0, black)"/>
<path d="M135.017 18.3789V20.7611H132.107V18.3789H135.017ZM134.925 22.4413V31.7172H132.199V22.4413H134.925Z" fill="var(--fill-0, black)"/>
<path d="M139.668 27.8179C139.668 29.0223 139.832 30.1468 141.233 30.1468C142.178 30.1468 142.65 29.7942 142.905 28.9491H145.36C145.124 31.2381 143.36 31.9967 141.233 31.9967C138.107 31.9967 136.853 30.2067 136.853 27.1025C136.853 24.3144 138.45 22.1685 141.233 22.1685C142.941 22.1685 144.358 22.7607 145.124 24.3876C145.368 24.9119 145.521 25.4745 145.579 26.0512C145.64 26.6391 145.664 27.2302 145.651 27.8212H139.668V27.8179ZM142.833 25.9713C142.833 24.9732 142.561 24.015 141.233 24.015C139.982 24.015 139.707 24.9599 139.668 25.9713H142.833Z" fill="var(--fill-0, black)"/>
<path d="M150.083 18.3789V31.7206H147.36V18.3789H150.083Z" fill="var(--fill-0, black)"/>
<path d="M161.444 18.3789V29.8707C161.444 30.4829 161.496 31.1084 161.535 31.7206H158.806C158.766 31.2747 158.73 30.8489 158.73 30.4097H158.694C158.419 30.9128 158.012 31.328 157.517 31.6083C157.023 31.8887 156.461 32.0232 155.896 31.9967C153.225 31.9967 151.968 29.4681 151.968 27.0859C151.968 24.7037 153.405 22.1718 156.24 22.1718C156.719 22.1859 157.189 22.3135 157.612 22.5445C158.035 22.7756 158.399 23.1036 158.675 23.5026H158.714V18.3789H161.444ZM156.753 30.1502C158.226 30.1502 158.717 28.3569 158.717 27.0793C158.717 25.8017 158.226 24.0117 156.753 24.0117C155.009 24.0117 154.79 25.6553 154.79 27.0793C154.79 28.5033 155.006 30.1502 156.753 30.1502Z" fill="var(--fill-0, black)"/>
<path d="M29.2677 31.5575C28.9809 31.5582 28.7004 31.4724 28.4616 31.311C28.2228 31.1496 28.0364 30.9198 27.9261 30.6507C27.8158 30.3817 27.7864 30.0854 27.8417 29.7994C27.897 29.5133 28.0345 29.2504 28.2368 29.0438C28.4392 28.8372 28.6972 28.6962 28.9784 28.6387C29.2595 28.5812 29.5511 28.6097 29.8163 28.7207C30.0815 28.8316 30.3084 29.02 30.4682 29.262C30.6281 29.504 30.7138 29.7888 30.7144 30.0803C30.7207 30.2755 30.6877 30.4699 30.6173 30.6516C30.5469 30.8333 30.4407 30.9984 30.3052 31.1368C30.1697 31.2752 30.0077 31.3839 29.8293 31.4563C29.6508 31.5286 29.4597 31.5631 29.2677 31.5575ZM29.2677 28.3269C28.9256 28.3263 28.5911 28.4288 28.3064 28.6216C28.0217 28.8144 27.7996 29.0887 27.6684 29.4098C27.5372 29.731 27.5027 30.0845 27.5693 30.4255C27.6359 30.7666 27.8005 31.0799 28.0424 31.3258C28.2843 31.5717 28.5926 31.7391 28.9281 31.8067C29.2636 31.8744 29.6114 31.8394 29.9273 31.706C30.2432 31.5726 30.5131 31.3469 30.7027 31.0575C30.8924 30.7681 30.9933 30.428 30.9926 30.0803C30.9909 29.6158 30.8086 29.1709 30.4855 28.8424C30.1624 28.514 29.7247 28.3287 29.2677 28.3269Z" fill="#00A3E0"/>
<path d="M29.2219 29.9439H28.8717V29.3018H29.4183C29.6539 29.3018 29.8863 29.335 29.8863 29.6345C29.8863 30.0138 29.4968 29.9672 29.2317 29.9672M30.1678 29.6345C30.1678 29.2685 29.9943 29.0755 29.4805 29.0755H28.6164V31.0718H28.8684V30.1834H29.2906L29.847 31.0751H30.1318L29.5459 30.1834C29.8732 30.1535 30.1547 30.0071 30.1547 29.6212" fill="#00A3E0"/>
<path d="M22.3648 8.90997V0.146392H8.61797V8.90997H0V22.9304H8.62452V31.6939H22.3714V22.9304H30.9926V8.90997H22.3648Z" fill="#00A3E0"/>
<path d="M58.8627 31.5708C58.5809 31.5728 58.3048 31.4897 58.0694 31.332C57.834 31.1743 57.65 30.9492 57.5407 30.6851C57.4313 30.421 57.4015 30.1299 57.4551 29.8486C57.5086 29.5673 57.6431 29.3085 57.8415 29.1049C58.0399 28.9014 58.2933 28.7623 58.5695 28.7053C58.8457 28.6482 59.1324 28.6758 59.3932 28.7846C59.654 28.8933 59.8772 29.0783 60.0344 29.316C60.1917 29.5538 60.276 29.8337 60.2767 30.1202C60.2839 30.3116 60.2524 30.5024 60.1841 30.6808C60.1158 30.8593 60.0121 31.0216 59.8795 31.1576C59.747 31.2936 59.5883 31.4005 59.4134 31.4716C59.2384 31.5427 59.051 31.5765 58.8627 31.5708ZM58.8627 28.4001C58.527 28.3988 58.1984 28.4988 57.9187 28.6876C57.6389 28.8763 57.4206 29.1452 57.2914 29.4602C57.1621 29.7752 57.1278 30.1221 57.1928 30.4569C57.2577 30.7918 57.419 31.0995 57.6562 31.341C57.8933 31.5826 58.1957 31.7471 58.525 31.8138C58.8543 31.8804 59.1956 31.8462 59.5058 31.7155C59.8159 31.5847 60.0808 31.3633 60.267 31.0793C60.4532 30.7953 60.5523 30.4615 60.5516 30.1202C60.5499 29.6651 60.3715 29.2291 60.0553 28.907C59.739 28.5849 59.3104 28.4027 58.8627 28.4001Z" fill="#00A3E0"/>
<path d="M58.8136 29.9871H58.47V29.3517H59.0035C59.2391 29.3517 59.465 29.3916 59.465 29.6644C59.465 30.0337 59.082 29.9871 58.8136 29.9871ZM59.7301 29.6544C59.7301 29.3217 59.5599 29.1154 59.0558 29.1154H58.2179V31.0784H58.4667V30.2167H58.8824L59.4257 31.0884H59.7039L59.1246 30.2167C59.4519 30.1868 59.7268 30.0437 59.7268 29.6611" fill="#00A3E0"/>
<path d="M58.7089 0.163028C55.4496 1.8975 51.8256 2.8039 48.1467 2.80474C44.2452 2.80474 40.9165 1.85652 37.578 0.143065C35.3851 4.52818 35.0414 11.6515 36.9234 17.597C38.7498 23.3329 42.2879 28.5532 48.1336 31.837C53.976 28.5565 57.5142 23.3329 59.3406 17.597C61.239 11.6482 60.8887 4.54482 58.686 0.159701" fill="#00A3E0"/>
<path d="M20.7774 22.7574L16.8628 15.3047C16.5781 14.6659 16.7024 13.6112 17.776 13.4581L23.494 12.8992C24.1305 14.6231 24.2102 16.5083 23.7218 18.2814C23.2333 20.0545 22.202 21.6234 20.7774 22.7607" fill="#F9F9F9"/>
<path d="M20.2046 23.1866C18.8137 24.1145 17.1862 24.609 15.5225 24.609C13.8587 24.609 12.2313 24.1145 10.8404 23.1866L14.9906 16.8651C15.0429 16.7687 15.1197 16.6883 15.213 16.6323C15.3062 16.5763 15.4125 16.5468 15.5209 16.5468C15.6292 16.5468 15.7355 16.5763 15.8287 16.6323C15.922 16.6883 15.9988 16.7687 16.0511 16.8651L20.2013 23.1866H20.2046Z" fill="#F9F9F9"/>
<path d="M7.00108 15.9468C6.99857 14.9047 7.18268 13.8709 7.54441 12.8958L13.2592 13.4548C14.3327 13.6078 14.4538 14.6625 14.1724 15.3013L10.2447 22.774C9.22932 21.9641 8.40848 20.9301 7.84426 19.7502C7.28004 18.5703 6.98723 17.2754 6.98799 15.9634" fill="#F9F9F9"/>
<path d="M15.5209 18.2358C15.4963 18.2351 15.472 18.2412 15.4507 18.2535C15.4293 18.2659 15.4117 18.2839 15.3998 18.3057L12.5358 22.7607C13.4758 23.1841 14.4927 23.4029 15.5209 23.4029C16.549 23.4029 17.5659 23.1841 18.5059 22.7607L15.6387 18.299C15.6253 18.2798 15.6077 18.2641 15.5872 18.2531C15.5667 18.2421 15.544 18.2362 15.5209 18.2358Z" fill="#00A3E0"/>
<path d="M12.7191 14.5793L8.39213 14.1734C8.25425 14.7531 8.18395 15.3471 8.18265 15.9435C8.17934 17.7268 8.80661 19.4519 9.9501 20.8044L12.9842 14.9187C13.0562 14.739 13.0333 14.586 12.7224 14.586" fill="#00A3E0"/>
<path d="M15.5209 7.28635C17.1423 7.28587 18.7301 7.75627 20.0974 8.64219C21.4647 9.5281 22.5546 10.7927 23.2387 12.287H17.177C16.3129 12.267 15.93 11.7513 15.9136 11.3354C15.8907 10.8397 15.9725 10.67 16.3751 10.151C16.4968 9.98931 16.5716 9.79628 16.591 9.59368C16.6104 9.39109 16.5737 9.18701 16.485 9.00451C16.3963 8.82201 16.2592 8.66836 16.0891 8.56093C15.919 8.4535 15.7227 8.39657 15.5225 8.39657C15.3222 8.39657 15.126 8.4535 14.9559 8.56093C14.7858 8.66836 14.6487 8.82201 14.56 9.00451C14.4713 9.18701 14.4346 9.39109 14.454 9.59368C14.4734 9.79628 14.5482 9.98931 14.6699 10.151C15.0724 10.68 15.1477 10.8397 15.1314 11.3354C15.1314 11.7513 14.7353 12.267 13.8647 12.287H7.80298C8.4871 10.7927 9.57697 9.5281 10.9443 8.64219C12.3116 7.75627 13.8994 7.28587 15.5209 7.28635Z" fill="#F9F9F9"/>
<path d="M21.0949 11.0959C20.1639 9.98727 18.9357 9.17804 17.56 8.76691C17.992 9.49887 17.6385 10.4537 17.2327 10.9062C17.1541 10.9861 17.1934 11.0659 17.2621 11.0859L21.0949 11.0959Z" fill="#00A3E0"/>
<path d="M18.3291 14.5793C18.0018 14.6026 18.0018 14.739 18.0673 14.9121L21.0982 20.7977C21.8533 19.8968 22.3872 18.8265 22.6558 17.6748C22.9244 16.5231 22.92 15.3231 22.643 14.1734L18.3291 14.5793Z" fill="#00A3E0"/>
<path d="M13.4817 8.77689C12.1051 9.18589 10.8763 9.99549 9.94683 11.1059H13.7796C13.8483 11.0859 13.8876 11.006 13.8058 10.9262C13.3999 10.4637 13.053 9.50885 13.4817 8.77689Z" fill="#00A3E0"/>
<path d="M57.1476 16.925C55.5111 21.8158 52.945 26.151 48.1402 29.1787C43.3386 26.1477 40.7758 21.8125 39.136 16.9183C37.6795 12.5665 37.3227 7.47932 38.9232 3.51009C40.5832 4.1152 42.2979 4.55206 44.0423 4.81431C45.3965 5.03366 46.7656 5.1449 48.1369 5.14702C49.5071 5.14463 50.8751 5.03339 52.2282 4.81431C53.9725 4.5513 55.6872 4.11445 57.3473 3.51009C58.9511 7.47932 58.5911 12.5731 57.1378 16.9183" fill="#F9F9F9"/>
<path d="M52.3166 5.95883C50.9359 6.1574 49.5443 6.26852 48.15 6.29154C46.7557 6.26878 45.3641 6.15766 43.9834 5.95883C42.5582 5.74586 41.1479 5.44025 39.7611 5.04388C38.7399 7.97838 38.9592 11.6981 39.7611 14.9753C41.234 21.1803 44.9195 25.8981 48.1696 27.9776C51.3871 25.9015 55.0823 21.1803 56.5552 14.9719C57.3407 11.6781 57.5535 7.98504 56.5356 5.04055C55.151 5.43687 53.7429 5.74248 52.3199 5.95551" fill="#00A3E0"/>
<path d="M51.5933 9.26597C51.518 9.51218 51.4623 9.50552 51.3052 9.65857C50.9779 9.95801 50.5459 10.2674 50.1237 10.6833C49.8492 10.8931 49.6046 11.1405 49.397 11.4186C49.3512 11.4885 49.2497 11.6848 49.2497 11.6848C48.5264 11.5384 47.7932 11.5217 47.2303 11.4053L47.2041 10.7798C47.2041 10.7798 47.9274 10.7798 47.9994 10.3306C47.9958 10.248 47.9619 10.1697 47.9045 10.1111C47.788 10.0408 47.6653 9.98172 47.5379 9.93472C48.089 10.0449 48.6237 10.2272 49.1286 10.477C49.1646 10.4205 49.073 10.2075 49.0305 10.161C48.9377 10.05 48.8087 9.97681 48.6671 9.95468C48.3398 9.86485 47.5052 9.76171 47.5052 9.76171L48.1991 9.73509C48.343 9.72385 48.48 9.66813 48.5919 9.57539C48.6344 9.48889 48.5919 9.34915 48.4577 9.21606C48.377 9.13338 48.3016 9.04559 48.2318 8.95322C48.1404 8.78277 48.0306 8.6232 47.9045 8.47745C47.6872 8.2903 47.439 8.14385 47.1714 8.04493C47.1458 7.85745 47.1615 7.66656 47.2172 7.48597C47.2859 7.35289 47.5772 7.33625 47.6721 7.38283C48.1094 7.66481 48.5909 7.8685 49.0959 7.98504C49.2072 8.06821 49.2137 8.09816 49.2465 8.26784C49.325 8.6438 49.181 9.19277 49.2465 9.45562C49.2541 9.47185 49.2652 9.48617 49.2789 9.49758C49.2926 9.50899 49.3086 9.51721 49.3258 9.52165C49.3429 9.52609 49.3609 9.52665 49.3783 9.52329C49.3957 9.51993 49.4121 9.51273 49.4265 9.50219C49.9404 9.22272 50.2873 8.73363 50.8077 8.50406C51.0532 8.40092 51.7471 8.75692 51.59 9.2693" fill="#F9F9F9"/>
<path d="M49.3087 16.4425C49.3087 16.4425 49.3741 15.3346 49.3807 14.7989C49.4412 14.7771 49.4964 14.7421 49.5425 14.6965C49.5885 14.6508 49.6242 14.5956 49.6472 14.5346C49.6703 14.4735 49.68 14.4082 49.6758 14.343C49.6716 14.2778 49.6535 14.2142 49.6229 14.1568C49.5228 14.0234 49.3787 13.9312 49.217 13.8973C48.6377 13.7704 48.0504 13.6848 47.4594 13.6411C46.9626 13.5912 46.4703 13.5033 45.9865 13.3783C44.9686 13.1088 44.1045 12.633 43.6495 11.6914C43.3887 11.1233 43.3515 10.4752 43.5456 9.88009C43.7398 9.28497 44.1505 8.78789 44.6936 8.49076C45.1024 8.2954 45.5476 8.19135 45.9993 8.18561C46.451 8.17987 46.8986 8.27258 47.3121 8.45749C47.5775 8.59746 47.7954 8.81541 47.9373 9.08298C48.0191 9.19277 48.1435 9.23935 48.2122 9.36578C48.2547 9.43565 48.1598 9.46892 48.1205 9.47558C47.7894 9.52895 47.4532 9.54235 47.119 9.5155C46.8124 9.48338 46.5028 9.49458 46.1993 9.54877C46.4588 9.71721 46.7301 9.86621 47.011 9.99461C47.1714 10.0578 47.2957 10.0578 47.443 10.131C47.5052 10.161 47.6787 10.2109 47.6787 10.2974C47.6787 10.3839 47.515 10.4105 47.4103 10.4438C47.1255 10.5158 46.8277 10.5158 46.5429 10.4438C46.0618 10.334 45.8392 10.0478 45.5414 10.2242C45.3417 10.344 45.3384 10.6201 45.4039 10.8896C45.5119 11.3254 45.957 11.5018 46.3335 11.6315C47.6427 12.0607 49.0435 11.8145 50.32 12.4866C50.8175 12.7461 51.3772 13.2685 51.4787 13.8174C51.9173 16.1464 49.3316 16.4159 49.3316 16.4159" fill="#F9F9F9"/>
<path d="M47.2401 14.1235C47.2401 14.1235 47.4987 14.1502 48.1271 14.1901C48.4023 14.2075 48.6736 14.2658 48.9323 14.3631L48.8733 16.6921C48.3595 16.5922 48.0223 16.539 47.5445 16.4725C47.4319 15.8444 47.1959 15.2458 46.8506 14.7124C46.8227 14.6802 46.8074 14.6388 46.8074 14.596C46.8074 14.5531 46.8227 14.5117 46.8506 14.4795C46.8964 14.393 47.2303 14.3099 47.2303 14.3099V14.1069L47.2401 14.1235Z" fill="#F9F9F9"/>
<path d="M50.7324 19.2207C50.6819 19.4166 50.5917 19.5998 50.4678 19.7584C50.3438 19.9171 50.1887 20.0478 50.0124 20.1423C49.7557 20.2962 49.4682 20.3894 49.1712 20.4151L49.2072 19.1275C49.2693 19.1116 49.3245 19.0754 49.3643 19.0244C49.3949 18.9923 49.4169 18.9529 49.4284 18.9099C49.4398 18.8668 49.4403 18.8215 49.4298 18.7781C49.4198 18.7285 49.3978 18.6821 49.3658 18.6432C49.3338 18.6043 49.2928 18.574 49.2465 18.5552C49.1187 18.5103 48.9854 18.4834 48.8504 18.4754C48.2286 18.3989 47.6558 18.329 47.047 18.2292C45.944 18.0462 45.1617 17.4007 45.2272 16.3327C45.273 15.6107 46.016 15.3878 46.5364 15.1682C46.6866 15.4263 46.82 15.6942 46.9357 15.9701C47.0339 16.2562 47.0895 16.4459 47.0895 16.4459C47.0895 16.4459 46.8539 16.4891 46.8702 16.6854C46.8866 16.8817 47.0797 16.9316 47.1975 16.9516C47.9878 17.0361 48.771 17.1785 49.5411 17.3774C49.9001 17.4869 50.2191 17.7023 50.4575 17.9963C50.5973 18.1646 50.6953 18.3645 50.7431 18.5794C50.791 18.7942 50.7873 19.0176 50.7324 19.2306" fill="#F9F9F9"/>
<path d="M47.6983 18.7582L48.8112 18.8879L48.7686 21.0073L48.2842 20.7411L47.8063 20.5049L47.6983 18.7582Z" fill="#F9F9F9"/>
<path d="M49.6392 23.7888C49.4634 23.9339 49.2593 24.0394 49.0403 24.0982L49.073 23.1932C49.1003 23.1671 49.121 23.1348 49.1335 23.0989C49.1461 23.063 49.15 23.0247 49.145 22.9869C49.0992 22.8073 48.4642 22.3714 48.1271 22.2417C47.79 22.1119 47.3186 21.9688 46.9881 21.8224C46.8179 21.7668 46.6616 21.6744 46.5299 21.5516C46.3981 21.4289 46.294 21.2786 46.2247 21.1112C46.1554 20.9437 46.1225 20.763 46.1283 20.5814C46.1341 20.3998 46.1784 20.2216 46.2582 20.0591C46.3923 19.8132 46.5982 19.6156 46.8473 19.4935C46.991 19.4151 47.141 19.3494 47.2957 19.2972L47.3776 20.3585C47.3481 20.3699 47.3213 20.3872 47.2988 20.4095C47.2763 20.4319 47.2585 20.4587 47.2466 20.4883C47.2312 20.5505 47.2386 20.6162 47.2676 20.6732C47.2965 20.7302 47.3449 20.7745 47.4037 20.7977C48.0061 21.0475 48.595 21.3296 49.1679 21.6428C49.8585 22.052 50.0876 22.3515 50.0876 22.8439C50.0924 23.0256 50.0548 23.2059 49.9781 23.3701C49.9013 23.5343 49.7874 23.6777 49.6458 23.7888" fill="#F9F9F9"/>
<path d="M48.6606 26.0878C48.6606 26.2541 48.5951 26.3839 48.2842 26.3939C47.9733 26.4039 47.9111 26.304 47.9012 26.0279C47.8587 24.8102 47.8063 22.5178 47.8063 22.5178C47.9786 22.5708 48.1462 22.6387 48.3071 22.7208C48.4458 22.8062 48.5734 22.909 48.6868 23.0269C48.7162 23.0734 48.7424 23.0834 48.7392 23.1566C48.7195 24.0483 48.6671 25.6952 48.6639 26.0878" fill="#F9F9F9"/>
<path d="M47.335 25.0797C47.2892 25.4124 47.4168 25.5355 47.3874 25.6885C47.335 25.9314 47.1812 25.8582 47.0895 25.6885C46.9487 25.4659 46.8654 25.2107 46.8473 24.9466C46.8213 24.759 46.8414 24.5678 46.906 24.3901C46.9705 24.2125 47.0775 24.0538 47.2172 23.9285C47.2992 23.8437 47.3916 23.7699 47.4921 23.7089L47.5379 24.707C47.5379 24.707 47.3808 24.7603 47.335 25.0797Z" fill="#F9F9F9"/>
<path d="M46.5429 8.72033C46.7066 8.83678 46.6706 9.05304 46.903 9.00313C47.0162 8.9706 47.1196 8.91001 47.2041 8.82679C47.2614 8.8261 47.3186 8.83281 47.3743 8.84676C47.1157 8.58059 46.5986 8.58059 46.2549 8.56728C46.3433 8.74029 46.4382 8.65046 46.5364 8.717" fill="#00A3E0"/>
<path d="M156.891 13.7143C156.724 13.715 156.56 13.6652 156.421 13.5713C156.282 13.4773 156.173 13.3435 156.108 13.1867C156.044 13.0299 156.027 12.8572 156.059 12.6905C156.091 12.5238 156.171 12.3705 156.289 12.2501C156.407 12.1297 156.558 12.0477 156.722 12.0143C156.886 11.9809 157.056 11.9977 157.21 12.0625C157.365 12.1274 157.497 12.2374 157.59 12.3787C157.682 12.5199 157.732 12.686 157.732 12.8559C157.736 12.9695 157.717 13.0827 157.676 13.1885C157.636 13.2943 157.574 13.3905 157.495 13.471C157.416 13.5515 157.322 13.6146 157.218 13.6565C157.114 13.6983 157.003 13.718 156.891 13.7143ZM156.891 11.8378C156.692 11.8372 156.497 11.8966 156.331 12.0086C156.166 12.1206 156.036 12.28 155.96 12.4668C155.883 12.6536 155.863 12.8592 155.902 13.0577C155.941 13.2561 156.036 13.4384 156.177 13.5815C156.318 13.7245 156.497 13.8219 156.692 13.8612C156.888 13.9005 157.09 13.88 157.274 13.8023C157.457 13.7245 157.614 13.5931 157.724 13.4246C157.835 13.2561 157.893 13.0582 157.892 12.8559C157.892 12.5862 157.786 12.3277 157.598 12.137C157.411 11.9462 157.156 11.8387 156.891 11.8378Z" fill="var(--fill-0, black)"/>
<path d="M156.865 12.7794H156.662V12.4034H156.989C157.123 12.4034 157.261 12.4234 157.261 12.5831C157.261 12.806 157.038 12.7794 156.878 12.7794M157.421 12.5931C157.421 12.3835 157.32 12.2604 157.022 12.2604H156.518V13.4248H156.662V12.9158H156.907L157.235 13.4315H157.405L157.077 12.9158C157.254 12.8992 157.411 12.8127 157.411 12.5931H157.421Z" fill="var(--fill-0, black)"/>
<path d="M162.998 31.5476C162.831 31.5482 162.668 31.4984 162.528 31.4045C162.389 31.3106 162.28 31.1768 162.216 31.02C162.152 30.8632 162.134 30.6905 162.167 30.5237C162.199 30.357 162.279 30.2038 162.397 30.0834C162.515 29.963 162.665 29.8809 162.829 29.8475C162.993 29.8141 163.163 29.8309 163.318 29.8958C163.472 29.9607 163.604 30.0707 163.697 30.2119C163.79 30.3532 163.84 30.5192 163.84 30.6892C163.844 30.8027 163.825 30.9159 163.784 31.0217C163.743 31.1276 163.681 31.2237 163.603 31.3042C163.524 31.3847 163.429 31.4479 163.325 31.4897C163.221 31.5316 163.11 31.5513 162.998 31.5476ZM162.998 29.6711C162.799 29.6704 162.605 29.7298 162.439 29.8418C162.273 29.9538 162.144 30.1133 162.067 30.3001C161.991 30.4868 161.971 30.6925 162.009 30.8909C162.048 31.0894 162.144 31.2717 162.285 31.4147C162.425 31.5578 162.605 31.6551 162.8 31.6944C162.995 31.7337 163.197 31.7132 163.381 31.6355C163.565 31.5578 163.722 31.4264 163.832 31.2579C163.942 31.0894 164.001 30.8915 164 30.6892C163.999 30.4194 163.893 30.161 163.706 29.9702C163.518 29.7795 163.264 29.6719 162.998 29.6711Z" fill="var(--fill-0, black)"/>
<path d="M162.998 30.6093H162.796V30.2367H163.123C163.26 30.2367 163.398 30.2566 163.398 30.4197C163.398 30.6393 163.172 30.6126 163.015 30.6126M163.558 30.4263C163.558 30.2167 163.453 30.0936 163.159 30.0936H162.665V31.2747H162.809V30.7524H163.054L163.381 31.2648H163.548L163.221 30.7524C163.372 30.7324 163.529 30.6459 163.529 30.4263H163.558Z" fill="var(--fill-0, black)"/>
</g>
</svg>
