<svg preserveAspectRatio="none" width="100%" height="100%" overflow="visible" style="display: block;" viewBox="0 0 103 40" fill="none" xmlns="http://www.w3.org/2000/svg">
<g id="Vector">
<path d="M99.2904 29.931H99.6337C99.8741 29.931 100.063 29.8966 100.166 29.8448C100.269 29.7931 100.321 29.6724 100.321 29.5345C100.321 29.3966 100.269 29.2759 100.183 29.2414C100.097 29.1724 99.9256 29.1552 99.6852 29.1552H99.2904V29.931ZM99.9085 28.931C100.132 28.931 100.303 28.9828 100.441 29.0862C100.578 29.1724 100.63 29.3103 100.63 29.5C100.63 29.8276 100.441 30.0345 100.046 30.1034C100.2 30.1897 100.303 30.2931 100.372 30.3966C100.441 30.4828 100.544 30.7241 100.715 31.1034H100.389C100.183 30.6724 100.046 30.4138 99.9256 30.3103C99.8226 30.2069 99.6337 30.1379 99.3934 30.1379H99.2732V31.1034H99.0156V28.931H99.9085ZM101.625 30C101.625 29.5 101.454 29.069 101.11 28.7241C100.767 28.3621 100.338 28.1897 99.8569 28.1897C99.3762 28.1897 98.947 28.3621 98.6036 28.7241C98.2602 29.069 98.0885 29.5 98.0885 30C98.0885 30.5 98.2602 30.9138 98.6036 31.2759C98.947 31.6207 99.359 31.8103 99.8569 31.8103C100.355 31.8103 100.767 31.6379 101.11 31.2759C101.454 30.9138 101.625 30.4828 101.625 30ZM97.8138 30C97.8138 29.431 98.0027 28.9483 98.4147 28.5345C98.8096 28.1379 99.2904 27.9483 99.8398 27.9483C100.389 27.9483 100.887 28.1552 101.282 28.5345C101.677 28.9483 101.883 29.431 101.883 30C101.883 30.569 101.677 31.0517 101.282 31.4655C100.887 31.8621 100.406 32.0862 99.8398 32.0862C99.2732 32.0862 98.8096 31.8793 98.4147 31.4655C98.0198 31.0517 97.8138 30.5517 97.8138 30Z" fill="#0095DA"/>
<path d="M90.5168 30.7414C83.6662 27.0517 78.9103 18.7241 78.979 9.63793C78.9962 6.77586 79.2881 3.89655 80.6959 1.34483C80.6959 1.34483 85.1771 3.65517 90.5168 3.65517C95.8565 3.65517 100.338 1.34483 100.338 1.34483C101.746 3.91379 102.037 6.77586 102.055 9.63793C102.14 18.7241 97.3674 27.0517 90.5168 30.7414Z" fill="white"/>
<path d="M90.6027 29.8621C84.147 26.6379 77.2964 13.0172 81.0908 3.25862C81.0908 3.25862 85.2115 4.86207 90.6027 4.86207C95.9938 4.86207 100.114 3.25862 100.114 3.25862C103.909 13.0345 97.0583 26.6379 90.6027 29.8621ZM101.162 0.448276C101.162 0.448276 96.3716 2.93103 90.6027 2.93103C84.8338 2.93103 80.0435 0.448276 80.0435 0.448276C78.5326 3.22414 78.2236 6.2931 78.1892 9.36207C78.1205 19.1552 83.2542 28.1034 90.6027 32.069C97.9511 28.1034 103.085 19.1552 102.999 9.37931C102.982 6.2931 102.656 3.22414 101.162 0.448276Z" fill="#0095DA"/>
<path d="M94.5688 8.82759C93.8305 9.68966 92.7317 10.5 92.0792 11.4483L91.9762 11.4138L89.8815 11.1724L89.8472 10.3276C90.1734 10.2241 90.3451 10.1552 90.6027 9.84483C90.637 9.74138 90.4653 9.62069 90.3795 9.53448C90.9117 9.48276 91.2723 9.84483 91.7358 9.84483C91.8045 9.81034 91.7702 9.72414 91.7702 9.67241C91.4268 9.27586 90.8774 9.41379 90.431 9.27586C90.6713 9.17241 90.9976 9.22414 91.2379 9.01724C91.3581 8.93103 91.3066 8.82759 91.1864 8.68966C90.946 8.2931 90.4996 7.75862 89.9846 7.51724L89.9159 6.86207C89.9159 6.56897 90.0876 6.55172 90.2764 6.63793L91.7873 7.25862C92.1307 7.36207 91.8904 8.44828 92.1136 8.96552C92.972 8.75862 93.5386 7.41379 94.4314 8.08621C94.586 8.27586 94.7405 8.58621 94.5688 8.82759ZM92.0277 16.5517L92.0964 14.8448C92.0964 14.8448 92.4913 14.5517 92.4913 14.2586C92.4913 13.9483 92.3024 13.5345 90.3623 13.5345C86.7052 13.5345 85.7266 11.2241 85.7266 10.1034C85.7266 8.98276 86.5335 7.51724 88.3878 7.51724C90.2421 7.51724 90.9289 8.84483 90.9289 8.84483C90.9289 8.84483 90.6542 8.96552 90.3623 8.98276C90.0704 9 89.5897 8.93103 89.3836 8.93103C89.1776 8.93103 88.8857 9.01724 88.8857 9.01724C88.8857 9.01724 89.1604 9.31034 89.5553 9.41379C89.9502 9.53448 90.2249 9.82759 90.2249 9.82759C90.2249 9.82759 90.0704 9.98276 89.5725 9.98276C89.0746 10 88.3191 9.60345 87.9414 9.60345C87.5637 9.60345 87.495 9.84483 87.495 10.1379C87.495 11.3621 90.1048 11.5862 90.6885 11.6552C91.2723 11.7241 94.4143 11.8276 94.4143 14.2069C94.3971 16.569 92.0277 16.5517 92.0277 16.5517ZM89.9502 14.0517C90.8087 14.0172 91.6843 14.1897 91.6843 14.1897C91.6843 14.1897 91.8045 15.2241 91.7187 16.8448C91.7015 16.9828 91.5985 16.9828 91.5985 16.9828L90.1906 16.8966C90.1906 16.8966 89.5553 15.0862 89.4008 14.7241C89.315 14.5172 89.9502 14.0517 89.9502 14.0517ZM93.7275 19.3621C93.6073 20.931 91.9075 20.9483 91.9075 20.9483L91.959 19.4655C91.9762 19.2759 92.0277 19.1034 92.0277 19.1034C92.0277 19.1034 92.0792 18.8103 90.9289 18.7759C89.4008 18.7069 88.1818 18.1552 88.1818 16.8793C88.1818 15.6034 89.1604 15.2241 89.1604 15.2241C89.1604 15.2241 89.7442 16.6034 89.7785 16.7069C89.8129 16.8103 89.7099 16.8966 89.7957 17.069C89.8815 17.2241 90.637 17.2759 91.3238 17.3448C91.9934 17.4138 93.8477 17.8103 93.7275 19.3621ZM91.5985 21.5C91.5985 21.5 91.5985 21.6897 91.444 21.6034C91.444 21.6034 90.6885 21.2759 90.5855 21.2241C90.3966 21.1552 90.4481 21.0862 90.431 20.9655L90.4138 19.1379C90.4138 19.1379 91.0834 19.2414 91.5126 19.2414C91.5985 19.2414 91.6156 19.3103 91.6156 19.3103C91.5985 20.0862 91.6157 20.7414 91.5985 21.5ZM92.9034 24.1207C92.7832 24.6207 92.2338 24.9483 91.7702 25.0517L91.7873 24.069C91.8045 23.8966 92.0105 23.5862 91.3581 23.3276C90.4481 22.7931 88.8857 22.7069 88.7312 21.3276C88.6625 20.7759 88.8857 20.2586 89.3836 20.0517C89.6583 19.931 89.8129 19.8966 90.0532 19.8103L90.1047 20.9138C90.1047 21.0517 89.9846 21.2586 90.1047 21.3448C90.5168 21.5517 91.9075 22.0172 92.6973 22.9138C92.9205 23.2241 92.9892 23.6724 92.9034 24.1207ZM91.5298 24.0862C91.4955 25.7069 91.444 26.9828 91.444 27.0517C91.444 27.2759 91.3409 27.569 90.9976 27.569C90.6027 27.569 90.5512 27.2241 90.5512 27.2241C90.5512 27.2241 90.4825 25.4828 90.431 23.4828C90.431 23.4828 90.4138 23.3103 90.534 23.3276C90.7915 23.4138 91.2723 23.6379 91.4096 23.7586C91.5813 23.8793 91.5298 24.0862 91.5298 24.0862ZM89.9846 26.1379C89.7957 26.2931 90.2593 26.9828 89.7099 26.9138C89.3321 26.8793 89.418 25.9138 89.4867 25.4655C89.6412 25.1379 89.8816 24.8621 90.2078 24.6897L90.2249 25.7586C90.1906 25.9655 90.1391 26.0345 89.9846 26.1379ZM90.6027 6.15517C85.9326 6.15517 82.0352 4.91379 82.0352 4.91379C79.2194 14.5 85.2115 25 90.6027 28.5C95.9938 24.9828 102.003 14.4828 99.1702 4.91379C99.1702 4.91379 95.2899 6.15517 90.6027 6.15517Z" fill="#0095DA"/>
<path d="M88.9372 8.25862C88.9716 8.41379 88.6969 8.51724 88.5252 8.56897C88.2333 8.62069 88.1989 8.15517 87.9242 8.15517C88.0616 8 88.5767 8.08621 88.8686 8.18966L88.9372 8.25862Z" fill="#0095DA"/>
<path d="M16.7229 16.2759C16.7229 12.2931 13.581 8.77586 9.46031 8.77586C5.70022 8.77586 2.18051 11.5862 2.18051 16.2069C2.18051 20.4655 5.3225 23.7241 9.46031 23.7241C13.7011 23.7414 16.7229 20.2414 16.7229 16.2759ZM0 25.5517V0.0172414H2.3522V10.2759C4.36101 7.84483 6.85057 6.63793 9.71785 6.63793C15.0747 6.63793 19.1438 11.1207 19.1438 16.3621C19.1438 21.6034 14.9888 26.0345 9.64918 26.0345C6.67888 26.0345 4.22366 24.7241 2.3522 22.1552V25.5517H0ZM22.8696 0H25.2218V25.5345H22.8696V0ZM43.4556 7.12069H45.9452V16.6552C45.9452 22.8793 43.1466 25.9828 37.8928 25.9828C32.6389 25.9828 29.806 22.8621 29.806 16.6552V7.12069H32.2955V16.1034C32.2955 18.0517 32.2955 19.6379 32.8106 20.7586C33.6691 22.6379 35.5749 23.7069 37.8928 23.7069C39.5925 23.7069 41.0691 23.0862 42.0477 22.069C43.49 20.5 43.4556 18.7414 43.4556 16.1034V7.12069ZM65.9131 14.431C64.9517 10.6207 62.2217 8.91379 59.0454 8.91379C55.8691 8.91379 53.3108 10.6897 52.2463 14.431H65.9131ZM51.9888 16.5172C52.0918 20.7586 54.9591 23.8448 58.8909 23.8448C62.8227 23.8448 64.5568 21.6552 65.896 19.431L67.8704 20.4655C65.999 24.1379 63.1317 25.9828 59.1312 25.9828C53.0533 25.9828 49.5507 21.3103 49.5507 16.3793C49.5507 11.4483 53.2422 6.62069 58.9767 6.62069C64.1962 6.62069 68.4027 10.4138 68.4714 16.5172H51.9888ZM17.9935 38.3621C17.2895 39.4483 16.0533 40 14.5939 40C12.2246 40 10.6278 38.2759 10.6278 36.2586C10.6278 34.1207 12.2933 32.3793 14.6798 32.3793C16.0705 32.3793 17.341 32.9483 18.0106 34.069L17.2552 34.5345C16.6199 33.6897 15.7271 33.2759 14.6455 33.2759C12.8083 33.2759 11.5893 34.6379 11.5893 36.1897C11.5893 37.7414 12.7912 39.1552 14.6455 39.1552C15.6928 39.1552 16.5684 38.7241 17.238 37.8793L17.9935 38.3621ZM27.1619 32.569V39.8276H26.2519V38.5862C25.4621 39.5517 24.4663 40 23.3331 40C21.2213 40 19.6246 38.2414 19.6246 36.1724C19.6246 34.1034 21.2557 32.3793 23.3503 32.3793C24.5178 32.3793 25.5137 32.8793 26.2348 33.8966V32.569H27.1619ZM20.5861 36.2069C20.5861 37.7759 21.8051 39.1552 23.4362 39.1552C24.9127 39.1552 26.3206 38.0345 26.3206 36.2241C26.3206 34.5345 25.0673 33.2759 23.4533 33.2759C21.8394 33.2759 20.5861 34.6379 20.5861 36.2069ZM29.9949 29.7586H30.922V39.8276H29.9949V29.7586ZM34.974 30.3276C34.974 30.7586 34.6134 31.1034 34.2013 31.1034C33.7893 31.1034 33.4459 30.7414 33.4459 30.3276C33.4459 29.9138 33.8065 29.569 34.2013 29.569C34.6306 29.569 34.974 29.9138 34.974 30.3276ZM33.7549 32.569H34.6821V39.8276H33.7549V32.569ZM37.7382 31.431C37.7382 30.2586 38.0301 29.5517 39.2148 29.5517C39.6097 29.5517 39.9702 29.6552 40.2793 29.7586V30.6724C40.0561 30.569 39.7814 30.4483 39.4037 30.4483C38.6482 30.4483 38.6654 30.9138 38.6654 31.569V32.5517H40.1935V33.3793H38.6654V39.8276H37.7382V33.3793H36.7767V32.5517H37.7382V31.431ZM48.967 36.2069C48.967 38.2759 47.3702 40 45.1897 40C43.0092 40 41.4125 38.2586 41.4125 36.2069C41.4125 34.1552 43.0264 32.3621 45.1897 32.3621C47.3531 32.3793 48.967 34.1379 48.967 36.2069ZM42.374 36.2241C42.374 37.8103 43.5586 39.1034 45.1897 39.1034C46.8208 39.1034 48.0055 37.8103 48.0055 36.2241C48.0055 34.6379 46.7178 33.2759 45.1897 33.2759C43.6617 33.2759 42.374 34.6207 42.374 36.2241ZM52.1433 33.6207C52.6927 32.8276 53.2765 32.3793 54.0148 32.3793C54.444 32.3793 54.65 32.5172 54.8389 32.6207L54.341 33.4138C54.238 33.3621 54.0491 33.2759 53.8431 33.2759C53.1563 33.2759 52.5554 33.8621 52.2807 34.8621C52.1605 35.3276 52.1261 36.0862 52.1261 37.069V39.8276H51.1475V32.569H52.1261V33.6207H52.1433ZM57.6203 33.8621C58.3758 32.8793 59.2686 32.3793 60.3331 32.3793C61.9127 32.3793 63.0115 33.4655 63.0115 35.7586V39.8276H62.0844V35.8793C62.0844 34.1724 61.5521 33.2241 60.1442 33.2241C59.3716 33.2241 58.7363 33.569 58.2384 34.2069C57.689 34.9138 57.6203 35.6379 57.6203 36.7759V39.8276H56.6932V32.569H57.6203V33.8621ZM66.9433 30.3276C66.9433 30.7586 66.5827 31.1034 66.1707 31.1034C65.7586 31.1034 65.4152 30.7414 65.4152 30.3276C65.4152 29.9138 65.7758 29.569 66.1707 29.569C66.5656 29.569 66.9433 29.9138 66.9433 30.3276ZM65.7071 32.569H66.6342V39.8276H65.7071V32.569ZM76.541 32.569V39.8276H75.631V38.5862C74.8412 39.5517 73.8454 40 72.7122 40C70.6004 40 69.0036 38.2414 69.0036 36.1724C69.0036 34.1034 70.6347 32.3793 72.7294 32.3793C73.8969 32.3793 74.8927 32.8793 75.6138 33.8966V32.569H76.541ZM69.9651 36.2069C69.9651 37.7759 71.1841 39.1552 72.8152 39.1552C74.2918 39.1552 75.6997 38.0345 75.6997 36.2241C75.6997 34.5345 74.4463 33.2759 72.8324 33.2759C71.2185 33.2759 69.9651 34.6379 69.9651 36.2069Z" fill="var(--fill-0, black)"/>
</g>
</svg>
