<svg preserveAspectRatio="none" width="100%" height="100%" overflow="visible" style="display: block;" viewBox="0 0 101 50" fill="none" xmlns="http://www.w3.org/2000/svg">
<g id="Cigna">
<path fill-rule="evenodd" clip-rule="evenodd" d="M55.9656 45.5886C56.9857 45.5886 57.581 46.2261 57.581 47.2065V49.8894H56.5411V47.4976C56.5411 46.8416 56.1879 46.4694 55.5687 46.4694C55.425 46.4669 55.2824 46.493 55.1505 46.5459C55.0186 46.5988 54.9004 46.6772 54.8038 46.776C54.7072 46.8748 54.6344 46.9916 54.5904 47.1186C54.5464 47.2455 54.5321 47.3798 54.5486 47.5123V49.8894H53.5086V44.0665H54.5486V46.3293C54.6941 46.1013 54.9016 45.9128 55.1503 45.7828C55.399 45.6528 55.6802 45.5858 55.9656 45.5886ZM60.804 45.5886C62.2488 45.5886 62.9791 46.6426 62.9791 47.8551C62.9791 47.9435 62.9791 48.032 62.9593 48.1278H59.6252C59.6553 48.4269 59.8072 48.704 60.0499 48.9026C60.2926 49.1012 60.6077 49.2063 60.931 49.1966C61.1626 49.1983 61.3919 49.1545 61.6039 49.0681C61.816 48.9817 62.006 48.8547 62.1615 48.6954L62.7727 49.1966C62.5497 49.4523 62.266 49.6566 61.9437 49.7935C61.6214 49.9303 61.2694 49.9959 60.9152 49.9853C60.6046 49.9941 60.2954 49.9435 60.0068 49.8365C59.7182 49.7295 59.4565 49.5684 59.2379 49.3634C59.0193 49.1584 58.8485 48.9137 58.7363 48.6447C58.624 48.3757 58.5726 48.0881 58.5852 47.7998C58.5681 47.5179 58.6125 47.2357 58.7159 46.9702C58.8192 46.7047 58.9793 46.4613 59.1866 46.2547C59.3939 46.0481 59.644 45.8826 59.922 45.7682C60.1999 45.6537 60.5 45.5926 60.804 45.5886ZM61.9432 47.4866C61.8717 46.8637 61.4788 46.3809 60.7921 46.3809C60.1054 46.3809 59.7085 46.8379 59.6014 47.4866H61.9432ZM62.6537 40.2189C62.6939 40.6109 62.5812 41.0032 62.3361 41.3245H53.0482C52.809 40.991 52.6972 40.5926 52.7307 40.1931C52.7307 39.4044 53.0482 39.3565 53.0482 39.3565H53.5206C53.9333 39.333 54.3226 39.1701 54.615 38.8986C54.9074 38.6271 55.0829 38.2656 55.1082 37.8824V27.7954C55.0829 27.4121 54.9074 27.0507 54.615 26.7792C54.3226 26.5077 53.9333 26.3448 53.5206 26.3212H53.0482C52.8311 26.0321 52.7197 25.6859 52.7307 25.3335C52.7179 24.9839 52.8311 24.6402 53.0522 24.3569C55.2948 24.3569 57.9422 23.4945 58.4662 23.2992C59.26 23.008 59.8911 23.2255 59.8911 23.852C59.8911 24.0842 59.8911 26.0006 59.8911 26.0006C60.6381 24.9734 61.6521 24.1378 62.8391 23.5709C64.0262 23.004 65.348 22.7243 66.6824 22.7574C70.7786 22.7574 73.6126 24.8065 73.6126 29.0226V37.9155C73.638 38.2988 73.8134 38.6602 74.1058 38.9317C74.3982 39.2033 74.7875 39.3661 75.2003 39.3897H75.6726C75.6726 39.3897 75.9862 39.5445 75.9862 40.2889C76.017 40.6681 75.9063 41.0455 75.6726 41.3577H66.3609C66.1382 41.0122 66.0292 40.6138 66.0473 40.2115C66.0473 39.4745 66.3609 39.3897 66.3609 39.3897H66.8332C67.246 39.3661 67.6353 39.2033 67.9277 38.9317C68.2201 38.6602 68.3955 38.2988 68.4209 37.9155V29.1922C68.4209 26.7782 66.8332 25.6836 64.7176 25.6836C62.2369 25.6836 60.3079 27.4748 60.3079 30.4747V37.9045C60.3341 38.2875 60.5098 38.6485 60.802 38.9198C61.0943 39.1912 61.4831 39.3543 61.8955 39.3786H62.3718C62.3718 39.3786 62.6854 39.4266 62.6854 40.23L62.6537 40.2189ZM45.479 24.0915H50.7104C50.9138 24.4296 51.0217 24.81 51.0239 25.1972C51.0363 25.5982 50.9262 25.9943 50.7064 26.3396H47.8406C48.4771 27.305 48.8162 28.414 48.821 29.546C48.821 33.2977 45.213 36.3566 40.3865 36.3566C39.4793 36.3858 38.5741 36.2609 37.7152 35.9881L36.2665 37.8308H43.6611C48.567 37.8308 50.5278 39.9057 50.5278 42.9682C50.5278 47.2654 45.3678 50 39.7752 50C34.1827 50 31.7734 47.8477 31.7734 45.2274C31.7959 44.4356 32.0388 43.6628 32.4784 42.984C32.9179 42.3053 33.5393 41.7437 34.2819 41.354H31.9401C31.6391 41.0228 31.472 40.6044 31.4677 40.171C31.489 39.6795 31.6244 39.198 31.8647 38.7595L35.171 34.9488C34.1871 34.3726 33.374 33.5772 32.8056 32.6349C32.2371 31.6926 31.9314 30.6333 31.9163 29.5533C31.9163 25.7647 35.4885 22.7427 40.3508 22.7427C42.1593 22.7245 43.9343 23.1958 45.4591 24.0989L45.479 24.0915ZM40.3706 34.1011C42.5299 34.1011 43.9429 32.3874 43.9429 29.546C43.9429 26.7045 42.5299 24.9945 40.3706 24.9945C38.2114 24.9945 36.7626 26.7045 36.7626 29.546C36.7626 32.3874 38.1757 34.1011 40.3706 34.1011ZM37.7073 41.3393C37.1213 41.6547 36.6352 42.108 36.2979 42.6534C35.9606 43.1988 35.7842 43.8172 35.7862 44.4461C35.7862 46.3404 37.5128 47.6155 40.5731 47.6155C43.8278 47.6155 45.6338 45.8318 45.6338 44.0849C45.6338 42.6992 44.7328 41.3393 42.1012 41.3393H37.7073ZM17.4009 35.2178C17.7138 35.3185 17.9892 35.5001 18.1948 35.7411C17.1707 38.9585 14.8646 41.8479 9.90313 41.8479C4.60823 41.8479 0 38.262 0 32.5975C0 26.2659 5.23933 22.7574 10.8716 22.7574C12.9514 22.7046 15.0114 23.1448 16.8571 24.0363C16.9264 24.0772 16.988 24.1282 17.0397 24.1874C17.0867 24.2519 17.1191 24.3246 17.135 24.4011L17.3295 29.1922C17.3295 29.1922 17.0675 29.4833 16.0593 29.4833C15.0512 29.4833 15.1345 29.1922 15.1345 29.1922L15.0829 28.5325C15.0829 26.4134 13.2372 25.024 10.8359 25.024C7.00959 25.024 5.35841 28.3777 5.35841 31.8272C5.35841 35.5126 7.72007 38.6268 11.4233 38.6268C13.4714 38.6268 14.7932 37.5433 16.2538 35.192C16.6291 35.0849 17.0317 35.0939 17.4009 35.2178ZM24.4581 21.4528C23.7937 21.4682 23.1394 21.2993 22.5788 20.9676C22.0183 20.636 21.577 20.1567 21.3113 19.5909C21.0456 19.0252 20.9677 18.3988 21.0874 17.7918C21.2071 17.1847 21.519 16.6246 21.9833 16.183C22.4476 15.7414 23.0432 15.4383 23.694 15.3126C24.3447 15.1869 25.021 15.2442 25.6365 15.4772C26.252 15.7101 26.7787 16.1082 27.1492 16.6206C27.5198 17.1329 27.7174 17.7362 27.7169 18.3534C27.7221 18.7555 27.642 19.1548 27.481 19.5282C27.3201 19.9016 27.0815 20.242 26.7789 20.5298C26.4763 20.8176 26.1156 21.0473 25.7174 21.2056C25.3192 21.364 24.8913 21.448 24.4581 21.4528ZM27.058 27.132V37.9045C27.0842 38.2875 27.2599 38.6485 27.5521 38.9198C27.8444 39.1912 28.2332 39.3543 28.6456 39.3786H29.118C29.118 39.3786 29.4315 39.5629 29.4315 40.2705C29.4519 40.651 29.3421 41.0276 29.118 41.3467H19.8142C19.6022 40.9998 19.494 40.6066 19.5006 40.2079C19.5006 39.5187 19.8142 39.375 19.8142 39.375H20.2865C20.6996 39.3522 21.0893 39.1896 21.3819 38.9179C21.6745 38.6462 21.8497 38.2843 21.8742 37.9008V27.132C21.8488 26.7487 21.6734 26.3873 21.381 26.1158C21.0886 25.8443 20.6993 25.6814 20.2865 25.6578H19.8142C19.8142 25.6578 19.5006 25.5178 19.5006 24.8286C19.4949 24.43 19.6031 24.037 19.8142 23.6898H29.11C29.3342 24.0089 29.4439 24.3855 29.4236 24.766C29.4236 25.4736 29.11 25.6578 29.11 25.6578H28.6377C28.2266 25.6839 27.8398 25.8478 27.5491 26.119C27.2585 26.3902 27.084 26.7502 27.058 27.132ZM87.1039 45.6107C88.4415 45.6107 89.0885 46.2667 89.0885 47.3944V49.8931H88.0565V49.3845C87.8771 49.5822 87.6517 49.7393 87.3972 49.844C87.1428 49.9487 86.866 49.9983 86.5879 49.9889C85.7305 49.9889 84.9724 49.5356 84.9724 48.6917V48.6475C84.9724 47.715 85.7663 47.2654 86.8141 47.2654C87.2399 47.2595 87.6637 47.3192 88.0684 47.4423V47.3612C88.0684 46.779 87.6715 46.4583 86.9491 46.4583C86.5009 46.4591 86.0582 46.5496 85.6511 46.7237L85.3693 45.9497C85.9061 45.7037 86.4973 45.5775 87.0959 45.5812L87.1039 45.6107ZM88.0922 48.3637V48.1278C87.7592 48.0142 87.407 47.9568 87.0523 47.9583C86.3974 47.9583 86.0123 48.2052 86.0123 48.6143C86.0123 49.0123 86.4093 49.2371 86.8895 49.2371C87.5762 49.2371 88.0803 48.8686 88.0803 48.3489L88.0922 48.3637ZM91.3747 46.6242C91.4831 46.3159 91.6967 46.0488 91.9832 45.8633C92.2696 45.6778 92.6134 45.5839 92.9624 45.5959V46.6205H92.9029C91.9899 46.6205 91.3549 47.1696 91.3549 48.2863V49.8894H90.3149V45.677H91.3549L91.3747 46.6242ZM99.1543 38.6968C99.1713 39.0012 99.0603 39.2999 98.8447 39.5297L93.4069 41.6857C93.0998 41.7866 92.7681 41.8045 92.4504 41.7373C92.2878 41.7125 92.1387 41.6383 92.0266 41.5262C91.9145 41.4141 91.8457 41.2705 91.8312 41.1182V38.9438C90.3745 40.698 88.5209 41.8331 85.6075 41.8331C80.4872 41.8331 76.3116 38.3578 76.3116 32.4722C76.3116 26.1812 81.1541 22.7427 86.2346 22.7427C87.4533 22.7082 88.664 22.9361 89.772 23.4086C90.88 23.8811 91.8551 24.5854 92.621 25.4662C92.621 25.4662 92.8473 25.7021 93.0418 25.4662L94.7128 23.4392C94.8169 23.3355 94.9579 23.2701 95.1097 23.255H96.3005C96.4139 23.2497 96.5253 23.2849 96.6117 23.3534C96.698 23.422 96.7528 23.5186 96.7649 23.6235V36.504C96.7894 36.8876 96.9645 37.2494 97.2571 37.5211C97.5497 37.7928 97.9395 37.9554 98.3526 37.9782H98.8328C98.9472 38.067 99.0358 38.1809 99.0906 38.3097C99.1454 38.4384 99.1645 38.5779 99.1464 38.7153L99.1543 38.6968ZM86.6276 39.4339C90.1363 39.4339 91.593 36.2166 91.593 32.3026C91.593 28.3887 90.1324 25.1714 86.6276 25.1714C83.1228 25.1714 81.6661 28.3887 81.6661 32.3026C81.6661 36.2166 83.1228 39.4339 86.6276 39.4339ZM99.0353 46.4067C99.1248 46.4225 99.2099 46.4551 99.2853 46.5025C99.3271 46.5353 99.36 46.5767 99.3813 46.6235C99.4027 46.6702 99.412 46.7209 99.4084 46.7716C99.411 46.8291 99.3991 46.8864 99.3736 46.9389C99.3481 46.9914 99.3097 47.0376 99.2615 47.0738C99.136 47.1535 98.9839 47.1888 98.8328 47.1733C98.6772 47.1806 98.5234 47.139 98.3962 47.0554C98.3444 47.0165 98.3031 46.9669 98.2756 46.9106C98.248 46.8543 98.235 46.7928 98.2375 46.731H98.5232C98.5261 46.7801 98.544 46.8274 98.5748 46.8674C98.6075 46.8959 98.6464 46.9175 98.6888 46.9309C98.7313 46.9442 98.7763 46.949 98.8209 46.9448C98.8774 46.9536 98.9351 46.9536 98.9916 46.9448C99.0283 46.9363 99.0606 46.9162 99.0831 46.8879C99.1055 46.8597 99.1167 46.8251 99.1146 46.79C99.1149 46.77 99.1096 46.7503 99.0992 46.7329C99.0887 46.7154 99.0735 46.7008 99.0551 46.6905C98.9936 46.6616 98.9282 46.6406 98.8606 46.6278L98.7098 46.5984C98.601 46.5805 98.4963 46.5456 98.4002 46.4952C98.3519 46.4634 98.3134 46.4206 98.2883 46.3708C98.2633 46.3211 98.2526 46.2661 98.2573 46.2114C98.2549 46.1557 98.2662 46.1002 98.2903 46.0492C98.3143 45.9981 98.3505 45.9528 98.3962 45.9166C98.5074 45.8316 98.6495 45.7894 98.7931 45.7986C98.9351 45.7927 99.0751 45.8316 99.19 45.9092C99.2421 45.9475 99.2841 45.9963 99.3129 46.0518C99.3418 46.1073 99.3568 46.1682 99.3568 46.2298H99.071C99.0709 46.1948 99.0605 46.1605 99.0409 46.1307C99.0213 46.1008 98.9933 46.0764 98.9598 46.0603C98.9051 46.0371 98.8454 46.0257 98.7852 46.0271C98.7211 46.0258 98.6579 46.0412 98.6026 46.0714C98.5819 46.0845 98.565 46.1021 98.5532 46.1226C98.5415 46.1431 98.5353 46.166 98.5351 46.1893C98.5341 46.2112 98.5399 46.233 98.5519 46.252C98.5639 46.2709 98.5815 46.2863 98.6026 46.2962C98.6625 46.3207 98.7251 46.3392 98.7892 46.3514L99.0353 46.4067ZM100.567 45.8355H101V47.1549H100.722V46.0492L100.452 47.1549H100.166L99.8966 46.0492V47.1549H99.6267V45.8355H100.059L100.317 46.8748L100.567 45.8355ZM65.8449 45.6144C67.1865 45.6144 67.8295 46.2704 67.8295 47.3981V49.8968H66.8015V49.3845C66.6219 49.5819 66.3965 49.7389 66.1421 49.8436C65.8877 49.9483 65.611 49.998 65.3329 49.9889C64.4716 49.9889 63.7134 49.5356 63.7134 48.6917V48.6475C63.7134 47.715 64.5073 47.2654 65.5551 47.2654C65.9809 47.2592 66.4048 47.319 66.8094 47.4423V47.3612C66.8094 46.779 66.4125 46.4583 65.6941 46.4583C65.2459 46.4591 64.8032 46.5496 64.3961 46.7237L64.1143 45.9497C64.6509 45.7033 65.2423 45.5771 65.8409 45.5812L65.8449 45.6144ZM66.8332 48.3674V48.1315C66.5003 48.0176 66.1481 47.9602 65.7933 47.962C65.1423 47.962 64.7573 48.2089 64.7573 48.618C64.7573 49.016 65.1543 49.2408 65.6306 49.2408C66.3172 49.2408 66.8213 48.8723 66.8213 48.3526L66.8332 48.3674ZM95.6972 45.5922C97.1419 45.5922 97.8683 46.6463 97.8683 47.8588C97.8683 47.9472 97.8683 48.0357 97.8683 48.1315H94.5342C94.5634 48.4309 94.7151 48.7085 94.958 48.9073C95.2008 49.1061 95.5165 49.2109 95.8401 49.2003C96.0716 49.2019 96.3009 49.1581 96.513 49.0718C96.725 48.9854 96.915 48.8584 97.0705 48.6991L97.6818 49.2003C97.4586 49.4558 97.1748 49.6599 96.8525 49.7968C96.5303 49.9336 96.1783 49.9993 95.8242 49.9889C95.5136 49.9978 95.2044 49.9471 94.9158 49.8401C94.6273 49.7332 94.3655 49.5721 94.1469 49.3671C93.9283 49.162 93.7576 48.9174 93.6453 48.6484C93.533 48.3794 93.4816 48.0918 93.4943 47.8035C93.4771 47.5216 93.5215 47.2394 93.6249 46.9739C93.7282 46.7084 93.8884 46.465 94.0956 46.2584C94.3029 46.0518 94.5531 45.8863 94.831 45.7718C95.109 45.6574 95.409 45.5963 95.713 45.5922H95.6972ZM96.8482 47.4902C96.7768 46.8674 96.3838 46.3846 95.6932 46.3846C95.0026 46.3846 94.6136 46.8416 94.5024 47.4902H96.8482ZM82.5274 49.1524C82.7547 49.1477 82.9784 49.0983 83.1837 49.0075C83.3889 48.9166 83.5711 48.7864 83.7182 48.6253L84.3453 49.2003C84.0328 49.545 83.6144 49.7929 83.146 49.9108C82.6776 50.0286 82.1816 50.0108 81.7244 49.8597C81.2673 49.7085 80.8707 49.4313 80.5879 49.0652C80.3051 48.699 80.1495 48.2614 80.1419 47.8109C80.1366 47.5213 80.1937 47.2337 80.3097 46.9649C80.4258 46.6961 80.5985 46.4515 80.8178 46.2455C81.037 46.0395 81.2984 45.8763 81.5865 45.7654C81.8747 45.6545 82.1837 45.5981 82.4956 45.5996C82.8384 45.5868 83.1798 45.6464 83.4941 45.7741C83.8083 45.9018 84.0872 46.0942 84.3096 46.3367L83.6665 46.9817C83.5227 46.8172 83.3412 46.6846 83.1352 46.5934C82.9292 46.5023 82.704 46.4548 82.4758 46.4546C82.2947 46.4617 82.1169 46.5021 81.9528 46.5737C81.7887 46.6452 81.6416 46.7463 81.52 46.8712C81.3984 46.9961 81.3049 47.1422 81.2448 47.301C81.1847 47.4598 81.1592 47.6281 81.1699 47.7961V47.8146C81.1625 47.9857 81.1921 48.1566 81.2569 48.3169C81.3217 48.4773 81.4205 48.624 81.5474 48.7484C81.6743 48.8727 81.8268 48.9722 81.9958 49.041C82.1648 49.1097 82.3469 49.1464 82.5314 49.1487L82.5274 49.1524ZM70.1673 44.0665V49.8931H69.1314V44.0628L70.1673 44.0665ZM71.755 44.5235H72.7949V45.677H74.0135V46.5099H72.7949V48.5737C72.7832 48.645 72.7895 48.7178 72.8132 48.7863C72.837 48.8549 72.8777 48.9175 72.932 48.9689C72.9862 49.0204 73.0527 49.0595 73.1261 49.083C73.1994 49.1065 73.2777 49.1139 73.3546 49.1044C73.5782 49.105 73.7987 49.0557 73.9976 48.9607V49.7531C73.7113 49.9002 73.388 49.9739 73.0609 49.9668C72.2948 49.9668 71.755 49.6573 71.755 48.7322V46.521H71.1795V45.6918H71.755V44.5235ZM77.5222 45.5922C78.5423 45.5922 79.1377 46.2298 79.1377 47.2101V49.8931H78.0978V47.5013C78.0978 46.8453 77.7445 46.4731 77.1253 46.4731C76.9813 46.4701 76.8383 46.4958 76.7059 46.5484C76.5735 46.6011 76.4548 46.6794 76.3578 46.7783C76.2608 46.8771 76.1877 46.9941 76.1434 47.1213C76.0992 47.2486 76.0848 47.3832 76.1013 47.516V49.8931H75.0574V44.0702H76.0933V46.333C76.2406 46.1059 76.4491 45.9184 76.6983 45.7892C76.9476 45.6599 77.2288 45.5933 77.5143 45.5959L77.5222 45.5922Z" fill="#0033FF"/>
<path fill-rule="evenodd" clip-rule="evenodd" d="M22.0488 7.76517C22.05 6.83928 22.269 5.92481 22.6907 5.08577C23.1124 4.24672 23.7264 3.50339 24.4899 2.90779C25.2498 3.50687 25.8598 4.25262 26.2774 5.09306C26.695 5.9335 26.9102 6.8484 26.908 7.77398C26.9057 8.69956 26.686 9.61355 26.2643 10.4522C25.8426 11.2909 25.2289 12.0341 24.4661 12.6299C23.7063 12.0311 23.0965 11.2856 22.679 10.4454C22.2615 9.60515 22.0464 8.69048 22.0488 7.76517ZM29.4355 2.78249C29.145 3.42928 29.0101 4.12717 29.0403 4.82739C29.0705 5.5276 29.265 6.21326 29.6102 6.83644C30.3293 6.62289 30.9899 6.26668 31.5461 5.79249C32.1022 5.31831 32.5407 4.7375 32.8311 4.09033C33.1214 3.44315 33.2567 2.74508 33.2276 2.04452C33.1985 1.34395 33.0057 0.657647 32.6625 0.0331687C31.9413 0.245462 31.2789 0.60152 30.7215 1.07642C30.1641 1.55133 29.7252 2.1336 29.4355 2.78249ZM16.1149 4.05395C16.4035 4.70346 16.8409 5.28684 17.3968 5.76353C17.9527 6.24022 18.6137 6.59879 19.3339 6.81433C19.6797 6.19081 19.8752 5.50491 19.907 4.80422C19.9387 4.10353 19.8059 3.40481 19.5178 2.75652C19.2297 2.10824 18.7931 1.5259 18.2384 1.04991C17.6837 0.573923 17.0241 0.215669 16.3054 0C15.9585 0.622328 15.7617 1.30737 15.7288 2.00747C15.6959 2.70758 15.8276 3.40593 16.1149 4.05395ZM7.67244 13.7171C8.36947 13.9851 9.12086 14.1094 9.87469 14.0814C10.6285 14.0534 11.3668 13.8738 12.0386 13.555C11.8098 12.8855 11.4266 12.2704 10.9156 11.7525C10.4047 11.2346 9.77824 10.8263 9.07999 10.5562C8.38174 10.2861 7.62845 10.1605 6.87261 10.1883C6.11676 10.2161 5.37654 10.3966 4.70349 10.7172C4.9337 11.3876 5.3186 12.0033 5.83136 12.5214C6.34413 13.0395 6.97242 13.4476 7.67244 13.7171ZM39.8229 10.6214C39.1232 10.888 38.4947 11.2933 37.9812 11.8089C37.4677 12.3246 37.0816 12.938 36.85 13.6065C37.5216 13.9303 38.2612 14.1141 39.0173 14.1452C39.7733 14.1763 40.5275 14.0538 41.2274 13.7865C41.9272 13.5191 42.5558 13.1132 43.0694 12.5971C43.5829 12.081 43.9691 11.4671 44.2009 10.7983C43.5306 10.4761 42.7929 10.2934 42.0388 10.2628C41.2848 10.2323 40.5327 10.3546 39.8348 10.6214H39.8229ZM35.8537 16.1274C34.8561 16.1245 33.8698 16.3243 32.9641 16.7126C32.0584 17.101 31.255 17.6685 30.6104 18.3755C31.2542 19.0825 32.0564 19.6506 32.9609 20.0403C33.8654 20.43 34.8506 20.6319 35.8477 20.6319C36.8449 20.6319 37.83 20.43 38.7346 20.0403C39.6391 19.6506 40.4412 19.0825 41.0851 18.3755C40.4407 17.6692 39.638 17.1021 38.733 16.7138C37.828 16.3255 36.8427 16.1253 35.8457 16.1274H35.8537ZM30.8128 9.29461C30.1079 9.94864 29.5651 10.7376 29.2223 11.6064C28.8795 12.4753 28.7451 13.4031 28.8282 14.3252C29.8206 14.402 30.8191 14.2773 31.7543 13.9599C32.6896 13.6425 33.5393 13.1398 34.2443 12.4869C34.9494 11.834 35.493 11.0464 35.8374 10.1789C36.1818 9.31133 36.3187 8.38458 36.2387 7.46296C35.2452 7.38271 34.2448 7.50507 33.3075 7.82146C32.3703 8.13785 31.5188 8.64064 30.8128 9.29461ZM13.0983 16.1274C12.0999 16.1278 11.1136 16.331 10.2086 16.7225C9.30359 17.114 8.50167 17.6844 7.85899 18.3939C8.50285 19.1009 9.30498 19.669 10.2095 20.0587C11.114 20.4484 12.0992 20.6503 13.0963 20.6503C14.0935 20.6503 15.0787 20.4484 15.9832 20.0587C16.8877 19.669 17.6898 19.1009 18.3337 18.3939C17.692 17.6843 16.8908 17.1138 15.9864 16.7222C15.082 16.3307 14.0962 16.1276 13.0983 16.1274ZM18.1233 9.29461C17.4182 8.63886 16.5672 8.13416 15.63 7.81585C14.6927 7.49755 13.6918 7.37333 12.6974 7.45191C12.6172 8.37453 12.7543 9.30231 13.0994 10.1707C13.4445 11.0391 13.9892 11.8273 14.6956 12.4804C15.402 13.1335 16.2532 13.6359 17.19 13.9526C18.1267 14.2693 19.1265 14.3926 20.1198 14.3141C20.2 13.393 20.0628 12.4667 19.718 11.5998C19.3732 10.7329 18.829 9.94627 18.1233 9.29461Z" fill="var(--fill-0, #03CC54)"/>
</g>
</svg>
