<svg preserveAspectRatio="none" width="100%" height="100%" overflow="visible" style="display: block;" viewBox="0 0 166 26" fill="none" xmlns="http://www.w3.org/2000/svg">
<g id="Vector">
<path d="M18.9851 7.10962C19.1687 9.19171 19.2479 11.2449 19.2479 13.3523V13.8286C20.2916 14.0271 21.3894 14.2255 22.5411 14.4132C22.5411 9.69329 22.6455 8.55301 22.7787 7.10962H18.9851Z" fill="black"/>
<path d="M22.5411 16.968C21.4038 16.8236 20.306 16.6757 19.2479 16.5314C19.2335 19.5661 19.1687 22.6008 19.0103 25.65H22.7787C22.6455 23.954 22.5411 22.7343 22.5411 19.2485V16.968Z" fill="black"/>
<path d="M35.1778 7.10962H31.3303C31.4346 9.11233 31.4634 9.32162 31.4634 10.1588C31.4886 10.8336 31.5174 14.1101 31.5174 14.8101V16.535L31.4922 20.8832C31.4922 21.8755 31.3087 25.152 31.2799 25.6428H35.0734C34.8106 23.6942 34.8106 21.4028 34.8106 19.2666C34.8106 16.4556 34.8358 9.92063 35.1957 7.11323H35.1814L35.1778 7.10962Z" fill="black"/>
<path d="M39.6083 7.10962H43.4306C43.1391 9.11233 43.1391 13.7781 43.1391 16.5061C43.1391 20.5368 43.1931 23.4524 43.4018 25.6392H39.5795C39.8711 22.4168 39.8711 17.9639 39.8711 13.3523C39.8711 11.6563 39.8711 9.73298 39.6083 7.10962Z" fill="black"/>
<path d="M57.0858 6.88229C59.2921 6.88229 61.2357 7.26839 63.3916 8.23547L62.5854 10.8877H62.3226C62.0059 10.2382 61.0521 8.34372 57.1794 8.34372C52.6841 8.34372 50.2798 11.3135 50.2798 16.4159C50.2798 18.4691 50.6649 20.4177 51.9174 22.0632C52.882 23.3369 54.3361 24.5169 56.7943 24.5169C58.0648 24.5169 59.5441 24.2535 60.6166 23.5498C60.6958 21.6554 60.6958 21.4425 60.6958 21.0961C60.6958 19.7718 60.6166 18.4438 60.5374 17.1195H64.1474C63.989 18.0866 63.935 20.9229 63.935 21.6518C63.935 22.673 63.9602 23.3478 64.0142 24.1055C61.7288 25.3252 58.7918 26 56.2004 26C50.9529 26 46.5763 22.7271 46.5763 16.654C46.5763 11.2197 49.8947 6.87146 57.0858 6.87146V6.8859V6.88229Z" fill="black"/>
<path d="M80.3544 16.5314C78.9003 16.4772 77.4463 16.4267 75.9922 16.4267C74.459 16.4267 72.9257 16.4808 71.3781 16.5314V19.2341C71.3781 22.7199 71.4825 23.9396 71.6156 25.6355H67.8473C68.0597 21.5255 68.0849 17.4443 68.0849 13.3487C68.0849 11.2413 68.0057 9.1881 67.8221 7.10601H71.6156C71.4825 8.5891 71.3781 9.75824 71.3781 14.8065C72.7278 14.8606 74.1027 14.9111 75.4488 14.9111C77.0864 14.9111 78.7132 14.857 80.3544 14.8065C80.3544 14.1029 80.3292 10.83 80.3004 10.1552C80.3004 9.32162 80.2752 9.10872 80.1673 7.10601H84.0147C83.6728 9.91702 83.6296 16.452 83.6296 19.2594C83.6296 21.392 83.6296 23.687 83.8924 25.6355H80.0989C80.1241 25.1448 80.3112 21.8827 80.3112 20.876L80.3364 16.5277H80.3508L80.3544 16.5314Z" fill="black"/>
<path d="M91.8573 8.80561C93.6425 12.4502 94.3947 13.8827 96.9465 18.4799L98.4006 21.078L99.3904 19.3135C101.928 14.8606 103.105 12.6053 105.854 7.10601H107.017L107.229 9.34688C107.521 12.5404 107.877 15.5102 108.313 18.7434C108.525 20.3599 109.094 24.2824 109.396 25.6355H105.628L105.549 24.6432C105.495 24.0983 105.365 21.7023 105.311 21.2115C105.178 19.9666 104.53 14.5034 104.451 13.3775C102.64 16.452 99.6243 21.9657 98.0371 25.6392H96.9933C95.9748 23.5859 95.3017 22.4457 93.279 18.5341C92.8687 17.751 90.9647 14.3446 90.5832 13.6446C90.0937 17.4227 89.6438 21.5832 89.4459 25.6392H87.0776L87.236 24.8056C87.8838 21.4533 89.4963 10.2382 89.8274 7.10962H91.0439L91.8753 8.80561H91.8501H91.8573Z" fill="black"/>
<path d="M122.871 22.6441L121.734 19.7826C120.571 19.7285 119.448 19.6779 118.282 19.6779C117.199 19.6779 116.126 19.7321 115.043 19.7826C114.183 21.8647 113.323 24.1019 112.887 25.6428H110.375L113.495 18.6712C116.22 12.562 117.778 9.04737 118.426 6.83538H120.186C121.482 10.5341 123.094 14.323 124.073 16.5927C125.092 18.9382 126.877 23.023 128.094 25.6464H123.994L122.857 22.6513H122.871V22.6441ZM118.43 11.4542L115.68 18.0938C116.62 18.1191 117.545 18.1985 118.484 18.1985C119.315 18.1985 120.122 18.1443 120.971 18.0938L118.434 11.4542H118.43Z" fill="black"/>
<path d="M138.499 17.5381C138.909 18.1083 139.489 18.9959 139.899 19.5661C142.026 22.5611 142.753 23.5174 144.448 25.65H139.859C139.449 25.0257 138.866 24.0334 138.459 23.4091C137.084 21.2765 135.418 18.9021 133.964 16.8489H133.316V20.6811C133.316 21.4641 133.424 24.9499 133.424 25.65H129.764C129.976 20.3203 130.001 19.7393 130.001 14.5142C130.001 10.9743 130.001 10.5918 129.818 7.10601H136.958C138.704 7.10601 140.025 7.31891 141.187 8.43032C141.994 9.21336 142.429 10.3248 142.429 11.4542C142.429 14.4493 140.194 15.9865 137.736 16.452L138.492 17.5381H138.506H138.499ZM133.33 15.5643C133.845 15.5895 134.493 15.6437 135.195 15.6437C137.891 15.6437 138.884 13.6698 138.884 11.9197C138.884 10.7794 138.7 9.81237 137.747 9.10872C137.02 8.56384 136.134 8.43393 135.234 8.43393C134.72 8.43393 133.726 8.53858 133.316 8.56745V15.5643H133.33Z" fill="black"/>
<path d="M146.59 7.10962H150.358C150.175 8.43393 150.175 10.4114 150.146 11.3785C150.121 12.7316 150.121 14.2688 150.121 15.6725C152.118 13.9224 153.187 12.7821 154.735 11.1114C155.926 9.81237 157.38 8.2499 158.186 7.10962H161.253C159.878 8.27516 157.988 10.0794 156.862 11.1908C155.512 12.5151 155.077 12.9157 153.122 15.088L154.551 16.9824C155.926 18.7975 159.799 23.9287 161.688 25.65H156.995C155.077 22.9472 152.975 19.9775 150.121 16.8092C150.121 19.779 150.121 22.774 150.358 25.65H146.59C146.827 21.0889 146.827 20.7858 146.827 13.3631C146.827 10.2887 146.802 9.8232 146.59 7.12045V7.10601V7.10962Z" fill="black"/>
<path d="M164.571 25.5598C163.869 25.5598 163.369 25.0546 163.369 24.3545C163.369 23.6545 163.873 23.1493 164.571 23.1493C165.269 23.1493 165.759 23.6545 165.759 24.3545C165.759 25.0546 165.255 25.5598 164.571 25.5598ZM164.571 22.922C163.776 22.922 163.142 23.5715 163.142 24.3545C163.142 25.1376 163.79 25.7871 164.571 25.7871C165.352 25.7871 166 25.152 166 24.3545C166 23.5571 165.367 22.922 164.571 22.922Z" fill="black"/>
<path d="M164.528 24.2463H164.236V23.7158H164.686C164.884 23.7158 165.068 23.7411 165.068 23.9684C165.068 24.2715 164.751 24.2318 164.524 24.2318M165.309 23.9684C165.309 23.6761 165.165 23.5174 164.74 23.5174H164.038V25.1484H164.251V24.4195H164.607L165.068 25.1484H165.305L164.816 24.4195C165.107 24.3942 165.32 24.2751 165.32 23.9684" fill="black"/>
<path d="M80.0485 0.758701C67.6746 -0.0640315 53.8718 -0.222804 41.156 0.307642C29.4011 0.798395 19.2875 1.81959 11.9236 3.26298C4.46613 4.73524 0.460263 6.49979 0.0391609 8.51332C-0.21278 9.70773 0.751795 10.8444 2.90769 11.9053C7.5758 14.1967 17.729 16.0947 31.503 17.2747H31.5282V16.2282C20.7127 15.0483 12.9278 13.4172 9.01187 11.4975C7.79535 10.9021 6.39528 10 6.59323 9.03294C7.18709 6.18224 20.0649 2.60263 46.929 1.47679C57.7301 1.02573 69.1538 1.06542 80.0053 1.59587C80.2428 1.59587 80.43 1.42266 80.4408 1.19894C80.4408 0.97521 80.2824 0.773135 80.0449 0.76231L80.0485 0.758701Z" fill="var(--fill-0, #00A2E2)"/>
</g>
</svg>
