<svg preserveAspectRatio="none" width="100%" height="100%" overflow="visible" style="display: block;" viewBox="0 0 149 40" fill="none" xmlns="http://www.w3.org/2000/svg">
<g id="Vector">
<path fill-rule="evenodd" clip-rule="evenodd" d="M26.9822 12.0891C26.4942 11.6841 25.9252 11.2778 25.3575 11.1158L24.383 30.1842L29.0947 17.0395C29.5827 15.0091 28.4459 13.3055 26.9835 12.0891H26.9822ZM19.1833 10.9524L21.946 29.9399L24.7087 10.9524C23.0841 10.3854 20.9728 10.3044 19.1846 10.9524H19.1833ZM16.9085 12.0891C15.365 13.3068 14.3093 15.0105 14.7148 16.9585L19.4266 30.1032L18.5332 11.1158C17.9641 11.2778 17.314 11.6841 16.9085 12.0891ZM7.3228 13.8738C10.491 19.3912 13.7403 25.3946 16.8274 30.6689C15.7705 26.0452 14.6337 18.3368 13.0104 16.1458C11.1411 13.5498 7.3228 13.8751 7.3228 13.8751V13.8738ZM1.71761 16.6331L14.6337 31.6436L6.67267 13.9548C4.56142 14.0358 2.77324 15.0915 1.71761 16.6318V16.6331ZM28.769 20.6898L26.6578 30.9929C29.4205 26.2072 32.1819 21.5012 34.8621 16.6331C32.2616 16.8761 29.6624 17.8495 28.769 20.6898ZM35.5934 16.6331L28.769 31.8866L40.793 18.8242C39.4117 17.3635 37.6235 16.7155 35.5934 16.6331ZM0.0118562 23.4479C4.23702 26.6932 8.45952 30.0209 12.6847 33.265L1.31211 17.2001C0.255155 18.9862 -0.0692435 21.0948 0.0118562 23.4479ZM42.2542 20.6898C42.0042 20.1813 41.6758 19.7152 41.2796 19.3102L30.8816 33.427C34.9552 30.402 38.9636 27.2908 42.9056 24.0959C42.9867 22.8795 42.8245 21.6632 42.2555 20.6898H42.2542ZM0.0929559 30.0209L11.06 35.0496C7.4039 31.3993 3.74776 27.9096 0.0929559 24.3402V30.0209ZM42.9043 30.3449V25.1515L32.5063 35.2953C36.08 33.67 39.3306 32.0473 42.9043 30.3449ZM0.0118562 35.0496C3.34226 35.78 6.9984 36.6736 10.0044 37.323L0.0118562 30.7499V35.0496ZM42.9043 35.294V31.3183C39.8172 33.346 36.5679 35.375 33.7241 37.4027L42.9043 35.294ZM0.0118562 40H9.75978L0.0118562 35.8623V40ZM42.9043 40V36.1863C39.7361 37.566 36.9734 38.7027 33.9687 40H42.9043Z" fill="var(--fill-0, #367CA8)"/>
<path fill-rule="evenodd" clip-rule="evenodd" d="M39.5739 11.6018C39.7361 5.84138 31.1262 5.76038 31.2884 11.6018C31.2073 16.9571 39.8185 17.2001 39.5739 11.6018ZM11.871 8.60074C12.1157 2.75935 3.09763 3.00236 3.42336 8.60074C3.09896 14.4421 12.4401 14.5245 11.871 8.60074ZM21.9447 9.73608C25.3562 9.81708 26.6564 7.38306 26.7375 5.03004C26.8997 1.46068 24.6263 0 21.9447 0C19.2631 0 17.1518 1.54168 17.2329 5.03004C17.314 6.97806 18.1263 9.65508 21.9447 9.73608ZM70.8491 23.2049H72.7171V12.4131H70.8491V23.2049ZM67.2754 20.1215L68.3324 23.2049H70.2814L66.5442 12.4131H64.1896L61.0214 21.5822L57.9343 17.6875L62.0771 12.4144H59.8834L56.0651 17.5255V12.4144H54.1971V23.2062H56.0651V17.9318L60.0456 23.2062H62.2393L63.2962 20.1228H67.2781L67.2754 20.1215ZM65.2439 14.1168L66.7875 18.5798H63.7815L65.2439 14.1168ZM84.4154 36.9976L82.5474 29.1272H79.2157V40H81.085V30.7499L83.4409 40H85.3899L87.7458 30.7499V40H89.5326V29.1272H86.3658L84.4154 36.9976ZM94.2457 29.1272L90.5085 40H92.3765L93.351 36.837H97.3315L98.3885 40H100.338L96.6003 29.1272H94.2457ZM93.8389 35.3763L95.3014 30.8323L96.8449 35.3763H93.8389ZM107.974 37.4837L103.669 29.1272H101.15V40H102.937V31.8056L107.242 40H109.761V29.1272H107.974V37.4837ZM143.556 38.3773H139.087V35.375H142.337V33.751H139.087V30.7486H143.149V29.1259H137.218V39.9987H143.556V38.376V38.3773ZM126.414 29.1272H126.09V37.5647L121.785 29.1272H119.266V38.3773H113.579V35.375H116.91V33.751H113.579V30.7486H117.641V29.1259H111.71V39.9987H121.053V31.7233L125.359 39.9987H127.876V30.7486H131.207V39.9987H133.075V30.7486H136.326L136.245 29.1259H126.414V29.1272ZM76.5354 34.5636C77.1058 33.9966 77.5924 33.265 77.5924 32.2106C77.5924 31.2373 77.1058 30.4259 76.5354 29.9399C75.8866 29.3703 74.9919 29.1272 73.3685 29.1272H70.2814V38.3773H64.514V35.375H67.8445V33.751H64.514V30.7486H68.5757V29.1259H62.6448V39.9987H72.1494V35.375H73.0428C73.9376 36.7546 75.8055 39.9987 75.8055 39.9987H77.9992L75.073 35.2116C75.7231 35.1306 76.1299 34.8876 76.5341 34.5636H76.5354ZM72.1494 33.8346V30.7499H73.6929C75.1567 30.7499 75.7244 31.3196 75.7244 32.2106C75.7244 33.2663 75.1567 33.8346 73.6929 33.8346H72.1494ZM91.6466 18.6608H92.6198C93.4334 19.9595 95.3 23.2049 95.3 23.2049H97.4937L94.5701 18.4975C95.2189 18.3355 95.7082 18.0925 96.0326 17.7672C96.6003 17.2798 97.0895 16.4685 97.0895 15.4951C97.0895 14.4408 96.6827 13.7105 96.0326 13.2231C95.3811 12.6548 94.489 12.4118 92.9455 12.4118H89.7759V21.6619H84.0086V18.5785H87.3403V17.0368H84.0086V13.9535H88.1513V12.4118H82.2217V23.2035H91.6452V18.6582L91.6466 18.6608ZM91.6466 13.9548H93.2712C94.6526 13.9548 95.2203 14.5231 95.2203 15.4965C95.2203 16.5521 94.6526 17.0381 93.2712 17.0381H91.6466V13.9548ZM60.4511 29.9399C59.801 29.3703 58.9075 29.1272 57.364 29.1272H54.1958V40H56.0637V35.537H57.364C58.9075 35.537 59.801 35.294 60.4511 34.7243C61.0188 34.1573 61.5067 33.3446 61.5067 32.2903C61.5187 31.39 61.1318 30.5295 60.4511 29.9386V29.9399ZM57.6073 33.9156H56.0637V30.7499H57.6073C59.0697 30.7499 59.6388 31.4006 59.6388 32.2916C59.6388 33.265 58.9886 33.9156 57.6073 33.9156ZM81.0039 20.1215C81.0039 18.5798 80.0294 17.6065 78.1601 16.8761C76.6976 16.3888 75.9664 15.9838 75.9664 15.0915C75.9664 14.4421 76.6178 13.7118 77.9979 13.7118C78.89 13.7118 79.8658 14.0358 80.2713 14.2801V12.7384C79.8658 12.4954 78.89 12.2511 77.9979 12.2511C75.642 12.2511 74.0984 13.5498 74.0984 15.2535C74.0984 16.9571 75.3176 17.7685 77.1045 18.4178C78.4858 18.9052 79.1346 19.3912 79.1346 20.2835C79.1346 21.1758 78.3236 21.8252 77.0234 21.8252C76.0488 21.8252 74.7472 21.4999 74.0998 21.0125V22.7162C74.6675 23.0402 75.8055 23.3669 76.9436 23.3669C79.7063 23.3669 81.0052 21.8252 81.0052 20.1215H81.0039ZM144.856 37.7267C144.856 36.6736 145.67 35.861 146.724 35.861C147.778 35.861 148.593 36.6736 148.593 37.7267C148.609 38.7412 147.799 39.5777 146.784 39.5937C146.764 39.5937 146.744 39.5937 146.724 39.5937C145.67 39.5937 144.856 38.7823 144.856 37.7267ZM146.724 40C147.943 40 149 39.0267 149 37.7267C149 36.4267 147.943 35.456 146.724 35.456C145.505 35.456 144.45 36.428 144.45 37.7267C144.45 39.0253 145.506 40 146.724 40ZM146.237 37.89H146.724L147.375 39.0267H147.862L147.048 37.89C147.455 37.809 147.78 37.647 147.78 37.161C147.78 36.675 147.455 36.4306 146.805 36.4306H145.832V39.0267H146.237V37.89ZM146.237 37.566V36.756H146.805C147.048 36.756 147.375 36.837 147.375 37.161C147.375 37.566 147.048 37.566 146.724 37.566H146.237Z" fill="var(--fill-0, #367CA8)"/>
</g>
</svg>
